<svg width="624" height="946" viewBox="0 0 624 946" fill="none" xmlns="http://www.w3.org/2000/svg">
<g clip-path="url(#clip0_59_319)">
<path d="M457.681 890.743L452.006 887.511H442.407L443.325 882.204L437.982 879.499L426.909 881.136L430.67 874.711L421.165 870.547L413.027 863.443L390.83 877.093L402.997 889.041L426.909 900.674L454.454 906.836L457.681 890.743Z" fill="white"/>
<path d="M237.167 865.414L233.292 868.134L224.008 872.019L219.057 875.463L207.973 883.459L193.528 891.02L191.678 906.836L237.167 904.477L259.819 878.5L251.913 869.089L237.167 865.414Z" fill="white"/>
<path d="M341.664 1.10401C342.799 0.726015 343.965 0.884018 344.986 1.50102L359.916 12.628L347.296 29.894L330.09 18.341C329.617 16.757 340.669 1.43501 341.665 1.10301L341.664 1.10401ZM354.999 13.013C350.251 11.985 346.734 8.31302 343.5 5.01802L334.939 17.44L346.985 25.999L354.999 13.012V13.013Z" fill="black"/>
<path d="M23.6504 280.203C23.6504 286.635 18.4364 291.849 12.0044 291.849C5.57239 291.849 0.358398 286.635 0.358398 280.203C0.358398 273.771 5.57239 268.557 12.0044 268.557C18.4364 268.557 23.6504 273.771 23.6504 280.203ZM20.0114 280.173C20.0114 275.751 16.4264 272.166 12.0044 272.166C7.58239 272.166 3.99739 275.751 3.99739 280.173C3.99739 284.595 7.58239 288.18 12.0044 288.18C16.4264 288.18 20.0114 284.595 20.0114 280.173Z" fill="black"/>
<path d="M575.39 211.404C575.39 217.07 570.797 221.663 565.131 221.663C559.465 221.663 554.872 217.07 554.872 211.404C554.872 205.738 559.465 201.145 565.131 201.145C570.797 201.145 575.39 205.738 575.39 211.404ZM571.817 211.502C571.817 207.882 568.883 204.948 565.263 204.948C561.643 204.948 558.709 207.882 558.709 211.502C558.709 215.122 561.643 218.056 565.263 218.056C568.883 218.056 571.817 215.122 571.817 211.502Z" fill="black"/>
<path d="M186.693 482.689C177.368 491.347 163.445 477.015 172.32 467.315C180.67 458.188 196.841 473.267 186.693 482.689ZM186.284 475.021C186.284 471.369 183.323 468.408 179.671 468.408C176.019 468.408 173.058 471.369 173.058 475.021C173.058 478.673 176.019 481.634 179.671 481.634C183.323 481.634 186.284 478.673 186.284 475.021Z" fill="black"/>
<path d="M472.294 466.789C472.294 471.867 468.177 475.984 463.099 475.984C458.021 475.984 453.904 471.867 453.904 466.789C453.904 461.711 458.021 457.594 463.099 457.594C468.177 457.594 472.294 461.711 472.294 466.789ZM468.882 466.699C468.882 463.611 466.379 461.108 463.291 461.108C460.203 461.108 457.7 463.611 457.7 466.699C457.7 469.787 460.203 472.29 463.291 472.29C466.379 472.29 468.882 469.787 468.882 466.699Z" fill="black"/>
<path d="M167.921 399.064L171.012 412.998L173.924 408.618L176.995 408.005C178.529 409.517 173.362 418.677 171.342 419.911C168.601 420.73 161.41 414.029 160.984 411.511C160.183 406.78 167.192 413.831 167.996 412.993C167.536 408.978 165.166 404.463 164.987 400.493C164.876 398.043 166.195 399.042 167.921 399.062V399.064Z" fill="black"/>
<path d="M408.5 940H427.5L428.996 942.486L426.5 945H406.5L405.001 942.511L408.5 940Z" fill="black"/>
<path d="M303.312 214.498C303.312 218.261 300.262 221.311 296.499 221.311C292.736 221.311 289.686 218.261 289.686 214.498C289.686 210.735 292.736 207.685 296.499 207.685C300.262 207.685 303.312 210.735 303.312 214.498ZM299.833 214.348C299.833 212.507 298.341 211.015 296.5 211.015C294.659 211.015 293.167 212.507 293.167 214.348C293.167 216.189 294.659 217.681 296.5 217.681C298.341 217.681 299.833 216.189 299.833 214.348Z" fill="black"/>
<path d="M450 930L449.831 933.843C448.749 933.762 447.024 935 446.5 935H428.5C426.379 933.454 426.379 931.546 428.5 930H450Z" fill="black"/>
<path d="M45.958 156.037C45.958 159.742 42.955 162.745 39.25 162.745C35.545 162.745 32.542 159.742 32.542 156.037C32.542 152.332 35.545 149.329 39.25 149.329C42.955 149.329 45.958 152.332 45.958 156.037ZM42.416 156C42.416 154.211 40.966 152.761 39.177 152.761C37.388 152.761 35.938 154.211 35.938 156C35.938 157.789 37.388 159.239 39.177 159.239C40.966 159.239 42.416 157.789 42.416 156Z" fill="black"/>
<path d="M305.893 940.109L305.943 943.938C302.575 944.849 284.644 946.292 283.957 943.369L283.994 940.005L305.892 940.11L305.893 940.109Z" fill="black"/>
<path d="M247.5 934L246.005 930.007C246.975 930.286 248.141 929 248.5 929H266.5C268.621 930.546 268.621 932.454 266.5 934H247.5Z" fill="black"/>
<path d="M268 939L267.96 941.46C267.719 942.065 264.884 944 264.5 944H246L245.051 941.487C245.065 941.106 248.107 939 248.5 939H268Z" fill="black"/>
<path d="M326.8 929.301C330.8 928.912 337.845 927.383 338.994 932.485C338.545 934.767 319.375 936.767 317.019 932.5L318.449 930.95C319.965 929.907 324.66 929.51 326.799 929.302L326.8 929.301Z" fill="black"/>
<path d="M196.5 939L197.996 942.989C191.13 944.048 183.827 946.223 177.004 943.99C175.976 942.537 180.674 939.001 181.5 939.001L196.5 939Z" fill="black"/>
<path d="M231 940L231.957 942.51C231.859 945.583 213.32 946.002 209.999 944.989C208.86 942.467 212.731 939.999 214.5 939.999L231 940Z" fill="black"/>
<path d="M373.5 945L371.989 942.5L372.981 940.484L392.02 940.481L392.992 943.988C392.028 943.726 390.859 945.001 390.5 945.001L373.5 945Z" fill="black"/>
<path d="M280.5 934C275.45 929.822 288.135 927.974 290.507 927.921C292.337 927.881 299.578 928.793 299.995 930.514C300.424 932.211 296.154 933.999 295.5 933.999L280.5 934Z" fill="black"/>
<path d="M393.003 932.012C399.036 929.717 405.704 929.304 412.023 930.477L412.992 933.492C412.198 935.872 393.127 938.46 393.003 932.012Z" fill="black"/>
<path d="M501.001 939.01C501.055 940.564 501.393 941.412 499.974 942.474C497.545 944.291 481.563 945.11 481.005 942.485C481.556 937.238 499.711 937.451 501.001 939.01Z" fill="black"/>
<path d="M373.5 930C374.493 930.209 377.988 932.69 376.995 933.99L356.713 933.787L355.005 932.485L356.5 930C361.488 930.708 368.899 929.031 373.5 930Z" fill="black"/>
<path d="M154.996 911.985L137.588 912.066L137.033 909.534C138.511 906.167 156.362 904.925 154.996 911.985Z" fill="black"/>
<path d="M523.112 923.898L523.144 920.14C524.193 918.399 538.911 918.08 540.995 921.514C542.123 926.267 526.073 925.371 523.112 923.898Z" fill="black"/>
<path d="M484.5 929C484.797 929.045 487.024 930.143 487.013 930.512L484.5 934H467L467.166 930.173C467.891 930.026 469.137 929 469.5 929C473.94 929 480.437 928.387 484.5 929Z" fill="black"/>
<path d="M333.001 923.99C329.917 924.968 312.984 926.539 313.019 922.5C314.04 921.268 314.843 920.343 316.525 920.025C318.96 919.566 330.271 919.124 331.964 920.535C333.34 921.682 333.095 922.361 333 923.99H333.001Z" fill="black"/>
<path d="M118.5 919L120.699 921.472L119.835 923.864L102.972 923.528L103.5 919H118.5Z" fill="black"/>
<path d="M187.5 929L188.996 932.988C186.227 934.055 171.885 935.256 171.016 932.483L172.5 929H187.5Z" fill="black"/>
<path d="M224.997 932.986C219.471 935.441 213.415 935.879 207.587 934.065L207.007 931.508C208.5 928.076 228.119 928.829 224.997 932.986Z" fill="black"/>
<path d="M508.001 920.01L507.002 923.503C504.485 925.971 491.016 925.797 491.019 922.5C495.282 917.876 502.391 918.747 508.001 920.01Z" fill="black"/>
<path d="M447 944C446.715 937.321 453.532 940.115 457.448 940.047C460.877 939.987 464.092 936.994 466.981 941.501L464.5 944.001L447 944Z" fill="black"/>
<path d="M338.5 943L337.004 940.513C337.677 937.659 354.117 936.261 354.996 940.514L353.501 942.999H338.501L338.5 943Z" fill="black"/>
<path d="M151.113 942.888L151.117 939.109C154.116 937.803 166.146 936.908 166.997 940.512C168.013 944.816 153.738 944.088 151.113 942.888Z" fill="black"/>
<path d="M313.663 910.163C316.18 910.285 329.93 908.427 328.997 912.488C326.201 916.405 306.834 916.889 313.663 910.163Z" fill="black"/>
<path d="M137.242 930.227C139.408 928.322 154.019 927.086 152.997 931.487C152.204 934.901 136.222 934.924 136.027 932.505L137.243 930.227H137.242Z" fill="black"/>
<path d="M515.996 932.985C513.462 934.035 498.055 935.643 499.003 931.513C500.874 928.065 514.302 928.237 515.555 929.945L515.996 932.985Z" fill="black"/>
<path d="M165 918L163.998 921.498C161.792 923.659 148.505 923.888 148.005 921.484L150.5 918H165Z" fill="black"/>
<path d="M564.005 349.995C563.446 349.37 571.052 334.308 559.001 342.517C555.075 344.294 555.014 338.444 560.725 337.194C571.077 334.928 573.4 347.073 564.005 349.995Z" fill="black"/>
<path d="M334.939 899.065L334.352 903.034L321.056 902.929L321.042 900.059C325.92 898.318 329.846 897.684 334.94 899.065H334.939Z" fill="black"/>
<path d="M508.002 913.99L494.512 914.007L494.004 911.504C495.305 908.633 509.568 907.043 508.002 913.99Z" fill="black"/>
<path d="M392.005 98.005C393.007 96.953 403.363 104.78 402.994 106.485C401.884 111.626 389.962 100.149 392.005 98.005Z" fill="black"/>
<path d="M493.005 186.995C492.691 184.739 493.544 182.797 494.236 180.737C494.629 179.567 495.778 175.416 497.484 176.01C499.679 176.774 498.269 178.258 497.996 179.457C497.451 181.852 496.276 187.142 493.005 186.996V186.995Z" fill="black"/>
<path d="M545.995 352.005C545.849 355.5 545.501 359.672 542.5 361.98C539.387 359.631 542.657 355.507 542.908 352.585L545.995 352.005Z" fill="black"/>
<path d="M161.869 384.136L164.995 392.995L161.12 391.38C160.126 389.042 158.907 386.631 159.005 384.005L161.869 384.136Z" fill="black"/>
<path d="M153.89 370.12L156.834 375.693L155.5 378.98L150.024 371.494L153.89 370.12Z" fill="black"/>
<path d="M538.995 368.005C540.075 368.914 534.358 374.444 533.5 375.004C532.219 375.84 531.339 376.091 531.001 374.483C530.348 371.372 535.966 366.904 538.995 368.006V368.005Z" fill="black"/>
<path d="M192.997 28.005L192.559 31.055C189.748 33.031 186.003 32.376 184.021 29.5L192.997 28.005Z" fill="black"/>
<path d="M206.996 33.994V30.005C210.281 29.809 213.695 29.772 215.98 32.5C213.785 35.15 209.941 33.707 206.996 33.994Z" fill="black"/>
<path d="M523.994 378.004C525.784 381.899 516.208 385.076 515.005 383.994C513.969 380.654 523.471 377.442 523.994 378.004Z" fill="black"/>
<path d="M147.995 364.995C146.355 366.507 139.687 360.144 140.005 358.516L142.67 357.812C144.36 358.019 149.155 363.926 147.996 364.995H147.995Z" fill="black"/>
<path d="M197.995 24.995C194.607 26.844 190.169 17.657 193.515 17.005C196.012 16.732 198.746 24.248 197.995 24.995Z" fill="black"/>
<path d="M208.995 18.005C209.525 21.71 206.876 24.577 204.5 26.98C200.129 24.91 207.754 16.592 208.995 18.005Z" fill="black"/>
<path d="M196.995 36.007C197.777 36.867 192.813 44.674 190.005 42.995L193.995 35.435L196.995 36.007Z" fill="black"/>
<path d="M156.916 290.93L154.005 291.004C153.81 287.719 153.771 284.306 156.5 282.02C159.343 284.324 157.79 288.096 156.916 290.93Z" fill="black"/>
<path d="M204.857 37.154L206.995 44.995L203.932 44.372C203.014 41.953 201.563 39.729 202.006 37.005L204.858 37.154H204.857Z" fill="black"/>
<path d="M544.995 344.995C542.388 347.528 539.066 338.464 539.005 337.005C542.583 335.186 545.89 344.125 544.995 344.995Z" fill="black"/>
<path d="M157.005 276.995C156.857 273.663 157.777 270.139 160.5 268.02C164.486 269.787 158.459 278.677 157.005 276.995Z" fill="black"/>
<path d="M160.995 304.995L157.107 304.889C157.506 303.368 153.749 297.521 156.514 297.006C158.811 296.578 160.632 303.387 160.994 304.995H160.995Z" fill="black"/>
<path d="M534.995 333.995L528.005 331.515C528.518 329.113 535.904 331.09 534.995 333.995Z" fill="black"/>
<path d="M166.995 314.995C165.9 316.098 159.946 310.734 163.515 310.005C165.429 309.614 167.593 313.044 166.995 314.995Z" fill="black"/>
<path d="M300.728 49.723L294.691 53.265C293.146 61.559 288.077 71.671 287.189 79.791C285.785 92.632 304.877 74.88 308.997 73.496L310.51 66.009C326.787 51.121 332.053 84.924 311.658 76.196C310.612 76.291 294.671 86.408 293.936 87.434C292.853 88.945 292.854 90.235 292.995 91.996L319.895 94.908C324.513 82.3 342.264 92.55 333.541 102.041C328.063 108.001 321.913 104.522 319.306 97.978L295.032 95.446C292.776 95.316 291.465 99.091 292.468 100.962L307.183 117.83C308.939 118.844 314.709 114.86 318.064 120.431C322.322 127.501 313.451 135.539 306.929 129.569C303.189 126.146 306.108 123.784 305.409 120.957C305.137 119.858 291.732 104.621 290.535 103.925C287.426 102.117 285.259 104.344 282.135 105.133C282.276 110.885 280.363 116.918 280.019 122.521C279.543 130.271 282.478 127.125 284.241 132.287C288.521 144.816 268.674 146.3 269.296 134.656C269.674 127.583 275.276 129.077 276.565 125.062L279.06 105.524L273.353 100.11L248.213 114.203C248.627 134.944 222.865 121.34 235.479 110.984C240.48 106.878 241.859 110.533 245.673 110.756C249.666 110.989 265.454 98.988 270.835 97.84L271.059 93.613L247.514 88.996L240.053 93.588L232.943 91.295C228.257 84.385 232.876 76.355 241.274 78.198C246.517 79.349 245.103 84.942 247.665 85.836L271.788 88.771L273.812 85.306L256.987 61.444C255.529 60.55 253.239 62.024 250.973 61.623C241.401 59.928 243.455 43.751 255.244 46.253C262.642 47.823 258.695 55.587 259.595 59.042C259.928 60.32 273.333 78.708 275.017 80.48C275.768 81.27 276.489 82.541 277.615 82.754L283.104 81.377C283.992 75.524 292.137 55.017 290.839 50.718C290.411 49.3 288.467 48.681 288.018 46.485C284.809 30.792 310.095 35.809 300.729 49.722L300.728 49.723ZM299.07 44.082C299.07 41.88 297.285 40.094 295.082 40.094C292.879 40.094 291.094 41.879 291.094 44.082C291.094 46.285 292.879 48.07 295.082 48.07C297.285 48.07 299.07 46.285 299.07 44.082ZM256.979 53.99C256.979 51.647 255.08 49.748 252.737 49.748C250.394 49.748 248.495 51.647 248.495 53.99C248.495 56.333 250.394 58.232 252.737 58.232C255.08 58.232 256.979 56.333 256.979 53.99ZM321.727 69.997C321.727 67.662 319.834 65.769 317.499 65.769C315.164 65.769 313.271 67.662 313.271 69.997C313.271 72.332 315.164 74.225 317.499 74.225C319.834 74.225 321.727 72.332 321.727 69.997ZM243.262 85.682C243.262 83.323 241.35 81.411 238.991 81.411C236.632 81.411 234.72 83.323 234.72 85.682C234.72 88.041 236.632 89.953 238.991 89.953C241.35 89.953 243.262 88.041 243.262 85.682ZM289.989 93.353C289.989 89.135 286.57 85.716 282.352 85.716C278.134 85.716 274.715 89.135 274.715 93.353C274.715 97.571 278.134 100.99 282.352 100.99C286.57 100.99 289.989 97.571 289.989 93.353ZM331.979 96.99C331.979 94.647 330.08 92.748 327.737 92.748C325.394 92.748 323.495 94.647 323.495 96.99C323.495 99.333 325.394 101.232 327.737 101.232C330.08 101.232 331.979 99.333 331.979 96.99ZM244.493 117.006C244.493 114.668 242.598 112.773 240.26 112.773C237.922 112.773 236.027 114.668 236.027 117.006C236.027 119.344 237.922 121.239 240.26 121.239C242.598 121.239 244.493 119.344 244.493 117.006ZM315.727 124.469C315.727 122.49 314.123 120.886 312.144 120.886C310.165 120.886 308.561 122.49 308.561 124.469C308.561 126.448 310.165 128.052 312.144 128.052C314.123 128.052 315.727 126.448 315.727 124.469ZM281.054 134.999C281.054 132.76 279.239 130.945 277 130.945C274.761 130.945 272.946 132.76 272.946 134.999C272.946 137.238 274.761 139.053 277 139.053C279.239 139.053 281.054 137.238 281.054 134.999Z" fill="black"/>
<path d="M282.352 100.99C286.57 100.99 289.989 97.5708 289.989 93.353C289.989 89.1352 286.57 85.716 282.352 85.716C278.134 85.716 274.715 89.1352 274.715 93.353C274.715 97.5708 278.134 100.99 282.352 100.99Z" fill="white"/>
<path d="M238.991 89.953C241.35 89.953 243.262 88.0408 243.262 85.682C243.262 83.3232 241.35 81.411 238.991 81.411C236.632 81.411 234.72 83.3232 234.72 85.682C234.72 88.0408 236.632 89.953 238.991 89.953Z" fill="white"/>
<path d="M252.737 58.232C255.08 58.232 256.979 56.3328 256.979 53.99C256.979 51.6472 255.08 49.748 252.737 49.748C250.394 49.748 248.495 51.6472 248.495 53.99C248.495 56.3328 250.394 58.232 252.737 58.232Z" fill="white"/>
<path d="M317.499 74.225C319.835 74.225 321.727 72.332 321.727 69.997C321.727 67.6619 319.835 65.769 317.499 65.769C315.164 65.769 313.271 67.6619 313.271 69.997C313.271 72.332 315.164 74.225 317.499 74.225Z" fill="white"/>
<path d="M327.737 101.232C330.08 101.232 331.979 99.3328 331.979 96.99C331.979 94.6472 330.08 92.748 327.737 92.748C325.394 92.748 323.495 94.6472 323.495 96.99C323.495 99.3328 325.394 101.232 327.737 101.232Z" fill="white"/>
<path d="M240.26 121.239C242.598 121.239 244.493 119.344 244.493 117.006C244.493 114.668 242.598 112.773 240.26 112.773C237.923 112.773 236.027 114.668 236.027 117.006C236.027 119.344 237.923 121.239 240.26 121.239Z" fill="white"/>
<path d="M277 139.053C279.239 139.053 281.054 137.238 281.054 134.999C281.054 132.76 279.239 130.945 277 130.945C274.761 130.945 272.946 132.76 272.946 134.999C272.946 137.238 274.761 139.053 277 139.053Z" fill="white"/>
<path d="M295.082 48.07C297.284 48.07 299.07 46.2845 299.07 44.082C299.07 41.8795 297.284 40.094 295.082 40.094C292.879 40.094 291.094 41.8795 291.094 44.082C291.094 46.2845 292.879 48.07 295.082 48.07Z" fill="white"/>
<path d="M312.144 128.052C314.122 128.052 315.727 126.448 315.727 124.469C315.727 122.49 314.122 120.886 312.144 120.886C310.165 120.886 308.561 122.49 308.561 124.469C308.561 126.448 310.165 128.052 312.144 128.052Z" fill="white"/>
<path d="M124.115 103.89L132.005 106.481L149.783 93.794C151.047 91.565 148.231 86.445 152.438 83.939C163.557 77.317 169.315 95.554 158.421 96.973C155.783 97.317 152.636 95.863 151.044 96.49C146.999 98.084 139.838 106.596 134.999 108.533L135.132 116.866L161.532 123.62C177.464 109.411 183.157 137.021 168.65 135.736C161.958 135.143 162.697 128.229 159.751 126.749C152.142 125.196 143.566 121.467 136.016 120.379C133.214 119.975 131.861 122.36 132.469 124.952L147.697 143.844L156.285 144.957C166.849 161.869 138.019 165.138 144.476 145.981L128.532 126.356L124.991 127.491L122.971 155.488L128.485 161.01C131.498 170.579 123.64 176.507 115.282 170.719L113.01 165.42C112.677 158.863 119.734 157.459 120.019 156.292L120.89 127.106L111.96 122.412C106.532 126.628 94.2999 129 89.5979 133.096C86.6729 135.644 88.2549 142.303 81.4069 142.994C67.6999 144.377 72.8299 120.754 87.0569 130.544L110.02 119.519L111.938 110.091L89.0509 98.441C79.5709 105.429 68.9959 95.848 77.0079 86.51C80.5059 83.856 86.6879 84.546 88.8939 88.607C90.0969 90.822 89.5879 93.341 90.5289 94.972C91.1959 96.129 110.955 106.564 112.739 106.833L120.382 104.104L121.044 81.665C105.002 76.112 120.321 58.361 128.012 68.482C132.786 74.764 127.588 78.315 123.994 82.492L124.117 103.89H124.115ZM126.3 73.364C126.3 70.988 124.374 69.061 121.997 69.061C119.62 69.061 117.694 70.987 117.694 73.364C117.694 75.741 119.62 77.667 121.997 77.667C124.374 77.667 126.3 75.741 126.3 73.364ZM160.823 89.904C160.823 87.761 159.086 86.024 156.943 86.024C154.8 86.024 153.063 87.761 153.063 89.904C153.063 92.047 154.8 93.784 156.943 93.784C159.086 93.784 160.823 92.047 160.823 89.904ZM86.4929 93.006C86.4929 90.668 84.5979 88.773 82.2599 88.773C79.9219 88.773 78.0269 90.668 78.0269 93.006C78.0269 95.344 79.9219 97.239 82.2599 97.239C84.5979 97.239 86.4929 95.344 86.4929 93.006ZM131.389 115.64C131.389 111.016 127.641 107.268 123.017 107.268C118.393 107.268 114.645 111.016 114.645 115.64C114.645 120.264 118.393 124.012 123.017 124.012C127.641 124.012 131.389 120.264 131.389 115.64ZM173.934 127.509C173.934 125.036 171.929 123.031 169.456 123.031C166.983 123.031 164.978 125.036 164.978 127.509C164.978 129.982 166.983 131.987 169.456 131.987C171.929 131.987 173.934 129.982 173.934 127.509ZM84.3469 135.641C84.3469 133.592 82.6859 131.93 80.6359 131.93C78.5859 131.93 76.9249 133.591 76.9249 135.641C76.9249 137.691 78.5859 139.352 80.6359 139.352C82.6859 139.352 84.3469 137.691 84.3469 135.641ZM155.471 151.146C155.471 148.76 153.537 146.826 151.151 146.826C148.765 146.826 146.831 148.76 146.831 151.146C146.831 153.532 148.765 155.466 151.151 155.466C153.537 155.466 155.471 153.532 155.471 151.146ZM125.869 165.007C125.869 162.596 123.914 160.641 121.503 160.641C119.092 160.641 117.137 162.596 117.137 165.007C117.137 167.418 119.092 169.373 121.503 169.373C123.914 169.373 125.869 167.418 125.869 165.007Z" fill="black"/>
<path d="M123.017 124.012C127.64 124.012 131.389 120.264 131.389 115.64C131.389 111.016 127.64 107.268 123.017 107.268C118.393 107.268 114.645 111.016 114.645 115.64C114.645 120.264 118.393 124.012 123.017 124.012Z" fill="white"/>
<path d="M169.456 131.987C171.929 131.987 173.934 129.982 173.934 127.509C173.934 125.036 171.929 123.031 169.456 123.031C166.982 123.031 164.978 125.036 164.978 127.509C164.978 129.982 166.982 131.987 169.456 131.987Z" fill="white"/>
<path d="M121.503 169.373C123.914 169.373 125.869 167.418 125.869 165.007C125.869 162.596 123.914 160.641 121.503 160.641C119.091 160.641 117.137 162.596 117.137 165.007C117.137 167.418 119.091 169.373 121.503 169.373Z" fill="white"/>
<path d="M121.998 77.667C124.375 77.667 126.301 75.7405 126.301 73.364C126.301 70.9875 124.375 69.061 121.998 69.061C119.622 69.061 117.695 70.9875 117.695 73.364C117.695 75.7405 119.622 77.667 121.998 77.667Z" fill="white"/>
<path d="M151.151 155.466C153.537 155.466 155.471 153.532 155.471 151.146C155.471 148.76 153.537 146.826 151.151 146.826C148.765 146.826 146.831 148.76 146.831 151.146C146.831 153.532 148.765 155.466 151.151 155.466Z" fill="white"/>
<path d="M82.2603 97.239C84.5982 97.239 86.4933 95.3438 86.4933 93.006C86.4933 90.6682 84.5982 88.773 82.2603 88.773C79.9225 88.773 78.0273 90.6682 78.0273 93.006C78.0273 95.3438 79.9225 97.239 82.2603 97.239Z" fill="white"/>
<path d="M156.943 93.784C159.085 93.784 160.823 92.0469 160.823 89.904C160.823 87.7611 159.085 86.024 156.943 86.024C154.8 86.024 153.062 87.7611 153.062 89.904C153.062 92.0469 154.8 93.784 156.943 93.784Z" fill="white"/>
<path d="M80.6358 139.352C82.6853 139.352 84.3468 137.691 84.3468 135.641C84.3468 133.591 82.6853 131.93 80.6358 131.93C78.5863 131.93 76.9248 133.591 76.9248 135.641C76.9248 137.691 78.5863 139.352 80.6358 139.352Z" fill="white"/>
<path d="M459.75 386.209C467.63 384.902 469.299 390.043 472.7 390.841C475.569 391.514 479.196 388.542 484.576 390.924C488.34 392.591 488.118 396 490.04 397.459C493.403 400.012 500.435 398.552 500.964 406.56C501.501 414.683 494.169 414.855 488.356 415.856C478.985 417.47 459.017 420.897 450.307 420.649C443.04 420.442 439.677 411.355 444.43 405.929C445.514 404.691 447.941 403.948 448.5 402.998C449.492 401.313 448.802 398.182 449.425 395.923C450.72 391.224 454.801 387.029 459.751 386.208L459.75 386.209ZM471.172 395.816C463.945 383.554 448.796 390.875 453.596 405.034C444.84 406.334 441.872 417.365 452.455 417.027C461.734 416.731 483.094 413.806 492.239 411.739C497.479 410.555 498.347 408.608 496.093 403.402L487.106 401.888C486.536 397.856 484.444 392.661 479.563 393.005C476.552 393.217 474.513 397.226 471.172 395.816Z" fill="black"/>
<path d="M471.172 395.816C474.513 397.226 476.552 393.218 479.563 393.006C484.444 392.662 486.536 397.857 487.106 401.889L496.093 403.403C498.347 408.609 497.48 410.556 492.239 411.74C483.094 413.806 461.734 416.731 452.455 417.028C441.871 417.366 444.84 406.335 453.596 405.035C448.796 390.876 463.945 383.555 471.172 395.817V395.816Z" fill="white"/>
<path d="M595.695 267.301C598.86 270.836 598.186 276.764 599.502 278.998C600.015 279.869 602.292 280.597 603.466 282.034C608.28 287.928 605.482 298.363 597.496 299.048C593.746 299.369 571.901 294.186 567.997 292.503C561.62 289.755 560.262 283.146 563.994 277.494C567.876 271.614 572.668 274.181 574.847 272.842C575.265 272.585 577.016 266.969 580.63 265.128C584.927 262.938 592.388 263.607 595.696 267.3L595.695 267.301ZM595.131 275.896C595.131 271.118 591.258 267.245 586.48 267.245C581.702 267.245 577.829 271.118 577.829 275.896C577.829 280.674 581.702 284.547 586.48 284.547C591.258 284.547 595.131 280.674 595.131 275.896ZM573.957 276.031C567.247 275.847 562.833 283.486 568.009 288.491C569.159 289.376 593.353 295.619 595.768 295.79C601.009 296.162 602.655 291.086 601.993 286.539L598.985 282.444C596.448 281.194 594.059 286.619 591.055 287.552C581.946 290.382 575.438 284.724 573.957 276.031Z" fill="black"/>
<path d="M573.957 276.031C575.438 284.724 581.947 290.382 591.056 287.552C594.06 286.619 596.449 281.194 598.986 282.444L601.994 286.539C602.656 291.086 601.009 296.162 595.769 295.79C593.354 295.619 569.16 289.376 568.01 288.491C562.834 283.486 567.249 275.847 573.958 276.031H573.957Z" fill="white"/>
<path d="M586.481 284.547C591.259 284.547 595.132 280.674 595.132 275.896C595.132 271.118 591.259 267.245 586.481 267.245C581.703 267.245 577.83 271.118 577.83 275.896C577.83 280.674 581.703 284.547 586.481 284.547Z" fill="white"/>
<path d="M63.3364 354.664C61.4264 352.754 59.8554 348.495 60.1844 345.765C60.6824 341.636 64.3374 340.211 64.8634 338.28C65.4714 336.05 63.4054 331.818 64.2294 327.724C66.7264 315.316 83.0974 312.113 91.4904 320.672C104.046 311.178 118.366 327.961 106.922 338.422C103.763 341.309 77.5654 356.438 73.7974 357.334C70.1134 358.21 66.1024 357.43 63.3364 354.664ZM65.3014 351.712C67.2864 354.171 71.1474 354.301 74.0284 353.526C76.9314 352.746 101.121 338.739 103.937 336.438C105.588 335.089 106.794 334.012 107.331 331.818C107.757 321.872 98.6634 318.411 91.3294 324.866C78.0014 312.416 62.2164 322.488 70.0814 339.411C65.3334 341.59 61.4354 346.923 65.3014 351.712Z" fill="black"/>
<path d="M104.995 346.005C105.308 348.261 105.04 348.585 103.364 349.864C101.801 351.058 84.7584 359.762 84.0054 358.995C83.6394 356.532 83.8813 356.906 85.2243 355.695C86.7803 354.292 104.108 345.117 104.995 346.005Z" fill="black"/>
<path d="M101.346 368.5C103.413 368.5 105.09 366.824 105.09 364.756C105.09 362.688 103.413 361.012 101.346 361.012C99.2778 361.012 97.6016 362.688 97.6016 364.756C97.6016 366.824 99.2778 368.5 101.346 368.5Z" fill="black"/>
<path d="M103.997 356.986L92.005 361.995C89.351 359.235 100.235 355.059 101.675 354.117L103.007 354.486L103.997 356.986Z" fill="black"/>
<path d="M65.3011 351.712C61.4351 346.923 65.3331 341.59 70.0811 339.411C62.2161 322.488 78.0011 312.416 91.3291 324.866C98.6631 318.41 107.757 321.872 107.331 331.818C106.794 334.012 105.588 335.089 103.937 336.438C101.122 338.739 76.9311 352.746 74.0281 353.526C71.1471 354.3 67.2861 354.171 65.3011 351.712Z" fill="white"/>
<path d="M354.999 13.013L346.985 26L334.939 17.441L343.5 5.01898C346.735 8.31298 350.252 11.986 354.999 13.014V13.013Z" fill="white"/>
<path d="M12.0041 288.18C16.4262 288.18 20.0111 284.595 20.0111 280.173C20.0111 275.751 16.4262 272.166 12.0041 272.166C7.58193 272.166 3.99707 275.751 3.99707 280.173C3.99707 284.595 7.58193 288.18 12.0041 288.18Z" fill="white"/>
<path d="M565.263 218.056C568.883 218.056 571.817 215.122 571.817 211.502C571.817 207.882 568.883 204.948 565.263 204.948C561.643 204.948 558.709 207.882 558.709 211.502C558.709 215.122 561.643 218.056 565.263 218.056Z" fill="white"/>
<path d="M179.671 481.634C183.323 481.634 186.284 478.673 186.284 475.021C186.284 471.369 183.323 468.408 179.671 468.408C176.018 468.408 173.058 471.369 173.058 475.021C173.058 478.673 176.018 481.634 179.671 481.634Z" fill="white"/>
<path d="M463.291 472.29C466.379 472.29 468.882 469.787 468.882 466.699C468.882 463.611 466.379 461.108 463.291 461.108C460.203 461.108 457.7 463.611 457.7 466.699C457.7 469.787 460.203 472.29 463.291 472.29Z" fill="white"/>
<path d="M378.745 141.261C382.289 144.612 379.499 148.754 380.134 151.28C380.883 154.26 388.826 157.546 388.013 162.012L397.535 161.107C401.016 156.379 404.09 154.26 403.186 147.686L409.809 144.657C412.874 145.634 415.593 147.914 415 151.396C414.333 158.443 407.406 155.655 403.914 158.414C403.388 158.829 399.306 164.236 399.239 164.618C399.016 165.877 400.182 167.812 400.097 169.509C399.805 175.361 392.069 173.236 396.481 181.023C397.635 182.489 401.912 181.332 403.502 186.079C404.745 189.79 401.647 190.092 406.071 193.427C412.3 198.122 412.753 193.309 418.411 194.022C428.883 195.342 424.159 212.423 413.021 207.473C409.509 205.912 410.608 201.985 409.07 199.432C407.366 196.604 399.764 193.134 397.485 196.99L396.996 201.996L394.457 201.01L394.889 196.154C383.948 192.584 393.747 182.937 393.581 180.94C393.244 176.892 390.562 173.511 386.446 175.95C385.457 176.536 371.917 190.067 371.477 191.034C370.215 193.807 372.489 195.83 371.862 198.276C359.355 215.38 347.86 187.012 367.982 189.539L384.996 172.496C381.324 171.557 370.868 173.318 367.735 174.988C366.36 175.721 366.487 178.121 364.975 179.468C358.486 185.251 349.941 171.812 358.711 169.215C363.695 167.739 365.411 171.07 369.427 171.057C371.576 171.05 384.455 168.242 385.484 166.988C386.143 166.184 386.368 164.2 386.947 163.102L377.799 153.214L369.671 152.077C362.502 145.56 372.836 135.674 378.746 141.262L378.745 141.261ZM377.358 146.403C377.358 144.648 375.935 143.224 374.179 143.224C372.423 143.224 371 144.647 371 146.403C371 148.159 372.423 149.582 374.179 149.582C375.935 149.582 377.358 148.159 377.358 146.403ZM411.57 150.836C411.57 149.381 410.391 148.202 408.936 148.202C407.481 148.202 406.302 149.381 406.302 150.836C406.302 152.291 407.481 153.47 408.936 153.47C410.391 153.47 411.57 152.291 411.57 150.836ZM396.311 168.497C396.311 166.391 394.604 164.684 392.498 164.684C390.392 164.684 388.685 166.391 388.685 168.497C388.685 170.603 390.392 172.31 392.498 172.31C394.604 172.31 396.311 170.603 396.311 168.497ZM364.079 174.491C364.079 173.065 362.923 171.908 361.496 171.908C360.069 171.908 358.913 173.064 358.913 174.491C358.913 175.918 360.069 177.074 361.496 177.074C362.923 177.074 364.079 175.918 364.079 174.491ZM400.464 189.192C400.464 187.093 398.762 185.391 396.663 185.391C394.564 185.391 392.862 187.093 392.862 189.192C392.862 191.291 394.564 192.993 396.663 192.993C398.762 192.993 400.464 191.291 400.464 189.192ZM367.804 196.497C367.804 194.476 366.165 192.837 364.144 192.837C362.123 192.837 360.484 194.476 360.484 196.497C360.484 198.518 362.123 200.157 364.144 200.157C366.165 200.157 367.804 198.518 367.804 196.497ZM421.084 201.016C421.084 198.795 419.283 196.994 417.062 196.994C414.841 196.994 413.04 198.795 413.04 201.016C413.04 203.237 414.841 205.038 417.062 205.038C419.283 205.038 421.084 203.237 421.084 201.016Z" fill="black"/>
<path d="M349.985 139.006C348.518 138.84 348.22 141.588 348.087 142.583C347.198 149.251 343.077 184.495 344.023 188.323C344.247 189.228 346.612 188.483 346.031 191.436C341.591 196.705 343.186 203.415 342.023 209.975L434.001 216.989L431.983 213.512L433.504 211.983C435.914 212.152 443.984 218.794 442.538 221.025C442.093 221.711 433.691 227.303 432.518 226.999C428.179 225.874 434.156 222.313 435.001 221.01L339.213 212.758L344.991 139.001L341.487 141.997L339.004 139.514L347.518 130.944L354.977 141.508L351.967 142.539L349.986 139.007L349.985 139.006Z" fill="black"/>
<path d="M442.721 161.719C436.505 167.92 432.522 158.303 427.009 160.999L426.96 158.513L435.739 149.177C443.356 147.662 447.917 156.537 442.722 161.72L442.721 161.719ZM441.361 156.398C441.361 154.266 439.632 152.537 437.5 152.537C435.368 152.537 433.639 154.266 433.639 156.398C433.639 158.53 435.368 160.259 437.5 160.259C439.632 160.259 441.361 158.53 441.361 156.398Z" fill="black"/>
<path d="M432.683 174.106C432.683 178.073 429.467 181.289 425.5 181.289C421.533 181.289 418.317 178.073 418.317 174.106C418.317 170.139 421.533 166.923 425.5 166.923C429.467 166.923 432.683 170.139 432.683 174.106ZM429.09 174.244C429.09 172.176 427.414 170.5 425.346 170.5C423.278 170.5 421.602 172.176 421.602 174.244C421.602 176.312 423.278 177.988 425.346 177.988C427.414 177.988 429.09 176.312 429.09 174.244Z" fill="black"/>
<path d="M423.005 193.995C420.829 191.768 429.455 186.324 429.995 189.515C430.346 191.588 423.882 194.892 423.005 193.995Z" fill="black"/>
<path d="M384.994 192.004C387.847 195.15 376.876 198.427 377.02 195.5L384.994 192.004Z" fill="black"/>
<path d="M408.5 174.02C411.866 175.327 407.147 181.337 405.515 180.995C401.52 180.158 407.176 175.011 408.5 174.02Z" fill="black"/>
<path d="M404.005 167.995C403.163 164.426 412.037 162.913 411.98 165.5L404.005 167.995Z" fill="black"/>
<path d="M416.006 164.996C413.84 162.616 420.856 158.445 422.98 161.5C421.3 163.601 418.652 164.798 416.006 164.996Z" fill="black"/>
<path d="M412.005 172.995L413.511 168.011L416.995 169.515L412.005 172.995Z" fill="black"/>
<path d="M438.99 181.001L439.004 184.438L434.524 187.005C431.06 184.661 437.42 182.349 438.99 181V181.001Z" fill="black"/>
<path d="M349.005 186.995C348.412 183.482 351.35 182.184 353.99 181C355.195 183.198 350.108 188.197 349.005 186.995Z" fill="black"/>
<path d="M396.995 206.005L395.505 211.995L394.005 206L396.995 206.005Z" fill="black"/>
<path d="M417.062 205.038C419.283 205.038 421.084 203.237 421.084 201.016C421.084 198.795 419.283 196.994 417.062 196.994C414.841 196.994 413.04 198.795 413.04 201.016C413.04 203.237 414.841 205.038 417.062 205.038Z" fill="white"/>
<path d="M396.662 192.993C398.762 192.993 400.463 191.291 400.463 189.192C400.463 187.093 398.762 185.391 396.662 185.391C394.563 185.391 392.861 187.093 392.861 189.192C392.861 191.291 394.563 192.993 396.662 192.993Z" fill="white"/>
<path d="M392.498 172.31C394.603 172.31 396.311 170.603 396.311 168.497C396.311 166.391 394.603 164.684 392.498 164.684C390.392 164.684 388.685 166.391 388.685 168.497C388.685 170.603 390.392 172.31 392.498 172.31Z" fill="white"/>
<path d="M364.144 200.157C366.166 200.157 367.804 198.518 367.804 196.497C367.804 194.476 366.166 192.837 364.144 192.837C362.123 192.837 360.484 194.476 360.484 196.497C360.484 198.518 362.123 200.157 364.144 200.157Z" fill="white"/>
<path d="M374.179 149.582C375.935 149.582 377.358 148.159 377.358 146.403C377.358 144.647 375.935 143.224 374.179 143.224C372.423 143.224 371 144.647 371 146.403C371 148.159 372.423 149.582 374.179 149.582Z" fill="white"/>
<path d="M408.936 153.47C410.39 153.47 411.57 152.291 411.57 150.836C411.57 149.381 410.39 148.202 408.936 148.202C407.481 148.202 406.302 149.381 406.302 150.836C406.302 152.291 407.481 153.47 408.936 153.47Z" fill="white"/>
<path d="M361.497 177.074C362.924 177.074 364.08 175.918 364.08 174.491C364.08 173.064 362.924 171.908 361.497 171.908C360.071 171.908 358.914 173.064 358.914 174.491C358.914 175.918 360.071 177.074 361.497 177.074Z" fill="white"/>
<path d="M437.5 160.259C439.632 160.259 441.361 158.53 441.361 156.398C441.361 154.266 439.632 152.537 437.5 152.537C435.367 152.537 433.639 154.266 433.639 156.398C433.639 158.53 435.367 160.259 437.5 160.259Z" fill="white"/>
<path d="M425.346 177.988C427.413 177.988 429.09 176.312 429.09 174.244C429.09 172.176 427.413 170.5 425.346 170.5C423.278 170.5 421.602 172.176 421.602 174.244C421.602 176.312 423.278 177.988 425.346 177.988Z" fill="white"/>
<path d="M296.5 217.681C298.341 217.681 299.833 216.189 299.833 214.348C299.833 212.507 298.341 211.015 296.5 211.015C294.659 211.015 293.167 212.507 293.167 214.348C293.167 216.189 294.659 217.681 296.5 217.681Z" fill="white"/>
<path d="M39.1775 159.239C40.9663 159.239 42.4165 157.789 42.4165 156C42.4165 154.211 40.9663 152.761 39.1775 152.761C37.3886 152.761 35.9385 154.211 35.9385 156C35.9385 157.789 37.3886 159.239 39.1775 159.239Z" fill="white"/>
<path d="M379 477.992C425.002 489.349 430.977 558.75 486.244 551.744C520.859 547.356 534.816 508.236 531.025 477.476C530.569 473.773 528.069 470.903 527.238 467.263C525.882 461.323 526.523 453.988 525.55 447.951C524.173 439.403 513.781 426.735 522.485 419.986C530.903 413.459 541.06 420.33 544.874 428.627C546.421 431.993 547.359 441.972 551.329 440.873C558.02 435.845 562.284 428.591 565.483 420.984C569.624 411.134 570.173 395.612 583.365 394.324C593.332 395.773 592.205 405.05 592.01 413.001C603.96 396.199 617.9 405.568 611.996 423.997C628.916 424.191 622.909 439.125 617.421 448.922C609.971 462.219 598.667 474.779 587.163 484.664C588.094 511.642 583.34 538.483 569.022 561.523C536.169 614.385 463.864 626.257 415.011 588.002L416.039 640.545C413.204 706.65 414.981 773.23 412.99 839.492C412.756 847.276 410.598 855.362 413.027 863.445C413.129 866.783 395.845 876.116 399.005 878.997L403.77 878.755C409.614 872.785 417.956 861.603 424.999 872.491C423.022 873.754 410.785 883.865 413.005 885.997C418.994 887.77 425.633 873.317 430.003 874.394L437.982 879.501C438.002 880.245 428.198 887.604 426.656 889.158C425.338 890.487 424.495 890.47 425.005 892.997C430.755 894.927 439.38 881.516 443.325 882.206L452.007 887.513L442.136 895.123L443.522 899.006C448.032 898.39 453.423 889.518 457.682 890.746C461.883 891.957 478.949 903.058 482.048 906.455C485.45 910.185 490.219 919.307 483.762 922.263L347.952 923.551L344.927 921.576L348 706.012L302.437 705.939C300.64 749.113 303.586 792.334 303.048 835.55C303.012 838.404 301.994 840.85 301.959 843.461C301.612 869.383 300.987 895.201 301.479 921.063C300.169 922.651 298.483 923.608 296.443 923.945C288.563 925.245 271.466 924.522 262.501 924.579C236.318 924.744 200.66 926.402 175.463 924.041C171.457 923.666 167.211 922.813 166.006 918.487C164.798 905.817 183.702 895.455 193.53 891.022C197.031 891.097 202.667 903.401 207.982 897.502L197.021 888.502L207.975 883.461L219.314 893.286L224 892.99L211.008 881.984C209.344 879.593 217.928 877.18 219.059 875.465L235.481 887.005C240.059 886.088 231.674 879.103 230.471 878.034C228.859 876.601 226.582 875.074 224.641 874.085L224.01 872.022L233.294 868.137C234.95 868.563 242.83 877.506 245.45 879.055C249.325 881.347 251.594 880.079 249.338 875.921L237.17 865.417C240.815 827.033 238.33 787.976 241.045 749.545C241.332 694.652 240.019 639.68 242.994 585.004C215.286 609.555 177.509 616.88 142.008 606.499C89.0407 591.012 61.5407 539.399 59.8397 486.667C47.4557 476.995 33.9827 461.87 26.5637 447.943C21.5837 438.595 17.1357 424.144 33.0007 424.996C29.3577 415.167 31.3907 401.632 44.7517 405.762L52.9937 413.997C52.0287 405.294 52.9387 391.903 65.0467 395.467C74.6367 398.289 77.2357 419.212 81.8197 427.685C84.5197 432.675 89.1827 438.496 93.9487 441.61C96.8197 442.34 98.6337 431.911 99.8107 429.309C103.534 421.075 111.838 414.477 120.919 419.584C132.261 425.963 120.495 439.589 119.261 448.759C114.57 483.645 114.21 532.428 152.645 548.858C181.019 560.987 204.828 546.843 224.029 526.527L254.009 491.511C236.373 480.526 221.111 464.039 214.495 444.008C204.548 413.894 212.481 380.94 217.829 350.584C213.891 347.094 208.243 345.899 204.602 341.901C193.093 329.263 197.155 303.826 210.504 294.002C214.781 290.854 222.057 289.996 223.779 288.779C224.122 288.536 226.655 283.138 228.027 281.525C259.574 244.441 315.802 240.502 360.218 252.285C394.504 261.381 434.365 281.551 435.481 322.022C450.159 327.248 457.869 336.212 456.005 352.504C454.268 367.692 434.639 377.947 420.456 374.244L419.487 374.953C414.79 407.861 409.802 437.866 389.416 464.916C386.772 468.425 382.111 472.399 379.988 475.488C379.407 476.333 378.595 476.473 379.001 477.993L379 477.992ZM426.003 322.005C427.958 285.817 385.786 265.222 355.993 257.507C315.406 246.997 258.37 250.79 232.006 287.507C247.611 288.951 260.633 293.704 268.652 307.926C280.014 303.728 292.65 302.938 302.468 311.004C317.506 288.788 356.4 295.062 371.511 313.989C374.162 317.31 375.255 320.592 377.692 323.808L398.048 325.545L400.001 321.511L426.002 322.006L426.003 322.005ZM219.948 300.047L215.433 303.063L229.164 343.336L234.996 344.994L219.949 300.047H219.948ZM320.946 309.02L316.899 311.491L331.495 355.004L336.995 355.994L320.946 309.02ZM223 341.99L211.5 310.02L208.466 313.04C207.951 313.736 208.072 314.445 208.153 315.237C208.294 316.624 215.543 337.195 216.491 339.009C217.066 340.107 217.228 341.41 218.663 341.836L222.999 341.99H223ZM378.005 331.995C376.424 384.867 284.035 371.458 298.056 320.437C297.967 312.065 276.581 310.573 271.275 316.275C269.449 327.891 268.148 339.122 258.476 346.976C248.527 355.055 235.953 355.636 224.011 351.992C218.561 372.769 244.345 373.1 258.536 372.035C265.121 371.541 272.347 368.741 278.606 368.105C295.318 366.405 309.034 374.335 324.967 377.534C340.087 380.57 363.695 383.41 377.673 376.172C394.534 367.44 392.786 350.274 395.918 334.095L378.007 331.995H378.005ZM312.992 318L308.424 322.061C308.64 324.532 318.635 351.277 319.963 352.536C322.209 354.665 324.898 355.04 324.265 351.264C322.505 340.765 314.955 328.786 312.992 318ZM422.723 328.228C411.661 330.515 405.858 347.113 408.211 357.289C417.652 377.291 448.952 369.761 449.625 348.345C450.051 334.8 435.204 325.648 422.723 328.229V328.228ZM227.994 389.005C232.678 373.338 225.821 371.329 223.119 387.424L227.994 389.005ZM237.896 394.88C244.873 379.154 236.952 377.321 233.028 393.511L237.896 394.88ZM308.514 383.004C299.813 396.531 280.636 392.075 268.447 386.002L266.003 388.487C275.01 394.345 286.764 396.639 297.395 394.894C302.783 394.01 311.243 391.165 310.948 384.583L308.515 383.003L308.514 383.004ZM398.004 384.006L393.185 384.199C392.834 386.512 390.471 394.025 393.51 394.99L396.842 393.34L398.004 384.006ZM409.995 384.006C403 380.988 401.656 399.376 404.515 399.995C410.771 397.75 408.181 389.105 409.995 384.006ZM251.995 385.999L248.612 386.112C246.568 386.822 245.198 395.289 246.44 397.064L250.997 398.006L251.995 385.998V385.999ZM329.515 389.005C326.323 390.073 326.018 398.507 328.515 398.995C333.172 399.088 333.228 388.255 329.515 389.005ZM384.996 388.995L380.897 389.587C380.006 392.558 378.776 396.67 381.515 398.995C386.326 397.976 384.901 392.523 384.996 388.995ZM359.18 391.211C354.703 404.946 365.214 406.623 362.869 391.631L361.004 390.502L359.18 391.211ZM347.996 390.996L343.144 392.64L344.508 401.992L347.065 401.412L347.996 390.996ZM226.005 399.006L222.627 398.133C213.909 410.535 224.123 416.699 226.005 399.006ZM568.008 436.996L574.991 438.56C577.451 434.984 579.87 431.015 581.482 426.982C583.331 422.356 589.721 401.698 583.307 400.101L580.455 400.941C575.06 404.505 571.909 422.542 568.194 429.694C565.329 435.211 561.273 440.002 557.017 444.499C564.806 450.226 569.941 457.111 568.88 467.382C568.439 471.659 566.888 477.065 562.116 472.419C564.789 463.724 562.43 453.893 554.354 449.144C551.547 447.494 546.546 447.242 544.526 444.972C540.383 440.317 541.93 426.325 532.02 423.417C518.035 419.314 530.706 441.556 531.761 446.737C534.53 460.326 528.776 470.113 542.697 478.801C564.518 492.419 580.983 485.64 596.514 468.013C602.51 461.207 619.276 439.467 617.045 430.666L613.662 429.27C605.894 430.054 593.533 453.554 588.449 454.05C585.552 454.333 583.72 450.786 581.33 449.169C577.035 446.263 572.734 443.585 567.967 441.488L568.009 436.993L568.008 436.996ZM87.9937 445.982L87.9787 444.53C81.5477 438.684 76.4707 431.365 73.2387 423.262C70.5737 416.58 69.0967 398.27 59.4727 401.973C56.1247 415.112 63.2617 427.65 69.0877 438.938C71.4847 437.931 81.0277 437.121 77.5567 442.058C76.8257 443.098 58.0807 450.985 56.4987 455.982C49.8147 449.752 42.5927 436.992 35.4997 432.002C23.1767 423.334 29.5397 440.493 32.4817 446.018C45.4857 470.432 66.8127 495.235 96.9797 482.48C117.741 473.702 109.523 463.319 113.461 445.961C114.927 439.5 125.915 423.842 114.498 423.889C105.291 423.927 102.704 439.198 100.484 445.984C87.8517 449.355 79.2207 457.835 82.7897 471.807L82.0547 474.548L78.0817 474.914C73.4427 464.24 77.3887 450.975 87.9937 445.982ZM372.996 401.995C365.158 399.231 366.443 419.772 373.889 412.422L372.996 401.995ZM317.997 402.993L314.619 403.119L313.205 409.289L315.621 411.939L318.462 410.045L317.997 402.993ZM401.995 404.003C397.147 402.052 395.745 414.114 397.008 414.996L401.495 412.994L401.995 404.003ZM239.995 405.004L235.484 405.984L233.976 412.513L234.949 414.555L238.997 415.008L239.995 405.004ZM338.992 405.003L335.413 405.908C332.722 408.14 334.509 416.121 337.515 417.994C341.603 418.832 338.69 407.532 338.992 405.003ZM256.515 406.005C254.334 406.458 253.622 411.559 253.414 413.545L255.626 415.938L258.483 413.985C259.524 412.364 259.663 405.351 256.515 406.005ZM287.995 409L283.905 409.623L281.072 420.917L284.029 421.555C286.043 420.632 289.037 409.998 287.996 409H287.995ZM40.4847 410.205C35.5437 413.584 37.0957 417.898 38.8127 422.688C42.3767 432.63 51.2857 439.822 57.4997 447.983L64.9577 441.499C59.5567 437.856 45.5147 409.796 40.4847 410.205ZM386.995 410L382.894 410.585C381.199 414.438 379.232 424.939 385.782 419.282L386.995 410ZM603.725 410.129C597.968 410.978 585.099 436.499 580.045 441.515L586.632 446.933C589.186 447.396 603.06 428.644 604.713 425.214C606.324 421.87 610.04 412.963 606.005 410.444L603.725 410.129ZM355.909 411.094L352.109 411.119C351.606 414.336 349.441 418.465 352.509 420.992C356.603 422.761 356.93 411.666 355.91 411.094H355.909ZM306.972 417.038L303.974 416.457C294.265 428.479 306.629 432.144 306.972 417.038ZM269.995 417.998L265.483 418.982L264.006 427.996L268.507 427.006L269.995 417.998ZM327.995 418.999L324.62 419.12C322.151 419.942 322.132 428.213 324.515 429.995C327.667 430.66 328.251 420.866 327.995 418.999ZM364.995 419.004C357.068 417.86 357.886 437.018 364.562 428.091L364.995 419.004ZM222.996 420.995H219.005L218.951 432.345C219.338 434.005 222.786 433.442 223.985 432.98L222.996 420.995ZM252.996 423.995L249.631 423.958C247.278 424.499 247.765 434.688 249.015 436.996L252.842 435.342L252.996 423.995ZM343.514 425.005C342.993 425.117 341.358 426.995 341.158 427.731C341.164 429.517 341.148 437.693 344.466 436.984C348.385 436.147 346.446 424.376 343.514 425.005ZM398.995 425.005L394.521 426.022L390.406 431.927C389.493 433.015 390.63 434.776 391.517 435C395.136 435.911 399.393 428.051 398.995 425.005ZM238.996 425.996L235.619 426.119C232.632 427.112 233.58 436.165 236.528 437.995L239.757 435.383L238.996 425.997V425.996ZM295.001 431.004L291.975 430.457C288.956 433.386 287.768 437.865 288.005 442L291.829 441.819L295.001 431.003V431.004ZM373.95 441.946L374.862 432.662L374.053 431.445L371.014 431.004L368.999 441.996L373.95 441.946ZM276.514 432.004L273.165 436.725C273.305 445.485 279.964 439.518 278.921 433.635L276.515 432.004H276.514ZM311.545 433.043C304.853 442.103 313.125 448.599 314.803 435.258L311.545 433.043ZM335.899 438.117C329.297 434.287 329.104 451.903 335.836 445.341L335.899 438.117ZM354.651 438.136L349.416 444.936C347.777 450.777 356.011 447.281 357.565 441.04C358.649 439.074 356.704 437.471 354.652 438.136H354.651ZM256.848 441.966C256.848 440.487 255.649 439.288 254.17 439.288C252.691 439.288 251.492 440.487 251.492 441.966C251.492 443.445 252.691 444.644 254.17 444.644C255.649 444.644 256.848 443.445 256.848 441.966ZM226.005 442.998C224.353 453.663 235.076 456.151 230.516 443.983L226.005 442.998ZM268.995 442.999L264.46 443.957L263.939 450.53L267.913 450.906L268.995 442.998V442.999ZM301.995 443.005C297.586 442.169 296.475 447.964 296.158 451.294L298.5 453.98C301.851 451.362 302.245 446.938 301.995 443.005ZM388.995 445.005C385.201 441.362 375.707 457.868 375.187 461.759C374.994 463.207 374.785 465.454 376.51 465.991C380.449 467.217 380.451 459.918 381.794 457.295C383.759 453.457 389.402 450.177 388.995 445.005ZM247.515 450.005L245.456 456.547L248.5 460.981C252.675 459.301 251.439 449.193 247.515 450.005ZM361.837 459.827C362.639 456.457 367.419 453.175 363.484 450.004C359.278 451.375 357.427 455.882 358.005 460L361.837 459.827ZM281.548 451.046C280.156 451.478 276.132 461.554 279.515 462.995C282.93 463.7 283.601 455.262 284.852 453.298C284.968 451.393 283.102 450.564 281.548 451.046ZM317.012 462.998L320.057 462.557C320.84 460.717 323.013 451.765 320.49 451.01C315.68 449.228 316.203 462.462 317.012 462.998ZM337.005 463.995C341.056 464.782 342.738 459.988 343.261 456.733C343.462 455.481 344.572 455.433 342.483 454.003C338.022 453.015 336.53 460.991 337.005 463.995ZM234.511 457.009C231.391 457.919 234.852 468.051 238.49 466.99C241.61 466.08 238.149 455.948 234.511 457.009ZM306.004 459.017L301.501 458.981L299.071 469.918L301.523 470.76L306.003 459.018L306.004 459.017ZM266.77 461.254L264.481 460.25C260.293 460.869 263.607 471.554 265.513 471.997L268.016 469.476L266.77 461.254ZM370.996 466.004C366.339 464.285 362.27 470.037 360.025 473.507C362.664 478.128 372.756 468.361 370.996 466.004ZM329.514 466.004C319.449 474.55 329.693 483.443 331.806 470.254C331.948 469.368 332.227 468.525 331.931 467.62L329.514 466.004ZM341.005 473.995L346.054 472.554C346.856 470.597 350.271 467.707 347.483 466.001C344.251 465.308 340.459 470.993 341.005 473.995ZM282.005 478.995C287.356 480.94 289.811 468.273 286.505 468.026C282.468 469.532 282.019 475.033 282.005 478.995ZM246.096 470.106C244.519 483.379 258.758 486.827 250.211 471.289C249.746 470.444 249.406 469.563 248.513 469.053L246.097 470.107L246.096 470.106ZM314.973 473.06L310.507 472.984L309.005 482.001L313.539 481.038L314.973 473.06ZM263.987 476.002L260.951 476.446C258.863 477.929 260.892 486.507 262.511 486.988L265.54 486.026L263.986 476.002H263.987ZM349.5 476.018C340.428 482.788 344.902 492.471 351.616 480.019L349.5 476.018ZM332.748 491.734C333.126 491.34 335.738 485.854 335.827 485.282C335.692 477.514 328.412 486.497 328.169 489.685C327.991 492.022 330.897 493.66 332.748 491.734ZM277.509 483.009C275.187 483.739 274.538 494.343 279.49 492.991C281.881 492.239 282.348 481.487 277.509 483.009ZM296.836 492.82L299.827 484.464L295.577 482.943C294.973 483.084 291.263 491.815 293.093 492.908L296.836 492.819V492.82ZM312.001 495.992L315.361 496.809L319.838 490.264C318.553 480.412 311.076 494.791 312.001 495.992ZM336.995 500.005C324.398 500.087 313.344 503.712 300.458 503.042C291.768 502.59 283.314 499.887 274.804 498.679C273.063 498.432 272.498 497.264 271.02 499.5C288.28 508.273 313.403 508.347 331.828 503.328C333.68 502.824 337.759 502.795 336.995 500.005ZM250.994 644.945V649.054L407.511 649.06V644.951L250.994 644.945ZM407 846H354.5L353.005 849.995C360.829 849.813 368.715 850.24 376.548 850.048C384.345 849.857 396.04 849.764 403.421 848.897C405.229 848.685 407.717 848.382 407 846ZM245.5 851H296L296.005 848.004C282.518 847.71 268.953 848.367 255.459 848.042C251.515 847.947 248.191 845.868 244.004 848.01C243.471 848.759 244.731 850.779 245.499 850.999L245.5 851ZM407 858H354.5L352.02 860.5L353.5 862H402.5C403.268 862 405.439 860.329 407.005 860.994L407 858ZM294.995 861.005C287.853 860.722 280.603 861.355 273.459 861.041C266.208 860.723 256.504 858.885 249.475 858.975C247.307 859.003 245.431 859.86 244.02 861.5C243.96 862.815 254.763 863.876 256.51 863.99C264.946 864.541 280.512 865.651 288.453 865.036C290.762 864.857 295.297 864.101 294.995 861.005ZM295 918L294.571 913.989L292.501 912.995L173.506 913.006L171.017 914.517L172.501 918H295.001H295ZM482 917L481.99 915.515L480.5 914H350V917H482Z" fill="black"/>
<path d="M295 918H172.5L171.016 914.517L173.506 913.006L292.501 912.995L294.571 913.989L295 918Z" fill="white"/>
<path d="M250.993 644.943L250.993 649.052L407.51 649.058L407.51 644.949L250.993 644.943Z" fill="white"/>
<path d="M482 917H350V914H480.5L481.99 915.515L482 917Z" fill="white"/>
<path d="M407 858L407.005 860.994C405.439 860.329 403.267 862 402.5 862H353.5L352.02 860.5L354.5 858H407Z" fill="white"/>
<path d="M407 846C407.717 848.382 405.229 848.685 403.421 848.897C396.039 849.764 384.344 849.857 376.548 850.048C368.716 850.24 360.829 849.813 353.005 849.995L354.5 846H407Z" fill="white"/>
<path d="M294.995 861.005C295.296 864.1 290.762 864.856 288.453 865.036C280.513 865.652 264.947 864.541 256.51 863.99C254.763 863.876 243.96 862.814 244.02 861.5C245.431 859.86 247.307 859.003 249.475 858.975C256.504 858.886 266.208 860.723 273.459 861.041C280.603 861.355 287.853 860.722 294.995 861.005Z" fill="white"/>
<path d="M245.5 851C244.731 850.78 243.472 848.759 244.005 848.011C248.192 845.868 251.516 847.948 255.46 848.043C268.955 848.368 282.519 847.711 296.006 848.005L296.001 851.001H245.501L245.5 851Z" fill="white"/>
<path d="M568.008 436.996L567.966 441.491C572.733 443.588 577.034 446.266 581.329 449.172C583.719 450.789 585.552 454.336 588.448 454.053C593.532 453.556 605.893 430.056 613.661 429.273L617.044 430.669C619.275 439.47 602.509 461.21 596.513 468.016C580.982 485.643 564.518 492.422 542.696 478.804C528.775 470.116 534.529 460.329 531.76 446.74C530.704 441.559 518.033 419.316 532.019 423.42C541.929 426.328 540.382 440.32 544.525 444.975C546.545 447.245 551.546 447.496 554.353 449.147C562.429 453.896 564.788 463.727 562.115 472.422C566.886 477.068 568.437 471.662 568.879 467.385C569.939 457.114 564.804 450.229 557.016 444.502C561.273 440.004 565.328 435.214 568.193 429.697C571.908 422.544 575.059 404.507 580.454 400.944L583.306 400.104C589.72 401.701 583.33 422.36 581.481 426.985C579.869 431.018 577.45 434.987 574.99 438.563L568.007 436.999L568.008 436.996Z" fill="white"/>
<path d="M603.725 410.129L606.006 410.444C610.041 412.963 606.325 421.87 604.714 425.214C603.061 428.644 589.187 447.396 586.633 446.933L580.046 441.515C585.099 436.499 597.969 410.978 603.726 410.129H603.725Z" fill="white"/>
<path d="M87.9944 445.982C77.3894 450.975 73.4414 464.24 78.0814 474.914L82.0544 474.548L82.7894 471.807C79.2204 457.835 87.8514 449.354 100.483 445.984C102.703 439.199 105.29 423.927 114.497 423.889C125.915 423.842 114.926 439.5 113.46 445.961C109.522 463.319 117.74 473.702 96.9794 482.48C66.8124 495.235 45.4864 470.431 32.4814 446.018C29.5384 440.493 23.1764 423.334 35.4994 432.002C42.5934 436.992 49.8144 449.752 56.4984 455.982C58.0804 450.985 76.8254 443.097 77.5564 442.058C81.0264 437.121 71.4834 437.931 69.0874 438.938C63.2614 427.65 56.1244 415.112 59.4724 401.973C69.0954 398.27 70.5724 416.58 73.2384 423.262C76.4704 431.365 81.5474 438.684 87.9784 444.53L87.9934 445.982H87.9944Z" fill="white"/>
<path d="M40.4853 410.205C45.5153 409.796 59.5583 437.856 64.9583 441.499L57.5003 447.983C51.2863 439.822 42.3783 432.63 38.8133 422.688C37.0963 417.898 35.5443 413.584 40.4853 410.205Z" fill="white"/>
<path d="M426.003 322.005L400.002 321.51L398.049 325.544L377.693 323.807C375.256 320.591 374.163 317.309 371.512 313.988C356.401 295.061 317.507 288.787 302.469 311.003C292.65 302.937 280.014 303.727 268.653 307.925C260.634 293.703 247.612 288.95 232.007 287.506C258.371 250.789 315.407 246.996 355.994 257.506C385.787 265.221 427.959 285.816 426.004 322.004L426.003 322.005ZM400.996 297.01C398.462 303.556 411.788 304.842 412.922 301.395L412.528 297.964L400.996 297.01ZM403.1 310.093L403.107 313.384C404.142 316.174 415.71 316.752 417.985 313.453L415.295 309.206L403.1 310.093Z" fill="white"/>
<path d="M378.005 331.995L395.916 334.095C392.784 350.274 394.532 367.44 377.671 376.172C363.694 383.41 340.085 380.571 324.965 377.534C309.032 374.335 295.316 366.405 278.604 368.105C272.345 368.742 265.119 371.541 258.534 372.035C244.343 373.1 218.56 372.769 224.009 351.992C235.951 355.637 248.525 355.056 258.474 346.976C268.146 339.122 269.447 327.891 271.273 316.275C276.58 310.573 297.965 312.064 298.054 320.437C284.033 371.459 376.422 384.867 378.003 331.995H378.005ZM295.896 363.902L294.359 359.141L274.498 358.003C269.994 357.192 272.486 351.966 273.521 349.019C276.844 339.56 284.141 328.939 287.886 319.32L286.283 317.163L281.235 317.229C278.083 328.113 268.221 340.466 265.474 350.965C264.835 353.406 264.649 355.815 265.212 358.296C266.299 360.534 268.424 362.02 270.746 362.755C274.613 363.98 287.078 364.927 291.518 365.011C293.028 365.04 294.505 364.375 295.897 363.902H295.896Z" fill="white"/>
<path d="M422.723 328.228C435.204 325.648 450.05 334.799 449.625 348.344C448.952 369.76 417.652 377.29 408.211 357.288C405.858 347.113 411.661 330.514 422.723 328.227V328.228ZM434.867 343.884C435.603 342.703 435.07 339.593 433.366 339.079C428.611 337.561 415.729 347.612 418.1 353.902C419.824 355.205 422.584 353.876 423.963 354.499C426.481 355.636 428.154 360.759 432.971 358.513L435.984 355.501L427.02 348.501C427.689 346.2 434.596 344.32 434.868 343.885L434.867 343.884Z" fill="white"/>
<path d="M320.946 309.02L336.995 355.995L331.495 355.005L316.899 311.492L320.946 309.02Z" fill="white"/>
<path d="M219.948 300.047L234.995 344.995L229.163 343.337L215.432 303.064L219.948 300.047Z" fill="white"/>
<path d="M336.995 500.005C337.759 502.795 333.68 502.824 331.828 503.328C313.403 508.346 288.28 508.273 271.02 499.5C272.498 497.264 273.064 498.432 274.804 498.679C283.314 499.887 291.768 502.59 300.458 503.042C313.344 503.712 324.398 500.087 336.995 500.005Z" fill="white"/>
<path d="M312.992 318C314.955 328.786 322.505 340.765 324.265 351.264C324.898 355.039 322.209 354.665 319.963 352.536C318.635 351.277 308.64 324.532 308.424 322.061L312.992 318Z" fill="white"/>
<path d="M308.514 383.004L310.947 384.584C311.243 391.165 302.783 394.01 297.394 394.895C286.763 396.64 275.009 394.346 266.002 388.488L268.446 386.003C280.635 392.076 299.812 396.532 308.513 383.005L308.514 383.004Z" fill="white"/>
<path d="M223 341.99L218.664 341.836C217.229 341.41 217.066 340.107 216.492 339.009C215.543 337.196 208.295 316.624 208.154 315.237C208.073 314.445 207.953 313.736 208.467 313.04L211.501 310.02L223.001 341.99H223Z" fill="white"/>
<path d="M388.995 445.005C389.402 450.176 383.759 453.456 381.794 457.294C380.451 459.917 380.449 467.216 376.51 465.99C374.785 465.453 374.994 463.207 375.187 461.758C375.707 457.868 385.2 441.363 388.995 445.005Z" fill="white"/>
<path d="M409.995 384.006C408.181 389.105 410.771 397.75 404.515 399.995C401.656 399.376 403 380.988 409.995 384.006Z" fill="white"/>
<path d="M237.896 394.88L233.028 393.511C236.951 377.321 244.873 379.155 237.896 394.88Z" fill="white"/>
<path d="M252.996 423.995L252.842 435.342L249.015 436.996C247.765 434.688 247.278 424.499 249.631 423.958L252.996 423.995Z" fill="white"/>
<path d="M287.995 409C289.036 409.998 286.042 420.632 284.028 421.555L281.071 420.917L283.904 409.623L287.994 409H287.995Z" fill="white"/>
<path d="M251.995 385.999L250.997 398.007L246.44 397.065C245.198 395.29 246.568 386.823 248.612 386.113L251.995 385.999Z" fill="white"/>
<path d="M338.992 405.003C338.69 407.532 341.602 418.833 337.515 417.995C334.509 416.122 332.722 408.14 335.413 405.909L338.992 405.004V405.003Z" fill="white"/>
<path d="M372.996 401.995L373.889 412.422C366.443 419.771 365.158 399.231 372.996 401.995Z" fill="white"/>
<path d="M246.096 470.106L248.512 469.052C249.406 469.562 249.745 470.443 250.21 471.288C258.757 486.826 244.518 483.378 246.095 470.105L246.096 470.106Z" fill="white"/>
<path d="M227.994 389.005L223.119 387.424C225.821 371.329 232.677 373.338 227.994 389.005Z" fill="white"/>
<path d="M306.004 459.017L301.524 470.759L299.072 469.917L301.502 458.981L306.004 459.017Z" fill="white"/>
<path d="M238.996 425.996L239.757 435.382L236.528 437.994C233.58 436.164 232.632 427.111 235.619 426.118L238.996 425.996Z" fill="white"/>
<path d="M364.995 419.004L364.562 428.091C357.886 437.018 357.069 417.86 364.995 419.004Z" fill="white"/>
<path d="M226.005 399.006C224.123 416.699 213.909 410.535 222.627 398.133L226.005 399.006Z" fill="white"/>
<path d="M295.001 431.004L291.829 441.82L288.005 442.001C287.768 437.865 288.955 433.386 291.975 430.458L295.001 431.004Z" fill="white"/>
<path d="M222.996 420.995L223.985 432.98C222.786 433.443 219.337 434.006 218.951 432.345L219.005 420.995H222.996Z" fill="white"/>
<path d="M370.996 466.004C372.756 468.36 362.664 478.128 360.025 473.507C362.27 470.038 366.339 464.286 370.996 466.004Z" fill="white"/>
<path d="M343.514 425.005C346.446 424.376 348.385 436.147 344.466 436.984C341.148 437.693 341.164 429.517 341.158 427.731C341.358 426.995 342.993 425.117 343.514 425.005Z" fill="white"/>
<path d="M281.548 451.046C283.102 450.564 284.969 451.393 284.852 453.298C283.601 455.262 282.93 463.7 279.515 462.995C276.133 461.554 280.157 451.478 281.548 451.046Z" fill="white"/>
<path d="M398.004 384.006L396.842 393.341L393.51 394.991C390.471 394.025 392.834 386.512 393.185 384.2L398.004 384.007V384.006Z" fill="white"/>
<path d="M373.95 441.946L368.999 441.995L371.014 431.003L374.052 431.444L374.862 432.661L373.95 441.946Z" fill="white"/>
<path d="M317.012 462.998C316.203 462.462 315.679 449.228 320.49 451.01C323.013 451.765 320.84 460.717 320.057 462.557L317.012 462.998Z" fill="white"/>
<path d="M398.995 425.005C399.394 428.051 395.136 435.91 391.517 434.999C390.63 434.776 389.493 433.015 390.406 431.926L394.521 426.021L398.995 425.005Z" fill="white"/>
<path d="M347.996 390.996L347.065 401.413L344.508 401.992L343.144 392.64L347.996 390.996Z" fill="white"/>
<path d="M354.651 438.136C356.704 437.471 358.648 439.074 357.564 441.04C356.01 447.28 347.776 450.776 349.415 444.936L354.65 438.136H354.651Z" fill="white"/>
<path d="M329.514 466.004L331.931 467.62C332.228 468.525 331.948 469.369 331.806 470.254C329.693 483.443 319.449 474.55 329.514 466.004Z" fill="white"/>
<path d="M266.77 461.254L268.016 469.476L265.513 471.997C263.607 471.555 260.293 460.869 264.481 460.25L266.77 461.254Z" fill="white"/>
<path d="M359.18 391.211L361.004 390.502L362.869 391.631C365.214 406.623 354.703 404.946 359.18 391.211Z" fill="white"/>
<path d="M306.972 417.038C306.629 432.143 294.265 428.479 303.974 416.457L306.972 417.038Z" fill="white"/>
<path d="M386.995 410L385.782 419.281C379.232 424.939 381.199 414.437 382.894 410.584L386.995 410Z" fill="white"/>
<path d="M263.987 476.002L265.541 486.026L262.512 486.988C260.893 486.507 258.864 477.929 260.952 476.446L263.988 476.002H263.987Z" fill="white"/>
<path d="M269.995 417.998L268.507 427.006L264.005 427.996L265.483 418.983L269.995 417.998Z" fill="white"/>
<path d="M332.748 491.734C330.897 493.66 327.991 492.022 328.169 489.685C328.412 486.497 335.693 477.514 335.827 485.282C335.737 485.854 333.126 491.341 332.748 491.734Z" fill="white"/>
<path d="M296.836 492.82L293.093 492.909C291.263 491.816 294.973 483.085 295.577 482.944L299.827 484.465L296.836 492.82Z" fill="white"/>
<path d="M401.995 404.003L401.495 412.994L397.008 414.996C395.744 414.114 397.147 402.052 401.995 404.003Z" fill="white"/>
<path d="M312.001 495.992C311.076 494.791 318.553 480.412 319.838 490.264L315.361 496.809L312.001 495.992Z" fill="white"/>
<path d="M239.995 405.004L238.996 415.007L234.948 414.554L233.975 412.512L235.483 405.984L239.995 405.004Z" fill="white"/>
<path d="M361.837 459.827L358.005 460C357.427 455.881 359.278 451.374 363.484 450.004C367.419 453.175 362.639 456.457 361.837 459.827Z" fill="white"/>
<path d="M327.995 418.999C328.251 420.866 327.667 430.66 324.515 429.995C322.132 428.213 322.151 419.942 324.62 419.12L327.995 418.999Z" fill="white"/>
<path d="M234.511 457.009C238.148 455.948 241.609 466.081 238.49 466.99C234.853 468.051 231.392 457.918 234.511 457.009Z" fill="white"/>
<path d="M314.973 473.06L313.539 481.038L309.005 482.002L310.507 472.984L314.973 473.06Z" fill="white"/>
<path d="M282.005 478.995C282.019 475.033 282.468 469.532 286.505 468.026C289.811 468.273 287.356 480.94 282.005 478.995Z" fill="white"/>
<path d="M277.509 483.009C282.349 481.487 281.882 492.239 279.49 492.991C274.538 494.343 275.186 483.739 277.509 483.009Z" fill="white"/>
<path d="M247.515 450.005C251.439 449.193 252.676 459.301 248.5 460.981L245.456 456.547L247.515 450.005Z" fill="white"/>
<path d="M355.909 411.094C356.929 411.666 356.602 422.762 352.508 420.992C349.441 418.464 351.606 414.336 352.108 411.119L355.908 411.094H355.909Z" fill="white"/>
<path d="M349.5 476.018L351.616 480.019C344.901 492.47 340.428 482.788 349.5 476.018Z" fill="white"/>
<path d="M301.995 443.005C302.245 446.939 301.851 451.362 298.5 453.98L296.158 451.294C296.475 447.964 297.587 442.169 301.995 443.005Z" fill="white"/>
<path d="M337.005 463.995C336.53 460.991 338.022 453.014 342.483 454.002C344.571 455.433 343.462 455.48 343.261 456.732C342.738 459.988 341.055 464.783 337.005 463.995Z" fill="white"/>
<path d="M384.996 388.995C384.901 392.523 386.326 397.976 381.515 398.995C378.776 396.67 380.006 392.559 380.897 389.587L384.996 388.995Z" fill="white"/>
<path d="M311.545 433.043L314.803 435.258C313.124 448.6 304.853 442.103 311.545 433.043Z" fill="white"/>
<path d="M256.515 406.005C259.663 405.351 259.523 412.364 258.482 413.985L255.625 415.938L253.413 413.545C253.621 411.559 254.333 406.458 256.514 406.005H256.515Z" fill="white"/>
<path d="M226.005 442.998L230.516 443.983C235.076 456.15 224.354 453.662 226.005 442.998Z" fill="white"/>
<path d="M335.899 438.117L335.836 445.341C329.103 451.903 329.297 434.287 335.899 438.117Z" fill="white"/>
<path d="M329.515 389.005C333.228 388.255 333.173 399.088 328.515 398.995C326.018 398.508 326.322 390.074 329.515 389.005Z" fill="white"/>
<path d="M317.997 402.993L318.462 410.045L315.621 411.938L313.205 409.288L314.619 403.119L317.997 402.993Z" fill="white"/>
<path d="M276.514 432.004L278.92 433.635C279.963 439.518 273.305 445.485 273.164 436.725L276.513 432.004H276.514Z" fill="white"/>
<path d="M341.005 473.995C340.459 470.994 344.25 465.308 347.483 466.001C350.271 467.707 346.856 470.597 346.054 472.554L341.005 473.995Z" fill="white"/>
<path d="M268.995 442.999L267.913 450.906L263.94 450.53L264.46 443.956L268.995 442.999Z" fill="white"/>
<path d="M254.17 444.644C255.649 444.644 256.848 443.445 256.848 441.966C256.848 440.487 255.649 439.288 254.17 439.288C252.691 439.288 251.492 440.487 251.492 441.966C251.492 443.445 252.691 444.644 254.17 444.644Z" fill="white"/>
<path d="M403.1 310.093L415.295 309.206L417.985 313.453C415.71 316.752 404.142 316.174 403.107 313.384L403.1 310.093Z" fill="black"/>
<path d="M400.995 297.01L412.528 297.964L412.922 301.395C411.789 304.842 398.461 303.556 400.995 297.01Z" fill="black"/>
<path d="M295.896 363.902C294.504 364.375 293.028 365.04 291.517 365.011C287.077 364.927 274.612 363.98 270.745 362.755C268.423 362.02 266.298 360.534 265.211 358.296C264.647 355.816 264.834 353.406 265.473 350.965C268.22 340.466 278.082 328.112 281.234 317.229L286.282 317.163L287.885 319.32C284.14 328.939 276.843 339.56 273.52 349.019C272.485 351.966 269.993 357.192 274.497 358.003L294.358 359.141L295.895 363.902H295.896Z" fill="black"/>
<path d="M434.867 343.884C434.595 344.32 427.688 346.199 427.019 348.5L435.983 355.5L432.97 358.512C428.153 360.758 426.48 355.635 423.962 354.498C422.582 353.875 419.823 355.204 418.099 353.901C415.728 347.612 428.61 337.56 433.365 339.078C435.07 339.592 435.603 342.702 434.866 343.883L434.867 343.884Z" fill="black"/>
<path d="M428.738 40.21C430.304 40.061 431.148 40.475 432.526 40.939C436.595 42.308 453.952 51.277 457.7 53.8C461.414 56.299 462.761 58.421 461.546 63.021C460.869 65.586 450.719 84.949 449.023 86.521C448.025 87.446 447.101 87.977 445.797 88.367C443.186 89.512 440.704 88.227 438.32 87.171C433.211 84.908 418.718 77.782 414.65 74.848C413.191 73.796 412.052 72.802 411.432 71.043C410.635 69.25 410.981 67.767 411.453 65.979C412.107 63.501 423.643 42.497 425.053 41.561C426.19 41.044 427.5 40.328 428.738 40.21ZM427.664 44.125C426.194 44.623 416.583 62.726 415.782 65.274C414.902 68.074 413.961 69.84 416.61 71.896C419.053 73.792 437.955 83.103 441.28 84.223C442.63 84.678 443.82 85.423 445.334 84.902C447.178 84.305 457.234 65.041 457.806 62.265C458.313 59.802 458.411 58.677 456.392 57.104C454.273 55.453 434.93 45.645 431.95 44.549C430.482 44.009 429.236 43.593 427.665 44.126L427.664 44.125Z" fill="black"/>
<path d="M427.664 44.125C429.236 43.592 430.481 44.008 431.949 44.548C434.929 45.644 454.272 55.452 456.391 57.103C458.41 58.676 458.313 59.801 457.805 62.264C457.233 65.04 447.178 84.304 445.333 84.901C443.819 85.422 442.63 84.677 441.279 84.222C437.954 83.102 419.052 73.791 416.609 71.895C413.96 69.839 414.901 68.073 415.781 65.273C416.582 62.725 426.193 44.622 427.663 44.124L427.664 44.125ZM448.995 64.995C450.18 54.949 437.013 48.504 429.006 53.515C429.565 57.613 432.826 54.804 435.461 54.948C441.817 55.295 442.736 58.429 445.828 62.673C446.727 63.907 446.863 65.459 448.995 64.996V64.995ZM431.007 61.993L438.068 62.404L440.515 67.995C445.653 67.363 441.296 60.11 438.295 59.211C435.529 58.705 430.848 58.093 431.007 61.993ZM440.995 77.995C443.012 76.178 428.081 68.244 426.719 67.771C424.793 67.101 424.524 66.433 423.005 68.515C422.645 70.358 424.914 70.81 425.976 71.524C428.028 72.902 439.314 79.509 440.995 77.995Z" fill="white"/>
<path d="M448.995 64.995C446.863 65.458 446.727 63.907 445.828 62.672C442.736 58.428 441.817 55.294 435.461 54.947C432.825 54.803 429.565 57.612 429.006 53.514C437.013 48.503 450.181 54.949 448.995 64.995Z" fill="black"/>
<path d="M440.995 77.995C439.314 79.509 428.028 72.902 425.976 71.524C424.914 70.81 422.645 70.358 423.005 68.515C424.524 66.433 424.793 67.101 426.719 67.771C428.081 68.244 443.011 76.179 440.995 77.995Z" fill="black"/>
<path d="M431.007 61.993C430.848 58.093 435.53 58.705 438.295 59.211C441.296 60.11 445.653 67.363 440.515 67.995L438.068 62.404L431.007 61.993Z" fill="black"/>
<path d="M537.994 107.005C538.749 111.065 534.588 111.948 532.223 113.688C529.449 115.729 531.399 118.447 534.281 117.817C536.597 117.216 540.364 111.861 542.979 115.5C540.441 119.165 531.042 120.538 537.491 124.819C538.976 124.866 544.53 117.313 546.979 121.5L539.005 127.018L541.491 130.747L547.995 126.48C555.464 126.656 546.303 132.745 543.002 133.014L544.989 136.557L554.995 133.006C555.275 137.037 549.475 137.217 547.918 139.418C546.577 141.315 547.245 144.704 545.241 146.707L550.004 155.479L547.486 156.017C543.878 153.656 543.404 145.068 539.254 151.491L543.52 157.995C544.657 158.985 543.252 160.83 542.486 160.994C540.205 161.483 537.639 153.937 535.502 153.018L533.161 155.647L537.041 162.478C538.563 163.292 537.24 164.845 536.486 164.994C533.462 165.592 531.3 155.147 526.007 159.007L530.997 168.994C528.806 171.05 524.289 163.618 523.859 162.087L520.002 163.011L524.041 170.478C525.566 171.292 524.234 172.85 523.486 172.994C521.317 173.411 518.58 167.88 517.853 166.109C513.742 168.734 509.5 164.288 508.502 164.283C507.132 164.277 502.039 170.23 499.007 168.994L506.992 161.511L504.484 157.995L497.041 162.571L495.004 160.51L502.984 154.499L499.682 152.133C498.553 152.298 491.746 159.239 491.007 155.484C490.508 152.95 497.633 150.333 498.984 148.5L496.354 146.159L487.007 149.994L488.226 146.695L493.565 142.982L492.992 139.005L483.005 143.994C481.774 139.613 488.296 139.125 489.499 136.997C490.623 135.009 489.358 131.347 491.812 129.294L487.005 120.004C492.871 118.961 492.742 131.811 497.752 124.508L493.005 116.004C495.05 115.641 495.652 116.239 497.015 117.481C499.731 119.956 500.124 127.372 503.853 119.671L500.159 114.324L501.5 111.019L507.494 118.964L510.994 116.981C511.898 115.765 503.287 107.765 507.515 107.004C509.772 106.598 511.572 112.379 513.017 113.564L516.994 112.991C518.11 111.547 509.361 103.715 513.515 103.004C516.115 102.559 517.65 108.104 518.991 109.573C523.22 109.556 525.243 108.421 528.679 111.848L537.994 107.003L537.994 107.005ZM524.148 111.513L492.13 132.698L513.031 164.285L545.049 143.1L524.148 111.513Z" fill="black"/>
<path d="M531.995 90.005C532.79 90.786 529.772 100.946 528.5 100.98C525.199 98.326 528.528 93.817 528.908 90.585L531.995 90.005Z" fill="black"/>
<path d="M474.995 141.005C475.279 144.175 470.806 144.682 468.543 145.064C466.902 145.341 466.519 146.761 465.005 144.484C464.402 141.304 473.181 140.614 474.995 141.004V141.005Z" fill="black"/>
<path d="M524.149 111.513L545.049 143.1L513.031 164.285L492.131 132.698L524.149 111.513ZM529.995 139.995C530.751 139.296 523.294 125.416 520.005 126.005C518.814 127.318 524.776 136.943 526.139 138.361C527.48 139.757 527.564 140.451 529.995 139.995ZM524.995 143.995C527.122 141.794 514.788 132.54 512.266 132.161C505.789 131.187 511.528 147.092 513.514 149.992C516.577 151.584 514.72 143.694 515.109 143.129L519.518 141.27L524.995 143.996V143.995Z" fill="white"/>
<path d="M524.995 143.995L519.518 141.269L515.109 143.128C514.72 143.692 516.577 151.583 513.514 149.991C511.528 147.091 505.789 131.186 512.266 132.16C514.788 132.539 527.122 141.794 524.995 143.994V143.995ZM513.005 139.995L514.485 139.99L515.98 138.5L513.495 136.005L513.005 139.995Z" fill="black"/>
<path d="M529.995 139.995C527.564 140.451 527.48 139.757 526.139 138.361C524.776 136.943 518.814 127.319 520.005 126.005C523.294 125.415 530.751 139.296 529.995 139.995Z" fill="black"/>
<path d="M513.005 139.995L513.495 136.005L515.98 138.5L514.485 139.99L513.005 139.995Z" fill="white"/>
<path d="M230.908 165.082L233.942 172.537L240.279 172.18L244.685 177.064C247.942 177.73 251.545 173.287 253.979 176.499L246.09 181.605L247.058 184.967C248.772 186.249 254.909 180.718 256.979 184.5L249.059 188.06L249.118 191.377L251.431 192.984L258.479 190.997L259.513 193.005L252.586 195.893L252.11 199.38C253.183 202.613 258.274 199.24 259.965 198.433L261.996 200.488L253.992 204.013L254.258 210.729L248.997 214.012L251.995 223.995L248.928 223.379L246.785 217.711C245.241 214.515 241.747 215.709 242.164 219.249C242.429 221.496 244.743 224.179 243.995 226.995C240.092 226.933 239.226 222.066 238.996 218.997L233.922 220.637L236.003 228.48L233.53 228.973L230.94 222.06L227.623 222.119L226.016 224.432L228.014 231.486L225.499 232.017L222.06 224.46L215.235 224.34L211.312 220.103L203.005 221.994L203.597 218.913L211.002 216.99L208.344 212.097L200.006 213.994L200.598 210.913L208.007 208.991L206.981 204.007L197.006 205.993C197.696 199.894 209.912 203.608 202.542 196.24L196.32 198.849L194.006 196.513L201.594 193.038L201.711 186.275L207.003 182.986C207.966 181.725 201.789 175.035 205.503 173.02L209.962 180.585L215.006 179.987L212.007 171.004C216.43 170.153 216.605 175.002 217.034 177.972L222.999 176.987L220.007 168.004C224.38 167.144 224.58 171.87 225.046 174.961L228.377 174.875L230.016 172.543L228.008 165.003L230.911 165.08L230.908 165.082ZM239.846 174.356L204.003 187.176L216.677 222.613L252.52 209.793L239.846 174.356Z" fill="black"/>
<path d="M239.846 174.356L252.52 209.793L216.677 222.613L204.003 187.176L239.846 174.356ZM235.84 184.171C232.779 182.731 213.452 190.366 213.073 191.629L221.671 212.874L242.924 205.36L235.84 184.171Z" fill="white"/>
<path d="M235.84 184.171L242.924 205.36L221.671 212.874L213.073 191.629C213.452 190.367 232.78 182.731 235.84 184.171ZM233.943 188.058L218.125 193.131L223.628 208.927L239.003 203.989L233.942 188.058H233.943Z" fill="black"/>
<path d="M233.943 188.058L239.004 203.989L223.629 208.927L218.126 193.131L233.943 188.058Z" fill="white"/>
<path d="M500.526 226.483C507.14 226.76 528.202 246.399 535.93 249.571L538.067 254.526L536.84 259.346C528.394 269.739 521.979 281.752 513.817 292.316C511.573 295.22 509.418 299.621 505.328 299.74C500.258 299.888 473.816 278.54 467.949 274.557L468.162 267.651L496.749 227.213C497.945 226.92 499.314 226.432 500.526 226.483ZM499.275 228.458L469.069 272.077L506.2 297.79L536.406 254.171L499.275 228.458Z" fill="black"/>
<path d="M499.275 228.458L536.406 254.171L506.2 297.79L469.069 272.077L499.275 228.458ZM505.304 241.72C505.872 242.342 518.226 251.182 518.998 251.518C520.401 252.128 521.758 251.617 521.995 250.485C522.501 248.067 509.187 240.498 507.074 238.407C504.079 237.436 503.56 239.811 505.304 241.72ZM511.208 258.495C511.208 253.409 507.085 249.287 502 249.287C496.915 249.287 492.792 253.41 492.792 258.495C492.792 263.58 496.915 267.703 502 267.703C507.085 267.703 511.208 263.58 511.208 258.495ZM489.995 253.005C487.964 252.651 487.339 253.227 485.98 254.48C484.904 255.472 476.355 268.216 476.437 269.085C476.613 269.955 477.1 270.476 477.729 271.053C479.612 272.782 492.402 282.109 494.424 283.075C496.004 283.83 497.177 284.298 498.995 283.994C501.657 281.685 481.442 269.901 481.072 268.399L489.994 253.004L489.995 253.005ZM525.515 253.005C524.244 253.263 524.209 257.157 524.055 258.498C524.026 258.753 522.051 260.492 524.517 260.998C529.482 262.018 530.554 254.092 525.515 253.005ZM521.998 262.993L520.348 260.11L513.996 261.007L514 263.995L521.998 262.993ZM487.58 264.595L485.343 267.481L498.318 277.537L500.555 274.651L487.58 264.595ZM515.995 273.005C514.419 271.25 504.507 284.499 506.005 285.995C508.517 286.502 508.516 285.662 509.846 284.346C511.242 282.965 517.308 274.466 515.995 273.005Z" fill="white"/>
<path d="M511.208 258.495C511.208 263.581 507.085 267.703 502 267.703C496.915 267.703 492.792 263.58 492.792 258.495C492.792 253.41 496.915 249.287 502 249.287C507.085 249.287 511.208 253.41 511.208 258.495ZM507.672 258.631C507.672 255.47 505.109 252.907 501.948 252.907C498.787 252.907 496.224 255.47 496.224 258.631C496.224 261.792 498.787 264.355 501.948 264.355C505.109 264.355 507.672 261.792 507.672 258.631Z" fill="black"/>
<path d="M489.995 253.005L481.073 268.4C481.443 269.901 501.658 281.685 498.996 283.995C497.178 284.299 496.005 283.831 494.425 283.076C492.403 282.11 479.612 272.783 477.73 271.054C477.102 270.477 476.614 269.956 476.438 269.086C476.356 268.218 484.905 255.473 485.981 254.481C487.34 253.229 487.965 252.652 489.996 253.006L489.995 253.005Z" fill="black"/>
<path d="M505.304 241.72C503.56 239.811 504.079 237.436 507.074 238.407C509.188 240.499 522.501 248.067 521.995 250.485C521.758 251.617 520.401 252.128 518.998 251.518C518.226 251.182 505.872 242.342 505.304 241.72Z" fill="black"/>
<path d="M487.579 264.59L485.342 267.477L498.316 277.532L500.553 274.646L487.579 264.59Z" fill="black"/>
<path d="M515.995 273.005C517.308 274.467 511.243 282.966 509.847 284.346C508.517 285.662 508.518 286.502 506.006 285.995C504.508 284.499 514.418 271.25 515.995 273.005Z" fill="black"/>
<path d="M525.515 253.005C530.554 254.092 529.482 262.018 524.517 260.998C522.052 260.491 524.026 258.753 524.055 258.498C524.209 257.157 524.244 253.263 525.515 253.005Z" fill="black"/>
<path d="M521.998 262.993L514 263.995L513.995 261.007L520.347 260.11L521.998 262.993Z" fill="black"/>
<path d="M501.948 264.355C505.109 264.355 507.672 261.792 507.672 258.631C507.672 255.47 505.109 252.907 501.948 252.907C498.786 252.907 496.224 255.47 496.224 258.631C496.224 261.792 498.786 264.355 501.948 264.355Z" fill="white"/>
<path d="M114.995 237.995C111.625 238.229 111.995 234.074 110.461 232.039C105.609 225.601 96.9798 222.72 91.4538 229.954C87.6248 234.967 90.7448 240.878 85.3508 244.852C78.1638 250.148 66.5568 245.23 67.0048 236.005C72.2278 237.821 70.5028 243.775 77.5198 244.069C88.8578 244.543 83.8818 232.458 90.0968 226.598C99.4888 217.743 115.359 225.298 114.995 237.995Z" fill="black"/>
<path d="M116.651 223.346C111.082 217.143 101.841 215.896 94.3277 218.828C89.7617 220.61 87.5307 224.291 83.0037 224.995C81.7997 223.841 87.5477 218.901 88.6667 218.168C97.6067 212.306 109.572 212.569 117.522 219.978C120.506 222.759 125.285 228.982 121.5 232.98C119.061 230.153 119.276 226.27 116.651 223.346Z" fill="black"/>
<path d="M48.0051 238.995C45.6321 236.907 59.9491 230.285 61.3131 229.813C65.8191 228.253 69.8441 228.178 74.3451 227.088C76.0161 226.028 76.1741 220.398 77.5701 218.071C78.6701 216.236 79.5901 215.382 81.0051 217.522L76.0211 230.52C71.7071 231.172 68.0991 230.983 63.7811 232.28C60.8011 233.175 49.5951 240.393 48.0071 238.995H48.0051Z" fill="black"/>
<path d="M103.995 242.999C103.828 253.63 91.088 268.656 81.036 271.539C77.617 272.519 74.172 270.986 77.701 269.201C89.782 263.089 98.778 257.899 101.006 242.995L103.995 243V242.999Z" fill="black"/>
<path d="M117.995 269.995C115.336 270.561 115.804 269.767 114.705 268.756C112.594 266.815 103.773 255.573 106.005 253.005C108.121 252.549 108.282 254.08 109.176 255.324C110.642 257.365 119.322 268.685 117.995 269.995Z" fill="black"/>
<path d="M63.9949 213.995L56.5239 211.004C52.8479 213.821 56.5199 215.958 56.9959 218.995L54.5369 218.964C45.8049 209.71 62.1549 201.907 63.9959 213.995H63.9949Z" fill="black"/>
<path d="M114.994 205.018L112.675 207.883C107.839 204.643 105.08 204.295 99.4998 203.992C97.9578 203.908 95.5398 204.965 96.0098 202.515C102.004 198.442 109.388 202.182 114.994 205.018Z" fill="black"/>
<path d="M85.0052 253.995C84.3562 249.556 90.3202 248.996 91.8292 245.329L95.4852 237.01C101.564 241.336 87.3542 256.339 85.0052 253.995Z" fill="black"/>
<path d="M133.995 236.005C134.466 238.46 133.728 238.517 132.357 239.857C131.333 240.858 123.578 245.588 123.006 242.485C122.615 240.366 133.301 235.294 133.996 236.005H133.995Z" fill="black"/>
<path d="M63.8022 253.235C64.2052 253.47 69.5132 260.548 68.9952 260.995C63.3222 263.435 57.8762 249.785 63.8022 253.235Z" fill="black"/>
<path d="M118.005 243.004V245.995C115.05 245.734 111.226 247.116 109.009 244.484C109.211 241.264 116.068 243.732 118.005 243.003V243.004Z" fill="black"/>
<path d="M90.9949 205.005C91.3979 207.431 84.1639 212.036 83.0049 210.994C83.5809 207.443 87.4289 204.303 90.9949 205.005Z" fill="black"/>
<path d="M80.9945 258.005C83.1285 260.225 76.0565 265.033 74.0195 261.5L80.9945 258.005Z" fill="black"/>
<path d="M102.497 238.074C103.924 238.074 105.08 236.918 105.08 235.491C105.08 234.064 103.924 232.908 102.497 232.908C101.071 232.908 99.9141 234.064 99.9141 235.491C99.9141 236.918 101.071 238.074 102.497 238.074Z" fill="black"/>
<path d="M120.125 210.064L117.291 211.692L120.877 217.934L123.712 216.306L120.125 210.064Z" fill="black"/>
<path d="M78.5424 239.111C79.9557 239.111 81.1014 237.965 81.1014 236.552C81.1014 235.139 79.9557 233.993 78.5424 233.993C77.1291 233.993 75.9834 235.139 75.9834 236.552C75.9834 237.965 77.1291 239.111 78.5424 239.111Z" fill="black"/>
<path d="M66.9951 223.995L61.9961 220.499L62.4941 218.024C64.8751 219.539 67.5881 220.518 66.9951 223.995Z" fill="black"/>
<path d="M60.4998 241.02L62.0728 244.5L60.4998 247.98L58.9268 244.5L60.4998 241.02Z" fill="black"/>
</g>
<defs>
<clipPath id="clip0_59_319">
<rect width="624" height="946" fill="white"/>
</clipPath>
</defs>
</svg>
