<svg width="656" height="726" viewBox="0 0 656 726" fill="none" xmlns="http://www.w3.org/2000/svg">
<g clip-path="url(#clip0_59_1185)">
<path d="M285.999 678.515L279.956 676.43L274.006 675.901L273.041 671.412L268.981 669.501L262.466 668.418L260.302 664.72L256.981 662.5L250 661.924L248.023 658.488L244.921 654.575L235.642 656.701L229.459 664.324V673.924L244.395 683.026L261.734 687.077L283.783 690.442L288.16 685.639L285.999 678.515Z" fill="white"/>
<path d="M91.9944 654.51L86.3104 657.734L88.3964 663.054L81.0174 661.5L76.9585 663.415L76.1134 669.548L69.0004 668.984L64.1854 670.782V675.759L57.0014 675.986L50.2734 678.758L53.7274 684.989L68.2074 690.442H85.5724L99.1405 684.089L107.878 671.242L111.407 661.359L98.1374 655.712L91.9944 654.51Z" fill="white"/>
<path d="M654.983 79.0059C657.058 80.3369 654.432 94.1839 653.088 96.3329C651.615 98.6879 648.16 97.5389 648.195 94.6909C648.205 93.9019 651.302 79.9019 651.942 79.4409C652.643 78.9359 654.518 78.7069 654.984 79.0059H654.983Z" fill="black"/>
<path d="M221.659 720.158C223.861 719.506 240.043 720.113 239.98 722.5C239.885 726.092 223.704 725.257 220.987 723.513C219.244 722.394 219.973 720.657 221.659 720.158Z" fill="black"/>
<path d="M63.5001 716C60.9771 715.664 59.1981 714.641 60.0001 712H77.5001C79.4171 712 82.3801 716 79.5001 716C74.6571 716 68.0201 716.602 63.5001 716Z" fill="black"/>
<path d="M205.996 723.989C204.811 725.555 186.073 725.955 186.02 722.5C185.979 719.817 201.781 720.701 203.497 721.002C204.996 721.265 206.937 722.745 205.996 723.989Z" fill="black"/>
<path d="M193.66 711.161C196.32 710.332 209.938 711.236 209.98 714.5C210.039 719.171 184.311 714.075 193.66 711.161Z" fill="black"/>
<path d="M266.5 721C268.362 721.216 273.139 722.761 271.005 724.993C269.808 726.245 252.628 724.749 252.002 723.978C251.772 723.695 252.134 721.821 252 721C256.643 721.38 261.96 720.473 266.5 721Z" fill="black"/>
<path d="M237.5 712C238.144 712.185 239.173 713.587 238.995 714.485C238.447 717.241 220.762 715.804 219.996 714.993C219.893 714.884 219.851 712 220.001 712C223.905 712 234.729 711.206 237.501 712H237.5Z" fill="black"/>
<path d="M97.4999 721C98.2999 721.229 99.5689 723.449 98.9949 723.995C97.3899 725.519 82.6789 725.164 79.9819 723.518C78.3289 722.509 80.0909 721.001 80.4999 721.001C84.3169 721.001 94.7969 720.225 97.4999 721Z" fill="black"/>
<path d="M179.008 704.004C179.114 704.109 179.093 706.865 178.999 706.981C177.767 708.498 162.023 708.508 162.02 705.5C162.016 701.818 178.303 703.304 179.008 704.004Z" fill="black"/>
<path d="M110.005 713.007C110.107 713.115 110.094 715.867 110 715.983C108.597 717.71 93.0045 716.826 93.0195 714.5C93.0455 710.555 109.218 712.173 110.004 713.007H110.005Z" fill="black"/>
<path d="M294.779 711.261C296.95 711.017 306.722 711.038 305.994 714.485C305.385 717.372 293.22 715.65 290.718 714.781C286.227 713.222 293.015 711.458 294.778 711.26L294.779 711.261Z" fill="black"/>
<path d="M319.004 695.985C316.805 693.645 323.724 693.006 324.452 692.955C328.274 692.688 333.648 692.072 335.98 695.5C334.292 699.368 320.068 697.118 319.004 695.985Z" fill="black"/>
<path d="M273.996 713.007C274.43 719.283 259.309 716.638 258.002 714.988C254.667 710.78 272.408 711.846 273.996 713.007Z" fill="black"/>
<path d="M143.995 714.995C142.757 716.092 122.634 717.464 126.004 713.011C127.413 711.15 148.213 711.257 143.995 714.995Z" fill="black"/>
<path d="M175.996 713.011C179.266 717.541 158.063 716.666 158.021 713.5C157.987 711.025 175.083 711.745 175.996 713.011Z" fill="black"/>
<path d="M298.995 723.995C298.221 724.631 287.252 724.165 285.587 723.897C284.538 723.728 281.134 723.301 282.01 721.515C283.95 717.56 302.692 720.956 298.995 723.995Z" fill="black"/>
<path d="M28.4998 715C27.6998 714.771 26.4308 712.553 27.0048 712.005C27.9888 711.067 43.2648 711.239 44.0058 712.006C44.1098 712.114 44.1498 714.999 43.9998 714.999C40.4668 714.999 31.0198 715.722 28.4998 715Z" fill="black"/>
<path d="M61.9961 721.005C65.9441 724.505 45.5981 725.426 45.0061 722.485C44.6501 720.719 46.0891 720.456 47.4901 720.343C49.4131 720.189 61.4011 720.478 61.9961 721.005Z" fill="black"/>
<path d="M127.5 721C128.29 721.226 129.586 723.499 128.995 723.995C128.329 724.554 113.032 724.234 111.634 723.866C109.268 723.243 110.617 721 111.5 721C115.13 721 124.923 720.262 127.5 721Z" fill="black"/>
<path d="M335.998 713.012C339.443 717.359 322.6 715.592 321.993 714.996C321.861 714.866 321.62 712.623 322.59 711.913C324.821 710.279 334.806 711.507 335.998 713.012Z" fill="black"/>
<path d="M15.9952 714.995C14.2272 714.428 -0.0337688 717.374 1.00523 712.515C1.54323 710.002 16.1942 710.607 15.9952 714.995Z" fill="black"/>
<path d="M165.995 697.996C163.552 695.425 169.236 694.094 171.532 693.982C177.739 693.678 185.728 697.358 176.545 698.045C174.958 698.164 166.358 698.378 165.995 697.996Z" fill="black"/>
<path d="M309.004 722.989C306.181 719.224 322.423 718.795 322.994 721.515C323.854 725.606 309.769 724.009 309.004 722.989Z" fill="black"/>
<path d="M13.6587 685.158C15.8567 684.473 25.9307 684.53 25.9797 687.5C26.0137 689.538 15.3237 689.361 13.6587 688.842C11.3967 688.136 11.5007 685.831 13.6587 685.158Z" fill="black"/>
<path d="M324.934 703.081C325.269 703.623 324.869 705.118 325.005 705.996L311.002 704.993C310.219 699.836 324.416 702.243 324.934 703.081Z" fill="black"/>
<path d="M30.9963 721.011C31.6243 721.882 30.4603 723.515 29.3203 723.872C27.9153 724.311 11.7193 722.874 15.0053 720.006C15.6123 719.477 30.2573 719.987 30.9963 721.012V721.011Z" fill="black"/>
<path d="M13.7578 703.255C29.5608 702.539 21.3118 709.921 9.63676 706.864C5.27476 705.722 11.5788 703.354 13.7578 703.255Z" fill="black"/>
<path d="M159.995 722.995C155.883 722 145.861 725.668 145.005 720.006C149.117 721.001 159.139 717.333 159.995 722.995Z" fill="black"/>
<path d="M171.996 686.011C174.43 689.399 161.409 690.764 160.005 686.495C161.64 684.302 171.15 684.833 171.996 686.011Z" fill="black"/>
<path d="M19.9952 697.995C17.1782 697.923 14.3162 698.119 11.4912 698C9.95222 697.935 7.53323 698.939 8.00923 696.515C10.3322 694.217 20.0442 693.382 19.9952 697.995Z" fill="black"/>
<path d="M304.995 696.952H194.979V702H304.995V696.952Z" fill="white"/>
<path d="M425.989 22.0029C426.121 22.0899 426.529 24.4569 426.479 25.1309C425.531 37.9149 418.194 59.0229 415.309 72.8089C411.231 92.2899 409.075 114.35 404.555 133.055C403.58 137.09 402.133 141.47 399.146 136.271C404.316 98.1239 412.384 60.1349 422.518 23.0189C422.973 21.8579 425.424 21.6309 425.989 22.0029Z" fill="black"/>
<path d="M403.514 43.005C405.173 42.65 406.398 44.827 405.982 46.392C399.87 66.889 396.445 88.0951 393.808 109.308C391.098 113.142 388.791 110.569 388.962 106.55C389.521 93.376 395.992 59.426 400.694 47.194C401.155 45.994 402.305 43.264 403.514 43.005Z" fill="black"/>
<path d="M380.985 83.9961C380.266 84.4591 378.194 84.0621 377.481 83.0211C375.528 80.1711 379.145 58.9791 382.5 59.0191C386.683 59.0691 382.561 70.9731 382.116 73.6161C381.794 75.5221 382.195 83.2161 380.985 83.9961Z" fill="black"/>
<path d="M312.75 683.176C317.458 682.258 325.848 685.77 319.294 687.787C312.74 689.804 304.78 684.729 312.75 683.176Z" fill="black"/>
<path d="M72.4999 486C9.0589 480.32 -18.5451 418.191 21.0199 367.52C45.9599 335.58 87.5719 323.457 125.997 316.988C116.14 304.919 106.36 293.443 100.981 278.518C94.2379 259.809 92.9059 239.699 90.9529 220.05C73.4719 220.945 57.4779 210.867 60.0899 191.584C60.7959 186.374 65.1729 179.869 69.6439 177.144C71.6059 175.948 78.0859 174.432 78.7619 173.764C79.3029 173.229 81.3689 162.001 82.5169 159.017C103.62 104.187 214.717 102.031 253.528 140.971C257.922 145.379 262.252 154.861 264.244 156.75C265.385 157.832 271.788 159.466 274.332 161.167C285.368 168.544 288.831 189.622 280.522 200.023C277.366 203.974 267.163 208.855 266.964 209.668C265.643 215.064 269.631 229.864 270.041 236.459C272.147 270.331 269.623 300.626 240.916 322.417C237.545 324.976 231.052 327.723 228.628 329.918C227.906 330.572 227.484 331.34 228.007 331.981C251.395 346.494 264.18 362.799 294.483 359.984C315.545 358.028 340.425 338.393 351.631 321.132C359.087 309.647 355.973 308.959 357.015 296.516C358.757 275.724 372.547 257.715 394.988 265.003L442.314 8.81492C442.836 4.75192 444.274 -0.283084 449.365 0.259916C453.779 0.730916 454.6 6.77692 455.664 7.04492C458.559 7.77392 462.435 6.04392 465.457 5.95892C476.79 5.64292 488.034 5.55893 499.006 8.49193C540.202 19.5039 560.022 65.7559 608.539 63.0409C613.228 62.7789 632.166 57.8619 633.398 58.1569C637.547 59.1489 633.35 72.7599 632.69 76.1909C623.747 122.656 612.456 168.708 603.73 215.231C601.963 220.71 588.024 222.612 582.534 223.035C517.949 228.019 502.269 167.308 449.492 165.014C445.493 164.84 426.908 165.925 424.899 168.4L406.956 266.471C407.028 267.282 407.225 268.07 407.943 268.56C408.58 268.995 417.537 270.236 420.273 271.225C425.782 273.218 431.469 277.164 431.968 283.624C432.287 287.754 429.128 289.717 429.095 292.482C429.047 296.496 432.889 297.927 429.413 303.919C428.475 305.536 426.006 306.834 425.499 307.966C424.886 309.334 429.273 315.792 424.486 321.982C423.365 323.432 420.921 324.197 420.483 324.949C419.957 325.851 422.437 331.568 418.435 336.934C412.583 344.782 403.652 340.178 400.2 342.207C399.434 342.657 391.119 356.211 390.762 357.261C386.919 368.548 386.191 388.292 383.521 401.02C382.898 403.993 382.148 410.738 379.943 412.464C377.851 414.102 373.502 413.667 371.903 411.587C368.26 406.848 376.328 383.063 375.509 376.018C365.339 384.684 354.93 393.261 343.02 399.518C317.182 413.093 283.162 418.09 255.215 408.283C252.691 407.397 241.006 400.972 240.005 402.002C240.214 409.495 239.7 417.066 240.003 424.565C242.894 495.987 243.005 567.766 243.375 639.331C243.399 643.976 244.113 649.926 244.92 654.574C244.71 658.537 233.437 663.794 234.004 666.483C235.26 672.437 246.78 659.067 248.022 658.486C250.91 657.137 256.979 661.278 256.98 662.498C256.98 663.469 247.362 669.614 246.475 670.977C245.625 672.282 246.56 673.808 247.52 674.001C250.385 674.578 257.527 665.908 260.301 664.718C262.564 663.747 269.004 668.803 268.98 669.499C268.958 670.131 260.551 675.399 259.232 676.695C255.694 680.173 259.155 680.861 262.743 679.241C264.954 678.243 271.517 671.053 273.04 671.41C274.364 671.72 280.331 674.74 279.955 676.427C279.532 678.326 270.19 683.401 272.003 684.992C274.966 687.591 283.225 677.707 285.997 678.512C288.925 679.363 304.162 689.894 306.005 692.49C307.7 694.877 310.103 702.242 308.105 704.594C306.602 706.364 300.113 706.872 297.544 707.043C264.727 709.234 229.523 705.268 196.446 707.05L189.17 704.83L189.003 513.992H149.993L151.095 704.594L147.544 706.043C111.119 703.471 70.3539 709.305 34.4499 706.045C23.8089 705.079 25.7599 697.22 31.4759 690.976C34.1709 688.032 46.6009 680.009 50.2709 678.756C57.2259 676.38 61.4349 685.584 64.4749 685.002C69.7019 684.002 59.0579 675.874 56.9999 675.983C67.2609 664.97 67.9329 673.833 75.9589 678.535C78.9649 680.296 82.4369 679.915 80.5229 676.976C79.0619 674.732 69.3989 669.562 68.9999 668.982C68.1309 667.719 75.8249 663.969 76.9579 663.413L89.5059 673.973C95.1309 669.431 81.0419 663.914 81.0169 661.498C81.0089 660.754 85.2449 658.048 86.3089 657.732C91.4049 656.216 100.402 671.631 103.993 666.99C105.587 664.93 92.5719 657.422 91.9939 654.507C91.2039 650.523 93.1089 645.014 93.0599 640.462C92.5299 591.899 91.0829 543.111 91.7259 494.461C91.7379 493.52 91.4249 485.998 90.9999 485.998C85.1249 485.998 78.2069 486.509 72.4999 485.998V486ZM515.886 22.1229C507.025 18.2959 498.056 13.2599 488.076 13.0809L483.072 40.9169C492.849 42.9919 502.087 46.5609 510.995 50.9949L515.886 22.1229ZM479.5 40.9999C476.068 39.9509 458.709 40.9999 453.5 40.9999C453.017 40.9999 451.331 42.0389 451.017 42.7679C449.595 46.0689 446.678 63.1499 446.121 67.6269C445.39 73.5029 447.99 70.0879 452.454 69.9539C459.919 69.7289 467.643 69.7979 475.051 70.5829C476.113 69.7589 480.848 46.9189 480.951 44.3529C481.002 43.0909 480.8 41.3989 479.5 41.0009V40.9999ZM562.995 87.9989L567.896 60.6769L543.501 43.0189C542.06 43.0069 537.034 69.7079 537.546 71.0549C538.398 73.2979 561.855 89.1359 562.995 87.9989ZM511.008 52.9999L506.123 81.3189L529.5 99.9799C530.623 99.3149 530.618 98.4869 530.951 97.4509C531.795 94.8249 536.139 72.9699 535.838 71.6949C535.142 68.7439 512.51 51.6849 511.009 53.0009L511.008 52.9999ZM627.994 66.0039C618.193 68.6819 608.276 69.3379 598.135 69.1309L592.438 97.0259C594.697 100.193 617.121 95.4549 621.79 94.8009L627.994 66.0039ZM498.99 111C498.577 105.569 505.191 85.3879 503.544 82.0089C501.927 78.6909 477.273 70.7279 476.002 71.9969L471.071 100.933C480.959 102.53 490.246 106.239 498.99 111ZM591.003 98.0069C581.194 97.2209 572.011 93.6059 563.008 89.9989L557.476 119.054C558.997 121.694 582.425 128.47 584.874 126.871L591.003 98.0069ZM469.004 101.001L439.051 102.055L433 130.99C442.952 130.052 453.059 129.263 463.051 130.582L469.004 101.001ZM555.876 119.161C554.829 117.382 533.536 106.529 531.012 102.002L525.241 130.384C525.704 132.793 547.892 148.336 549.476 148.004C550.425 147.805 550.675 146.25 550.951 145.452C551.778 143.06 556.554 120.313 555.876 119.161ZM499.011 113.001C497.774 122.452 494.36 131.788 494.168 141.298L517.501 159.98C518.621 159.315 518.619 158.489 518.951 157.451C519.735 155.002 524.007 132.905 523.758 131.615C523.334 129.416 500.109 111.901 499.011 113.001ZM86.9999 174H108.5C110.169 174 110.841 178.85 111.618 179.063C113.718 179.637 127.309 179.06 129.255 178.003C130.446 177.356 131.606 173.287 133.006 171.503C144.116 157.35 173.082 152.095 187.936 162.564C189.838 163.904 195.424 170.64 196.486 170.725C197.652 170.818 201.655 167.652 203.726 167.226C208.504 166.242 214.543 167.023 219.223 168.279C221.112 168.786 224.247 171.144 225.434 171.066C225.841 171.039 228.292 166.403 229.36 165.358C234.723 160.107 241.186 157.201 248.626 156.127C253.654 155.402 258.89 158.289 256.069 152.433C245.414 130.318 204.895 120.047 182.549 118.953C148.688 117.295 88.6939 132.127 87.0009 174.001L86.9999 174ZM616 126.01L586.127 129.124L580.004 157.993C589.77 158.099 599.606 156.997 609.012 154.511L616 126.01ZM486.995 169.999C486.628 165.28 493.077 144.429 491.546 141.992C489.896 139.366 465.493 130.497 464.002 131.994L459.112 159.886C463.17 161.206 467.482 161.561 471.533 162.966C476.969 164.852 481.725 167.84 486.995 169.998V169.999ZM572.901 186.893L578.565 158.972C569.153 156.708 559.417 155.104 551.013 150.003L545.445 179.003C547.029 182.177 570.626 188.813 572.902 186.894L572.901 186.893ZM543.974 179.069C539.497 179.054 520.958 162.928 519.494 163.025C518.725 163.076 518.272 164.769 518 165.501C517.222 167.595 512.877 188.122 513.158 189.304C513.789 191.95 535.458 208.091 537.507 207.976C538.343 207.929 538.737 206.24 538.955 205.455C541.188 197.399 541.354 187.272 543.975 179.07L543.974 179.069ZM274.862 188.867C278.238 186.888 272.025 171.423 269.006 168.494C266.732 166.287 256.345 162.902 253.984 164.482C249.234 167.66 260.754 168.503 262.274 169.226C265.793 170.901 268.499 175.309 269.541 178.96C270.52 182.391 269.625 191.937 274.862 188.868V188.867ZM162.005 169.995C169.793 169.198 178.315 170.725 182.2 178.301C183.348 180.539 184.382 194.939 188.534 189.031C191.651 184.595 184.307 172.551 179.937 169.565C175.704 166.673 161.751 162.231 162.006 169.996L162.005 169.995ZM129.006 185.995C128.443 185.459 113.86 185.273 113.471 185.945C112.601 187.448 113.843 202.454 114.259 205.241C118 230.346 147.896 229.342 167.49 227.989C179.545 227.156 194.799 221.018 205.501 221.011C213.761 221.006 224.748 226.049 233.629 226.871C242.51 227.693 259.803 228.716 261.768 217.26C263.279 208.452 258.82 212.447 252.457 212.04C239.715 211.225 229.16 206.541 224.946 193.555C223.528 189.185 223.774 180.667 222.512 177.989C219.659 171.937 199.957 172.694 198.944 179.525C198.66 181.438 199.946 183.571 199.992 185.509C200.891 223.963 134.435 226.473 129.088 193.416C128.821 191.766 129.275 186.251 129.006 185.995ZM79.7399 179.241C73.8539 180.255 66.7319 186.373 65.9769 192.47C62.3539 221.739 108.473 222.509 101.315 193.185C98.6979 182.463 90.5569 177.376 79.7399 179.24V179.241ZM568.004 216.995C577.806 217.443 587.641 216.535 597.013 213.514L602.989 185C593.391 188.083 583.058 188.78 573.007 189.007L568.003 216.994L568.004 216.995ZM103.995 242.003C104.239 239.695 103.819 228.093 100.5 228.021C98.6329 227.98 96.4119 245.127 103.995 242.003ZM112.851 229.15C111.943 228.613 110.171 229.159 109.004 228.995C109.597 233.057 106.756 239.754 112.379 237.88C115.157 236.954 113.9 229.771 112.851 229.15ZM259.904 242.893C260.866 241.662 259.656 231.345 256.515 232.005C253.486 232.641 256.092 243.928 257.498 243.979C257.63 243.984 259.823 242.997 259.904 242.893ZM185.515 233.005C182.439 233.673 184.841 238.498 186.48 240.02C191.793 244.958 203.503 245.704 210.392 244.892C212.314 244.665 222.646 241.976 222.996 240.486C224.174 235.48 211.584 241.423 209.243 241.74C204.239 242.417 196.502 241.981 192.076 239.424C189.788 238.102 187.205 232.638 185.515 233.005ZM122.985 234.004C118.529 231.174 117.337 242.116 121.515 242.995C125.349 243.802 123.823 234.536 122.985 234.004ZM142.896 245.881C144.383 243.518 141.652 233.947 139.007 236.006C138.556 236.357 138.18 244.222 138.481 244.978C139.227 246.851 142.199 246.989 142.896 245.881ZM169.901 244.888C170.396 244.1 170.179 238.949 169.521 237.977C166.574 233.622 163.695 240.428 166.506 245.011C167.325 246.346 169.81 245.032 169.901 244.888ZM248.862 237.138C248.374 236.806 245.145 236.872 245.005 237.004C244.601 237.386 246.679 247.534 247.108 247.887C247.436 248.157 250.854 248.133 250.995 247.999C251.643 247.384 249.566 237.617 248.862 237.137V237.138ZM152.509 238.009C150.047 238.786 149.83 248.461 154.49 246.991C156.952 246.214 157.169 236.539 152.509 238.009ZM238.987 239.004C238.078 238.427 235.353 239.216 235.099 240.574C237.028 242.479 233.971 249.55 236.54 249.999C242.247 250.995 239.703 239.459 238.988 239.004H238.987ZM130.011 245.004C129.031 245.69 127.495 257.93 131.485 256.995C134.988 256.174 134.314 241.99 130.011 245.004ZM105.5 246.02C103.537 245.994 102.25 257.441 107.49 255.99C110.307 255.21 107.346 246.044 105.5 246.02ZM181.007 249.995H176.993V257.004H181.007V249.995ZM162.995 250.995C162.853 250.859 159.252 250.903 159.07 251.068C158.665 251.438 157.547 261.446 158.006 261.994C160.313 264.753 165.095 253.002 162.995 250.994V250.995ZM118.014 261.996C123.173 265.42 122.266 252.658 119.485 252.005C115.619 251.097 117.096 261.387 118.014 261.996ZM258.005 252.003C257.588 252.438 256.727 263.473 261.49 261.99C265.194 260.837 261.053 248.827 258.005 252.003ZM147.994 263.005C148.788 262.244 148.14 253.221 144.514 254.006C142.082 254.533 143.725 262.616 144.07 262.93C144.256 263.1 147.853 263.141 147.994 263.005ZM205.91 257.081C201.349 254.15 202.968 264.897 204.524 266.976C209.525 273.655 208.021 258.438 205.91 257.081ZM228.005 257.004C227.583 257.432 226.933 266.257 231.49 264.991C234.824 264.064 230.774 254.197 228.005 257.004ZM248.901 264.888C250.48 262.372 248.926 254.946 244.005 257.005L245.503 265.007C245.943 266.422 248.811 265.032 248.901 264.888ZM138.989 261.004C134.862 258.092 133.78 272.117 138.502 271.978C141.007 271.904 139.957 261.686 138.989 261.004ZM189.775 263.251C185.466 257.815 184.937 271.135 188.514 271.995C192.018 272.838 191.078 264.894 189.775 263.251ZM168.01 263.003C167.288 263.477 167.144 273.701 170.485 272.994C173.442 272.369 172.585 259.999 168.01 263.003ZM109.112 273.879C116.456 278.186 109.869 261.238 106.005 265.005C105.239 265.752 108.531 273.538 109.112 273.879ZM222.995 275C224.384 273.688 221.029 262.925 218.005 266.005C217.555 266.463 218.1 273.305 218.897 274.414C219.591 275.381 222.823 275.163 222.995 275.001V275ZM151.005 277.997C154.145 281.267 157.827 269.009 154.49 268.01C149.71 266.579 150.588 277.562 151.005 277.997ZM393.684 270.311C389.763 265.951 379.936 268.064 375.292 270.792C365.112 276.772 363.121 289.82 362.564 300.502C362.448 302.724 362.21 314.87 362.449 316.024C363.801 322.573 375.395 330.173 380.506 333.995C381.255 331.257 378.641 330.044 379.008 326.597C379.245 324.374 381.745 321.731 381.663 320.503C381.604 319.618 379.612 318.046 379.206 316.294C377.3 308.069 383.017 305.961 383.017 303.518C383.017 301.987 379.459 298.13 378.505 295.997C377.277 293.249 373.826 285.183 377.97 284.43C382.074 283.685 381.963 290.43 383.791 293.71C386.447 298.476 391.452 301.106 396.563 298.06C401.795 294.942 397.139 274.152 393.685 270.31L393.684 270.311ZM129.985 272.004C125.338 269.058 124.346 281.116 128.515 281.995C132.448 282.824 130.843 272.548 129.985 272.004ZM232.098 282.89C235.746 287.56 239.086 274.229 234.487 272.008C232.665 271.128 232.463 274.709 232.291 275.775C232.054 277.24 231.509 282.137 232.098 282.89ZM261.995 272.003C258.444 268.513 255.48 282.344 258.515 282.994C262.697 283.89 262.545 272.544 261.995 272.003ZM425.862 287.872C429.446 276.001 410.547 271.813 401.997 274.022L405.09 286.907L425.862 287.872ZM200.99 285.997C202.79 284.773 199.376 275.031 197.5 275.02C194.358 275.002 196.678 288.93 200.99 285.997ZM244.005 284.997C247.053 288.173 251.193 276.163 247.49 275.01C242.727 273.527 243.588 284.562 244.005 284.997ZM178.005 277.006C175.728 279.137 183.639 291.407 183.087 280.494C182.924 277.28 179.507 275.601 178.005 277.006ZM147.995 286.994C148.501 286.544 145.181 277.903 142.494 278.024C138.357 278.211 144.252 290.32 147.995 286.994ZM213.995 285.004C214.233 284.777 214.159 279.815 213.561 278.937C212.823 277.854 209.361 277.657 209.005 278.004C208.658 278.342 209.824 284.631 210.119 284.873C210.475 285.164 213.854 285.138 213.995 285.004ZM162.995 279.003C159.486 275.544 156.941 287.244 160.515 287.994C163.846 288.693 163.351 279.354 162.995 279.003ZM124.995 301.999C127.472 299.579 117.466 279.423 114.006 283.005C112.137 284.939 119.42 293.415 120.33 296.169C120.897 297.883 120.813 301.786 121.023 301.991C121.165 302.13 124.854 302.138 124.996 301.999H124.995ZM231.998 289.995C233.281 289.026 232.061 285.04 230.5 285.019C226.846 284.97 228.428 292.691 231.998 289.995ZM191.987 286.003C187.208 282.705 187.599 294.124 190.514 294.987C195.992 296.607 192.455 286.327 191.987 286.003ZM222.005 287.995L217.004 288.006C217.926 292.277 216.538 296.264 221.995 295.005L222.005 287.995ZM137.856 289.148C136.852 288.512 133.837 288.172 133.966 290.516C134.068 292.368 136.202 298.493 138.485 297.995C141.379 297.364 138.396 289.49 137.856 289.148ZM254.995 290C254.855 289.866 251.471 289.834 251.117 290.123C250.702 290.461 249.595 297.568 250.006 297.995C252.684 300.778 256.674 291.605 254.995 290ZM175.006 291.991L170.984 291.995L170.993 302.009L175.015 302.005L175.006 291.991ZM154.016 301.995C154.837 302.564 157.669 301.776 157.95 300.429C158.704 296.815 152.172 289.166 152.018 295.419C152.007 295.883 153.734 301.798 154.016 301.994V301.995ZM206.781 294.235C201.561 288.408 202.837 304.986 207.485 303.994C210.128 303.43 207.832 295.408 206.781 294.235ZM400 302.99C406.426 301.672 428.637 309.446 424.806 296.706C423.618 292.756 405.847 292.228 405.038 293.041C404.632 293.449 403.689 301.492 400 302.99ZM235.5 295.02C232.972 295.109 231.695 303.444 234.515 303.995C238.183 304.712 237.527 294.949 235.5 295.02ZM186.515 299.005C183.594 299.619 185.498 310.595 188.485 309.994C191.503 309.387 189.728 298.33 186.515 299.005ZM130.359 307.642C135.551 313.356 139.759 310.488 133.98 304.528C129.738 300.152 125.636 302.445 130.359 307.642ZM245.774 309.745C246.474 308.863 248.942 302.518 246.485 302.005C241.162 300.895 241.069 315.665 245.774 309.745ZM148.515 303.005C145.49 303.638 148.823 311.821 152.488 310.993C155.562 310.298 150.692 302.55 148.515 303.005ZM219.513 303.003C217.752 303.425 214.588 312.067 218.515 312.995C221.806 313.773 223.774 301.982 219.513 303.003ZM166.995 313.995C167.588 313.396 166.403 307.045 165.507 305.993C164.574 304.898 161.476 304.564 161.005 305.005C159.942 306.001 164.096 316.922 166.995 313.995ZM389.708 307.186C385.579 307.754 383.052 313.641 385.978 316.528C389.042 319.552 410.833 321.672 415.552 321.052C421.863 320.222 422.86 311.517 419.31 310.191C411.748 307.366 397.999 309.48 389.708 307.186ZM200.005 309.005C199.291 309.763 200.379 319.66 203.485 318.995C207.159 318.208 203.118 305.701 200.005 309.005ZM179.953 310.317L175.694 311.06L177.18 319.584L181.439 318.841L179.953 310.317ZM235.99 312.003C232.127 309.443 229.51 321.516 230.005 321.995C232.959 324.853 238.59 313.727 235.99 312.003ZM149.995 320.995C151.178 319.729 149.359 315.163 147.556 313.945C139.662 308.61 146.625 324.602 149.995 320.995ZM218.005 325.994C223.184 328.537 225.221 318.069 222.49 317.009C218.737 315.553 218.503 323.783 218.005 325.994ZM158.513 318.007C155.013 318.949 160.149 328.002 161.501 327.981C165.467 327.921 163.028 316.791 158.513 318.007ZM190.515 320.005C187.482 320.642 189.504 330.688 192.486 329.995C196.543 329.052 192.937 319.497 190.515 320.005ZM205.005 330.004C205.356 330.347 208.834 330.132 209.582 329.056C210.319 327.996 209.925 322.336 208.492 322.01C203.796 320.939 204.646 329.652 205.005 330.004ZM172.515 323.005C169.245 323.667 172.536 332.591 175.485 331.994C178.755 331.332 175.464 322.408 172.515 323.005ZM416.005 327.001C407.484 327.73 396.53 323.678 388.493 323.912C384.425 324.03 383.813 327.625 385.937 330.57C390.354 336.694 419.194 342.562 416.005 327.001ZM213.993 336.013C209.26 334.159 204.382 336.837 199.539 337.039C193.185 337.304 184.708 337.503 178.462 337.039C172.216 336.575 165.85 333.965 160.037 333.447C159.018 333.356 155.97 332.685 156.021 334.5C156.096 337.162 180.148 340.863 183.46 341.042C191.899 341.496 203.21 340.266 211.213 337.702C212.259 337.367 214.234 337.445 213.993 336.013ZM91.9999 372C76.3639 379.382 46.3499 402.693 59.1629 422.337C61.8039 426.386 67.3959 429.321 71.9559 430.544C74.8689 431.326 91.9999 433.657 91.9999 430.5V372ZM150.137 438.875C144.111 435.01 160.65 431.241 162.474 426.981C166.05 418.629 156.808 417.241 150.582 418.091C147.32 418.536 130.915 427.246 130.962 420.483C130.993 415.983 152.115 414.806 139.707 410.755C130.614 407.787 115.515 420.85 112.492 428.992C108.696 439.217 113.387 468.327 122.054 475.444C129.411 481.486 166.979 481.247 165.989 464.999C162.55 466.784 158.45 467.533 154.564 467.01C153.329 466.844 153.499 463.303 155.692 462.191C159.396 460.312 167.542 460.194 167.978 453.435C168.588 443.997 160.58 454.177 155.454 453.941C153.377 453.845 151.601 451.58 151.973 449.531C152.177 448.405 166.243 446.503 166.698 438.349C166.77 437.053 165.551 433.021 164.499 433.018C163.706 433.015 154.635 441.76 150.137 438.875ZM233.998 464.988C234.524 464.277 230.976 461.378 229.552 461.948C211.871 463.203 192.993 460.649 175.456 461.956C169.643 462.389 169.641 464.61 175.456 465.045C183.251 465.628 191.798 465.865 199.461 466.05C204.021 466.16 232.86 466.528 233.998 464.989V464.988ZM97.0049 638.005C96.4269 638.51 97.4649 640.672 98.6729 640.827C112.38 640.02 126.997 643.043 140.544 642.045C141.632 641.965 144.956 641.964 144.98 640.5C145.025 637.755 133.216 638.986 131.612 638.893C127.407 638.65 98.3129 636.865 97.0049 638.005ZM238.995 641.995C239.292 639.471 237.541 639.119 235.527 638.917C230.437 638.407 222.685 639.911 217.542 640.041C214.077 640.128 194.892 639.231 194.006 640.005C192.328 641.469 195.943 642.872 197.45 643.05C210.198 644.561 226.066 642.167 238.996 641.994L238.995 641.995ZM144.996 651.995C146.032 651.101 144.12 649.303 142.494 649.006C134.266 647.505 118.769 649.277 109.459 649.041C106.259 648.96 91.6639 646.071 99.5069 651.994C104.773 651.347 143.27 653.483 144.996 651.995ZM194 651.01C195.076 653.704 198.036 653.827 200.452 654.048C210.107 654.932 224.541 653.766 234.545 653.045C240.35 652.626 240.365 650.389 234.545 649.955C221.381 648.975 207.167 650.561 194.001 651.01H194ZM194.979 696.952V702H304.995V696.952H194.979ZM147 698H30.9999V701H147V698Z" fill="black"/>
<path d="M147 698H31V701H147V698Z" fill="white"/>
<path d="M233.998 464.988C232.86 466.527 204.021 466.159 199.461 466.049C191.798 465.864 183.251 465.628 175.456 465.044C169.64 464.609 169.643 462.388 175.456 461.955C192.992 460.649 211.871 463.202 229.552 461.947C230.976 461.377 234.524 464.277 233.998 464.988Z" fill="white"/>
<path d="M144.996 651.995C143.27 653.483 104.773 651.347 99.507 651.994C91.664 646.071 106.259 648.96 109.459 649.041C118.77 649.277 134.266 647.506 142.494 649.006C144.12 649.303 146.032 651.101 144.996 651.995Z" fill="white"/>
<path d="M97.0053 638.005C98.3123 636.865 127.407 638.65 131.612 638.893C133.216 638.986 145.025 637.755 144.98 640.5C144.956 641.964 141.632 641.965 140.544 642.045C126.997 643.044 112.379 640.021 98.6733 640.827C97.4653 640.672 96.4273 638.509 97.0053 638.005Z" fill="white"/>
<path d="M194 651.01C207.166 650.562 221.38 648.975 234.544 649.955C240.363 650.388 240.348 652.626 234.544 653.045C224.54 653.766 210.106 654.932 200.451 654.048C198.036 653.827 195.075 653.704 193.999 651.01H194Z" fill="white"/>
<path d="M238.995 641.995C226.066 642.168 210.197 644.561 197.449 643.051C195.942 642.872 192.327 641.469 194.005 640.006C194.892 639.232 214.077 640.129 217.541 640.042C222.684 639.912 230.437 638.408 235.526 638.918C237.54 639.12 239.291 639.471 238.994 641.996L238.995 641.995Z" fill="white"/>
<path d="M87 174C88.693 132.126 148.687 117.294 182.548 118.952C204.895 120.046 245.413 130.317 256.068 152.432C258.89 158.288 253.653 155.4 248.625 156.126C241.184 157.2 234.722 160.106 229.359 165.357C228.291 166.402 225.84 171.038 225.433 171.065C224.246 171.143 221.112 168.785 219.222 168.278C214.542 167.023 208.504 166.241 203.725 167.225C201.654 167.651 197.651 170.818 196.485 170.724C195.424 170.639 189.837 163.904 187.935 162.563C173.081 152.095 144.115 157.349 133.005 171.502C131.605 173.285 130.445 177.355 129.254 178.002C127.308 179.059 113.718 179.636 111.617 179.062C110.84 178.849 110.168 173.999 108.499 173.999H86.999L87 174ZM99.996 157.996C100.412 158.432 111.484 159.259 109.991 154.51C109.321 152.379 100.987 152.007 100.119 154.619C99.894 155.295 99.867 157.861 99.997 157.996H99.996ZM96.659 163.164C91.482 164.817 97.478 171.123 105.294 168.787C112.802 166.543 103.08 161.114 96.659 163.164Z" fill="white"/>
<path d="M99.9963 157.996C99.8673 157.861 99.8943 155.295 100.118 154.619C100.987 152.007 109.32 152.379 109.99 154.51C111.483 159.259 100.412 158.432 99.9953 157.996H99.9963Z" fill="black"/>
<path d="M129.006 185.995C129.275 186.251 128.82 191.766 129.087 193.416C134.434 226.473 200.89 223.963 199.991 185.509C199.946 183.571 198.66 181.438 198.943 179.525C199.956 172.693 219.658 171.936 222.511 177.989C223.773 180.667 223.527 189.185 224.945 193.555C229.159 206.541 239.714 211.225 252.456 212.04C258.819 212.447 263.278 208.453 261.767 217.26C259.802 228.716 242.514 227.694 233.628 226.871C224.742 226.048 213.759 221.006 205.5 221.011C194.798 221.018 179.545 227.156 167.489 227.989C147.895 229.342 117.999 230.345 114.258 205.241C113.843 202.454 112.6 187.448 113.47 185.945C113.859 185.273 128.443 185.459 129.005 185.995H129.006ZM220 213C219.314 213.693 203.291 213 200.5 213C198.908 213 196.843 218 199.5 218H221.5C221.819 218 225.523 214.2 225.798 213.293C226.461 211.103 225.949 209.093 225.541 206.949C224.985 204.027 214.99 179.681 213.474 177.953C212.476 176.815 209.268 177.898 208.416 178.954C207.2 180.462 222.55 210.422 219.999 213H220Z" fill="white"/>
<path d="M150.137 438.875C154.635 441.76 163.706 433.016 164.499 433.019C165.551 433.023 166.77 437.055 166.698 438.35C166.244 446.504 152.178 448.407 151.973 449.532C151.601 451.581 153.377 453.846 155.454 453.942C160.58 454.178 168.588 443.998 167.978 453.436C167.541 460.195 159.395 460.313 155.692 462.192C153.499 463.304 153.329 466.845 154.564 467.011C158.45 467.533 162.55 466.785 165.989 465C166.979 481.248 129.412 481.487 122.054 475.445C113.387 468.328 108.696 439.218 112.492 428.993C115.515 420.851 130.614 407.788 139.707 410.756C152.115 414.806 130.993 415.983 130.962 420.484C130.915 427.247 147.32 418.537 150.582 418.092C156.808 417.242 166.049 418.63 162.474 426.982C160.65 431.242 144.11 435.01 150.137 438.875Z" fill="white"/>
<path d="M393.684 270.311C397.139 274.153 401.794 294.943 396.562 298.061C391.451 301.107 386.446 298.477 383.79 293.711C381.962 290.43 382.073 283.685 377.969 284.431C373.825 285.184 377.275 293.249 378.504 295.998C379.458 298.131 383.016 301.988 383.016 303.519C383.016 305.962 377.3 308.07 379.205 316.295C379.611 318.047 381.603 319.619 381.662 320.504C381.745 321.732 379.244 324.375 379.007 326.598C378.64 330.044 381.254 331.258 380.505 333.996C375.394 330.174 363.8 322.574 362.448 316.025C362.21 314.871 362.448 302.725 362.563 300.503C363.12 289.82 365.111 276.773 375.291 270.793C379.935 268.065 389.763 265.952 393.683 270.312L393.684 270.311Z" fill="white"/>
<path d="M79.7396 179.241C90.5576 177.377 98.6976 182.464 101.315 193.186C108.473 222.509 62.3536 221.74 65.9766 192.471C66.7316 186.373 73.8536 180.256 79.7396 179.242V179.241ZM79.2626 192.758C80.3676 193.742 84.5846 194.624 84.9846 196.528C85.5456 199.196 78.1766 200.423 77.0176 202.499C82.2096 209.611 83.4816 203.855 87.0316 202.478C88.5606 201.885 89.9116 203.127 91.2916 202.83C97.3266 201.533 88.8726 190.347 83.2676 189.209C79.8396 188.514 76.1756 190.009 79.2616 192.757L79.2626 192.758Z" fill="white"/>
<path d="M389.708 307.186C397.999 309.48 411.747 307.367 419.31 310.191C422.86 311.517 421.863 320.222 415.552 321.052C410.832 321.673 389.042 319.552 385.978 316.528C383.052 313.641 385.58 307.754 389.708 307.186Z" fill="white"/>
<path d="M416.005 327.001C419.194 342.562 390.353 336.694 385.937 330.57C383.813 327.625 384.425 324.031 388.493 323.912C396.53 323.678 407.484 327.73 416.005 327.001Z" fill="white"/>
<path d="M425.862 287.872L405.09 286.907L401.997 274.022C410.548 271.813 429.447 276.001 425.862 287.872Z" fill="white"/>
<path d="M400 302.99C403.689 301.492 404.633 293.449 405.039 293.041C405.847 292.228 423.619 292.756 424.807 296.706C428.637 309.446 406.425 301.672 400 302.99Z" fill="white"/>
<path d="M213.993 336.013C214.234 337.446 212.258 337.367 211.213 337.702C203.209 340.266 191.899 341.496 183.46 341.042C180.147 340.864 156.096 337.163 156.021 334.5C155.97 332.685 159.018 333.356 160.037 333.447C165.85 333.964 172.193 336.574 178.462 337.039C184.731 337.504 193.185 337.303 199.539 337.039C204.382 336.837 209.261 334.16 213.993 336.013Z" fill="white"/>
<path d="M162.005 169.995C161.75 162.23 175.703 166.672 179.936 169.564C184.307 172.55 191.651 184.594 188.533 189.03C184.381 194.939 183.347 180.539 182.199 178.3C178.314 170.724 169.793 169.197 162.004 169.994L162.005 169.995Z" fill="white"/>
<path d="M274.862 188.867C269.625 191.936 270.52 182.39 269.541 178.959C268.5 175.308 265.793 170.9 262.274 169.225C260.753 168.501 249.234 167.658 253.984 164.481C256.345 162.901 266.732 166.286 269.006 168.493C272.024 171.422 278.238 186.888 274.862 188.866V188.867Z" fill="white"/>
<path d="M185.515 233.005C187.205 232.638 189.789 238.102 192.076 239.424C196.501 241.981 204.239 242.417 209.243 241.74C211.584 241.423 224.174 235.48 222.996 240.486C222.645 241.976 212.314 244.666 210.392 244.892C203.503 245.704 191.793 244.958 186.48 240.02C184.842 238.497 182.44 233.673 185.515 233.005Z" fill="white"/>
<path d="M124.995 301.999C124.853 302.138 121.164 302.13 121.022 301.991C120.813 301.786 120.896 297.882 120.329 296.169C119.419 293.415 112.136 284.94 114.005 283.005C117.465 279.423 127.471 299.58 124.994 301.999H124.995Z" fill="white"/>
<path d="M103.995 242.003C96.4123 245.126 98.6333 227.98 100.5 228.021C103.82 228.094 104.239 239.696 103.995 242.003Z" fill="white"/>
<path d="M130.011 245.004C134.314 241.989 134.989 256.173 131.485 256.995C127.495 257.93 129.031 245.691 130.011 245.004Z" fill="white"/>
<path d="M248.862 237.138C249.566 237.617 251.643 247.385 250.995 248C250.854 248.134 247.436 248.158 247.108 247.888C246.679 247.535 244.601 237.387 245.005 237.005C245.145 236.872 248.374 236.806 248.862 237.139V237.138Z" fill="white"/>
<path d="M259.904 242.893C259.823 242.997 257.63 243.983 257.499 243.979C256.093 243.929 253.487 232.642 256.516 232.005C259.656 231.345 260.866 241.662 259.905 242.893H259.904Z" fill="white"/>
<path d="M162.995 250.995C165.095 253.003 160.313 264.754 158.006 261.995C157.548 261.447 158.665 251.439 159.07 251.069C159.252 250.903 162.853 250.86 162.995 250.996V250.995Z" fill="white"/>
<path d="M232.098 282.89C231.509 282.137 232.054 277.24 232.291 275.775C232.464 274.708 232.666 271.128 234.487 272.008C239.085 274.229 235.745 287.56 232.098 282.89Z" fill="white"/>
<path d="M238.987 239.004C239.703 239.459 242.246 250.995 236.539 249.999C233.971 249.55 237.027 242.479 235.098 240.574C235.353 239.217 238.078 238.427 238.986 239.004H238.987Z" fill="white"/>
<path d="M261.995 272.003C262.545 272.544 262.697 283.89 258.515 282.994C255.48 282.344 258.444 268.512 261.995 272.003Z" fill="white"/>
<path d="M129.985 272.004C130.842 272.548 132.448 282.824 128.515 281.995C124.346 281.116 125.338 269.058 129.985 272.004Z" fill="white"/>
<path d="M206.781 294.235C207.832 295.409 210.128 303.43 207.485 303.994C202.836 304.986 201.561 288.408 206.781 294.235Z" fill="white"/>
<path d="M205.91 257.081C208.021 258.438 209.525 273.654 204.524 266.976C202.968 264.897 201.349 254.15 205.91 257.081Z" fill="white"/>
<path d="M186.515 299.005C189.729 298.33 191.503 309.387 188.485 309.994C185.498 310.595 183.593 299.618 186.515 299.005Z" fill="white"/>
<path d="M244.005 284.997C243.588 284.562 242.727 273.527 247.49 275.01C251.194 276.163 247.053 288.173 244.005 284.997Z" fill="white"/>
<path d="M112.851 229.15C113.9 229.771 115.157 236.954 112.379 237.88C106.756 239.755 109.597 233.057 109.004 228.995C110.171 229.159 111.943 228.613 112.851 229.15Z" fill="white"/>
<path d="M235.99 312.003C238.59 313.727 232.96 324.853 230.005 321.995C229.51 321.516 232.127 309.443 235.99 312.003Z" fill="white"/>
<path d="M158.513 318.007C163.027 316.792 165.466 327.922 161.501 327.981C160.15 328.001 155.014 318.949 158.513 318.007Z" fill="white"/>
<path d="M258.005 252.003C261.053 248.827 265.193 260.837 261.49 261.99C256.727 263.473 257.588 252.438 258.005 252.003Z" fill="white"/>
<path d="M142.896 245.881C142.199 246.989 139.227 246.851 138.481 244.978C138.18 244.222 138.557 236.357 139.007 236.006C141.652 233.946 144.382 243.518 142.896 245.881Z" fill="white"/>
<path d="M200.99 285.997C196.678 288.93 194.358 275.002 197.5 275.02C199.376 275.031 202.79 284.772 200.99 285.997Z" fill="white"/>
<path d="M138.989 261.004C139.956 261.686 141.006 271.904 138.502 271.978C133.781 272.117 134.863 258.092 138.989 261.004Z" fill="white"/>
<path d="M152.509 238.009C157.169 236.539 156.953 246.215 154.49 246.991C149.83 248.461 150.046 238.785 152.509 238.009Z" fill="white"/>
<path d="M151.005 277.997C150.588 277.562 149.709 266.579 154.49 268.01C157.827 269.009 154.145 281.267 151.005 277.997Z" fill="white"/>
<path d="M130.359 307.642C125.636 302.445 129.738 300.152 133.98 304.528C139.759 310.488 135.551 313.357 130.359 307.642Z" fill="white"/>
<path d="M219.513 303.003C223.774 301.983 221.806 313.773 218.515 312.995C214.588 312.067 217.753 303.424 219.513 303.003Z" fill="white"/>
<path d="M175.011 291.993H170.989V302.007H175.011V291.993Z" fill="white"/>
<path d="M118.014 261.996C117.097 261.387 115.619 251.097 119.485 252.005C122.266 252.658 123.173 265.42 118.014 261.996Z" fill="white"/>
<path d="M166.995 313.995C164.096 316.923 159.942 306.002 161.005 305.005C161.476 304.564 164.574 304.898 165.507 305.993C166.403 307.044 167.588 313.396 166.995 313.995Z" fill="white"/>
<path d="M190.515 320.005C192.936 319.497 196.543 329.052 192.486 329.995C189.505 330.688 187.482 320.641 190.515 320.005Z" fill="white"/>
<path d="M168.01 263.003C172.585 259.999 173.442 272.369 170.485 272.994C167.145 273.701 167.288 263.477 168.01 263.003Z" fill="white"/>
<path d="M191.987 286.003C192.456 286.326 195.993 296.607 190.514 294.987C187.599 294.125 187.208 282.705 191.987 286.003Z" fill="white"/>
<path d="M109.112 273.879C108.531 273.538 105.239 265.752 106.005 265.005C109.869 261.238 116.455 278.186 109.112 273.879Z" fill="white"/>
<path d="M222.995 275C222.823 275.162 219.591 275.38 218.897 274.413C218.1 273.304 217.555 266.462 218.005 266.004C221.029 262.925 224.384 273.687 222.995 274.999V275Z" fill="white"/>
<path d="M200.005 309.005C203.118 305.701 207.159 318.208 203.485 318.995C200.379 319.66 199.291 309.763 200.005 309.005Z" fill="white"/>
<path d="M218.005 325.994C218.503 323.783 218.737 315.553 222.49 317.009C225.222 318.069 223.184 328.537 218.005 325.994Z" fill="white"/>
<path d="M122.985 234.004C123.823 234.536 125.348 243.802 121.515 242.995C117.338 242.116 118.53 231.174 122.985 234.004Z" fill="white"/>
<path d="M105.5 246.02C107.346 246.044 110.307 255.21 107.49 255.99C102.25 257.441 103.537 245.994 105.5 246.02Z" fill="white"/>
<path d="M147.994 263.005C147.852 263.141 144.257 263.099 144.071 262.93C143.726 262.616 142.083 254.533 144.515 254.006C148.141 253.221 148.789 262.245 147.995 263.005H147.994Z" fill="white"/>
<path d="M137.856 289.148C138.396 289.49 141.379 297.364 138.485 297.995C136.202 298.493 134.068 292.368 133.966 290.516C133.837 288.172 136.852 288.512 137.856 289.148Z" fill="white"/>
<path d="M189.775 263.251C191.078 264.894 192.018 272.839 188.514 271.995C184.938 271.134 185.466 257.814 189.775 263.251Z" fill="white"/>
<path d="M147.995 286.994C144.252 290.321 138.357 278.212 142.494 278.024C145.182 277.902 148.501 286.544 147.995 286.994Z" fill="white"/>
<path d="M205.005 330.004C204.646 329.652 203.796 320.939 208.492 322.009C209.925 322.336 210.319 327.995 209.582 329.055C208.834 330.131 205.356 330.347 205.005 330.003V330.004Z" fill="white"/>
<path d="M172.515 323.005C175.464 322.408 178.756 331.333 175.485 331.994C172.536 332.591 169.244 323.666 172.515 323.005Z" fill="white"/>
<path d="M248.901 264.888C248.811 265.032 245.942 266.422 245.503 265.007L244.005 257.005C248.925 254.946 250.48 262.372 248.901 264.888Z" fill="white"/>
<path d="M149.995 320.995C146.625 324.602 139.662 308.61 147.556 313.945C149.359 315.163 151.178 319.729 149.995 320.995Z" fill="white"/>
<path d="M154.016 301.995C153.734 301.799 152.007 295.884 152.018 295.42C152.172 289.167 158.704 296.816 157.95 300.43C157.669 301.777 154.836 302.565 154.016 301.996V301.995Z" fill="white"/>
<path d="M169.901 244.888C169.811 245.032 167.325 246.346 166.506 245.011C163.695 240.428 166.574 233.622 169.521 237.977C170.179 238.949 170.396 244.1 169.901 244.888Z" fill="white"/>
<path d="M179.951 310.318L175.692 311.061L177.178 319.584L181.437 318.842L179.951 310.318Z" fill="white"/>
<path d="M245.774 309.745C241.07 315.666 241.162 300.896 246.485 302.005C248.941 302.517 246.474 308.863 245.774 309.745Z" fill="white"/>
<path d="M254.995 290C256.674 291.605 252.684 300.778 250.006 297.995C249.595 297.568 250.703 290.461 251.117 290.123C251.471 289.834 254.855 289.866 254.995 290Z" fill="white"/>
<path d="M162.995 279.003C163.352 279.354 163.846 288.694 160.515 287.994C156.941 287.244 159.486 275.544 162.995 279.003Z" fill="white"/>
<path d="M148.515 303.005C150.692 302.55 155.561 310.298 152.488 310.993C148.823 311.821 145.491 303.638 148.515 303.005Z" fill="white"/>
<path d="M228.005 257.004C230.774 254.197 234.824 264.064 231.49 264.991C226.933 266.258 227.583 257.432 228.005 257.004Z" fill="white"/>
<path d="M178.005 277.006C179.507 275.601 182.924 277.28 183.087 280.494C183.639 291.408 175.728 279.137 178.005 277.006Z" fill="white"/>
<path d="M222.005 287.995L221.995 295.005C216.538 296.264 217.926 292.277 217.004 288.006L222.005 287.995Z" fill="white"/>
<path d="M213.995 285.004C213.855 285.138 210.475 285.164 210.119 284.873C209.824 284.631 208.658 278.343 209.005 278.004C209.361 277.657 212.822 277.854 213.561 278.937C214.159 279.814 214.233 284.777 213.995 285.004Z" fill="white"/>
<path d="M235.5 295.02C237.527 294.948 238.183 304.711 234.515 303.995C231.695 303.444 232.973 295.11 235.5 295.02Z" fill="white"/>
<path d="M181.007 249.995H176.993V257.004H181.007V249.995Z" fill="white"/>
<path d="M231.998 289.995C228.428 292.692 226.846 284.97 230.5 285.019C232.061 285.04 233.281 289.025 231.998 289.995Z" fill="white"/>
<path d="M96.6592 163.164C103.08 161.113 112.802 166.543 105.294 168.787C97.4782 171.123 91.4822 164.818 96.6592 163.164Z" fill="black"/>
<path d="M220 213C222.551 210.421 207.201 180.461 208.417 178.954C209.268 177.898 212.476 176.815 213.475 177.953C214.991 179.681 224.985 204.028 225.542 206.949C225.95 209.092 226.462 211.103 225.799 213.293C225.524 214.201 221.819 218 221.501 218H199.501C196.844 218 198.909 213 200.501 213C203.292 213 219.315 213.693 220.001 213H220Z" fill="black"/>
<path d="M79.2625 192.758C76.1765 190.01 79.8406 188.515 83.2686 189.21C88.8736 190.347 97.3275 201.534 91.2925 202.831C89.9125 203.127 88.5625 201.886 87.0325 202.479C83.4815 203.856 82.2106 209.612 77.0186 202.5C78.1776 200.424 85.5455 199.197 84.9855 196.529C84.5855 194.625 80.3685 193.743 79.2635 192.759L79.2625 192.758Z" fill="black"/>
<path d="M645.896 67.1199C647.628 69.8799 640.422 103.194 638.234 107.733C636.611 111.101 633.762 108.57 634.053 104.636C634.508 98.4899 638.327 88.085 639.707 81.208C640.294 78.282 640.354 66.607 643.475 66.26C643.603 66.246 645.827 67.0119 645.896 67.1199Z" fill="black"/>
<path d="M498.99 111C490.246 106.239 480.959 102.53 471.071 100.933L476.002 71.997C477.272 70.728 501.926 78.691 503.544 82.009C505.191 85.389 498.577 105.569 498.99 111Z" fill="white"/>
<path d="M479.5 40.9999C480.8 41.3969 481.002 43.0899 480.951 44.3519C480.848 46.9179 476.113 69.7589 475.051 70.5819C467.643 69.7969 459.918 69.7279 452.454 69.9529C447.991 70.0879 445.39 73.503 446.121 67.626C446.678 63.149 449.595 46.0679 451.017 42.7669C451.331 42.0379 453.017 40.9989 453.5 40.9989C458.709 40.9989 476.068 39.9499 479.5 40.9989V40.9999Z" fill="white"/>
<path d="M469.004 101.001L463.051 130.582C453.059 129.263 442.953 130.052 433 130.99L439.051 102.055L469.004 101.001Z" fill="white"/>
<path d="M591.003 98.007L584.874 126.871C582.425 128.47 558.997 121.694 557.476 119.054L563.008 89.999C572.01 93.606 581.194 97.221 591.003 98.007Z" fill="white"/>
<path d="M572.901 186.893C570.625 188.812 547.028 182.176 545.444 179.002L551.012 150.002C559.417 155.104 569.153 156.707 578.564 158.971L572.9 186.892L572.901 186.893Z" fill="white"/>
<path d="M515.886 22.1231L510.995 50.9951C502.087 46.5611 492.849 42.9921 483.072 40.9171L488.076 13.0811C498.055 13.2601 507.024 18.2961 515.886 22.1231Z" fill="white"/>
<path d="M616 126.01L609.011 154.511C599.605 156.997 589.77 158.099 580.003 157.993L586.126 129.124L616 126.01Z" fill="white"/>
<path d="M627.995 66.0039L621.789 94.8009C617.12 95.4549 594.697 100.194 592.438 97.0259L598.134 69.1309C608.275 69.3389 618.192 68.6819 627.993 66.0039H627.995Z" fill="white"/>
<path d="M486.995 169.999C481.725 167.841 476.97 164.853 471.533 162.967C467.482 161.561 463.169 161.207 459.112 159.887L464.002 131.995C465.493 130.498 489.896 139.367 491.546 141.993C493.077 144.43 486.629 165.28 486.995 170V169.999Z" fill="white"/>
<path d="M555.876 119.161C556.554 120.314 551.779 143.059 550.951 145.451C550.675 146.249 550.425 147.804 549.476 148.003C547.891 148.335 525.704 132.792 525.241 130.383L531.012 102.001C533.536 106.528 554.83 117.381 555.876 119.16V119.161Z" fill="white"/>
<path d="M511.008 53C512.509 51.684 535.141 68.743 535.837 71.694C536.138 72.97 531.794 94.824 530.95 97.45C530.617 98.486 530.622 99.314 529.499 99.979L506.122 81.318L511.007 52.999L511.008 53Z" fill="white"/>
<path d="M499.011 113.001C500.108 111.901 523.335 129.416 523.759 131.615C524.008 132.905 519.736 155.002 518.952 157.451C518.62 158.489 518.622 159.315 517.502 159.98L494.169 141.298C494.361 131.788 497.775 122.452 499.012 113.001H499.011Z" fill="white"/>
<path d="M562.995 87.999C561.855 89.136 538.397 73.298 537.546 71.055C537.035 69.708 542.06 43.007 543.501 43.019L567.896 60.6771L562.995 87.999Z" fill="white"/>
<path d="M568.004 216.995L573.008 189.008C583.059 188.781 593.392 188.084 602.99 185.001L597.014 213.515C587.641 216.535 577.807 217.444 568.005 216.996L568.004 216.995Z" fill="white"/>
<path d="M543.974 179.069C541.354 187.271 541.187 197.399 538.954 205.454C538.736 206.24 538.342 207.928 537.506 207.975C535.457 208.09 513.788 191.949 513.157 189.303C512.875 188.122 517.221 167.595 517.999 165.5C518.271 164.768 518.724 163.075 519.493 163.024C520.958 162.928 539.497 179.053 543.973 179.068L543.974 179.069Z" fill="white"/>
</g>
<defs>
<clipPath id="clip0_59_1185">
<rect width="656" height="726" fill="white"/>
</clipPath>
</defs>
</svg>
