<svg width="1429" height="1993" viewBox="0 0 1429 1993" fill="none" xmlns="http://www.w3.org/2000/svg">
<g clip-path="url(#clip0_59_1679)">
<path d="M947.927 1837.83L937.987 1832.96L914.066 1835.4L910.085 1813.83L899.991 1807.99L872.237 1811.96L870.093 1791.93L857.42 1782.58L828.489 1789.09L830.455 1771.5L816.072 1755.92L759.877 1796.87L774.277 1837.83L853.902 1866.15L931.83 1884.76L955.548 1866.15L947.927 1837.83Z" fill="white"/>
<path d="M309.86 1763.67L295.852 1769.93V1787.39L272.002 1784.97L263.929 1789.93V1809.42L234.006 1806.97L221.361 1811.4V1826.36L194.009 1827.99L179.986 1835.84V1856.6L239.135 1876.97L388.019 1803.49L355.831 1777.23L309.86 1763.67Z" fill="white"/>
<path d="M624.532 1977.5C628.497 1974.22 671.76 1973.94 678.885 1975.11C686.916 1976.43 695.706 1984.32 685.171 1989.17C677.364 1992.77 629.604 1992.7 623.765 1986.13C621.646 1983.74 622.314 1979.33 624.533 1977.5H624.532Z" fill="black"/>
<path d="M795 1975C800.83 1975.98 804.527 1983.51 797.871 1987.87C789.312 1993.48 746.815 1991.72 738.125 1985.88C732.801 1982.29 733.192 1975 737 1975C753.07 1975 780.657 1972.59 795 1975Z" fill="black"/>
<path d="M265 1947C268.47 1947.74 276.617 1955.07 273.99 1958.98C271.722 1962.35 208.207 1962.62 204.205 1956.82C202.929 1954.26 204.612 1947 207 1947C221.515 1947 252.98 1944.44 265 1947Z" fill="black"/>
<path d="M903.911 1990.91C900.105 1995.5 853.154 1990.78 845.106 1988.89C842.191 1988.21 839.746 1987.72 839.913 1983.99C839.883 1974.02 864.705 1974.74 870.987 1975.03C876.525 1975.29 895.853 1977.78 899.9 1980.1C903.184 1981.98 905.855 1988.56 903.911 1990.91Z" fill="black"/>
<path d="M336 1989H273C270.543 1989 263.92 1980.41 272.502 1976.5C279.147 1973.47 313.504 1974.42 322.105 1975.89C330.18 1977.28 337.852 1979.02 336 1989Z" fill="black"/>
<path d="M687 1945C702.803 1947.45 712.856 1959.41 689.079 1961.09C679.79 1961.74 641.797 1962.63 639.929 1949.99C638.468 1947.33 644.369 1945 645 1945C657.13 1945 675.966 1943.29 687 1945Z" fill="black"/>
<path d="M998.007 1988.99C994.689 1992.5 945.795 1989.11 940.872 1985.13C931.098 1977.23 945.847 1973.75 952.991 1972.99C962.39 1971.99 994.116 1972.11 997.638 1982.36C998.13 1983.8 998.383 1988.59 998.007 1988.99Z" fill="black"/>
<path d="M739 1947H793C798.141 1947 803.802 1956.25 795.984 1959.99C791.255 1962.25 746.953 1961.67 741.001 1959.17C732.834 1955.75 733.067 1953.16 739 1947Z" fill="black"/>
<path d="M372.543 1986.47C366.156 1980.19 377.289 1975.63 382.954 1974.96C391.449 1973.95 424.532 1973.93 430.739 1977.26C435.778 1979.95 437.175 1984.86 432.015 1988.03C429.831 1989.37 386.727 1990.43 380.927 1990.04C379.015 1989.91 373.847 1987.76 372.543 1986.47Z" fill="black"/>
<path d="M589.822 1951.17C590.651 1956.42 590.627 1959.94 585.002 1961C577.659 1962.39 529.944 1962.51 528.138 1955.81C528.121 1947.93 538.481 1945.47 545.014 1944.97C550.827 1944.52 587.973 1948.47 589.822 1951.17Z" fill="black"/>
<path d="M484.004 1956.98C483.496 1957.58 470.718 1960.59 468.838 1960.84C459.251 1962.14 435.487 1963.89 427.104 1960.9C424.413 1959.94 421.66 1959.95 421.908 1955.99C421.881 1944.5 462.518 1946.16 471.095 1946.91C475.491 1947.29 489.211 1950.87 484.004 1956.98Z" fill="black"/>
<path d="M549.411 1919.41C555.566 1917.57 595.852 1918.03 599.1 1922.9C605.998 1933.22 587.992 1934.42 580.973 1934.97C569.04 1935.91 549.832 1936.41 542.108 1926C544.235 1923.9 546.518 1920.28 549.411 1919.41Z" fill="black"/>
<path d="M71.0001 1987C63.6411 1986.11 44.4471 1979.3 58.8311 1972.83C67.0781 1969.12 110.175 1969.76 111.914 1980.21C112.268 1982.34 107.672 1987 107.001 1987C95.9621 1987 81.4351 1988.26 71.0011 1987H71.0001Z" fill="black"/>
<path d="M101 1959C100.523 1958.87 94.1339 1952.43 94.0249 1951.95C93.4139 1949.22 95.4639 1948.51 97.3859 1947.39C103.727 1943.69 149.238 1943.1 153.105 1948.89C155.215 1952.05 153.601 1959 151 1959C140.358 1959 108.485 1961.13 101 1959Z" fill="black"/>
<path d="M173 1989C168.311 1988.49 148.917 1984.49 154.01 1977.02C155.949 1977.57 158.284 1975 159 1975H209C214.81 1975 214.81 1989 209 1989C197.799 1989 183.696 1990.17 173 1989Z" fill="black"/>
<path d="M371.878 1953.12C375.112 1957.82 367.939 1962.47 363.094 1963.09C355.733 1964.05 320.466 1963.86 315.99 1960.02C313.048 1957.49 312.232 1952.3 316.44 1950.42C322.97 1947.49 368.201 1947.78 371.879 1953.12L371.878 1953.12Z" fill="black"/>
<path d="M1117.79 1889.19C1127.65 1903.45 1085.74 1901.5 1079.22 1900.79C1071.57 1899.95 1060.9 1898.49 1063.99 1889.01C1071.01 1891.62 1076.52 1885.76 1081.1 1885.1C1087.14 1884.23 1114.78 1884.84 1117.79 1889.19Z" fill="black"/>
<path d="M914.003 1951.02C916.195 1971.74 860.06 1962.49 860.038 1954C873.778 1942.12 897.51 1946.78 914.003 1951.02Z" fill="black"/>
<path d="M969 1959C967.787 1958.66 963.696 1954.14 964.085 1952.21C966.273 1941.37 1020.05 1941.98 1020.07 1953.97L1017 1959C1004.42 1956.73 979.877 1962.07 969 1959Z" fill="black"/>
<path d="M498.996 1972.12C505.165 1971.86 523.248 1972.22 528.575 1973.42C535.305 1974.95 541.156 1981.64 534.015 1986.03C530.627 1988.11 501.454 1987.36 495.54 1986.46C476.237 1983.53 482.543 1972.81 498.997 1972.12H498.996Z" fill="black"/>
<path d="M1072.1 1947.1C1075.73 1942.73 1123.84 1943.92 1121.9 1955.77C1120.47 1964.51 1080.24 1962.21 1073.96 1956.05C1072 1954.13 1070.93 1948.52 1072.1 1947.1Z" fill="black"/>
<path d="M1035 1973H1071C1072.09 1973 1079.6 1978.6 1079.89 1980.22C1079.16 1986.48 1072.86 1987.02 1067.7 1987.69C1059.91 1988.71 1042.16 1989.5 1035.53 1986.47C1027.72 1982.9 1028.72 1977.71 1035 1973Z" fill="black"/>
<path d="M82.0004 1933H43.0004C37.9284 1933 31.5154 1926.97 34.1804 1921.17C42.3014 1915.19 81.9044 1916.72 83.6234 1926.29C84.0264 1928.53 81.7304 1930.69 82.0004 1933Z" fill="black"/>
<path d="M59.5243 1949.46C64.7353 1954.06 58.9443 1958.37 53.0943 1959.1C45.2623 1960.08 9.79727 1961.21 8.12227 1951.76C7.80027 1949.77 9.37926 1947.96 10.8793 1946.87C16.4413 1942.84 53.8043 1944.41 59.5253 1949.46H59.5243Z" fill="black"/>
<path d="M1038.49 1924.48C1036.51 1922.51 1036.57 1916.27 1038.2 1915.18C1039.07 1914.6 1056.49 1912.85 1059 1912.83C1067.32 1912.78 1081.01 1914.86 1085.88 1922.24C1087.66 1932.43 1045.09 1931.05 1038.49 1924.48L1038.49 1924.48Z" fill="black"/>
<path d="M559 1903C556.436 1902.29 552.787 1896.21 554.112 1893.12C557.868 1887.62 594.426 1887.58 600.651 1891.35C606.584 1894.94 603.701 1903 601 1903C591.725 1903 565.649 1904.86 559 1903Z" fill="black"/>
<path d="M91.6921 1870.72C89.7211 1871.99 53.9091 1872.11 49.3191 1870.68C44.1001 1869.06 44.9461 1862.09 49.1661 1859.16C55.1391 1855.01 86.9331 1855.9 92.2411 1861.87C94.2351 1864.12 93.3221 1869.68 91.6931 1870.72H91.6921Z" fill="black"/>
<path d="M549.575 1857.47C555.555 1856.77 581.914 1859.81 579.995 1867.98C579.523 1869.98 569.52 1874.77 566.892 1874.92C564.264 1875.08 544.252 1872.84 541.906 1872.1C528.739 1867.91 538.752 1858.73 549.575 1857.47Z" fill="black"/>
<path d="M1032.54 1855.5C1039.9 1849.42 1076.3 1853.88 1074 1863.96C1072.28 1871.49 1035.91 1871.17 1030.86 1863C1029.6 1860.98 1031 1856.78 1032.54 1855.5Z" fill="black"/>
<path d="M34.4728 1902.57C33.0358 1901.53 31.8758 1897.01 32.8668 1895.02C37.0358 1886.65 66.5328 1887.3 73.0828 1892.91C88.4788 1906.12 39.4158 1906.18 34.4728 1902.57Z" fill="black"/>
<path d="M1016.01 1912.99C1006.54 1915.14 997.861 1912.88 989.089 1912.89C886.98 1913.07 784.331 1912.9 682.98 1914.98C677.336 1915.1 655.282 1916.38 652.907 1913.1C649.527 1896.77 664.563 1899.44 676.9 1898.95C720.066 1897.22 764.165 1899.46 806.917 1899.08C874.457 1898.5 941.656 1894.59 1008.95 1901.05C1015.35 1902.21 1016.63 1907.16 1016.01 1912.99L1016.01 1912.99Z" fill="white"/>
<path d="M330.326 1142.7L328.872 1134.94C332.424 1130.07 348.74 1134.91 354.904 1135.09C396.688 1136.36 439.688 1135.07 480.922 1135.09C578.796 1135.16 676.78 1134.5 774.58 1135.42C780.226 1137.57 782.031 1143.13 775.968 1145.97C768.118 1149.64 758.895 1145.1 751.082 1144.92C650.427 1142.55 548.577 1147.18 448.848 1142.97L330.325 1142.7L330.326 1142.7Z" fill="white"/>
<path d="M492.012 1901H111.965V1913.11H492.012V1901Z" fill="white"/>
<path d="M483.993 1752.99L332.999 1751C327.322 1750.55 327.681 1745.8 327.993 1741.01L476.965 1740.95C482.504 1741.88 484.244 1748.11 483.994 1752.99H483.993Z" fill="white"/>
<path d="M652.008 1749.01L789.1 1744.9C811.598 1753.48 785.473 1756.24 774.981 1756.98C743.913 1759.18 699.243 1761.64 668.93 1759.07C662.204 1758.5 650.01 1758.14 652.008 1749.01Z" fill="white"/>
<path d="M328.009 1712.95L327.989 1707.01L389.076 1707.1L400.785 1705.2L443.214 1708.8C449.937 1706.57 483.97 1704.38 484.02 1714C484.038 1717.53 481.998 1718.46 478.99 1718.99C471.442 1720.33 455.485 1719.29 446.902 1719.1C412.856 1718.34 374.799 1717.44 340.922 1715.09C336.476 1714.78 332.384 1713.39 328.009 1712.95Z" fill="white"/>
<path d="M798.064 1709.62H649.957V1721H798.064V1709.62Z" fill="white"/>
<path d="M246 1258C245.616 1255.16 237.326 1230.74 236.093 1229.9C232.13 1227.21 224.25 1229.61 220.927 1232.97C218.572 1236.82 225.32 1253.1 225.967 1260.04C228.085 1282.75 223.439 1323.57 192.04 1308C204.915 1299.74 200.316 1244.62 190.724 1241.24C186.056 1239.59 180.544 1242.11 175.992 1243.04C181.275 1268.17 187.934 1305.05 156.832 1314.93C150.633 1316.9 143.121 1316.86 138.04 1312C150.731 1300.95 152.092 1279.88 149.886 1264.12C147.922 1250.1 143.144 1254.18 132.066 1253.02C128.584 1271.37 138.483 1290.86 119.917 1303.92C110.474 1310.56 102.52 1310.9 91.5087 1308.48C76.6377 1305.22 63.7427 1296.78 63.8217 1279.98C63.8487 1274.37 67.1036 1263.08 73.9896 1263.01C69.5986 1273.42 77.7397 1310.39 92.1157 1294.1C105.793 1278.61 82.8767 1237.53 83.9707 1218.08C86.1537 1179.25 141.943 1153.86 174.352 1146.35C212.016 1137.63 227.457 1142 244.349 1177.65C257.76 1205.96 270.07 1252.14 258.076 1282.07C255.86 1287.61 251.155 1296.33 244.008 1294.99C243.234 1292.81 246.001 1290.61 246.001 1290C246.001 1280.34 247.217 1267 246 1258Z" fill="white"/>
<path d="M279 345C246.467 340.254 209.497 312.596 206.029 277.971C201.448 232.233 226.092 203.553 269.805 194.811C272.473 136.582 309.983 88.1519 358.664 58.6629C496.493 -24.827 751.916 -25.961 861.026 106.975C868.081 115.571 875.303 134.945 878.468 138.517C880.238 140.515 890.632 141.793 894.552 143.449C923.668 155.749 937.042 174.407 945.432 204.569C959.668 255.747 938.17 296.196 887.917 312.312C888.94 339.48 895.687 367.145 897.975 394.025C901.299 433.077 904.608 489.412 897.068 527.068C879.97 612.46 835.587 662.047 762.549 704.566C761.383 705.245 758.477 704.859 760.011 707.979C761.408 710.821 798.215 732.801 804.631 737.369C846.39 767.106 879.77 798.807 934.923 803.077C1061.43 812.871 1140.77 744.054 1178.92 628.923C1190.93 592.689 1188.11 586.095 1185.91 550.095C1183.7 514.095 1191.06 476.339 1191.25 440.337C1191.4 411.657 1186.25 377.806 1187.9 349.945C1188.98 331.71 1198.43 307.417 1218.96 304.955C1236.48 302.854 1261.25 304.701 1272.86 319.139C1282.54 331.185 1292 360.814 1292 376V419C1324.13 404.798 1415.16 399.844 1426.63 443.365C1431.42 461.573 1414.89 475.488 1416 476.956C1416.53 477.655 1421.62 477.837 1425.11 484.897C1436.18 507.264 1413.54 526.204 1414.14 529.723C1414.62 532.504 1423.12 537.486 1424.89 541.102C1431.62 554.874 1424.16 570.313 1412.03 577.993C1422.27 590.07 1424.72 598.365 1416.42 612.417C1402.61 635.795 1364.75 639.979 1340.18 641.186C1328.78 698.263 1308.3 748.985 1278.83 798.834C1191.95 945.807 1009.82 1022.37 844.927 961.073C829.827 955.459 817.26 945.914 802.011 941.009C802.12 971.235 801.242 1001.89 802.551 1031.92C803.168 1046.09 807.23 1063.28 807.898 1078.1C811.711 1162.78 807.01 1253.39 808.064 1339.88C809.546 1461.48 812.14 1582.85 814.984 1704.9C815.351 1720.63 813.859 1739.3 816.072 1755.92C816.473 1758.93 820.205 1761.64 819.854 1763.76C819.456 1766.16 788.955 1789.48 784.916 1794.91C780.889 1800.33 780.32 1805.25 788.426 1804.61C800.749 1803.65 820.533 1780.15 830.454 1771.5C836.571 1769 851.648 1779.03 857.419 1782.58C858.959 1783.53 860.822 1781.92 859.981 1785.97C848.567 1798.96 825.343 1804.49 822.01 1822.99C831.492 1832.02 861.821 1795.29 870.091 1791.93C875.397 1789.78 893.66 1805.33 899.99 1807.99L862.45 1835.42C857.391 1844.58 869.302 1844.99 875.968 1841.96C881.926 1839.26 906.525 1813.29 910.084 1813.83C913.661 1817.48 941.349 1828.13 937.986 1832.96C927.357 1837.97 917.87 1845.36 909.324 1853.33C907.468 1855.06 904.246 1855.41 907.962 1858.03C922.659 1868.38 937.492 1840.68 947.927 1837.83C955.475 1835.76 987.756 1857.16 995.432 1862.56C1012.39 1874.48 1026.12 1884.38 1029.51 1906.47C1032.98 1929.08 1017.72 1929.9 999.095 1931.1C886.496 1938.3 766.317 1925.44 652.919 1931.08L635.096 1924.9L632 1303H500L508.107 1923.6C502.457 1928.87 494.565 1930.43 487.068 1931.07C457.946 1933.55 427.983 1929.17 399.115 1928.93C306.4 1928.16 213.648 1929.59 120.929 1929.07C93.6205 1928.2 90.5715 1909.85 102.937 1888.94C110.72 1875.77 130.261 1863.39 143.389 1855.39C149.035 1851.95 175.695 1836.74 179.985 1835.84C190.519 1833.63 212.852 1865.64 224.071 1858.06C226.346 1856.53 226.395 1854.83 225.709 1852.34C223.7 1845.02 199.924 1834.1 194.008 1827.99L221.36 1811.4C228.959 1810.04 253.31 1838.32 262.071 1841.93C271.825 1845.93 277.907 1840.71 269.819 1832.18C261.06 1822.94 245.472 1812.02 234.006 1806.97C233.18 1806.1 233.736 1804.22 235.258 1802.83C238.687 1799.7 260.093 1788.19 263.93 1789.94C271.466 1793.36 290.405 1818.5 298.042 1821.95C303.465 1824.4 310.902 1824.03 309.052 1816.79C306.796 1807.96 280.759 1789.81 272.001 1784.97C270.598 1782.92 293.333 1770.4 295.852 1769.93C299.269 1769.28 302.721 1772.81 305.454 1774.56C310.231 1777.62 329.523 1791.62 332.599 1794.88C337.187 1799.74 336.924 1809.54 349.987 1799.94C351.157 1795.63 346.591 1792.5 344.022 1789.98C334.844 1780.96 320.316 1771.21 309.859 1763.67C315.906 1739.5 312.528 1717.86 311.988 1694.15C306.778 1465.35 306.457 1236.34 310.094 1008.08L311.987 843.009C259.15 864.624 203.867 914.67 186.122 970.124C173.062 1010.94 180.417 1063.12 198.243 1101.76C199.95 1105.46 210.699 1125.05 212.574 1126.42C216.106 1129 228.222 1131.05 234.665 1135.33C271.661 1159.92 295.072 1254.62 273.11 1293.11C262.808 1311.17 255.565 1306.84 239.941 1311.94C231.145 1314.8 227.913 1324.5 216.535 1326.54C201.432 1329.25 191.114 1322.95 180.925 1323.25C174.663 1323.43 168.504 1330.87 159.011 1331.19C145.38 1331.63 128.993 1321.08 122.99 1321.13C113.735 1321.19 104.912 1326.73 89.5205 1324.48C57.3345 1319.78 30.1995 1285.54 54.0025 1256C58.0355 1251 68.2835 1246.43 69.0605 1245.11C69.8035 1243.86 64.4995 1219.31 63.5445 1216.45C62.0445 1211.97 41.2385 1186.22 36.3885 1177.61C-16.6465 1083.43 -9.2265 960.496 48.3895 870.39C108.852 775.835 186.855 724.351 292.383 690.383C335.926 676.367 380.613 666.929 425.997 660.979C388.962 625.069 358.527 582.234 340.498 533.499C318.361 473.662 312.811 408.222 307.998 344.999C298.909 344.074 287.758 346.277 278.998 344.999L279 345ZM822.697 94.299C723.165 2.63197 548.916 0.947952 427.506 47.506C364.858 71.53 294.471 120.551 295.99 195.01C298.356 197.373 353.43 193.661 362.865 195.133C376.014 197.185 371.614 209.455 375.422 211.059C378.722 212.449 420.743 211.332 426.459 210.459C442.032 208.081 437.367 202.14 444.326 192.326C487.472 131.485 612.878 117.005 654.992 186.966C673.262 168.997 708.338 169.142 731.329 176.667C738.393 178.979 743.154 184.516 750.613 184.762C759.002 176.258 764.359 165.668 773.943 157.944C795.838 140.299 828.509 135.021 855.988 134.987C850.359 117.852 835.334 105.938 822.693 94.297L822.697 94.299ZM893.484 175.543C886.562 171.409 836.451 153.435 842.016 171.939C842.983 175.154 863.647 176.644 869.385 178.616C888.038 185.025 896.164 203.945 899.846 222.154C901.141 228.561 897.162 246.39 908.902 245.098C921.117 243.753 915.781 218.968 913.526 210.475C909.976 197.108 898.971 187.336 893.484 175.543ZM611.29 187.71C605.676 182.413 588.146 173.213 580.527 171.489C573.116 169.813 543.001 165.557 541.888 176.03C540.646 187.718 553.246 180.588 558.896 180.928C579.38 182.162 601.074 190.497 609.552 210.448C613.597 219.967 613.949 237.517 617.847 243.653C620.035 247.097 628.057 248.77 629.691 243.688C634.591 228.438 622.766 198.541 611.289 187.711L611.29 187.71ZM432 233H385C384.269 233 381.769 235.033 380.328 235.336C377.954 245.806 383.068 255.89 383.967 266.034C387.305 303.715 384.106 326.011 418.174 351.826C456.479 380.851 540.482 375.4 586.759 368.758C632.81 362.149 666.319 344.411 714.07 353.929C734.786 358.058 755.697 366.852 777.259 368.741C815.769 372.115 877.223 374.215 870.01 318.989C836.029 319.682 805.427 323.549 777.047 300.952C762.601 289.449 750.032 265.704 746.229 247.763C744.266 238.504 745.554 214.186 743.012 208.987C740.105 203.041 721.103 196.407 714.482 195.517C701.261 193.739 673.493 195.931 665.888 208.431C661.831 215.1 667.338 221.543 667.789 228.215C673.592 314.014 589.041 340.588 517.552 332.447C469.782 327.007 426.633 282.618 432 233ZM289.643 211.477C198.631 211.863 209.494 329.211 290.996 328.583C309.502 328.44 340.772 313.957 343.872 293.871C349.34 258.44 330.542 211.303 289.643 211.477ZM1255.37 325.616C1243.28 312.645 1214.56 321.245 1209 338.003C1204.3 352.18 1210.08 397.378 1210.1 416.099C1210.15 452.766 1207.29 487.622 1205.99 524.147C1205.37 541.462 1206.6 576.69 1214.37 591.628C1226.89 615.681 1277.44 635.641 1303.99 636.979L1286.13 627.873C1275.63 619.471 1266.26 606.699 1268.43 592.511C1269.13 587.925 1273.94 581.581 1273.6 578.295C1273.15 573.881 1265.66 566.158 1266.15 556.137C1266.54 548.028 1276.03 537.315 1276.04 533.966C1276.04 530.926 1267.33 523.425 1266.13 515.875C1265.42 511.368 1265.42 502.816 1266.42 498.418C1267.58 493.356 1274.36 489.131 1273.85 486.283C1273.62 484.992 1267.76 479.629 1266.2 475.804C1259.08 458.374 1270.3 440.625 1271.98 423.979C1273.74 406.484 1273.3 370.294 1268.55 353.429C1266.65 346.677 1259.87 330.433 1255.37 325.615L1255.37 325.616ZM350 416C351.383 411.371 350 392.714 350 386C350 379.977 342.853 368.64 335.185 372.817C333.234 374.312 335.722 410.812 337.328 414.544C339.384 419.319 348.631 420.582 350 416ZM368.289 402.701C369.069 403.942 376.688 405.524 378.716 404.859C385.043 402.784 385.753 368.386 371.232 373.146C366.8 374.599 366.836 400.39 368.289 402.701ZM863.698 420.687C867.072 415.363 862.239 375.123 846.079 387.126L852.955 421.048C854.278 424.401 862.797 422.109 863.698 420.687ZM408.992 389.714C393.247 389.858 403.448 432.926 415.875 415.76C418.651 411.926 417.646 389.635 408.992 389.714ZM617.245 389.16C609.858 391.573 616.883 404.471 619.974 408.026C635.646 426.051 674.442 428.901 696.743 426.743C704.048 426.036 742.976 417.556 743.567 410.044C744.626 396.596 725.617 408.889 720.448 410.447C695.983 417.821 661.111 422.057 638.62 407.382C630.041 401.784 626.126 386.259 617.245 389.16ZM477.714 430.712C485.989 390.706 457.634 387.187 465.735 429.787L477.714 430.712ZM565.508 403.508C550.563 387.993 550.316 439.367 566.147 428.14C569.251 423.582 569.102 407.239 565.508 403.508ZM816 400.991C815.375 409.972 817.583 431.655 825.453 436.618C829.585 439.223 835.393 438.599 835.11 432.862C834.919 428.985 830.324 408.619 828.449 405.551C824.956 399.839 822.478 400.693 816 400.991ZM519.826 434.817C521.471 433.707 527.216 401.769 515.086 402.931C501.874 404.198 506.684 443.685 519.826 434.817ZM795.719 407.279C793.498 405.918 787.136 407.521 783.99 406.992L784.085 440.896C803.724 453.052 798.945 409.257 795.719 407.279ZM1403.38 460.385C1413.63 449.123 1405.48 437.851 1394.31 431.686C1371.11 418.876 1303.24 424.363 1289.14 449.145C1286.46 453.869 1282.12 467.433 1287.36 471.141C1295.73 477.061 1343.49 476.135 1355.08 475.081C1367.48 473.954 1394.89 469.712 1403.38 460.385ZM432.287 462.714C450.172 473.24 450.122 445.427 448.005 433.997C446.825 427.624 441.553 428.541 436.188 429.212L432.287 462.715V462.714ZM355.386 431.216C347.096 433.28 350.022 459.054 355.995 462.044C370.574 469.343 365.998 443.261 363.514 436.47C362.258 433.035 359.39 430.22 355.386 431.216ZM605.773 445.219L592.009 442.995C593.247 451.598 584.347 471.987 600.112 468.218C608.155 466.295 606.029 451.915 605.773 445.219ZM528.086 478.854C547.116 490.324 553.121 439.253 535.212 445.157C530.844 446.597 531.164 472.325 528.086 478.854ZM399.008 449.71C387.219 449.677 393.796 482.255 403 482.278C415.388 482.309 408.765 449.737 399.008 449.71ZM871.707 480.687C873.65 477.631 871.442 458.778 869.475 454.525C865.813 446.61 855.603 446.387 856.099 455.711C856.318 459.823 857.611 474.888 858.401 477.594C860.18 483.691 869.588 484.018 871.707 480.687ZM482.134 457.14C480.068 458.902 479.858 492.963 492.79 486.844C498.775 484.866 496.718 459.299 490.716 457.285C489.067 456.732 482.948 456.446 482.135 457.14H482.134ZM773.999 491.005L771.125 466.882L760.272 465.28C755.603 476.446 758.59 494.295 773.999 491.005ZM815.23 465.111C810.24 466.562 812.476 495.363 820.635 494.675C834.049 493.544 827.609 461.512 815.23 465.111ZM693.694 500.689C696.552 496.195 688.87 468.659 684.747 467.238C681.165 466.003 674.877 466.073 674.823 471.096C674.771 475.926 679.474 495.935 682.198 499.797C685.067 503.864 692.002 503.349 693.694 500.689ZM456.156 481.161C453.59 483.399 453.189 519.26 466.669 512.797C474.664 510.173 472.451 473.341 456.156 481.161ZM562.419 516.548C579.964 526.213 579.483 474.606 560.112 487.251L562.419 516.548ZM626.487 512.499C627.947 513.968 632.814 515.469 634.743 514.866C642.737 512.369 635.25 489.852 631.149 486.862C614.836 474.969 621.239 507.217 626.487 512.498L626.487 512.499ZM1403.36 485.246C1393.17 489.561 1378.24 492.178 1366.97 492.975C1347 494.388 1315 489.517 1297.43 493.429C1279.22 497.483 1282.43 521.667 1303.13 524.872C1321.66 527.742 1366.13 525.512 1384.41 520.407C1399.54 516.178 1415.66 501.698 1406.04 485.832L1403.36 485.247V485.246ZM367.597 491.444C363.626 489.157 355.155 490.415 356.865 497.082C358.977 505.316 368.87 524.437 379.99 521.001C384.196 516.722 371.16 493.497 367.597 491.445V491.444ZM741.771 524.771C744.256 523.239 744.129 490.588 727.23 495.194C722.811 496.399 726.972 517.227 729.098 520.904C731.287 524.691 738.48 526.8 741.771 524.771ZM517.516 532.544C519.771 522.234 528.248 499.17 511.224 501.133C506.06 502.924 499.956 542.501 517.516 532.544ZM439.802 544.793C442.151 540.784 439.906 510.896 429.345 513.218C419.315 515.785 422.63 554.334 439.802 544.793ZM871.739 515.283C870.969 514.051 865.825 513.452 863.88 513.844C856.287 515.375 858.403 527.563 857.551 533.534C856.671 539.708 849.703 546.92 861.812 550.053C871.91 552.665 873.78 518.548 871.74 515.284L871.739 515.283ZM785.756 550.734C784.131 541.937 792.331 522.731 785.158 516.787C783.057 513.928 774.565 515.581 773.931 518.354C772.9 522.868 771.628 539.182 772.171 543.869C773.173 552.509 778.305 554.128 785.756 550.734ZM825.72 525.289L814.178 523.166C813.264 532.568 803.218 562.759 820.736 556.767C826.475 554.804 827.766 528.532 825.72 525.289ZM657.399 527.217C655.799 527.64 652.827 530.305 652.654 531.967C652.481 533.629 659.188 557.811 660.82 559.19C664.485 562.287 669.061 561.033 671.055 556.962C673.569 551.828 666.458 524.823 657.399 527.217ZM607.738 531.261C606.391 530.403 596.161 530.354 595.958 532.067C597.657 541.988 593.607 557.321 607.058 558.316C615.555 557.24 609.486 532.376 607.738 531.261ZM709.474 535.551C694.994 522.265 695.139 555.953 703.263 558.766C718.274 563.962 715.667 541.234 709.474 535.551ZM495.958 562.932C497.846 560.35 485.669 527.361 474.203 537.197C470.783 543.026 481.286 564.681 488.982 564.692C490.23 564.694 495.746 563.222 495.958 562.932ZM534.419 564.517C546.219 573.962 549.032 549.347 547.289 541.965C546.201 537.358 537.732 539.245 533.992 538.989C535.367 544.12 530.282 561.206 534.419 564.517ZM1387.61 539.561C1360.96 541.39 1338.09 542.805 1310.91 543.076C1302.83 543.156 1296.11 539.708 1289.17 549.151C1282.82 557.79 1288.39 564.917 1296.09 569.906C1312.99 580.847 1378.91 579.664 1395.93 567.927C1411.7 557.048 1408.69 538.115 1387.61 539.562V539.561ZM395.474 551.531C392.406 549.016 381.712 547.273 382.289 553.649C382.503 556.017 390.001 568.933 391.953 572.048C395.054 576.998 400.995 581.6 402.859 585.142C408.202 595.3 402.709 617.447 418.8 611.2C424.91 606.686 413.407 579.962 410.066 573.934C408.586 571.263 396.508 552.379 395.474 551.531ZM773.723 561.279C770.899 556.863 758.529 559.192 760.505 568.372C763.676 583.104 779.13 569.734 773.723 561.279ZM633.406 561.316C625.028 563.549 632.036 588.021 635.964 590.045C652.769 598.705 646.598 557.799 633.406 561.316ZM737.725 590.723C743.059 587.361 738.88 558.275 723.997 567.009C726.719 571.975 723.931 584.878 726.078 587.763C728.379 590.856 734.464 592.779 737.725 590.723ZM455.394 569.212C445.727 571.75 454.874 595.496 459.979 598.034C478.469 607.226 465.858 566.465 455.394 569.212ZM839.291 573.236C835.081 574.594 828.385 593.761 831.812 598.118C843.555 613.048 857.996 567.202 839.291 573.236ZM586 613V584C586 581.346 576.284 575.956 572.878 580.893C571.815 582.434 571.768 610.675 573.87 612.127L586 613ZM528.008 613.007C530.283 610.795 523.616 575.139 511.865 583.861C507.081 587.282 515.01 608.239 517.789 611.764C519.884 614.422 524.907 612.605 528.008 613.007ZM681.22 585.163C674.536 587.388 681.452 615.713 685.956 618.054C703.645 627.248 694.29 580.812 681.22 585.163ZM1293.28 589.382C1284.97 591.038 1290.6 607.707 1293.94 612.059C1310.42 633.536 1376.65 627.97 1393.99 609.987C1397.9 605.933 1407.23 590.976 1397.06 589.741C1393.5 589.309 1375.47 594.546 1368.97 594.975C1344.61 596.583 1316.77 595.943 1293.28 589.382ZM781.365 591.196C772.165 594.378 771.859 619.708 780.969 620.486C792.249 621.449 794.542 587.86 781.365 591.196ZM624.185 638.802C627.306 641 634.529 637.638 635.678 633.559C636.385 631.051 632.204 608.494 631.089 606.913C628.808 603.678 621.756 605.247 617.993 604.992C616.113 606.869 621.873 637.174 624.185 638.802ZM440.68 632.314C447.127 638.259 464.929 647.675 458.938 631.087C458.118 628.817 443.856 613.552 442.695 613.2C439.654 612.276 432.367 615.265 430.047 617.986C429.991 618.876 439.242 630.989 440.68 632.314ZM815.282 613.229C811.461 614.496 796.421 639.47 811.091 641.08C818.897 641.937 827.44 617.65 822.135 613.861C820.076 612.643 817.51 612.491 815.282 613.229ZM513.996 640.998C516.345 632.946 505.065 611.718 495.901 617.903C489.363 622.316 503.603 647.028 513.996 640.998ZM731.303 617.248C724.646 619.477 716.672 647.776 729.372 648.696C737.327 649.441 747.553 611.807 731.303 617.248ZM545.396 621.206C532.293 624.533 551.221 665.497 559.05 648.956C561.659 643.443 554.741 618.833 545.396 621.206ZM675.651 635.391C657.237 625.08 669.268 680.576 682.196 664.114C685.346 660.103 678.836 637.174 675.651 635.391ZM592.243 668.745C613.076 675.462 604.378 631.214 587.883 644.335L592.243 668.745ZM777.26 645.128C774.645 645.874 759.934 675.765 769.208 678.845C782.666 683.313 793.93 640.372 777.26 645.128ZM497.299 651.702C484.412 638.385 477.672 654.71 489.076 668.918C501.84 684.82 509.477 664.287 497.299 651.702ZM743.693 663.31C743.109 662.39 736.843 660.686 735.268 661.141C728.854 662.996 722.118 702.867 738.11 692.107C741.144 690.066 745.86 666.725 743.693 663.31ZM536.391 694.576C538.441 695.752 544.227 695.414 546.12 694.114C552.968 689.413 539.714 662.772 531.07 665.016C522.728 668.506 533.91 693.153 536.391 694.576ZM630.175 675.211C628.055 678.167 635.027 711.026 646.753 702.857C651.6 699.481 646.5 683.017 643.745 678.267C640.827 673.236 633.099 671.134 630.175 675.211ZM689.391 677.315C681.624 679.523 682.607 701.861 685.858 704.132C699.439 713.62 699.371 689.335 697.995 682.006C697.067 677.064 694.297 675.92 689.391 677.315ZM591.734 708.722C595.942 701.813 583.492 680.05 577.248 681.114C565.789 683.067 578.516 718.963 591.734 708.722ZM711.99 723.01C708.473 720.075 667.334 728.533 659.078 729.077C628.71 731.078 593.005 728.92 563.248 722.752C550.667 720.144 533.437 708.606 524.042 720C571.765 740.888 633.801 744.521 684.717 734.716C686.862 734.303 718.238 728.224 711.992 723.01H711.99ZM330.326 1142.7L448.849 1142.98C548.578 1147.19 650.428 1142.56 751.083 1144.92C758.896 1145.1 768.119 1149.64 775.969 1145.97C782.033 1143.13 780.228 1137.57 774.582 1135.42C676.782 1134.5 578.797 1135.16 480.923 1135.1C439.689 1135.07 396.69 1136.36 354.906 1135.1C348.742 1134.91 332.424 1130.07 328.873 1134.94L330.328 1142.7L330.326 1142.7ZM246.001 1258C247.218 1266.99 246.001 1280.34 246.001 1290C246.001 1290.61 243.235 1292.81 244.008 1294.99C251.155 1296.33 255.859 1287.61 258.076 1282.07C270.07 1252.14 257.76 1205.96 244.349 1177.65C227.457 1142 212.015 1137.63 174.352 1146.35C141.943 1153.86 86.1535 1179.25 83.9705 1218.08C82.8775 1237.53 105.793 1278.61 92.1155 1294.1C77.7395 1310.39 69.5995 1273.42 73.9895 1263.01C67.1035 1263.08 63.8475 1274.37 63.8215 1279.98C63.7425 1296.78 76.6365 1305.22 91.5085 1308.48C102.519 1310.9 110.473 1310.56 119.916 1303.92C138.482 1290.86 128.584 1271.37 132.066 1253.02C143.144 1254.18 147.922 1250.1 149.886 1264.12C152.092 1279.88 150.73 1300.95 138.04 1312C143.121 1316.86 150.633 1316.9 156.831 1314.93C187.934 1305.05 181.275 1268.17 175.992 1243.04C180.544 1242.11 186.056 1239.59 190.723 1241.24C200.315 1244.62 204.916 1299.74 192.04 1308C223.439 1323.57 228.085 1282.75 225.967 1260.04C225.32 1253.1 218.572 1236.82 220.927 1232.97C224.25 1229.61 232.129 1227.21 236.092 1229.9C237.325 1230.74 245.617 1255.16 246.001 1258ZM328.009 1712.95C332.385 1713.39 336.477 1714.78 340.923 1715.09C374.799 1717.44 412.857 1718.34 446.904 1719.1C455.487 1719.29 471.443 1720.33 478.992 1718.99C482 1718.46 484.039 1717.53 484.021 1714C483.971 1704.38 449.939 1706.57 443.216 1708.8L400.786 1705.2L389.078 1707.1L327.99 1707.01L328.01 1712.95H328.009ZM649.957 1709.62V1721H798.064V1709.62H649.957ZM483.993 1752.99C484.243 1748.11 482.504 1741.88 476.964 1740.95L327.992 1741.01C327.68 1745.8 327.321 1750.55 332.998 1751L483.993 1752.99ZM652.008 1749.01C650.01 1758.14 662.204 1758.5 668.93 1759.07C699.244 1761.64 743.913 1759.18 774.981 1756.98C785.472 1756.24 811.598 1753.48 789.1 1744.9L652.008 1749.01ZM1016.01 1912.99C1016.63 1907.16 1015.35 1902.21 1008.95 1901.05C941.657 1894.59 874.458 1898.5 806.918 1899.08C764.166 1899.45 720.067 1897.22 676.901 1898.95C664.564 1899.44 649.529 1896.77 652.909 1913.09C655.284 1916.38 677.337 1915.09 682.982 1914.98C784.333 1912.9 886.981 1913.07 989.09 1912.89C997.861 1912.88 1006.54 1915.14 1016.01 1912.99L1016.01 1912.99ZM111.965 1901V1913.11H492.013V1901H111.965Z" fill="black"/>
<path d="M822.696 94.2991C835.336 105.94 850.36 117.854 855.99 134.989C828.511 135.022 795.841 140.301 773.946 157.946C764.362 165.67 759.004 176.26 750.615 184.764C743.156 184.518 738.396 178.981 731.332 176.669C708.341 169.144 673.263 168.999 654.994 186.968C612.879 117.008 487.475 131.487 444.329 192.328C437.369 202.142 442.034 208.083 426.462 210.461C420.746 211.334 378.725 212.45 375.425 211.061C371.617 209.457 376.017 197.186 362.868 195.135C353.432 193.663 298.357 197.375 295.992 195.012C294.473 120.553 364.861 71.5321 427.509 47.5081C548.919 0.950094 723.167 2.63409 822.699 94.3011L822.696 94.2991ZM338.488 129.478C321.34 146.606 368.613 150.206 371.798 137.633C374.707 126.148 344.008 123.963 338.488 129.478ZM327.384 161.384C324.56 162.239 320.542 167.689 320.298 170.349C319.395 180.199 360.904 183.501 363.704 173.597C367.655 159.62 335.543 158.914 327.384 161.384Z" fill="white"/>
<path d="M432 233C426.633 282.618 469.783 327.007 517.553 332.447C589.042 340.588 673.592 314.015 667.789 228.215C667.338 221.543 661.832 215.1 665.889 208.431C673.494 195.931 701.262 193.739 714.483 195.517C721.104 196.407 740.106 203.041 743.013 208.987C745.555 214.186 744.267 238.504 746.23 247.763C750.033 265.704 762.602 289.449 777.048 300.952C805.428 323.55 836.029 319.682 870.011 318.989C877.223 374.216 815.769 372.115 777.259 368.741C755.697 366.852 734.788 358.057 714.071 353.929C666.319 344.412 632.81 362.149 586.76 368.758C540.482 375.4 456.479 380.851 418.175 351.826C384.107 326.011 387.306 303.715 383.968 266.034C383.069 255.89 377.954 245.806 380.328 235.336C381.77 235.033 384.27 233 385.001 233H432ZM662.278 336.749C665.748 342.407 704.846 341.583 713.083 341.083C731.677 339.955 756.032 338.932 753.825 314.242C752.362 297.871 731.832 251.202 724.359 233.639C719.178 221.462 712.253 196.535 695.996 208.002C690.491 211.885 700.932 225.64 702.963 231.035C705.426 237.578 706.687 244.781 709.082 250.916C714.13 263.849 736.674 309.073 733.768 319.691C731.526 327.884 719.402 323.155 714.994 323.39C699.152 324.236 683.34 325.726 667.402 325.402C663.232 326.361 660.204 333.368 662.277 336.747L662.278 336.749Z" fill="white"/>
<path d="M289.642 211.477C330.541 211.303 349.339 258.44 343.871 293.871C340.771 313.958 309.501 328.441 290.995 328.583C209.493 329.211 198.629 211.863 289.641 211.477H289.642ZM303.418 255.568C302.447 254.706 281.776 243.621 280.497 243.373C275.257 242.36 270.837 243.399 266.846 246.966C264.178 261.799 288.842 258.112 287.903 270.052C287.162 279.482 267.771 280.347 264.933 284.939C259.655 293.482 273.928 299.962 280.836 299.015C287.655 298.08 293.75 288.174 297.385 287.294C302.108 286.152 318.362 294.596 315.677 278.504C315.366 276.641 304.507 256.533 303.418 255.566V255.568Z" fill="white"/>
<path d="M1255.37 325.616C1259.87 330.434 1266.65 346.678 1268.55 353.43C1273.3 370.295 1273.74 406.485 1271.98 423.98C1270.3 440.625 1259.08 458.374 1266.2 475.805C1267.76 479.63 1273.62 484.993 1273.85 486.284C1274.36 489.133 1267.58 493.357 1266.42 498.419C1265.42 502.817 1265.42 511.369 1266.14 515.876C1267.33 523.425 1276.04 530.926 1276.04 533.967C1276.03 537.315 1266.54 548.028 1266.15 556.138C1265.66 566.159 1273.15 573.882 1273.6 578.296C1273.94 581.582 1269.13 587.927 1268.43 592.512C1266.26 606.7 1275.63 619.472 1286.13 627.874L1303.99 636.98C1277.44 635.642 1226.89 615.682 1214.37 591.629C1206.6 576.691 1205.37 541.464 1205.99 524.148C1207.29 487.622 1210.15 452.767 1210.1 416.1C1210.08 397.379 1204.3 352.181 1209 338.004C1214.56 321.246 1243.28 312.646 1255.38 325.617L1255.37 325.616Z" fill="white"/>
<path d="M1403.38 460.385C1394.89 469.712 1367.48 473.954 1355.08 475.081C1343.49 476.135 1295.73 477.061 1287.36 471.141C1282.12 467.433 1286.46 453.869 1289.14 449.145C1303.24 424.363 1371.11 418.876 1394.31 431.686C1405.48 437.851 1413.63 449.123 1403.38 460.385Z" fill="white"/>
<path d="M1387.61 539.561C1408.69 538.115 1411.7 557.047 1395.93 567.926C1378.91 579.663 1312.99 580.846 1296.09 569.905C1288.39 564.916 1282.82 557.79 1289.17 549.15C1296.11 539.708 1302.83 543.156 1310.91 543.075C1338.09 542.804 1360.96 541.389 1387.61 539.561Z" fill="white"/>
<path d="M1403.36 485.246L1406.03 485.831C1415.65 501.697 1399.54 516.177 1384.41 520.406C1366.13 525.511 1321.66 527.741 1303.13 524.871C1282.43 521.666 1279.22 497.482 1297.43 493.428C1315 489.516 1347 494.388 1366.97 492.974C1378.24 492.177 1393.17 489.561 1403.36 485.246Z" fill="white"/>
<path d="M1293.28 589.382C1316.77 595.943 1344.61 596.582 1368.97 594.975C1375.47 594.546 1393.5 589.309 1397.06 589.741C1407.23 590.976 1397.9 605.932 1393.99 609.987C1376.65 627.971 1310.42 633.536 1293.94 612.059C1290.6 607.707 1284.97 591.038 1293.28 589.382H1293.28Z" fill="white"/>
<path d="M711.99 723.01C718.236 728.224 686.861 734.303 684.716 734.716C633.801 744.521 571.763 740.888 524.04 720C533.435 708.606 550.666 720.144 563.247 722.752C593.004 728.92 628.708 731.078 659.076 729.077C667.332 728.533 708.473 720.075 711.99 723.01Z" fill="white"/>
<path d="M611.29 187.71C622.767 198.54 634.592 228.437 629.692 243.687C628.059 248.77 620.037 247.096 617.848 243.652C613.949 237.516 613.597 219.966 609.552 210.447C601.074 190.496 579.38 182.161 558.896 180.927C553.246 180.587 540.647 187.717 541.889 176.029C543.002 165.556 573.117 169.812 580.528 171.488C588.147 173.212 605.677 182.412 611.291 187.709L611.29 187.71Z" fill="white"/>
<path d="M893.484 175.543C898.971 187.336 909.975 197.108 913.524 210.475C915.779 218.968 921.116 243.753 908.901 245.098C897.161 246.39 901.141 228.561 899.845 222.154C896.163 203.945 888.036 185.025 869.383 178.616C863.645 176.645 842.981 175.154 842.014 171.939C836.449 153.435 886.562 171.408 893.484 175.543Z" fill="white"/>
<path d="M617.245 389.16C626.125 386.259 630.041 401.784 638.62 407.382C661.112 422.058 695.983 417.821 720.448 410.447C725.617 408.889 744.626 396.596 743.567 410.044C742.975 417.555 704.048 426.036 696.743 426.743C674.442 428.901 635.647 426.052 619.974 408.026C616.883 404.471 609.859 391.574 617.245 389.16Z" fill="white"/>
<path d="M395.473 551.531C396.507 552.379 408.585 571.263 410.066 573.935C413.407 579.963 424.909 606.687 418.8 611.201C402.708 617.448 408.202 595.301 402.859 585.143C400.996 581.601 395.054 576.999 391.953 572.049C390.002 568.934 382.504 556.018 382.289 553.65C381.712 547.274 392.406 549.016 395.473 551.531Z" fill="white"/>
<path d="M350 416C348.631 420.582 339.383 419.319 337.328 414.544C335.721 410.812 333.234 374.312 335.186 372.817C342.854 368.639 350.001 379.976 350.001 386C350.001 392.714 351.383 411.371 350 416Z" fill="white"/>
<path d="M432.287 462.714L436.188 429.211C441.553 428.541 446.824 427.623 448.004 433.996C450.12 445.426 450.172 473.24 432.287 462.714Z" fill="white"/>
<path d="M785.756 550.734C778.306 554.128 773.173 552.509 772.17 543.869C771.626 539.182 772.898 522.868 773.93 518.354C774.564 515.581 783.057 513.928 785.158 516.787C792.331 522.731 784.131 541.938 785.756 550.734Z" fill="white"/>
<path d="M816 400.991C822.478 400.692 824.957 399.838 828.449 405.551C830.325 408.619 834.919 428.985 835.11 432.862C835.393 438.599 829.584 439.224 825.452 436.618C817.581 431.655 815.374 409.972 816 400.991Z" fill="white"/>
<path d="M693.694 500.689C692.002 503.349 685.067 503.863 682.198 499.796C679.474 495.934 674.77 475.925 674.822 471.095C674.876 466.072 681.165 466.002 684.747 467.237C688.87 468.659 696.552 496.194 693.694 500.688V500.689Z" fill="white"/>
<path d="M871.738 515.283C873.779 518.547 871.909 552.665 861.811 550.052C849.703 546.919 856.669 539.707 857.549 533.533C858.401 527.562 856.286 515.374 863.879 513.843C865.824 513.451 870.967 514.05 871.737 515.282L871.738 515.283Z" fill="white"/>
<path d="M863.697 420.687C862.796 422.109 854.277 424.402 852.954 421.048L846.078 387.126C862.238 375.123 867.071 415.363 863.697 420.687Z" fill="white"/>
<path d="M795.719 407.279C798.946 409.257 803.724 453.052 784.085 440.896L783.99 406.992C787.136 407.521 793.498 405.918 795.719 407.279Z" fill="white"/>
<path d="M624.184 638.802C621.872 637.174 616.113 606.869 617.993 604.992C621.756 605.247 628.807 603.677 631.088 606.913C632.203 608.495 636.385 631.052 635.678 633.559C634.528 637.638 627.305 641 624.184 638.802Z" fill="white"/>
<path d="M528.086 478.854C531.163 472.325 530.844 446.597 535.212 445.157C553.122 439.253 547.117 490.324 528.086 478.854Z" fill="white"/>
<path d="M825.72 525.289C827.766 528.531 826.475 554.804 820.736 556.767C803.217 562.758 813.263 532.568 814.178 523.166L825.72 525.289Z" fill="white"/>
<path d="M777.259 645.128C793.929 640.371 782.666 683.313 769.207 678.845C759.932 675.766 774.644 645.874 777.259 645.128Z" fill="white"/>
<path d="M586 613L573.87 612.127C571.767 610.675 571.814 582.434 572.877 580.893C576.283 575.956 586 581.346 586 584V613Z" fill="white"/>
<path d="M681.22 585.163C694.29 580.812 703.645 627.248 685.956 618.054C681.452 615.713 674.536 587.388 681.22 585.163Z" fill="white"/>
<path d="M871.706 480.687C869.587 484.018 860.178 483.691 858.399 477.594C857.609 474.888 856.316 459.823 856.097 455.711C855.602 446.388 865.813 446.611 869.474 454.525C871.441 458.778 873.649 477.632 871.705 480.687H871.706Z" fill="white"/>
<path d="M456.156 481.161C472.451 473.341 474.664 510.172 466.669 512.797C453.189 519.26 453.59 483.4 456.156 481.161Z" fill="white"/>
<path d="M439.802 544.793C422.63 554.334 419.315 515.786 429.345 513.218C439.905 510.896 442.151 540.784 439.802 544.793Z" fill="white"/>
<path d="M440.68 632.314C439.243 630.989 429.99 618.876 430.046 617.986C432.365 615.265 439.654 612.276 442.695 613.2C443.856 613.553 458.117 628.817 458.937 631.087C464.928 647.675 447.127 638.259 440.68 632.314Z" fill="white"/>
<path d="M368.288 402.701C366.835 400.39 366.799 374.599 371.231 373.146C385.752 368.386 385.042 402.784 378.715 404.859C376.688 405.524 369.069 403.942 368.288 402.701Z" fill="white"/>
<path d="M399.008 449.71C408.765 449.737 415.388 482.309 403 482.278C393.796 482.255 387.219 449.678 399.008 449.71Z" fill="white"/>
<path d="M517.516 532.544C499.957 542.501 506.06 502.924 511.224 501.133C528.248 499.17 519.771 522.235 517.516 532.544Z" fill="white"/>
<path d="M477.714 430.712L465.735 429.787C457.634 387.187 485.989 390.707 477.714 430.712Z" fill="white"/>
<path d="M741.77 524.771C738.478 526.8 731.285 524.691 729.097 520.904C726.972 517.227 722.811 496.398 727.23 495.194C744.129 490.588 744.255 523.239 741.77 524.771Z" fill="white"/>
<path d="M657.399 527.217C666.458 524.823 673.57 551.828 671.055 556.962C669.061 561.034 664.485 562.287 660.82 559.19C659.188 557.811 652.479 533.633 652.653 531.967C652.827 530.301 655.799 527.64 657.399 527.217Z" fill="white"/>
<path d="M367.597 491.444C371.16 493.496 384.196 516.721 379.99 521C368.87 524.436 358.976 505.315 356.864 497.081C355.154 490.414 363.626 489.158 367.597 491.444Z" fill="white"/>
<path d="M519.825 434.817C506.683 443.686 501.874 404.198 515.086 402.931C527.216 401.768 521.47 433.707 519.825 434.817Z" fill="white"/>
<path d="M731.303 617.248C747.553 611.807 737.327 649.441 729.372 648.696C716.672 647.777 724.645 619.478 731.303 617.248Z" fill="white"/>
<path d="M545.396 621.206C554.74 618.834 561.659 643.444 559.05 648.956C551.221 665.497 532.294 624.532 545.396 621.206Z" fill="white"/>
<path d="M630.175 675.211C633.099 671.134 640.827 673.236 643.744 678.267C646.498 683.016 651.599 699.48 646.753 702.857C635.026 711.026 628.054 678.167 630.175 675.211Z" fill="white"/>
<path d="M355.386 431.216C359.39 430.219 362.258 433.035 363.514 436.471C365.998 443.262 370.574 469.344 355.994 462.045C350.02 459.054 347.096 433.279 355.386 431.216Z" fill="white"/>
<path d="M536.39 694.576C533.909 693.153 522.728 668.507 531.07 665.016C539.714 662.772 552.967 689.413 546.12 694.114C544.228 695.413 538.441 695.751 536.39 694.576Z" fill="white"/>
<path d="M675.651 635.391C678.836 637.174 685.346 660.103 682.196 664.114C669.268 680.575 657.238 625.08 675.651 635.391Z" fill="white"/>
<path d="M562.418 516.548L560.112 487.251C579.483 474.606 579.963 526.213 562.418 516.548Z" fill="white"/>
<path d="M743.693 663.31C745.86 666.725 741.143 690.066 738.11 692.107C722.118 702.867 728.854 662.996 735.268 661.141C736.844 660.685 743.11 662.39 743.693 663.31Z" fill="white"/>
<path d="M495.958 562.932C495.746 563.222 490.229 564.694 488.981 564.692C481.285 564.681 470.782 543.026 474.203 537.197C485.669 527.361 497.846 560.35 495.958 562.932Z" fill="white"/>
<path d="M626.486 512.499C621.238 507.218 614.835 474.97 631.148 486.863C635.249 489.853 642.736 512.37 634.742 514.867C632.814 515.469 627.945 513.968 626.485 512.5L626.486 512.499Z" fill="white"/>
<path d="M633.405 561.316C646.597 557.8 652.769 598.705 635.964 590.045C632.037 588.021 625.027 563.549 633.405 561.316Z" fill="white"/>
<path d="M455.394 569.212C465.858 566.465 478.468 607.227 459.978 598.034C454.873 595.496 445.727 571.75 455.394 569.212Z" fill="white"/>
<path d="M497.299 651.702C509.477 664.287 501.84 684.82 489.076 668.918C477.672 654.71 484.412 638.385 497.299 651.702Z" fill="white"/>
<path d="M482.134 457.14C482.947 456.447 489.067 456.732 490.715 457.285C496.718 459.299 498.774 484.866 492.789 486.844C479.858 492.962 480.069 458.901 482.134 457.14Z" fill="white"/>
<path d="M408.991 389.714C417.646 389.635 418.651 411.926 415.875 415.76C403.448 432.926 393.246 389.858 408.991 389.714Z" fill="white"/>
<path d="M591.734 708.722C578.516 718.963 565.789 683.067 577.248 681.114C583.492 680.05 595.942 701.813 591.734 708.722Z" fill="white"/>
<path d="M781.364 591.196C794.54 587.86 792.248 621.449 780.968 620.486C771.858 619.708 772.165 594.378 781.364 591.196Z" fill="white"/>
<path d="M815.282 613.229C817.51 612.491 820.076 612.644 822.135 613.862C827.44 617.651 818.896 641.938 811.091 641.081C796.422 639.47 811.461 614.495 815.282 613.229Z" fill="white"/>
<path d="M528.008 613.007C524.907 612.606 519.885 614.422 517.789 611.764C515.01 608.238 507.081 587.282 511.865 583.861C523.616 575.14 530.283 610.796 528.008 613.007Z" fill="white"/>
<path d="M689.391 677.315C694.297 675.92 697.066 677.064 697.994 682.006C699.37 689.335 699.438 713.62 685.858 704.132C682.607 701.861 681.624 679.523 689.391 677.315Z" fill="white"/>
<path d="M815.23 465.111C827.609 461.512 834.049 493.544 820.635 494.675C812.476 495.363 810.24 466.562 815.23 465.111Z" fill="white"/>
<path d="M839.289 573.236C857.994 567.201 843.553 613.048 831.81 598.118C828.384 593.762 835.079 574.595 839.289 573.236Z" fill="white"/>
<path d="M592.243 668.745L587.883 644.335C604.378 631.214 613.076 675.462 592.243 668.745Z" fill="white"/>
<path d="M607.738 531.261C609.486 532.375 615.555 557.241 607.058 558.317C593.607 557.321 597.657 541.988 595.958 532.068C596.162 530.354 606.392 530.403 607.738 531.262V531.261Z" fill="white"/>
<path d="M709.474 535.551C715.667 541.234 718.274 563.962 703.263 558.766C695.139 555.954 694.994 522.266 709.474 535.551Z" fill="white"/>
<path d="M605.773 445.219C606.029 451.915 608.154 466.296 600.112 468.219C584.347 471.988 593.247 451.599 592.009 442.996L605.773 445.219Z" fill="white"/>
<path d="M773.998 491.005C758.589 494.295 755.602 476.445 760.271 465.28L771.123 466.882L773.997 491.005H773.998Z" fill="white"/>
<path d="M534.418 564.517C530.281 561.206 535.367 544.119 533.992 538.989C537.732 539.246 546.201 537.358 547.289 541.965C549.032 549.347 546.218 573.962 534.418 564.517Z" fill="white"/>
<path d="M565.507 403.508C569.101 407.239 569.251 423.582 566.147 428.14C550.316 439.367 550.563 387.993 565.507 403.508Z" fill="white"/>
<path d="M513.996 640.998C503.603 647.027 489.363 622.315 495.901 617.903C505.065 611.718 516.345 632.946 513.996 640.998Z" fill="white"/>
<path d="M737.725 590.723C734.464 592.779 728.378 590.856 726.077 587.763C723.93 584.877 726.719 571.974 723.997 567.009C738.881 558.275 743.059 587.361 737.725 590.723Z" fill="white"/>
<path d="M773.722 561.279C779.129 569.734 763.676 583.103 760.505 568.372C758.529 559.193 770.898 556.864 773.722 561.279Z" fill="white"/>
<path d="M327.384 161.384C335.543 158.914 367.656 159.62 363.704 173.597C360.904 183.501 319.395 180.199 320.298 170.349C320.542 167.688 324.56 162.238 327.384 161.384Z" fill="black"/>
<path d="M338.488 129.478C344.009 123.964 374.708 126.149 371.798 137.633C368.613 150.205 321.34 146.606 338.488 129.478Z" fill="black"/>
<path d="M662.278 336.749C660.205 333.369 663.233 326.363 667.403 325.404C683.341 325.728 699.152 324.238 714.995 323.392C719.403 323.157 731.527 327.886 733.769 319.693C736.674 309.075 714.13 263.851 709.083 250.918C706.688 244.783 705.427 237.58 702.964 231.037C700.933 225.642 690.493 211.887 695.997 208.004C712.254 196.537 719.179 221.463 724.36 233.641C731.833 251.204 752.362 297.872 753.826 314.244C756.033 338.934 731.678 339.957 713.084 341.085C704.847 341.585 665.749 342.408 662.279 336.751L662.278 336.749Z" fill="black"/>
<path d="M303.418 255.568C304.507 256.534 315.366 276.643 315.677 278.506C318.363 294.598 302.108 286.154 297.385 287.296C293.75 288.175 287.655 298.082 280.836 299.017C273.929 299.964 259.655 293.484 264.933 284.941C267.77 280.349 287.162 279.483 287.903 270.054C288.841 258.114 264.178 261.8 266.846 246.968C270.837 243.4 275.256 242.361 280.497 243.375C281.776 243.622 302.447 254.708 303.418 255.57V255.568Z" fill="black"/>
</g>
<defs>
<clipPath id="clip0_59_1679">
<rect width="1429" height="1993" fill="white"/>
</clipPath>
</defs>
</svg>
