<svg width="605" height="702" viewBox="0 0 605 702" fill="none" xmlns="http://www.w3.org/2000/svg">
<g clip-path="url(#clip0_59_725)">
<path d="M393.995 399.642L377.433 385.242H314.636L272.649 525.08L164.746 511.493L102.37 594.13L98.0049 597.998L143.005 630.042L403.528 632.972L422.876 676.624L428.135 680.863L495.183 635.124L508.262 616.238L499.075 597.912L393.995 399.642Z" fill="white"/>
<path d="M547.858 699.861L451.937 701.564C449.759 700.047 452.303 687.644 448.996 684.505L428.135 680.864C427.259 665.608 422.252 648.011 412.512 635.989C410.351 633.321 400.187 623.402 397.332 623.147C396.197 623.046 394.024 625.074 394.02 625.5C394.014 626.208 402.19 631.692 403.529 632.972C414.6 643.552 420.885 661.695 422.876 676.624C423.425 680.741 425.368 700.495 421.367 701.859L327.666 701.04C323.793 695.575 329.219 690.162 320.4 689.122C261.984 683.206 156.751 702.983 115.03 652.47C102.156 636.883 98.8189 617.775 98.0049 597.998L129.53 603.97C131.259 619.508 144.851 613.199 155.552 616.042C272.808 615.876 390.638 615.84 508.263 616.238C541.853 627.496 552.333 668.036 547.859 699.861H547.858Z" fill="black"/>
<path d="M139.5 611C133.444 609.708 130.752 597.216 139.442 597.942L271.005 597.994C269.93 603.236 272.632 606.421 274 611H139.5Z" fill="black"/>
<path d="M328.5 391C321.362 392.017 314.176 398.852 312.273 405.773L280.99 553C261.508 524.58 232.876 519.82 200.797 527.297C180.463 532.036 156.911 543.008 157.386 567.329C157.911 594.247 182.155 591.46 197.472 576.972C205.274 569.592 196.944 571.866 195.211 568.798C194.553 567.633 194.059 563.98 196.507 563.961C210.815 563.847 219.2 594.11 230.576 586.071C237.069 581.484 230.111 567.959 226.414 563.088C224.509 560.577 215.368 553.093 215.12 552.354C212.666 545.029 221.52 548.708 225.009 551.492C236.253 560.464 235.808 567.44 240.576 578.925C243.281 585.441 256.051 591.203 257.83 583.301C259.964 573.824 241.815 549.127 232.935 544.277C230.563 533.558 240.616 541.554 244.526 544.975C250.318 550.042 257.05 559.303 260.17 566.331C263.747 574.388 262.545 586.977 273.995 583.006L271.901 593.899C234.118 593.612 196.249 594.617 158.459 594.042C151.903 593.942 138.956 590.967 133.041 594.542C131.339 595.571 131.029 597.896 129.989 598.558C128.071 599.778 106.412 595.12 102.37 594.131C41.6355 579.282 -7.30454 539.946 1.12946 471.629C11.1875 390.157 94.7115 326.129 173.996 320.996C175.511 319.754 165.959 313.405 164.987 312.515C148.583 297.512 138.779 283.753 132.285 262.217C124.138 235.196 123.364 206.703 122.861 178.641C122.022 176.082 115.944 177.225 112.953 176.549C70.0515 166.857 75.9674 101.376 121.895 105.891C126.48 45.9739 171.861 10.2749 228.667 2.16591C292.052 -6.88109 368.52 12.2759 386.18 81.8249C438.716 88.7449 442.852 160.509 392.955 175.659C390.405 227.311 397.721 292.613 350.915 327.415C344.661 332.065 337.533 335.31 331.008 339.513C330.615 341.506 331.437 340.733 332.276 341.219C344.005 348.018 355.085 355.146 365.015 364.487C372.69 371.707 381.5 381.548 386.001 391.001H328.501L328.5 391ZM378.002 81.9949C362.667 20.1169 295.945 4.21894 239.51 8.00994C184.683 11.6929 131.283 48.0349 129.994 107.005C152.477 107.958 174.875 111.375 197.34 111.839C203.415 101.746 208.811 93.7949 219.331 87.8309C246.79 72.2639 281.803 83.0589 293.046 112.96C297 112.522 299.735 109.697 303.982 108.482C314.562 105.454 324.316 107.025 333.439 112.992C341.855 95.3009 357.456 81.4729 378.002 81.9959V81.9949ZM281.762 138.753C284.685 135.562 282.403 122.687 281.052 118.448C278.585 110.709 272.798 103.875 265.917 99.5829C263.317 97.9609 253.052 92.0449 252.055 97.6189C251.611 100.106 264.518 105.242 267.496 108.003C271.612 111.82 275.955 120.206 276.739 125.76C277.051 127.97 276.234 144.787 281.762 138.753ZM410.093 133.9C416.358 138.047 415.193 123.854 414.74 120.761C413.332 111.14 401.882 97.2129 392.27 95.2199C389.313 94.6069 383.788 95.2469 386.444 99.0569C386.885 99.6899 397.201 104.179 399.926 106.575C403.973 110.133 407.556 116.651 408.556 121.945C409.012 124.361 408.829 133.064 410.093 133.9ZM111.762 113.262C101.297 114.82 92.3645 125.164 91.1135 135.61C86.7115 172.36 140.02 184.565 144.007 148.506C146.3 127.771 134.124 109.934 111.762 113.262ZM384.005 176.995C360.137 177.882 337.405 163.216 332.277 139.223C330.435 130.606 333.69 125.07 324.679 120.82C317.187 117.286 308.598 117.805 301.473 121.972C293.441 126.669 296.552 132.64 294.703 141.202C291.265 157.123 278.637 171.411 263.275 176.774C228.258 188.998 190.306 163.178 194.947 125.049L161.007 121.003C162.197 150.728 162.65 188.87 192.317 205.183C228.39 225.019 255.711 186.146 289.481 187.935C295.62 188.26 302.44 191.789 307.535 192.053C314.656 192.421 321.637 190.126 330.051 191.449C343.576 193.575 357.199 209.716 369.429 207.942C381.866 206.139 385.401 187.191 384.005 176.995ZM153.006 183.995C152.319 184.634 151.293 194.073 154.5 194.98C159.454 192.968 156.671 180.587 153.006 183.995ZM138.991 190.998C138.278 190.411 135.316 191.11 135.157 192.658L135.005 201.997C140.316 204.354 139.703 191.585 138.991 190.999V190.998ZM163.996 210.995C160.671 207.779 157.176 221.253 160.515 221.995C164.174 222.808 164.432 212.971 163.996 210.995ZM319.925 219.078C318.32 216.815 309.992 221.091 307.055 221.545C301.879 222.346 297.412 221.642 292.449 220.051C289.47 219.096 276.28 211.203 280.52 219.981C283.604 226.366 300.987 228.626 307.393 227.892C310.647 227.519 323.503 224.12 319.926 219.078H319.925ZM183.995 220.005C179.012 220.528 178.841 227.192 179.006 230.995C184.322 230.234 184.303 224.034 183.995 220.005ZM142.515 222.005C140.072 222.501 140.447 234.062 142.5 233.98C145.643 233.854 146.504 221.195 142.515 222.005ZM355.931 224.052C355.435 223.735 353.871 224.133 353.005 223.995C353.226 228.451 351.939 235.611 357.995 233.995C358.506 233.512 356.359 224.325 355.931 224.052ZM373.005 225.003C372.448 225.551 372.639 236.039 375.5 235.98C379.379 235.9 376.834 221.237 373.005 225.003ZM206.995 229.005C202.45 228.054 200.422 240.017 203.5 239.98C207.211 237.195 207.326 233.328 206.995 229.005ZM234.995 230.005C233.622 228.593 231.026 231.199 230.457 232.951C228.426 239.195 232.702 243.553 234.514 236.024C234.819 234.757 235.501 230.525 234.996 230.006L234.995 230.005ZM259.995 234.995C256.807 231.894 253.346 244.339 256.514 244.995C259.899 245.695 260.498 237.133 259.995 234.995ZM332.005 235.004C331.48 237.11 332.134 245.739 335.485 244.994C338.266 244.376 336.792 233.256 332.005 235.004ZM163.989 243.004C160.372 240.418 159.192 254.474 164.994 253.995L163.989 243.004ZM188.99 256.001C189.323 255.731 190.271 248.954 189.861 247.66C189.355 246.063 186.717 245.335 186.006 245.995C185.698 246.28 184.837 253.446 185.112 254.34C185.585 255.882 188.163 256.671 188.991 256.001H188.99ZM295.94 249.041C295.688 248.885 293.113 248.893 293.007 248.995C292.11 249.863 292.318 260.01 294.5 259.98C297.675 259.937 297.421 249.955 295.94 249.041ZM222.995 250.004C219.587 246.627 216.727 258.13 220.515 259.991C223.329 261.373 223.407 250.413 222.995 250.004ZM353.995 261.996C353.748 260.101 355.309 250.208 351.515 251.005C349.21 251.489 348.336 264.109 353.995 261.996ZM374.995 253.005C370.336 251.442 368.629 261.76 371.509 262.991C375.58 264.731 374.999 254.751 374.995 253.005ZM271.901 257.112C271.819 257.008 269.629 256.015 269.497 256.02C266.989 256.117 265.881 270.072 270.941 266.961C271.735 266.473 272.578 257.969 271.901 257.112ZM324.995 266.995C325.417 264.776 325.177 255.277 321.515 256.005C319.132 256.479 320.638 267.953 324.995 266.995ZM152.982 260.007C145.116 258.331 151.938 273.08 154.995 269.995L152.982 260.007ZM244.996 259.995C239.952 258.076 239.865 269.686 242.515 270.99C245.502 272.46 245.156 261.105 244.996 259.995ZM202.515 264.005C199.284 264.708 203.074 274.932 204.5 274.98C207.205 275.071 206.353 263.171 202.515 264.005ZM305.004 283.005C311.304 284.891 309.385 271.968 306.5 272.02C303.272 272.078 304.821 281.049 305.004 283.005ZM187.995 284.995C189.727 283.164 184.77 272.082 182.006 275.005C180.274 276.836 185.231 287.918 187.995 284.995ZM282.994 289.005C283.59 288.453 284.981 278.082 281.5 278.02C280.305 277.999 277.631 286.877 279.951 288.553C280.698 289.093 282.741 289.239 282.994 289.005ZM342.996 277.995C339.195 274.341 337.174 288.293 340.515 288.995C343.931 289.712 343.429 278.412 342.996 277.995ZM227.995 288.995C227.986 286.312 228.505 282.043 226.498 280.003C221.024 274.441 222.258 289.124 227.995 288.995ZM364.863 291.863C365.821 291.21 369.268 279.799 363.013 282.003L361.005 291.996C362.128 291.837 364.085 292.393 364.863 291.863ZM255.982 283.999C251.928 280.588 250.344 294.321 253.515 294.995C256.956 295.726 256.929 284.797 255.982 283.999ZM165.005 286.005C163.691 288.704 167.66 296.59 170.484 295.996C174.486 295.153 167.59 283.356 165.005 286.005ZM320.005 304.995C323.045 308.228 327.372 295.869 323.485 294.01C321.787 293.198 320.638 297.949 320.447 298.948C320.205 300.21 319.528 304.487 320.006 304.995H320.005ZM206.515 296.005C202.756 296.755 207.787 306.533 210.485 305.994C214.244 305.244 209.213 295.466 206.515 296.005ZM237.953 303.04C237.041 302.431 234.113 303.432 234.036 304.487C233.978 305.286 237.43 313.402 239.485 312.995C242.319 312.435 238.389 303.331 237.953 303.04ZM296.99 313.001C297.867 312.291 299.732 300.648 294.004 302.995C294.704 305.727 291.616 310.882 293.961 312.542C294.65 313.03 296.612 313.308 296.99 313.001ZM268.515 306.005C266.234 306.484 265.865 317.755 269.485 316.994C271.766 316.515 272.135 305.244 268.515 306.005ZM193.995 316.995C194.465 312.874 191.603 307.713 187.005 308.005C185.907 309.078 190.248 318.812 193.995 316.995ZM343.514 309.004C341.642 309.388 336.872 318.214 340.515 318.995C343.68 319.673 348.711 307.939 343.514 309.004ZM219.005 322.005C216.912 324.016 226.824 335.907 225.987 327.538C225.733 325.001 221.165 319.93 219.005 322.005ZM314.717 330.693C316.144 329.413 319.853 322.727 316.485 322.006C312.198 321.088 308.499 336.271 314.717 330.693ZM252.515 328.005C249.133 328.688 252.3 338.681 255.485 337.994C258.722 337.297 255.176 327.467 252.515 328.005ZM283.514 328.005C281.184 328.495 278.275 337.307 281.514 337.995C284.48 338.625 288.187 327.021 283.514 328.005ZM290.99 349.001C263.154 352.541 234.24 347.764 208 338.01C225.649 359.515 261.385 366.752 286.017 353.52C286.962 353.012 292.48 350.539 290.99 349.001ZM106 436.01C102.998 433.831 93.1105 447.54 91.5805 450.08C78.8175 471.269 81.2675 496.737 102.675 510.825C120.007 522.23 144.141 523.935 164.205 527.296C169.71 528.218 173.54 531.235 178.998 527.988C177.92 525.936 174.298 524.912 172.208 524.293C151.125 518.045 127.331 520.516 107.307 508.194C102.74 505.384 98.8405 503.257 98.9215 497.499C99.0255 490.142 100.292 480.13 101.005 472.505C102.143 460.324 104.079 448.077 106 436.01Z" fill="black"/>
<path d="M275.988 574.998C274.773 575.919 271.214 566.257 270.52 564.98C267.522 559.462 263.314 553.046 259.024 548.476C256.34 545.617 244.575 538.674 251.017 535.442C253.907 533.992 264.387 544.53 266.511 546.988C268.827 549.668 277.351 561.992 277.845 564.733C278.386 567.734 276.301 571.921 275.987 574.997L275.988 574.998Z" fill="black"/>
<path d="M106 436.01C104.079 448.077 102.143 460.324 101.005 472.505C100.292 480.129 99.0253 490.142 98.9213 497.499C98.8403 503.258 102.74 505.384 107.307 508.194C127.331 520.515 151.126 518.045 172.208 524.293C174.298 524.912 177.92 525.936 178.998 527.988C173.54 531.235 169.711 528.218 164.205 527.296C144.141 523.935 120.007 522.231 102.675 510.825C81.2673 496.737 78.8173 471.268 91.5803 450.08C93.1103 447.54 102.998 433.831 106 436.01Z" fill="white"/>
<path d="M290.99 349.001C292.48 350.539 286.962 353.013 286.017 353.52C261.385 366.752 225.649 359.514 208 338.01C234.24 347.764 263.154 352.541 290.99 349.001Z" fill="white"/>
<path d="M329.74 396.24C392.367 395.241 455.368 396.497 517.669 396.623C541.168 396.67 568.431 393.992 591.535 395.966C600.176 396.704 605.267 399.974 604.922 409.345C590.778 468.186 582.117 529.413 567.512 588.011C565.093 597.718 564.297 606.053 553.735 610.234C463.681 611.702 373.102 611.124 282.975 610.526C277.308 608.784 275.191 603.246 276.118 597.627L316.48 408.979C318.165 402.241 323.039 397.801 329.741 396.24H329.74ZM415.734 423.171C407.665 424.83 407.702 436.876 418.055 433.551C425.493 431.162 424.608 421.347 415.734 423.171ZM412.999 466.995C413.689 467.687 432.016 465.544 431.98 463.5C420.34 458.885 427.385 443.693 421.398 435.043C420.46 434.747 409.454 440.49 409.007 441.019C406.613 443.855 413.338 442.265 414.543 443.958C415.443 445.223 417.189 459.242 416.591 461.055C415.957 462.979 411.119 465.109 412.998 466.995H412.999ZM401.989 466.001C403.778 478.144 408 487.695 422.271 484.77C434.333 482.298 431.976 464.357 419.257 469.764C413.607 472.166 415.927 479.995 421.48 479.05C425.464 478.372 423.268 472.032 425.5 472.02C428.39 472.004 428.121 482.808 418.536 480.985C408.326 479.044 411.731 449.849 406.022 442.478C401.12 436.148 385.421 436.686 386.996 446.999C394.424 449.194 390.988 440.657 397.921 442.082L399.99 449.999C395.408 447.087 388.977 447.901 386.485 452.986C380.755 464.678 392.225 476.669 401.989 466.001ZM446.005 489.995C445.882 486.701 445.481 474.942 443.015 473.421C442.075 472.841 432.425 477.585 432.003 478.015C429.727 480.339 435.698 479.79 436.549 480.952C437.268 481.933 438.498 492.263 438.858 494.642C439.392 498.173 441.222 510.227 439.91 512.393C438.864 514.119 435.984 513.544 436.999 516.995L451.972 514.953C452.917 511.643 450.315 512.534 449.463 510.073C448.042 505.968 444.732 491.977 451.426 491.945C453.279 492.165 454.976 505.025 455.09 507.499C455.237 510.687 451.726 514.895 457.188 514.781C458.382 514.756 467.656 513.41 468.001 512.984C470.214 510.252 465.765 509.936 465.076 509.47C460.019 506.047 464.832 484.638 453.766 486.181C450.217 486.676 449.101 489.458 446.005 489.995ZM474.246 482.757C472.336 481.098 474.085 473.279 470.515 474.005C468.516 474.412 469.41 480.543 467.497 482.996C465.509 485.545 462.956 484.396 461.021 486.499C462.264 488.299 465.553 488.003 466.524 489.976C469.42 495.862 464.913 513.182 476.516 512.08C485.613 511.216 483.214 494.079 480.006 498.003C481.146 501.049 478.453 506.572 476.527 501.972C476.033 500.793 474.196 489.309 474.34 488.434C474.676 486.381 480.96 486.378 478.999 484.012C478.713 483.667 475.128 483.52 474.247 482.755L474.246 482.757ZM393.995 522.995L389.078 486.422C388.157 484.221 395.844 482.07 393.016 480.486C391.238 479.491 380.901 481.11 380.004 482.014C377.639 484.398 385 484.131 385.797 485.216C387.7 487.806 387.44 502.875 388.991 506.999C383.817 503.861 374.153 486.268 369.979 484.52C366.201 482.938 358.178 484.011 354.651 486.149C345.349 491.786 351.588 503.565 357.961 498.478C362.385 494.947 357.585 491.6 359.461 488.97C360.576 487.407 362.425 487.606 363.481 489.019C365.337 491.503 367.421 515.39 366.76 519.26C364.475 532.638 349.855 528.448 352.073 521.614C353.272 517.92 361.606 522.959 362.845 516.247C364.127 509.302 355.246 508.368 350.577 513.075C344.839 518.86 347.638 529.974 355.446 531.048C376.205 533.904 369.073 507.219 368.011 495.003L390.212 522.773C390.93 523.168 393.82 523.158 393.996 522.993L393.995 522.995ZM406.753 483.245C402.514 479.064 392.517 485.237 395.921 490.308C399.511 495.657 412.396 488.809 406.753 483.245ZM431.993 490.003C429.839 489.18 427.329 493.991 426.499 493.984C425.944 493.979 423.527 488.797 417.232 491.741C408.465 495.842 411.044 520.586 421.42 519.981C424.995 519.773 424.751 517.44 426.989 516.006C428.047 518.73 428.694 531.905 426.987 532.996C422.081 536.131 424.038 527.96 423.971 526.59C423.727 521.64 418.424 520.936 415.928 524.427C410.39 532.174 425.442 541.65 433.436 530.935C439.833 522.362 432.158 500.594 431.993 490.003ZM415.998 519.988C415.035 517.232 411.206 516.987 410.219 514.281C407.022 505.517 412.616 484.511 396.497 497.996C395.412 498.903 394.435 499.415 395.984 500.518C401.587 499.445 401.954 509.134 402.072 513.49C402.241 519.721 399.679 517.396 398.006 521.994C404.102 522.427 410.103 521.385 415.999 519.987L415.998 519.988ZM541.002 549.01C538.16 549.186 536.405 547.602 535.447 545.053C534.131 540.024 532.626 512.227 530.043 510.423C527.616 508.728 521.183 513.834 519.008 515.513L523.859 518.643C523.31 526.905 528.992 541.872 527.021 549.299C526.834 550.004 522.02 552.006 524.005 553.996C524.665 554.657 543.879 551.942 541.002 549.01ZM457.005 536.995L454.032 520.458C452.988 519.641 443.355 524.526 443.006 525.018C440.722 528.227 446.7 526.857 446.927 527.009C448.286 527.914 451.729 556.759 450.838 559.344C450.228 561.116 446.985 561.108 447.488 563.002C449.351 565.722 459.883 562.395 462.994 561.991C462.837 559.376 460.509 558.543 459.655 555.845C458.423 551.95 456.332 541.186 460.616 539.06C464.434 538.428 466.397 554.78 465.799 557.225C465.548 558.252 463.769 559.353 463.991 560.475C464.617 563.639 476.225 559.948 478.994 559.994C478.837 556.66 475.348 557.125 473.916 553.582C471.725 548.159 474.128 532.4 464.57 533.009C461.123 533.229 460.127 536.807 457.005 536.995ZM408.656 528.346C401.135 520.726 383.949 527.433 385.185 538.233C386.639 550.941 406.592 547.811 404.978 560.41C403.59 571.245 384.904 567.61 387.05 559.607C388.675 553.547 392.928 562.44 393.585 562.924C400.754 568.2 406.155 553.861 395.242 552.196C380.899 550.008 379.667 573.259 393.929 576.57C414.035 581.238 428.813 559.812 410.327 546.172C406.412 543.284 387.634 536.349 396.428 529.928C403.305 524.907 401.196 535.4 402.9 537.594C406.971 542.835 415.492 535.271 408.656 528.346ZM508.745 527.213C495.41 529.773 497.993 556.557 512.239 555.768C529.701 554.801 524.785 524.133 508.745 527.213ZM486.762 530.239C471.486 531.098 472.643 559.534 488.464 559.041C504.803 558.531 500.716 529.455 486.762 530.239ZM435.995 541.005C430.264 556.914 447.92 548.172 439.543 539.955C433.806 534.327 422.719 540.493 421.229 547.728C416.267 571.829 449.366 572.502 447.994 550.005C443.153 551.381 444.241 556.899 438.24 557.823C428.677 559.296 426.365 541.413 435.995 541.005Z" fill="black"/>
<path d="M408.656 528.346C415.492 535.271 406.972 542.835 402.901 537.594C401.196 535.4 403.306 524.907 396.429 529.928C387.635 536.349 406.413 543.284 410.328 546.172C428.815 559.812 414.036 581.238 393.93 576.57C379.668 573.259 380.9 550.009 395.243 552.196C406.156 553.861 400.755 568.2 393.586 562.924C392.928 562.44 388.676 553.547 387.051 559.607C384.905 567.609 403.591 571.245 404.979 560.41C406.593 547.811 386.64 550.942 385.186 538.233C383.95 527.433 401.135 520.726 408.656 528.346Z" fill="white"/>
<path d="M393.995 522.995C393.82 523.16 390.929 523.169 390.211 522.775L368.01 495.005C369.072 507.222 376.204 533.906 355.445 531.05C347.637 529.976 344.838 518.862 350.576 513.077C355.244 508.37 364.125 509.304 362.844 516.249C361.605 522.961 353.271 517.922 352.072 521.616C349.854 528.45 364.474 532.64 366.759 519.262C367.42 515.392 365.337 491.505 363.48 489.021C362.424 487.608 360.575 487.409 359.46 488.972C357.584 491.602 362.384 494.949 357.96 498.48C351.587 503.566 345.348 491.788 354.65 486.151C358.177 484.013 366.2 482.94 369.978 484.522C374.152 486.27 383.815 503.863 388.99 507.001C387.439 502.876 387.7 487.807 385.796 485.218C384.999 484.133 377.638 484.4 380.003 482.016C380.901 481.111 391.237 479.492 393.015 480.488C395.843 482.071 388.156 484.223 389.077 486.424L393.994 522.997L393.995 522.995Z" fill="white"/>
<path d="M401.989 466.001C392.225 476.67 380.756 464.678 386.485 452.986C388.977 447.901 395.408 447.087 399.99 449.999L397.921 442.082C390.988 440.657 394.423 449.194 386.996 446.999C385.42 436.685 401.119 436.148 406.022 442.478C411.731 449.849 408.326 479.043 418.536 480.985C428.121 482.808 428.39 472.004 425.5 472.02C423.268 472.032 425.464 478.372 421.48 479.05C415.927 479.995 413.607 472.166 419.257 469.764C431.976 464.358 434.334 482.298 422.271 484.77C408 487.695 403.777 478.144 401.989 466.001ZM396.527 452.007C392.809 455.161 394.185 458.245 397.5 460.981C401.174 458.532 401.127 453.145 396.527 452.007Z" fill="white"/>
<path d="M431.993 490.003C432.158 500.594 439.832 522.363 433.436 530.936C425.442 541.65 410.39 532.174 415.928 524.428C418.424 520.937 423.727 521.642 423.971 526.591C424.038 527.96 422.081 536.132 426.987 532.997C428.694 531.906 428.047 518.731 426.989 516.007C424.751 517.442 424.996 519.774 421.42 519.982C411.044 520.587 408.465 495.843 417.232 491.742C423.527 488.797 425.944 493.98 426.499 493.985C427.33 493.992 429.839 489.181 431.993 490.004V490.003ZM422.986 494.003C420.717 491.773 420.031 499.244 420.072 500.343C420.113 501.418 422.308 514.138 424.994 510.995C425.117 507.601 425.226 496.204 422.985 494.003H422.986Z" fill="white"/>
<path d="M446.005 489.995C449.101 489.458 450.216 486.676 453.766 486.181C464.831 484.637 460.019 506.047 465.076 509.47C465.765 509.936 470.214 510.253 468.001 512.984C467.656 513.41 458.382 514.756 457.188 514.781C451.726 514.895 455.238 510.687 455.09 507.499C454.976 505.025 453.279 492.165 451.426 491.945C444.732 491.977 448.042 505.968 449.463 510.073C450.315 512.534 452.918 511.643 451.972 514.953L436.999 516.995C435.983 513.544 438.864 514.119 439.91 512.393C441.222 510.227 439.392 498.173 438.858 494.642C438.498 492.263 437.268 481.933 436.549 480.952C435.698 479.791 429.727 480.339 432.003 478.015C432.425 477.584 442.075 472.84 443.015 473.421C445.48 474.943 445.882 486.702 446.005 489.995Z" fill="white"/>
<path d="M457.005 536.995C460.127 536.807 461.124 533.229 464.571 533.009C474.129 532.399 471.726 548.158 473.917 553.582C475.348 557.124 478.837 556.66 478.995 559.994C476.226 559.948 464.618 563.638 463.992 560.475C463.77 559.353 465.549 558.253 465.8 557.225C466.398 554.78 464.435 538.428 460.617 539.06C456.333 541.186 458.424 551.95 459.656 555.845C460.51 558.544 462.838 559.377 462.995 561.991C459.884 562.395 449.352 565.722 447.489 563.002C446.986 561.108 450.228 561.116 450.839 559.344C451.729 556.76 448.287 527.914 446.928 527.009C446.7 526.857 440.722 528.227 443.007 525.018C443.357 524.527 452.989 519.641 454.033 520.458L457.005 536.995Z" fill="white"/>
<path d="M508.745 527.213C524.784 524.134 529.701 554.801 512.239 555.768C497.994 556.557 495.41 529.773 508.745 527.213ZM509.005 531.005C508.886 533.431 508.215 547.902 512.485 546.995C516.703 546.098 511.909 527.696 509.005 531.005Z" fill="white"/>
<path d="M486.762 530.239C500.716 529.454 504.803 558.531 488.464 559.041C472.642 559.535 471.485 531.099 486.762 530.239ZM488.987 550.998C490.806 549.635 490.245 533.646 485.007 534.004C483.546 535.369 484.333 550.266 488.987 550.998Z" fill="white"/>
<path d="M435.995 541.005C426.365 541.413 428.677 559.297 438.24 557.823C444.241 556.898 443.154 551.381 447.994 550.005C449.366 572.502 416.267 571.829 421.229 547.728C422.719 540.493 433.806 534.328 439.543 539.955C447.92 548.172 430.264 556.913 435.995 541.005Z" fill="white"/>
<path d="M541.002 549.01C543.879 551.942 524.665 554.656 524.005 553.995C522.02 552.005 526.834 550.003 527.021 549.298C528.991 541.872 523.31 526.904 523.859 518.642L519.008 515.512C521.183 513.833 527.616 508.727 530.043 510.422C532.627 512.226 534.131 540.023 535.447 545.052C536.404 547.601 538.16 549.185 541.002 549.009V549.01Z" fill="white"/>
<path d="M474.245 482.757C475.125 483.522 478.711 483.669 478.997 484.014C480.958 486.38 474.675 486.383 474.339 488.436C474.196 489.311 476.032 500.795 476.526 501.974C478.452 506.574 481.145 501.051 480.005 498.005C483.213 494.08 485.613 511.218 476.515 512.082C464.912 513.184 469.419 495.864 466.523 489.978C465.552 488.005 462.263 488.301 461.02 486.501C462.955 484.398 465.507 485.546 467.495 482.998C469.408 480.545 468.515 474.413 470.513 474.007C474.084 473.28 472.335 481.1 474.245 482.759L474.245 482.757Z" fill="white"/>
<path d="M412.999 466.995C411.12 465.109 415.958 462.979 416.592 461.055C417.19 459.242 415.443 445.222 414.544 443.958C413.34 442.265 406.614 443.855 409.008 441.019C409.455 440.49 420.46 434.746 421.399 435.043C427.385 443.693 420.341 458.886 431.981 463.5C432.017 465.544 413.689 467.687 412.999 466.995Z" fill="white"/>
<path d="M415.998 519.988C410.102 521.386 404.101 522.427 398.005 521.995C399.678 517.397 402.24 519.721 402.071 513.491C401.953 509.136 401.586 499.446 395.983 500.519C394.434 499.415 395.411 498.904 396.496 497.997C412.615 484.512 407.021 505.518 410.218 514.282C411.205 516.987 415.034 517.233 415.997 519.989L415.998 519.988Z" fill="white"/>
<path d="M415.734 423.171C424.608 421.347 425.493 431.162 418.055 433.551C407.702 436.876 407.665 424.829 415.734 423.171Z" fill="white"/>
<path d="M406.753 483.245C412.395 488.81 399.51 495.657 395.921 490.308C392.517 485.236 402.514 479.064 406.753 483.245Z" fill="white"/>
<path d="M396.527 452.007C401.127 453.145 401.174 458.532 397.5 460.981C394.185 458.245 392.809 455.161 396.527 452.007Z" fill="black"/>
<path d="M422.986 494.003C425.226 496.204 425.118 507.601 424.995 510.995C422.308 514.138 420.113 501.418 420.073 500.343C420.032 499.244 420.716 491.773 422.986 494.003Z" fill="black"/>
<path d="M509.005 531.005C511.909 527.696 516.703 546.098 512.485 546.995C508.216 547.903 508.886 533.431 509.005 531.005Z" fill="black"/>
<path d="M488.988 550.998C484.334 550.266 483.546 535.368 485.007 534.004C490.245 533.646 490.807 549.635 488.988 550.998Z" fill="black"/>
<path d="M378.002 81.9949C357.456 81.4719 341.855 95.3009 333.439 112.991C324.315 107.024 314.562 105.453 303.982 108.481C299.736 109.696 297 112.522 293.046 112.959C281.803 83.0579 246.79 72.2629 219.331 87.8299C208.811 93.7939 203.415 101.745 197.34 111.838C174.875 111.374 152.477 107.957 129.994 107.004C131.283 48.0349 184.683 11.6919 239.51 8.00893C295.944 4.21893 362.666 20.1159 378.002 81.9939V81.9949Z" fill="white"/>
<path d="M384.005 176.995C385.4 187.191 381.866 206.139 369.429 207.942C357.199 209.715 343.577 193.575 330.051 191.449C321.637 190.126 314.656 192.421 307.535 192.053C302.44 191.79 295.62 188.261 289.481 187.935C255.711 186.145 228.389 225.018 192.317 205.183C162.651 188.87 162.197 150.728 161.007 121.003L194.947 125.049C190.307 163.178 228.258 188.998 263.275 176.774C278.637 171.411 291.265 157.123 294.703 141.202C296.552 132.64 293.441 126.669 301.473 121.972C308.598 117.805 317.187 117.286 324.679 120.82C333.689 125.07 330.435 130.606 332.277 139.223C337.405 163.216 360.137 177.881 384.005 176.995ZM320.847 125.167C317.737 124.541 314.798 124.571 315.014 128.393C315.901 144.096 346.854 187.897 308.993 178.506C305.862 177.73 299.678 173.8 297.248 176.25C291.036 182.51 309.916 186.491 313.606 186.893C322.429 187.855 334.263 185.995 335.933 175.437C338.067 161.948 323.97 138.88 320.848 125.166L320.847 125.167Z" fill="white"/>
<path d="M111.762 113.262C134.124 109.933 146.299 127.771 144.007 148.506C140.02 184.565 86.7106 172.36 91.1126 135.61C92.3636 125.165 101.297 114.82 111.762 113.262ZM108.148 127.139C102.478 130.734 117.097 136.392 117.063 139.512C117.038 141.847 105.542 147.349 108.441 152.009C112.108 157.903 118.573 145.968 121.515 146.203C123.954 147.045 124.561 151.643 125.965 152.556C128.164 153.985 131.746 150.993 131.576 148.937C131.086 143.005 114.543 123.086 108.148 127.14V127.139Z" fill="white"/>
<path d="M281.762 138.753C276.235 144.787 277.051 127.971 276.739 125.761C275.956 120.207 271.613 111.82 267.496 108.004C264.518 105.243 251.61 100.106 252.055 97.62C253.052 92.045 263.317 97.962 265.917 99.584C272.798 103.876 278.585 110.71 281.052 118.449C282.403 122.688 284.684 135.563 281.762 138.754V138.753Z" fill="white"/>
<path d="M410.093 133.9C408.829 133.063 409.012 124.36 408.555 121.945C407.555 116.651 403.972 110.132 399.925 106.575C397.2 104.18 386.884 99.69 386.443 99.057C383.787 95.247 389.312 94.607 392.269 95.22C401.881 97.213 413.331 111.14 414.739 120.761C415.192 123.854 416.357 138.047 410.092 133.9H410.093Z" fill="white"/>
<path d="M319.925 219.078C323.502 224.12 310.646 227.519 307.392 227.892C300.986 228.627 283.602 226.366 280.519 219.981C276.279 211.203 289.469 219.096 292.448 220.051C297.412 221.642 301.879 222.346 307.054 221.545C309.991 221.091 318.32 216.815 319.925 219.078Z" fill="white"/>
<path d="M165.005 286.005C167.59 283.356 174.486 295.153 170.484 295.996C167.66 296.591 163.691 288.705 165.005 286.005Z" fill="white"/>
<path d="M364.863 291.863C364.085 292.393 362.128 291.837 361.005 291.996L363.013 282.003C369.268 279.799 365.821 291.21 364.863 291.863Z" fill="white"/>
<path d="M153.006 183.995C156.671 180.587 159.454 192.968 154.5 194.98C151.293 194.073 152.319 184.634 153.006 183.995Z" fill="white"/>
<path d="M138.991 190.998C139.703 191.585 140.316 204.354 135.005 201.996L135.157 192.657C135.316 191.11 138.278 190.411 138.991 190.998Z" fill="white"/>
<path d="M255.982 283.999C256.929 284.796 256.956 295.726 253.515 294.995C250.344 294.321 251.927 280.588 255.982 283.999Z" fill="white"/>
<path d="M206.515 296.005C209.214 295.466 214.244 305.244 210.485 305.994C207.786 306.533 202.756 296.755 206.515 296.005Z" fill="white"/>
<path d="M163.996 210.995C164.432 212.971 164.174 222.808 160.515 221.995C157.176 221.253 160.671 207.779 163.996 210.995Z" fill="white"/>
<path d="M142.515 222.005C146.504 221.195 145.642 233.853 142.5 233.98C140.447 234.062 140.072 222.502 142.515 222.005Z" fill="white"/>
<path d="M271.901 257.112C272.579 257.969 271.735 266.473 270.941 266.961C265.881 270.071 266.988 256.117 269.497 256.02C269.629 256.015 271.819 257.009 271.901 257.112Z" fill="white"/>
<path d="M305.004 283.005C304.821 281.049 303.272 272.078 306.5 272.02C309.385 271.968 311.305 284.891 305.004 283.005Z" fill="white"/>
<path d="M343.514 309.004C348.711 307.938 343.68 319.673 340.515 318.995C336.872 318.215 341.642 309.388 343.514 309.004Z" fill="white"/>
<path d="M187.995 284.995C185.231 287.918 180.274 276.836 182.006 275.005C184.77 272.082 189.727 283.164 187.995 284.995Z" fill="white"/>
<path d="M152.982 260.007L154.995 269.995C151.938 273.079 145.115 258.33 152.982 260.007Z" fill="white"/>
<path d="M282.994 289.005C282.741 289.239 280.699 289.093 279.951 288.553C277.63 286.877 280.305 277.999 281.5 278.02C284.982 278.082 283.59 288.452 282.994 289.005Z" fill="white"/>
<path d="M353.995 261.996C348.336 264.109 349.21 251.489 351.515 251.005C355.309 250.208 353.748 260.101 353.995 261.996Z" fill="white"/>
<path d="M188.99 256.001C188.162 256.671 185.585 255.882 185.111 254.34C184.836 253.446 185.698 246.28 186.005 245.995C186.717 245.335 189.355 246.063 189.86 247.66C190.27 248.954 189.323 255.731 188.99 256.001Z" fill="white"/>
<path d="M320.005 304.995C319.527 304.487 320.204 300.21 320.446 298.948C320.638 297.95 321.787 293.198 323.484 294.01C327.371 295.869 323.045 308.228 320.004 304.995H320.005Z" fill="white"/>
<path d="M252.515 328.005C255.176 327.468 258.722 337.297 255.485 337.994C252.3 338.68 249.133 328.687 252.515 328.005Z" fill="white"/>
<path d="M283.514 328.005C288.188 327.021 284.481 338.625 281.514 337.995C278.275 337.307 281.184 328.495 283.514 328.005Z" fill="white"/>
<path d="M314.717 330.693C308.498 336.27 312.197 321.087 316.485 322.006C319.853 322.727 316.145 329.413 314.717 330.693Z" fill="white"/>
<path d="M268.515 306.005C272.135 305.244 271.766 316.515 269.485 316.994C265.865 317.755 266.234 306.484 268.515 306.005Z" fill="white"/>
<path d="M374.995 253.005C374.999 254.751 375.581 264.731 371.509 262.991C368.629 261.76 370.336 251.442 374.995 253.005Z" fill="white"/>
<path d="M295.94 249.041C297.422 249.955 297.675 259.937 294.5 259.98C292.317 260.01 292.11 249.862 293.007 248.995C293.112 248.893 295.688 248.885 295.94 249.041Z" fill="white"/>
<path d="M373.005 225.003C376.834 221.237 379.38 235.899 375.5 235.98C372.639 236.039 372.448 225.551 373.005 225.003Z" fill="white"/>
<path d="M296.99 313.001C296.611 313.308 294.65 313.031 293.961 312.543C291.617 310.882 294.705 305.728 294.004 302.996C299.732 300.649 297.867 312.292 296.99 313.002V313.001Z" fill="white"/>
<path d="M183.995 220.005C184.303 224.034 184.321 230.234 179.006 230.995C178.841 227.192 179.012 220.528 183.995 220.005Z" fill="white"/>
<path d="M342.996 277.995C343.429 278.412 343.931 289.712 340.515 288.995C337.173 288.293 339.195 274.341 342.996 277.995Z" fill="white"/>
<path d="M193.995 316.995C190.248 318.812 185.908 309.078 187.005 308.005C191.603 307.712 194.465 312.874 193.995 316.995Z" fill="white"/>
<path d="M244.996 259.995C245.157 261.106 245.503 272.46 242.515 270.99C239.865 269.686 239.951 258.075 244.996 259.995Z" fill="white"/>
<path d="M324.995 266.995C320.638 267.954 319.132 256.479 321.515 256.005C325.176 255.277 325.417 264.776 324.995 266.995Z" fill="white"/>
<path d="M332.005 235.004C336.793 233.256 338.267 244.376 335.485 244.994C332.134 245.739 331.48 237.11 332.005 235.004Z" fill="white"/>
<path d="M234.995 230.005C235.5 230.524 234.818 234.756 234.513 236.023C232.701 243.553 228.425 239.195 230.456 232.95C231.026 231.199 233.621 228.592 234.994 230.004L234.995 230.005Z" fill="white"/>
<path d="M206.995 229.005C207.327 233.327 207.212 237.195 203.5 239.98C200.422 240.017 202.45 228.054 206.995 229.005Z" fill="white"/>
<path d="M355.931 224.052C356.359 224.326 358.506 233.512 357.995 233.995C351.939 235.611 353.226 228.451 353.005 223.995C353.872 224.133 355.436 223.735 355.931 224.052Z" fill="white"/>
<path d="M219.005 322.005C221.165 319.93 225.733 325.001 225.987 327.538C226.825 335.907 216.912 324.017 219.005 322.005Z" fill="white"/>
<path d="M202.515 264.005C206.353 263.171 207.205 275.071 204.5 274.98C203.074 274.932 199.284 264.708 202.515 264.005Z" fill="white"/>
<path d="M237.953 303.04C238.389 303.331 242.319 312.435 239.485 312.995C237.43 313.401 233.978 305.286 234.036 304.487C234.113 303.432 237.041 302.431 237.953 303.04Z" fill="white"/>
<path d="M227.995 288.995C222.257 289.123 221.024 274.441 226.498 280.003C228.505 282.043 227.986 286.312 227.995 288.995Z" fill="white"/>
<path d="M163.989 243.004L164.994 253.995C159.192 254.475 160.372 240.419 163.989 243.004Z" fill="white"/>
<path d="M259.995 234.995C260.499 237.133 259.899 245.695 256.514 244.995C253.346 244.339 256.807 231.894 259.995 234.995Z" fill="white"/>
<path d="M222.995 250.004C223.407 250.413 223.329 261.372 220.515 259.991C216.727 258.131 219.587 246.627 222.995 250.004Z" fill="white"/>
<path d="M320.847 125.167C323.968 138.882 338.066 161.949 335.932 175.438C334.262 185.996 322.428 187.856 313.605 186.894C309.915 186.492 291.035 182.511 297.247 176.251C299.678 173.801 305.862 177.731 308.992 178.507C346.853 187.897 315.9 144.096 315.013 128.394C314.797 124.572 317.736 124.542 320.846 125.168L320.847 125.167Z" fill="black"/>
<path d="M108.148 127.139C114.543 123.084 131.086 143.004 131.576 148.936C131.746 150.993 128.164 153.985 125.965 152.555C124.561 151.643 123.954 147.044 121.515 146.202C118.573 145.967 112.108 157.901 108.441 152.008C105.542 147.348 117.038 141.846 117.063 139.511C117.096 136.392 102.478 130.733 108.148 127.138V127.139Z" fill="black"/>
</g>
<defs>
<clipPath id="clip0_59_725">
<rect width="605" height="702" fill="white"/>
</clipPath>
</defs>
</svg>
