<svg width="540" height="841" viewBox="0 0 540 841" fill="none" xmlns="http://www.w3.org/2000/svg">
<g clip-path="url(#clip0_59_1796)">
<path d="M51.9033 563.684L121.808 707.686C121.808 707.686 117.556 716.934 117.544 717.911C117.492 722.1 73.7123 775.941 73.7123 775.941C73.7123 775.941 53.6933 811.112 58.0273 816.762C62.3613 822.412 66.3543 836.266 72.7093 838.226C79.0643 840.186 119.015 824.291 123.532 823.162C128.049 822.033 282.186 768.175 282.186 768.175L198.189 713.045L112.803 650.927L134.301 636.713L65.1803 558.88L51.9033 563.684Z" fill="white"/>
<path d="M493.601 570.174L468.001 555.868L408.801 624.009V640.95H436.001L490.966 580.71L493.601 570.174Z" fill="white"/>
<path d="M315.343 105.728C314.055 106.818 304.66 101.57 301.781 100.881C294.582 99.158 285.493 99.281 278.391 101.271C275.345 102.125 267.668 107.238 266.007 106.719C264.801 106.343 262.389 99.405 261.191 97.471C243.116 68.28 200.046 62.897 176.399 88.279C170.802 94.286 168.038 102.812 162.703 108.583C151.713 108.858 137.672 112.647 126.895 110.77C125.879 110.593 124.77 110.317 124.505 109.193C124.393 108.719 125.415 100.904 125.642 99.522C134.133 47.827 176.635 20.675 225.183 12.063C284.909 1.46702 375.838 10.904 398.86 77.801C399.106 78.516 401.143 83.821 398.893 83.752C398.202 83.731 389.955 77.821 387.065 76.598C360.957 65.545 331.534 74.653 317.586 99.462C316.516 101.365 315.597 105.513 315.343 105.728ZM152.984 72.019C152.984 69.714 151.116 67.846 148.811 67.846C146.506 67.846 144.638 69.714 144.638 72.019C144.638 74.324 146.506 76.192 148.811 76.192C151.116 76.192 152.984 74.324 152.984 72.019ZM144.669 89.897C144.669 87.606 142.812 85.748 140.52 85.748C138.228 85.748 136.371 87.605 136.371 89.897C136.371 92.189 138.228 94.046 140.52 94.046C142.812 94.046 144.669 92.189 144.669 89.897Z" fill="white"/>
<path d="M404.385 156.776C405.431 158.008 403.584 168.507 403.098 170.979C399.55 189.015 388.665 211.054 366.88 208.775C356.254 207.664 347.166 197.482 338.059 192.602C320.803 183.356 312.806 185.652 294.879 186.76C278.832 187.752 266.865 181.387 249.164 185.045C220.735 190.921 207.895 222.664 175.13 209.53C145.499 197.653 145.026 152.122 144.387 125.268C145.249 120.602 157.17 123.745 161.418 122.197C162.931 128.932 163.548 136.009 166.198 142.462C183.721 185.148 252.154 182.51 265.334 136.215C266.43 132.365 266.738 125.003 268.333 122.214C271.246 117.12 283.19 112.225 288.898 111.779C296.575 111.18 310.895 115.211 312.963 123.696C314.131 128.486 313.857 132.652 315.629 138.03C325.808 168.929 365.687 181.655 393.084 164.964C394.584 164.05 403.733 156.007 404.385 156.775V156.776ZM271.552 175.623C272.226 176.717 287.761 181.21 290.146 181.515C301.774 183.003 316.127 181.448 315.423 166.315C315.069 158.708 305.588 130.297 302.149 122.512C301.436 120.898 300.439 117.481 298.733 116.912C294.278 115.426 292.847 118.051 293.428 122.192C294.64 130.841 302.256 147.042 304.889 156.773C307.379 165.974 310.839 175.351 296.875 174.829C291.15 174.615 276.782 168.292 274.083 168.928C271.727 169.483 270.458 173.848 271.553 175.624L271.552 175.623Z" fill="white"/>
<path d="M323.633 692.535C319.999 688.754 324.441 677.504 326.21 673.091C331.151 660.767 339.932 648.46 348.889 638.763C350.758 634.78 347.954 632.789 344.096 633.954C338.419 635.667 323.918 659.788 321.014 665.895C319.044 670.036 315.307 682.885 313.461 685.091C311.249 687.735 304.656 686.643 303.584 683.081C300.519 672.904 312.304 651.622 318.17 643.05C320.405 639.784 333.565 625.081 333.244 623.414C332.837 621.296 330.332 620.545 328.364 621.166C321.813 623.233 307.389 645.291 304.014 651.894C301.255 657.293 299.558 663.735 296.903 668.827C296.292 669.998 296.927 671.124 294.902 670.804C291.588 670.279 289.899 666.086 289.752 663.122C288.989 647.739 306.672 623.808 316.993 612.873C319.409 610.313 326.769 606.151 326.466 602.292C325.764 593.362 311.008 608.424 308.877 610.757C306.762 613.072 299.322 624.188 297.691 624.645C293.105 625.929 289.948 620.972 291.027 617.001C293.654 607.332 314.852 596.571 323.718 592.597C330.042 589.763 350.286 581.502 356.18 580.978C367.634 579.96 385.434 594.859 392.364 603.3C396.305 608.1 406.766 625.287 405.245 631.048C404.635 633.356 384.312 649.179 380.852 652.73C377.655 656.011 373.289 661.647 370.577 665.455C366.135 671.692 358.001 690.102 351.424 691.394C339.934 693.65 350.901 672.269 353.22 668.099C355.672 663.692 366.573 650.308 367.223 648.064C368.203 644.679 366.243 643.236 362.937 643.751C359.548 644.278 349.71 658.901 347.586 662.466C343.27 669.712 336.708 690.25 329.837 692.753C328.089 693.39 325.024 693.981 323.635 692.536L323.633 692.535Z" fill="white"/>
<path d="M191.247 690.626C190.382 691.165 186.31 690.925 185.089 690.564C180.716 689.271 168.205 665.083 163.362 659.3C159.158 654.281 134.718 633.823 134.365 631.223C133.273 623.178 146.179 603.67 151.878 597.759C157.712 591.709 172.47 580.999 180.93 580.712C184.61 580.587 208.341 590.113 213.358 592.304C221.614 595.91 247.714 608.531 248.387 618.338C248.589 621.291 244.852 626.199 242.021 625.64C240.214 625.283 223.84 600.587 216.719 599.916C215.034 599.757 213.483 601.831 213.341 603.326C212.975 607.182 218.276 609.017 220.386 611.275C230.827 622.446 250.496 647.488 249.456 663.253C249.201 667.123 244.493 673.799 241.599 669.059C238.688 664.29 236.562 655.767 233.559 650.102C230.698 644.705 215.596 622.29 210.676 620.913C207.259 619.956 204.062 622.913 206.34 626.309C210.366 632.313 216.804 637.977 221.202 644.46C226.665 652.513 238.924 673.887 234.167 683.052C232.576 686.118 227.239 687.212 224.862 684.797C223.556 683.471 220.011 671.326 218.565 668.096C215.625 661.53 200.167 633.844 193.662 632.9C190.288 632.411 188.741 635.301 190.134 638.493C191.289 641.139 198.45 648.409 200.8 651.86C205.545 658.828 217.658 680.28 216.405 688.215C215.798 692.061 211.861 693.469 208.338 692.333C201.623 690.168 196.441 672.346 192.912 665.748C190.679 661.572 178.96 642.759 174.892 642.738C165.251 642.688 179.766 658.627 181.418 661.242C184.045 665.401 196.786 687.174 191.246 690.625L191.247 690.626Z" fill="white"/>
<path d="M251.128 206.013C261.61 204.288 277.771 211.374 288.865 211.818C300.125 212.269 328.656 201.334 324.157 223.047C323.395 226.723 317.85 232.404 314.866 234.748C295.926 249.629 259.387 249.794 244.393 229.267C237.944 220.438 238.956 208.016 251.128 206.013ZM251.04 212.889C247.252 214.125 250.853 218.678 252.349 220.312C259.613 228.25 281.656 234.582 291.633 230.512C297.201 228.241 294.39 222.526 287.941 222.727C277.858 223.041 273.465 224.072 263.723 218.938C260.135 217.047 255.066 211.574 251.04 212.888V212.889Z" fill="white"/>
<path d="M103.151 117.034C128.626 113.642 135.779 150.521 125.23 167.11C116.458 180.905 94.5408 168.27 88.9878 156.673C82.3868 142.889 85.3178 119.408 103.151 117.034ZM101.491 157.679C105.078 160.228 110.184 152.4 112.095 151.902C114.968 151.153 116.94 155.076 119.87 154.843C125.767 154.374 118.653 143.973 116.9 141.761C114.449 138.669 103.007 126.477 99.8748 132.771C97.1988 138.149 108.466 140.965 108.449 145.284C108.437 148.398 100.792 148.949 100.506 154.262C100.474 154.858 101.255 157.512 101.491 157.679Z" fill="white"/>
<path d="M332.385 340.776C334.402 342.646 322.515 350.443 321.304 351.185C289.434 370.712 232.594 368.288 206.39 339.781C219.046 342.388 231.317 347.56 244.139 349.522C270.561 353.566 295.199 351.85 320.831 344.712C322.699 344.192 331.938 340.361 332.385 340.776Z" fill="white"/>
<path d="M417.484 150.861C421.047 148.428 425.097 156.805 430.383 154.269C436.874 151.155 425.337 145.776 425.351 143.273C425.375 139.17 438.145 134.914 430.711 130.865C425.221 127.875 419.875 138.449 415.401 140.772C416.989 135.888 416.075 121.995 418.312 118.436C420.751 114.556 430.53 117.276 433.884 119.779C448.057 130.353 445.118 155.45 431.891 165.772C429.102 167.948 418.311 174.253 417.414 169.248C416.863 166.169 415.361 152.312 417.484 150.863V150.861Z" fill="white"/>
<path d="M219.023 88.107C231.943 87.261 247.495 100.647 250.891 112.771C251.937 116.505 253.794 129.001 250.449 131.337C244.411 135.552 245.277 118.385 244.112 114.55C241.712 106.651 235.358 99.955 227.76 96.902C224.63 95.645 216.885 94.729 215.379 93.284C212.386 90.412 216.123 88.296 219.023 88.107Z" fill="white"/>
<path d="M364.495 93.6721C364.16 93.2641 364.163 89.5291 364.535 88.9161C366.444 85.7791 376.989 89.4761 379.903 90.7571C390.986 95.6301 398.72 106.511 400.108 118.546C400.46 121.599 401.276 133.359 395.373 130.308C392.15 128.642 393.792 122.603 393.287 119.374C391.813 109.956 385.655 100.659 376.758 96.9031C374.311 95.8701 364.898 94.1611 364.496 93.6711L364.495 93.6721Z" fill="white"/>
<path d="M251.395 446.766C250.302 445.809 253.867 443.164 254.195 442.069C254.888 439.76 252.751 428.173 251.513 426.349C250.492 424.846 246.294 426.916 247.399 424.285C247.86 423.188 255.651 417.525 256.831 417.792C259.667 418.435 261 435.462 262.917 438.744C264.092 440.755 268.357 441.131 268.37 442.271C268.392 444.17 252.252 447.516 251.395 446.766Z" fill="white"/>
<path d="M283.39 658.768C283.559 658.941 283.604 662.97 283.222 663.609C282.67 664.532 265.334 671.262 263.108 670.605C262.287 670.363 259.405 667.576 259.408 667.272C259.419 665.987 282.292 657.643 283.389 658.769L283.39 658.768Z" fill="white"/>
<path d="M251.108 407.979C261.034 405.772 258.902 417.764 250.87 417.657C244.659 417.574 244.696 409.405 251.108 407.979Z" fill="white"/>
<path d="M396.401 243.769C397.422 242.888 400.843 244.687 401.164 246.393C401.695 249.212 396.997 262.701 393.856 255.735C393.218 254.32 395.931 244.175 396.401 243.769Z" fill="white"/>
<path d="M405.152 208.017C407.475 210.56 406.157 216.698 404.621 219.492C403.909 220.786 404.039 221.682 401.898 220.764C398.441 219.281 400.17 202.563 405.152 208.018V208.017Z" fill="white"/>
<path d="M358.021 302.834C360.104 302.206 362.679 304.393 362.01 306.796C361.571 308.376 356.066 315.337 353.902 314.764C349.466 313.589 356.612 303.259 358.021 302.834Z" fill="white"/>
<path d="M330.043 325.426C327.718 327.788 324.763 328.256 324.755 324.266C324.752 322.886 328.948 314.711 330.877 314.717C337.024 314.738 332.271 323.163 330.043 325.426Z" fill="white"/>
<path d="M386.408 275.777C387.822 274.786 390.582 277.778 390.251 280.03C389.923 282.264 385.977 289.628 382.906 288.769C379.241 287.744 385.818 276.19 386.408 275.777Z" fill="white"/>
<path d="M136.263 223.904C137.044 224.415 138.96 234.315 137.923 235.802C133.114 242.699 128.16 218.604 136.263 223.904Z" fill="white"/>
<path d="M184.368 310.748C181.167 315.285 171.505 301.24 176.918 299.779C180.535 298.802 185.548 309.076 184.368 310.748Z" fill="white"/>
<path d="M135.29 201.661C134.887 201.983 132.07 201.979 131.537 201.624C129.692 200.398 131.09 189.317 132.9 188.779C138.612 187.08 136.074 201.033 135.29 201.661Z" fill="white"/>
<path d="M337.371 294.76C335.994 295.712 332.618 293.735 332.615 291.483C332.613 289.604 335.078 281.109 337.875 281.775C341.817 282.713 337.962 294.352 337.371 294.76Z" fill="white"/>
<path d="M179.386 263.773C179.252 263.904 176.693 263.881 176.014 263.649C173.854 262.911 170.336 251.76 174.905 250.777C177.958 250.12 180.321 262.86 179.386 263.773Z" fill="white"/>
<path d="M348.482 268.668C347.663 267.596 349.436 258.672 350.322 257.359C351.537 255.557 354.845 257.74 355.15 259.386C355.75 262.621 351.674 272.848 348.482 268.668Z" fill="white"/>
<path d="M202.903 312.777C206.725 311.704 211.112 323.867 207.875 324.769C203.364 326.026 199.254 313.802 202.903 312.777Z" fill="white"/>
<path d="M269.257 290.631C263.417 294.212 262.602 279.741 267.008 278.83C271.366 277.929 271.011 289.555 269.257 290.631Z" fill="white"/>
<path d="M307.9 261.78C312.633 260.381 313.757 273.942 310.881 274.762C306.303 276.068 305.406 262.517 307.9 261.78Z" fill="white"/>
<path d="M228.336 307.811C229.271 308.434 233.631 319.975 229.876 320.765C225.236 321.741 221.775 303.441 228.336 307.811Z" fill="white"/>
<path d="M150.217 208.975C150.493 209.365 152.474 217.768 152.43 218.269C151.874 224.693 145.237 218.448 145.326 212.235C145.373 208.955 148.564 206.638 150.217 208.975Z" fill="white"/>
<path d="M241.168 284.996C242.443 286.615 244.665 297.67 239.999 296.722C237.397 296.193 235.788 287.694 236.329 285.424C236.669 283.999 240.303 283.898 241.168 284.996Z" fill="white"/>
<path d="M307.925 290.804C314.166 288.93 310.875 304.597 306.905 303.766C304.049 303.168 305.371 291.571 307.925 290.804Z" fill="white"/>
<path d="M365.141 288.506C363.251 290.502 360.472 288.776 360.415 286.294C360.339 283.001 366.359 272.746 368.243 279.496C368.734 281.255 366.339 287.241 365.141 288.506Z" fill="white"/>
<path d="M359.394 225.765C359.498 225.632 362.051 225.65 362.771 225.89C366.838 227.248 362.564 244.574 358.889 236.75C358.35 235.602 359.049 226.202 359.393 225.764L359.394 225.765Z" fill="white"/>
<path d="M334.29 246.884C337.11 250.435 329.742 264.609 327.545 256.067C326.92 253.637 331.219 243.016 334.29 246.884Z" fill="white"/>
<path d="M160.907 265.773C165.244 264.542 169.459 276.998 165.875 277.767C162.802 278.426 156.909 266.907 160.907 265.773Z" fill="white"/>
<path d="M187.395 279.767C187.517 279.649 190.14 279.644 190.785 279.876C191.611 280.173 197.432 290.595 192.773 291.718C189.602 292.483 185.569 281.527 187.395 279.767Z" fill="white"/>
<path d="M258.376 257.775C260.527 259.199 258.519 270.763 255.891 270.752C251.386 270.732 253.206 254.353 258.376 257.775Z" fill="white"/>
<path d="M229.387 253.764C229.885 254.429 231.043 266.747 227.89 266.753C224.288 266.76 223.171 255.487 225.537 253.919C226.039 253.587 229.271 253.609 229.386 253.764H229.387Z" fill="white"/>
<path d="M147.392 263.766C147.206 263.944 143.014 264.195 142.28 263.176C141.037 261.451 138.962 252.4 141.905 251.776C145.268 251.063 148.154 263.036 147.392 263.766Z" fill="white"/>
<path d="M374.37 261.763C367.224 266.516 371.468 241.408 375.876 250.787C376.863 252.888 375.395 261.082 374.37 261.763Z" fill="white"/>
<path d="M211.9 277.78C216.994 276.343 217.705 290.165 214.875 290.766C211.746 291.43 208.543 278.726 211.9 277.78Z" fill="white"/>
<path d="M202.382 263.773C197.93 267.55 195.72 252.485 198.405 250.775C203.56 247.491 203.084 263.177 202.382 263.773Z" fill="white"/>
<path d="M254.405 305.775C258.962 302.741 261.505 316.724 257.881 317.762C252.963 319.171 252.847 306.812 254.405 305.775Z" fill="white"/>
<path d="M384.899 225.779C391.221 223.948 387.767 238.769 384.89 238.752C381.029 238.729 382.791 226.39 384.899 225.779Z" fill="white"/>
<path d="M216.375 226.775C217.447 227.47 218.747 239.088 214.914 239.519C211.326 239.922 211.112 229.962 212.914 227.794C213.777 226.756 215.544 226.237 216.375 226.775Z" fill="white"/>
<path d="M299.401 331.768C298.379 331.092 299.08 318.425 303.881 319.78C308.026 320.95 303.408 334.417 299.401 331.768Z" fill="white"/>
<path d="M282.917 296.776C287.833 295.644 286.887 310.189 281.899 308.762C279.067 307.952 280.206 297.4 282.917 296.776Z" fill="white"/>
<path d="M159.376 232.775C159.981 233.158 162.514 246.044 157.867 245.515C153.809 245.053 154.27 229.54 159.376 232.775Z" fill="white"/>
<path d="M183.405 241.767C182.078 240.926 181.424 228.79 184.89 228.79C188.595 228.79 188.802 245.187 183.405 241.767Z" fill="white"/>
<path d="M344.301 231.664C344.188 231.818 341.968 232.575 341.371 232.316C337.688 230.719 339.738 220.313 341.904 219.776C346.125 218.729 344.779 231.014 344.301 231.664Z" fill="white"/>
<path d="M286.328 261.816C286.98 262.223 290.771 275.917 283.954 273.825C281.935 273.205 281.191 258.613 286.328 261.816Z" fill="white"/>
<path d="M278.386 326.767C278.951 327.307 278.854 339.626 274.905 338.766C272.868 338.322 272.98 330.115 273.532 328.412C274.123 326.586 277.822 326.227 278.386 326.767Z" fill="white"/>
<path d="M153.903 282.777C157.688 281.708 162.915 292.901 158.875 293.767C156.245 294.331 149.732 283.955 153.903 282.777Z" fill="white"/>
<path d="M242.403 329.773C245.804 327.432 250.897 338.64 246.879 339.764C242.559 340.972 240.683 330.957 242.403 329.773Z" fill="white"/>
<path d="M140.52 94.0461C142.812 94.0461 144.669 92.1885 144.669 89.8971C144.669 87.6056 142.812 85.748 140.52 85.748C138.229 85.748 136.371 87.6056 136.371 89.8971C136.371 92.1885 138.229 94.0461 140.52 94.0461Z" fill="black"/>
<path d="M148.811 76.1919C151.115 76.1919 152.984 74.3236 152.984 72.019C152.984 69.7143 151.115 67.8459 148.811 67.8459C146.506 67.8459 144.638 69.7143 144.638 72.019C144.638 74.3236 146.506 76.1919 148.811 76.1919Z" fill="black"/>
<path d="M271.552 175.623C270.457 173.847 271.726 169.482 274.082 168.927C276.781 168.292 291.149 174.614 296.874 174.828C310.837 175.35 307.377 165.973 304.888 156.772C302.255 147.041 294.639 130.841 293.427 122.191C292.847 118.05 294.278 115.425 298.732 116.911C300.438 117.48 301.435 120.897 302.148 122.511C305.587 130.296 315.068 158.707 315.422 166.314C316.126 181.447 301.773 183.002 290.145 181.514C287.76 181.209 272.225 176.715 271.551 175.622L271.552 175.623Z" fill="black"/>
<path d="M251.04 212.889C255.066 211.575 260.134 217.048 263.723 218.939C273.465 224.073 277.859 223.042 287.941 222.728C294.39 222.527 297.201 228.241 291.633 230.513C281.656 234.583 259.613 228.251 252.349 220.313C250.853 218.679 247.252 214.126 251.04 212.89V212.889Z" fill="black"/>
<path d="M101.491 157.679C101.256 157.512 100.474 154.859 100.506 154.263C100.792 148.95 108.437 148.399 108.449 145.285C108.465 140.965 97.1989 138.149 99.8749 132.772C103.007 126.478 114.449 138.67 116.9 141.762C118.653 143.974 125.768 154.375 119.87 154.844C116.94 155.077 114.968 151.154 112.095 151.903C110.184 152.401 105.078 160.229 101.491 157.68V157.679Z" fill="black"/>
<path d="M124.389 719.786C125.756 721.621 103.47 743.762 100.876 746.757C87.185 762.565 60.882 794.856 61.356 816.225C61.479 821.765 65.966 830.263 71.329 832.334C77.872 834.861 71.195 825.482 70.651 822.01C67.47 801.685 87.205 775.45 99.417 760.297C103.231 755.565 130.229 724.647 133.092 723.919C134.729 723.502 143.243 727.144 145.641 728.02C160.529 733.462 175.375 739.426 189.915 745.746C194.486 750.307 203.076 784.976 205.527 786.63C207.596 788.026 211.835 786.712 211.122 783.434C210.009 779.076 198.092 751.152 199.396 749.775C200.291 748.831 213.388 753.984 214.833 755.828C217.93 759.78 221.109 778.78 224.658 780.115C235.594 784.228 221.419 760.889 223.397 758.775C227.706 760.307 262.414 772.174 262.372 774.27C262.335 776.151 231.617 786.998 227.642 788.521C183.868 805.284 139.784 821.288 95.908 837.787C80.895 843.88 57.419 841.2 54.651 822.01C49.588 786.902 93.486 744.065 115.947 720.785C116.732 719.971 117.316 718.045 117.544 717.911C118.419 717.395 124.177 719.501 124.389 719.786ZM172.067 751.88C171.371 752.068 170.162 753.14 169.846 753.791C168.859 755.819 177.907 776.008 178.497 780.165C180.793 786.675 186.311 785.689 184.985 778.73C184.265 774.951 177.926 758.162 175.941 754.722C174.988 753.071 174.589 751.2 172.067 751.88ZM150.532 759.921C149.805 761.065 150.532 764.326 150.846 765.824C151.52 769.034 158.873 789.772 160.345 791.314C162.983 794.077 165.326 793.019 165.485 789.271C165.605 786.444 158.571 767.535 156.872 763.788C156.328 762.588 155.304 759.756 154.39 759.195C153.476 758.634 150.811 759.481 150.532 759.921ZM146.272 798.642C146.913 797.762 146.233 794.954 145.943 793.715C145.314 791.023 136.878 768.756 135.9 767.766C133.331 765.167 129.815 766.732 130.573 771.027C131.087 773.941 138.595 793.455 140.187 796.468C141.421 798.803 144.448 801.147 146.272 798.642Z" fill="black"/>
<path d="M466.395 831.766C465.595 830.975 469.019 824.258 469.304 822.184C471.518 806.027 461.829 790.274 453.208 777.454C439.606 757.228 421.96 739.964 405.854 721.797C404.374 719.098 409.799 716.596 411.928 718.701C427.541 735.784 444.758 752.568 458.207 771.455C467.227 784.122 485.21 811.731 474.821 826.7C473.685 828.337 468.086 833.436 466.397 831.765L466.395 831.766Z" fill="white"/>
<path d="M333.811 709.689L309.078 778.756L315.103 780.914L339.835 711.846L333.811 709.689Z" fill="white"/>
<path d="M351.954 717.36L327.873 785.14L333.845 787.262L357.926 719.481L351.954 717.36Z" fill="white"/>
<path d="M389.291 759.875C389.823 760.631 389.408 763.842 389.152 765.034C388.466 768.238 380.808 789.141 379.266 791.146C376.887 794.239 374.337 792.939 374.329 789.306C374.324 787.017 382.122 763.908 383.6 761.488C384.776 759.561 388.087 758.166 389.291 759.875Z" fill="white"/>
<path d="M408.364 766.798C408.832 767.118 408.882 769.632 408.71 770.537C408.044 774.032 400.522 795.125 398.811 797.689C396.066 801.804 393.052 798.579 393.559 794.54C393.877 792.013 401.147 772.281 402.612 769.494C403.621 767.574 406.53 765.546 408.363 766.798H408.364Z" fill="white"/>
<path d="M366.042 751.902C369.668 750.921 369.542 754.476 369.177 757.021C368.801 759.644 361.522 779.678 360.136 782.015C358.25 785.193 355.472 785.742 354.541 782.067C353.956 779.758 363.218 752.666 366.042 751.902Z" fill="white"/>
<path d="M150.532 759.921C150.812 759.481 153.475 758.634 154.39 759.196C155.305 759.758 156.328 762.589 156.872 763.789C158.571 767.536 165.605 786.445 165.485 789.272C165.326 793.019 162.983 794.078 160.345 791.315C158.873 789.773 151.52 769.035 150.846 765.825C150.532 764.327 149.804 761.065 150.532 759.921Z" fill="white"/>
<path d="M146.272 798.642C144.448 801.147 141.421 798.804 140.187 796.469C138.595 793.456 131.088 773.942 130.573 771.028C129.815 766.732 133.331 765.167 135.9 767.767C136.879 768.757 145.314 791.024 145.943 793.716C146.233 794.955 146.913 797.761 146.272 798.642Z" fill="white"/>
<path d="M172.067 751.88C174.589 751.2 174.988 753.07 175.941 754.722C177.927 758.162 184.265 774.952 184.985 778.73C186.311 785.689 180.793 786.675 178.497 780.165C177.906 776.008 168.859 755.819 169.846 753.791C170.163 753.14 171.371 752.068 172.067 751.88Z" fill="white"/>
<path d="M377.431 318.724C377.888 319.391 389.687 324.26 392.062 325.6C459.449 363.61 510.724 432.669 495.912 513.794C486.894 563.189 454.31 601.21 414.369 629.265C411.004 633.985 413.309 636.392 418.754 633.632C435.653 625.066 462.784 595.637 474.205 580.088C483.173 567.878 480.05 561.772 498.039 566.624C530.467 575.372 548.573 611.174 534.248 642.13C517.061 679.271 453.349 696.717 419.393 714.287C439.591 739.882 469.6 765.009 481.414 796.249C488.698 815.51 487.857 838.204 462.785 840.665C448.523 842.064 407.709 824.326 392.143 818.521C344.418 800.721 297.967 780.533 250.657 762.007C201.16 742.625 150.597 725.366 101.416 705.248C71.7409 693.109 20.1359 671.916 5.5709 642.093C-8.3721 613.544 6.2129 579.656 35.0349 567.917C38.9989 566.303 47.8699 563.352 51.9029 563.686C56.4509 564.062 60.7509 574.12 63.5749 578.089C75.6139 595.003 103.97 626.543 122.671 634.993C125.718 636.37 127.525 635.916 126.982 632.236C126.75 630.665 105.707 615.266 102.376 612.288C-0.328094 520.455 33.7739 387.411 148.073 325.956C150.804 324.488 165.797 318.57 166.388 317.76C167.081 316.808 165.86 315.917 165.406 315.258C163.417 312.368 156.108 307.351 152.875 303.789C128.091 276.476 121.794 239.843 118.398 204.266C118.058 200.707 118.166 183.412 116.957 181.707C115.934 180.263 108.403 180.146 106.158 179.506C69.8939 169.172 69.5469 114.179 100.974 109.863C104.265 109.411 115.636 111.086 116.27 110.657C117.243 109.997 119.696 91.313 120.673 87.56C141.152 8.89204 241.16 -8.25196 310.41 4.25404C356.704 12.614 394.652 36.2641 408.886 82.7781C410.983 89.6311 412.576 102.775 415.524 108.147C417.542 111.823 425.708 109.176 430.651 110.013C438.408 111.326 445.061 118.873 447.87 125.795C456.223 146.382 447.311 169.08 426.386 177.275C424.108 178.167 418.382 177.872 417.525 180.414C416.311 184.014 418.31 191.802 416.346 196.235C416.404 237.793 412.89 275.57 385.363 308.252C383.648 310.288 375.813 316.375 377.429 318.73L377.431 318.724ZM315.343 105.728C315.597 105.513 316.515 101.365 317.585 99.4621C331.534 74.6531 360.956 65.545 387.064 76.598C389.953 77.821 398.201 83.7311 398.892 83.7521C401.142 83.8201 399.105 78.516 398.859 77.801C375.837 10.904 284.907 1.46703 225.182 12.063C176.634 20.676 134.132 47.827 125.641 99.522C125.414 100.904 124.393 108.719 124.504 109.193C124.769 110.317 125.878 110.593 126.894 110.77C137.671 112.648 151.712 108.858 162.702 108.583C168.037 102.812 170.802 94.287 176.398 88.279C200.045 62.897 243.115 68.2801 261.19 97.4711C262.388 99.4051 264.8 106.343 266.006 106.719C267.667 107.238 275.344 102.124 278.39 101.271C285.492 99.281 294.581 99.1581 301.78 100.881C304.659 101.57 314.054 106.818 315.342 105.728H315.343ZM219.023 88.107C216.123 88.297 212.386 90.412 215.379 93.284C216.885 94.729 224.63 95.6451 227.76 96.9021C235.358 99.9541 241.712 106.651 244.112 114.55C245.277 118.385 244.411 135.552 250.449 131.337C253.795 129.001 251.937 116.504 250.891 112.771C247.495 100.648 231.943 87.261 219.023 88.107ZM364.495 93.672C364.898 94.162 374.31 95.87 376.757 96.904C385.654 100.66 391.812 109.957 393.286 119.375C393.791 122.604 392.149 128.643 395.372 130.309C401.276 133.36 400.46 121.6 400.107 118.547C398.719 106.512 390.985 95.631 379.902 90.758C376.988 89.477 366.443 85.779 364.534 88.917C364.161 89.53 364.158 93.265 364.494 93.673L364.495 93.672ZM404.385 156.776C403.733 156.008 394.584 164.052 393.084 164.965C365.687 181.656 325.808 168.93 315.629 138.031C313.857 132.653 314.131 128.487 312.963 123.697C310.894 115.212 296.574 111.181 288.898 111.78C283.191 112.225 271.246 117.12 268.333 122.215C266.738 125.004 266.43 132.366 265.334 136.216C252.154 182.511 183.721 185.149 166.198 142.463C163.549 136.01 162.932 128.933 161.418 122.198C157.17 123.746 145.248 120.603 144.387 125.269C145.026 152.123 145.499 197.653 175.13 209.531C207.895 222.664 220.735 190.922 249.164 185.046C266.865 181.387 278.832 187.753 294.879 186.761C312.806 185.653 320.803 183.357 338.059 192.603C347.166 197.483 356.253 207.664 366.88 208.776C388.665 211.055 399.55 189.016 403.098 170.98C403.584 168.508 405.431 158.009 404.385 156.777V156.776ZM103.151 117.034C85.3179 119.409 82.3869 142.889 88.9879 156.673C94.5409 168.27 116.458 180.905 125.23 167.11C135.779 150.521 128.626 113.642 103.151 117.034ZM417.484 150.861C415.361 152.311 416.862 166.168 417.414 169.246C418.31 174.251 429.102 167.947 431.891 165.77C445.119 155.449 448.057 130.351 433.884 119.777C430.53 117.274 420.751 114.554 418.312 118.434C416.075 121.993 416.989 135.886 415.401 140.77C419.875 138.447 425.222 127.873 430.711 130.863C438.145 134.912 425.375 139.169 425.351 143.271C425.336 145.775 436.874 151.153 430.383 154.267C425.097 156.803 421.048 148.426 417.484 150.859V150.861ZM135.29 201.661C136.074 201.033 138.612 187.08 132.899 188.779C131.09 189.317 129.692 200.398 131.536 201.624C132.07 201.979 134.886 201.983 135.289 201.661H135.29ZM251.128 206.013C238.956 208.016 237.945 220.438 244.394 229.267C259.388 249.794 295.927 249.629 314.867 234.748C317.851 232.403 323.396 226.723 324.158 223.047C328.657 201.335 300.125 212.269 288.866 211.818C277.772 211.374 261.611 204.289 251.129 206.013H251.128ZM405.152 208.017C400.17 202.562 398.441 219.281 401.898 220.763C404.04 221.682 403.91 220.785 404.621 219.491C406.157 216.698 407.475 210.56 405.152 208.016V208.017ZM150.217 208.975C148.564 206.638 145.373 208.955 145.326 212.235C145.238 218.447 151.874 224.693 152.43 218.269C152.473 217.768 150.493 209.365 150.217 208.975ZM344.301 231.664C344.78 231.014 346.125 218.729 341.904 219.776C339.738 220.313 337.687 230.719 341.371 232.316C341.968 232.575 344.188 231.818 344.301 231.664ZM136.263 223.904C128.16 218.603 133.114 242.699 137.923 235.802C138.96 234.315 137.044 224.416 136.263 223.904ZM359.394 225.765C359.05 226.203 358.35 235.602 358.89 236.751C362.565 244.575 366.838 227.249 362.772 225.891C362.052 225.65 359.499 225.633 359.395 225.766L359.394 225.765ZM384.899 225.779C382.791 226.39 381.029 238.728 384.89 238.752C387.766 238.769 391.221 223.948 384.899 225.779ZM216.375 226.775C215.544 226.236 213.776 226.755 212.914 227.794C211.112 229.963 211.326 239.923 214.914 239.519C218.747 239.088 217.447 227.471 216.375 226.775ZM183.405 241.767C188.803 245.187 188.595 228.79 184.89 228.79C181.424 228.79 182.078 240.926 183.405 241.767ZM159.376 232.775C154.269 229.54 153.808 245.053 157.867 245.515C162.514 246.044 159.981 233.158 159.376 232.775ZM396.401 243.769C395.931 244.175 393.218 254.32 393.856 255.735C396.997 262.702 401.695 249.212 401.164 246.393C400.843 244.686 397.422 242.888 396.401 243.769ZM334.29 246.884C331.219 243.017 326.92 253.638 327.545 256.067C329.742 264.608 337.11 250.435 334.29 246.884ZM374.37 261.763C375.395 261.081 376.863 252.888 375.876 250.787C371.468 241.408 367.224 266.516 374.37 261.763ZM179.386 263.773C180.321 262.861 177.958 250.12 174.905 250.776C170.336 251.759 173.854 262.91 176.014 263.648C176.693 263.88 179.252 263.903 179.386 263.772V263.773ZM202.382 263.773C203.084 263.177 203.561 247.49 198.405 250.775C195.72 252.485 197.929 267.551 202.382 263.773ZM147.392 263.766C148.155 263.036 145.269 251.063 141.905 251.776C138.962 252.4 141.037 261.45 142.28 263.176C143.014 264.195 147.206 263.944 147.392 263.766ZM229.387 253.764C229.272 253.61 226.039 253.587 225.538 253.919C223.172 255.486 224.289 266.759 227.891 266.753C231.044 266.747 229.885 254.429 229.388 253.764H229.387ZM348.482 268.668C351.674 272.847 355.75 262.621 355.15 259.386C354.845 257.74 351.537 255.557 350.322 257.359C349.436 258.672 347.663 267.596 348.482 268.668ZM258.376 257.775C253.206 254.353 251.386 270.732 255.891 270.752C258.519 270.764 260.527 259.199 258.376 257.775ZM286.328 261.816C281.191 258.612 281.935 273.205 283.954 273.825C290.771 275.918 286.98 262.223 286.328 261.816ZM307.9 261.78C305.406 262.517 306.303 276.068 310.881 274.762C313.757 273.942 312.632 260.381 307.9 261.78ZM160.907 265.773C156.909 266.908 162.801 278.426 165.875 277.767C169.459 276.998 165.244 264.542 160.907 265.773ZM386.408 275.777C385.818 276.19 379.241 287.744 382.906 288.769C385.977 289.628 389.923 282.264 390.251 280.03C390.582 277.778 387.822 274.786 386.408 275.777ZM365.141 288.506C366.339 287.241 368.734 281.256 368.243 279.496C366.359 272.746 360.339 283 360.415 286.294C360.473 288.776 363.251 290.502 365.141 288.506ZM211.9 277.78C208.544 278.727 211.746 291.43 214.875 290.766C217.705 290.165 216.994 276.343 211.9 277.78ZM269.257 290.631C271.012 289.555 271.366 277.929 267.008 278.83C262.602 279.741 263.417 294.212 269.257 290.631ZM187.395 279.767C185.569 281.527 189.602 292.483 192.773 291.718C197.432 290.594 191.612 280.172 190.785 279.876C190.14 279.644 187.517 279.649 187.395 279.767ZM337.371 294.76C337.962 294.351 341.817 282.713 337.875 281.775C335.078 281.109 332.613 289.604 332.615 291.483C332.618 293.735 335.994 295.712 337.371 294.76ZM153.903 282.777C149.732 283.955 156.244 294.331 158.875 293.767C162.915 292.901 157.689 281.708 153.903 282.777ZM241.168 284.996C240.304 283.898 236.669 283.999 236.329 285.425C235.788 287.694 237.397 296.194 239.999 296.723C244.665 297.671 242.443 286.616 241.168 284.997V284.996ZM307.925 290.804C305.371 291.571 304.049 303.168 306.905 303.766C310.875 304.597 314.165 288.93 307.925 290.804ZM282.917 296.776C280.206 297.4 279.067 307.952 281.899 308.762C286.887 310.189 287.833 295.644 282.917 296.776ZM184.368 310.748C185.548 309.075 180.536 298.802 176.918 299.779C171.505 301.24 181.167 315.285 184.368 310.748ZM358.021 302.834C356.612 303.259 349.467 313.59 353.903 314.764C356.067 315.337 361.571 308.376 362.011 306.796C362.679 304.393 360.103 302.206 358.021 302.834ZM254.405 305.775C252.847 306.812 252.963 319.171 257.881 317.762C261.505 316.724 258.962 302.741 254.405 305.775ZM228.336 307.811C221.775 303.442 225.236 321.742 229.876 320.765C233.631 319.975 229.272 308.433 228.336 307.811ZM202.903 312.777C199.254 313.801 203.364 326.026 207.875 324.769C211.112 323.867 206.725 311.705 202.903 312.777ZM330.043 325.426C332.271 323.163 337.023 314.738 330.877 314.717C328.948 314.711 324.753 322.886 324.755 324.266C324.763 328.256 327.718 327.787 330.043 325.426ZM299.401 331.768C303.409 334.417 308.026 320.949 303.881 319.78C299.08 318.425 298.379 331.093 299.401 331.768ZM278.386 326.767C277.822 326.227 274.123 326.585 273.532 328.411C272.981 330.114 272.869 338.321 274.905 338.765C278.854 339.625 278.951 327.307 278.386 326.766V326.767ZM242.403 329.773C240.683 330.957 242.559 340.973 246.879 339.764C250.898 338.64 245.804 327.431 242.403 329.773ZM332.385 340.776C331.937 340.361 322.699 344.192 320.831 344.712C295.199 351.851 270.561 353.567 244.139 349.522C231.317 347.56 219.046 342.388 206.39 339.781C232.594 368.288 289.434 370.713 321.304 351.185C322.515 350.443 334.402 342.645 332.385 340.776ZM251.108 407.979C244.696 409.405 244.66 417.574 250.87 417.657C258.902 417.764 261.034 405.772 251.108 407.979ZM251.395 446.766C252.252 447.517 268.392 444.17 268.371 442.271C268.358 441.131 264.092 440.755 262.918 438.744C261.001 435.463 259.669 418.435 256.832 417.792C255.652 417.525 247.861 423.188 247.4 424.285C246.294 426.916 250.493 424.846 251.514 426.349C252.753 428.173 254.889 439.76 254.196 442.069C253.867 443.164 250.303 445.809 251.396 446.766H251.395ZM262.395 450.776C262.877 450.186 265.449 451.195 265.289 453.122C265.177 454.472 262.126 458.168 260.674 458.596C249.994 461.746 248.918 437.233 246.703 430.957C243.971 423.213 236.938 420.324 229.673 424.547C224.295 427.674 227.432 433.092 231.434 430.314C232.538 429.548 233.46 422.021 237.283 427.376C241.44 433.199 235.97 431.185 233.118 432.005C220.957 435.503 226.787 453.869 237.687 450.564C239.049 450.151 241.899 446.273 242.378 446.772C242.77 447.181 244.04 454.137 246.396 457.264C256.344 470.47 273.335 456.846 266.451 449.209C260.193 442.266 249.734 454.705 258.093 456.629C264.117 458.016 261.918 451.359 262.395 450.776ZM352.26 570.914C352.752 574.579 353.452 575.64 357.126 574.013C360.858 572.36 376 559.33 379.917 555.798C410.608 528.122 428.374 494.263 415.41 452.252C414.432 449.084 411.06 438.634 408.413 437.245C405.881 435.917 404.191 437.316 404.386 440.185C404.612 443.501 410.116 454.416 411.284 459.377C421.999 504.913 393.37 538.014 360.373 564.254C303.004 564.697 245.297 565.469 187.844 564.718C185.785 564.691 183.557 565.623 182.018 565.476C179.49 565.234 166.197 553.851 163.376 551.285C134.232 524.783 120.307 498.006 128.665 457.544C129.599 453.022 135.414 441.37 135.399 439.219C135.379 436.168 131.507 435.795 129.499 438.381C126.104 442.754 120.923 461.449 120.405 467.284C116.794 507.977 134.488 535.177 164.375 560.285C167.455 562.873 177.885 571.866 180.647 573.011C188.205 576.143 185.892 570.908 186.938 570.703L352.26 570.914ZM305.384 448.766C305.276 448.664 302.586 448.672 302.42 448.781C301.224 449.564 303.267 455.385 299.921 457.843C299.407 458.221 293.315 459.942 296.382 461.769C296.955 462.11 299.329 461.292 300.248 461.894C302.506 463.374 302.145 487.721 312.954 480.828C315.691 479.082 316.365 470.072 315.385 468.777C312.871 465.455 313.602 473.57 313.386 473.778C313.279 473.881 310.526 473.865 310.41 473.771C309.855 473.32 306.963 460.372 307.388 459.798C307.549 459.58 313.868 458.703 311.397 456.777C311.017 456.481 308.299 457.409 306.871 455.793C305.451 454.186 305.645 449.014 305.384 448.767V448.766ZM282.396 463.766C281.747 463.091 281.34 450.318 278.864 449.771C278.341 449.655 269.753 454.388 269.398 454.789C267.334 457.125 272.676 456.735 273.416 457.231C274.377 457.874 278.828 476.864 279.149 479.535C279.34 481.125 279.696 482.421 279.211 484.059C278.851 485.275 275.26 487.771 276.396 488.765C277.303 489.56 290.383 486.589 290.372 485.27C290.37 484.987 287.366 482.642 286.651 481.011C285.241 477.794 282.786 467.32 286.906 465.78C288.57 465.158 289.519 468.684 289.872 469.782C290.515 471.783 292.056 477.711 292.202 479.558C292.341 481.304 291.097 485.462 291.397 485.765C292.065 486.44 302.48 483.215 304.39 482.758C303.876 480.35 300.24 480.674 299.381 479.036C297.431 475.321 297.39 464.15 293.971 461.698C288.911 458.07 283.338 464.744 282.398 463.765L282.396 463.766ZM235.386 459.776C234.973 459.399 224.745 461.35 224.394 461.785C222.378 464.288 228.408 463.649 229.404 465.502C231.358 469.135 232.289 479.279 233.381 483.771C227.241 479.494 218.92 464.407 211.035 464.825C208.075 464.982 201.725 467.295 199.911 469.791C196.367 474.668 198.664 482.152 205.142 479.033C209.995 476.697 204.872 470.323 206.395 468.776C206.89 468.273 208.964 468.71 209.862 469.799C211.212 471.438 215.372 491.39 215.42 494.319C215.525 500.72 209.401 508.201 203.853 502.803C197.94 497.05 208.73 498.52 210.489 496.364C213.983 492.084 208.364 485.67 201.875 490.761C194.234 496.756 199.307 509.231 209.415 507.366C223.198 504.823 215.812 484.175 214.4 474.771C221.19 480.109 228.969 492.36 235.842 496.819C236.735 497.398 238.74 498.392 239.385 497.766C240.545 496.64 232.515 470.423 232.333 466.221C231.413 464.19 236.611 460.895 235.385 459.777L235.386 459.776ZM248.255 461.904C246.822 459.636 239.716 461.037 238.588 464.476C235.423 474.124 252.52 468.655 248.255 461.904ZM270.381 465.776C268.847 464.642 266.947 468.502 265.755 468.681C264.104 468.93 261.758 464.266 256.862 468.747C252.501 472.738 252.933 480.628 254.899 485.761C255.288 486.777 258.65 491.532 258.389 491.762C257.317 492.705 253.786 489.879 253.133 488.528C251.82 485.811 250.039 471.397 249.349 470.81C247.327 469.09 238.46 475.6 238.409 476.271C238.275 478.02 242.214 477.093 242.45 477.254C243.442 477.931 246.199 489.983 246 491.32C245.858 492.274 241.844 495.24 243.395 496.767C243.832 497.197 253.809 494.682 255.409 494.299C256.758 493.976 257.857 492.238 259.03 492.046C262.577 491.465 264.994 494.397 268.38 488.773C268.698 491.153 270.271 502.877 269.385 503.768C269.007 504.149 266.519 503.872 265.833 502.783C264.954 501.388 268.723 495.521 262.73 495.002C256.827 494.49 256.194 504.837 263.843 505.83C269.814 506.605 274.88 504.239 276.16 498.047C276.837 494.772 271.704 466.757 270.38 465.778L270.381 465.776ZM370.385 511.762C371.692 509.944 366.533 508.294 365.625 506.036C363.88 501.694 360.742 476.638 357.797 475.8C356.383 475.397 348.55 480.753 348.384 481.282C347.484 484.152 352.572 482.066 353.35 482.816C353.156 489.218 360.229 505.712 357.88 510.757C357.339 511.918 353.155 514.613 357.794 514.706C358.609 514.722 370.007 512.287 370.385 511.762ZM295.396 504.766C294.896 504.238 294.266 492.582 292.451 491.189C290.503 489.693 283.08 494.932 282.397 496.283C281.12 498.811 285.969 496.595 287.207 499.456C288.242 501.85 292.461 520.877 292.446 523.328C292.422 527.29 289.766 526.31 289.404 526.798C285.902 531.522 303.473 527.511 303.372 525.271C303.342 524.597 300.934 524.014 300.337 523.081C299.041 521.056 295.721 507.677 298.9 506.78C303.128 505.586 304.854 518.508 305.034 521.438C305.104 522.589 304.029 525.404 304.395 525.767C305.392 526.756 316.324 524.541 317.386 522.268C317.66 521.68 314.82 521.277 313.998 520.668C308.928 516.915 312.13 499.009 302.125 500.926C300.124 501.31 296.338 505.762 295.396 504.767V504.766ZM343.144 491.957C329.421 493.126 332.725 517.652 344.719 517.448C360.725 517.176 355.273 490.924 343.144 491.957ZM320.113 496.965C309.67 499.264 311.513 520.192 321.963 521.732C339.735 524.352 335.437 493.592 320.113 496.965ZM239.377 527.773C240.016 528.259 239.248 532.869 243.885 532.87C248.706 532.87 250.239 527.052 246.337 524.328C236.463 517.435 226.751 534.917 238.885 542.776C248.688 549.125 265.034 540.809 263.946 528.722C262.583 513.574 242.949 514.549 240.783 507.804C239.48 503.746 245.178 500.096 246.853 503.807C247.862 506.042 246.986 510.68 250.862 510.74C259.138 510.87 255.685 497.572 243.994 498.839C235.411 499.769 228.474 508.903 235.368 516.291C239.34 520.548 250.95 520.838 252.235 527.511C253.542 534.3 243.248 539.065 238.102 534.818C234.621 531.946 237.213 526.127 239.377 527.773ZM286.471 517.84C286.333 517.955 286.279 520.136 285.429 521.275C278.092 531.102 269.196 518.974 273.973 511.848C274.83 510.569 276.521 508.462 277.899 510.771C278.653 512.034 276.207 513.433 276.534 515.126C278.113 523.308 289.397 511.504 279.452 508.216C260.577 501.976 259.763 540.083 281.68 531.556C286.001 529.875 292.043 520.332 289.384 517.77C289.279 517.669 286.688 517.658 286.47 517.839L286.471 517.84ZM191.247 690.626C196.787 687.175 184.045 665.402 181.419 661.243C179.767 658.628 165.252 642.689 174.893 642.739C178.961 642.76 190.68 661.573 192.913 665.749C196.442 672.347 201.624 690.169 208.339 692.334C211.862 693.47 215.798 692.062 216.406 688.216C217.659 680.281 205.547 658.829 200.801 651.861C198.451 648.41 191.29 641.139 190.135 638.494C188.742 635.302 190.289 632.411 193.663 632.901C200.168 633.844 215.625 661.531 218.566 668.097C220.012 671.326 223.557 683.471 224.863 684.798C227.24 687.213 232.576 686.119 234.168 683.053C238.925 673.888 226.666 652.514 221.203 644.461C216.805 637.977 210.367 632.314 206.341 626.31C204.064 622.914 207.261 619.958 210.677 620.914C215.597 622.292 230.7 644.707 233.56 650.103C236.563 655.769 238.689 664.291 241.6 669.06C244.494 673.8 249.201 667.124 249.457 663.254C250.497 647.489 230.828 622.447 220.387 611.276C218.277 609.018 212.976 607.184 213.342 603.327C213.484 601.832 215.035 599.758 216.72 599.917C223.841 600.587 240.215 625.284 242.022 625.641C244.854 626.2 248.591 621.292 248.388 618.339C247.716 608.531 221.615 595.91 213.359 592.305C208.342 590.114 184.61 580.588 180.931 580.713C172.471 581 157.713 591.71 151.879 597.76C146.18 603.671 133.274 623.178 134.366 631.224C134.719 633.824 159.159 654.282 163.363 659.301C168.206 665.084 180.718 689.272 185.09 690.565C186.311 690.926 190.383 691.166 191.248 690.627L191.247 690.626ZM323.633 692.535C325.022 693.98 328.087 693.389 329.835 692.752C336.707 690.249 343.268 669.711 347.584 662.465C349.708 658.9 359.546 644.278 362.935 643.75C366.241 643.236 368.201 644.678 367.221 648.063C366.571 650.308 355.67 663.691 353.218 668.098C350.898 672.268 339.931 693.649 351.422 691.393C357.999 690.101 366.133 671.691 370.575 665.454C373.287 661.646 377.653 656.011 380.85 652.729C384.31 649.178 404.633 633.354 405.243 631.047C406.765 625.286 396.303 608.099 392.362 603.299C385.432 594.858 367.632 579.959 356.178 580.977C350.285 581.501 330.041 589.761 323.716 592.596C314.85 596.569 293.652 607.33 291.025 617C289.946 620.97 293.103 625.928 297.689 624.644C299.32 624.187 306.76 613.072 308.875 610.756C311.006 608.423 325.761 593.362 326.464 602.291C326.768 606.149 319.407 610.312 316.991 612.872C306.671 623.807 288.988 647.738 289.75 663.121C289.897 666.085 291.586 670.278 294.9 670.803C296.924 671.124 296.29 669.998 296.901 668.826C299.556 663.734 301.253 657.292 304.012 651.893C307.387 645.29 321.811 623.232 328.362 621.165C330.33 620.544 332.835 621.295 333.242 623.413C333.562 625.081 320.403 639.783 318.168 643.049C312.302 651.621 300.518 672.903 303.582 683.08C304.655 686.642 311.248 687.733 313.459 685.09C315.305 682.884 319.043 670.035 321.012 665.894C323.916 659.788 338.418 635.667 344.094 633.953C347.952 632.788 350.756 634.779 348.887 638.762C339.929 648.459 331.149 660.765 326.208 673.09C324.439 677.503 319.997 688.753 323.631 692.534L323.633 692.535ZM283.39 658.768C282.292 657.642 259.42 665.986 259.409 667.271C259.406 667.576 262.288 670.362 263.109 670.604C265.334 671.261 282.671 664.532 283.223 663.608C283.605 662.97 283.56 658.941 283.391 658.767L283.39 658.768ZM333.81 709.686L309.078 778.754L315.102 780.911L339.834 711.843L333.81 709.686ZM351.953 717.355L327.872 785.135L333.844 787.257L357.925 719.477L351.953 717.355ZM466.395 831.766C468.085 833.437 473.683 828.338 474.819 826.701C485.208 811.732 467.225 784.123 458.205 771.456C444.756 752.569 427.539 735.786 411.926 718.702C409.797 716.597 404.372 719.099 405.852 721.798C421.958 739.964 439.604 757.229 453.206 777.455C461.828 790.275 471.516 806.028 469.302 822.185C469.018 824.259 465.594 830.977 466.393 831.767L466.395 831.766ZM366.042 751.902C363.218 752.666 353.955 779.757 354.541 782.066C355.473 785.742 358.251 785.193 360.136 782.014C361.522 779.677 368.801 759.643 369.177 757.02C369.542 754.475 369.668 750.921 366.042 751.902ZM389.291 759.875C388.087 758.166 384.775 759.561 383.599 761.488C382.122 763.909 374.323 787.017 374.328 789.306C374.336 792.939 376.887 794.239 379.265 791.146C380.807 789.141 388.465 768.238 389.151 765.034C389.406 763.842 389.822 760.631 389.29 759.875H389.291ZM408.364 766.798C406.531 765.545 403.622 767.574 402.613 769.494C401.148 772.281 393.877 792.013 393.56 794.54C393.052 798.578 396.066 801.804 398.812 797.689C400.522 795.125 408.045 774.032 408.711 770.537C408.883 769.633 408.833 767.118 408.364 766.798Z" fill="black"/>
<path d="M352.26 570.914L186.938 570.704C185.892 570.909 188.205 576.144 180.647 573.012C177.885 571.868 167.456 562.874 164.375 560.286C134.487 535.179 116.794 507.979 120.405 467.285C120.923 461.45 126.104 442.755 129.499 438.382C131.507 435.796 135.378 436.169 135.399 439.22C135.413 441.371 129.599 453.023 128.665 457.545C120.307 498.007 134.232 524.784 163.376 551.286C166.197 553.851 179.491 565.235 182.018 565.477C183.557 565.624 185.785 564.692 187.844 564.719C245.297 565.469 303.004 564.698 360.373 564.255C393.37 538.015 421.999 504.914 411.284 459.378C410.117 454.417 404.612 443.502 404.386 440.186C404.191 437.316 405.88 435.917 408.413 437.246C411.06 438.635 414.432 449.084 415.41 452.253C428.374 494.264 410.608 528.124 379.917 555.799C376 559.331 360.858 572.361 357.126 574.014C353.452 575.641 352.752 574.579 352.26 570.914Z" fill="white"/>
<path d="M239.377 527.773C237.213 526.127 234.621 531.946 238.102 534.818C243.249 539.065 253.542 534.299 252.235 527.511C250.951 520.838 239.341 520.548 235.368 516.291C228.474 508.903 235.411 499.769 243.994 498.839C255.685 497.572 259.139 510.87 250.862 510.74C246.986 510.679 247.862 506.042 246.853 503.807C245.178 500.096 239.48 503.746 240.783 507.804C242.948 514.549 262.583 513.574 263.946 528.722C265.034 540.81 248.687 549.125 238.885 542.776C226.751 534.917 236.463 517.435 246.337 524.328C250.239 527.052 248.706 532.871 243.885 532.87C239.247 532.87 240.016 528.259 239.377 527.773Z" fill="white"/>
<path d="M235.386 459.776C236.612 460.894 231.414 464.189 232.334 466.22C232.516 470.422 240.546 496.639 239.386 497.765C238.741 498.391 236.735 497.397 235.843 496.818C228.97 492.36 221.191 480.108 214.401 474.77C215.813 484.174 223.199 504.822 209.416 507.365C199.308 509.23 194.235 496.756 201.876 490.76C208.365 485.669 213.983 492.083 210.49 496.363C208.73 498.519 197.94 497.048 203.854 502.802C209.402 508.2 215.526 500.719 215.421 494.318C215.373 491.389 211.214 471.437 209.863 469.798C208.965 468.708 206.892 468.271 206.396 468.775C204.873 470.322 209.995 476.696 205.143 479.032C198.665 482.151 196.368 474.667 199.912 469.79C201.726 467.294 208.076 464.981 211.036 464.824C218.921 464.406 227.242 479.493 233.382 483.77C232.29 479.278 231.36 469.134 229.405 465.501C228.409 463.649 222.379 464.287 224.395 461.784C224.745 461.349 234.974 459.399 235.387 459.775L235.386 459.776Z" fill="white"/>
<path d="M262.395 450.776C261.919 451.359 264.118 458.016 258.094 456.629C249.735 454.705 260.194 442.266 266.452 449.209C273.336 456.847 256.345 470.47 246.397 457.264C244.042 454.137 242.772 447.181 242.379 446.772C241.9 446.273 239.05 450.151 237.688 450.564C226.788 453.869 220.958 435.504 233.119 432.005C235.971 431.185 241.441 433.199 237.284 427.376C233.461 422.02 232.538 429.547 231.435 430.314C227.433 433.093 224.296 427.674 229.674 424.547C236.939 420.323 243.972 423.213 246.704 430.957C248.919 437.233 249.994 461.745 260.675 458.596C262.126 458.168 265.178 454.472 265.29 453.122C265.45 451.195 262.878 450.186 262.396 450.776H262.395ZM235.626 441.523C239.46 445.942 241.048 435.64 237.881 434.779C233.903 433.697 233.549 439.128 235.626 441.523Z" fill="white"/>
<path d="M270.381 465.776C271.705 466.755 276.838 494.77 276.161 498.045C274.881 504.237 269.815 506.603 263.844 505.828C256.196 504.835 256.829 494.489 262.731 495C268.724 495.52 264.954 501.386 265.834 502.781C266.52 503.87 269.008 504.147 269.386 503.766C270.272 502.874 268.699 491.151 268.381 488.771C264.995 494.396 262.578 491.463 259.031 492.044C257.858 492.236 256.759 493.975 255.41 494.297C253.81 494.68 243.833 497.195 243.396 496.765C241.845 495.238 245.86 492.272 246.001 491.318C246.2 489.981 243.443 477.93 242.451 477.252C242.214 477.09 238.275 478.017 238.41 476.269C238.461 475.598 247.328 469.087 249.35 470.808C250.04 471.395 251.821 485.809 253.134 488.526C253.787 489.877 257.317 492.703 258.39 491.76C258.651 491.531 255.289 486.775 254.9 485.759C252.934 480.626 252.501 472.736 256.863 468.745C261.758 464.265 264.104 468.928 265.756 468.679C266.947 468.499 268.848 464.639 270.382 465.774L270.381 465.776ZM265.378 484.768C267.397 483.169 263.856 469.851 261.891 469.791C258.554 469.689 261.979 481.649 263.139 483.493C263.644 484.296 263.741 486.065 265.378 484.768Z" fill="white"/>
<path d="M295.396 504.766C296.338 505.761 300.124 501.308 302.125 500.925C312.13 499.007 308.928 516.914 313.998 520.667C314.82 521.275 317.66 521.679 317.386 522.267C316.324 524.54 305.392 526.755 304.395 525.766C304.029 525.403 305.104 522.588 305.034 521.437C304.855 518.507 303.129 505.586 298.9 506.779C295.721 507.677 299.041 521.055 300.337 523.08C300.934 524.013 303.342 524.596 303.372 525.27C303.473 527.51 285.902 531.521 289.404 526.797C289.766 526.309 292.423 527.289 292.446 523.327C292.461 520.877 288.242 501.849 287.207 499.455C285.97 496.594 281.12 498.811 282.397 496.282C283.079 494.931 290.502 489.692 292.451 491.188C294.266 492.581 294.896 504.238 295.396 504.766Z" fill="white"/>
<path d="M282.396 463.766C283.337 464.745 288.91 458.071 293.969 461.699C297.388 464.151 297.428 475.322 299.379 479.037C300.239 480.674 303.874 480.351 304.388 482.759C302.478 483.216 292.064 486.441 291.395 485.766C291.095 485.463 292.339 481.304 292.2 479.559C292.053 477.712 290.512 471.784 289.87 469.783C289.518 468.686 288.568 465.159 286.904 465.781C282.784 467.322 285.239 477.795 286.649 481.012C287.364 482.643 290.368 484.988 290.37 485.271C290.382 486.589 277.302 489.561 276.394 488.766C275.259 487.771 278.849 485.276 279.209 484.06C279.694 482.422 279.338 481.126 279.147 479.536C278.826 476.866 274.375 457.876 273.414 457.232C272.674 456.736 267.332 457.126 269.396 454.79C269.751 454.389 278.339 449.656 278.862 449.772C281.338 450.319 281.745 463.092 282.394 463.767L282.396 463.766Z" fill="white"/>
<path d="M343.144 491.957C355.273 490.924 360.725 517.177 344.719 517.448C332.726 517.651 329.422 493.125 343.144 491.957ZM346.385 509.766C348.212 507.613 343.976 492.735 341.395 495.776C339.568 497.929 343.804 512.807 346.385 509.766Z" fill="white"/>
<path d="M320.113 496.965C335.436 493.592 339.735 524.352 321.963 521.732C311.513 520.192 309.671 499.264 320.113 496.965ZM325.385 514.766C327.075 512.768 322.933 496.735 320.395 499.776C318.521 502.021 322.638 518.014 325.385 514.766Z" fill="white"/>
<path d="M286.471 517.84C286.689 517.659 289.28 517.669 289.385 517.771C292.043 520.333 286.002 529.876 281.681 531.557C259.764 540.083 260.578 501.977 279.453 508.217C289.397 511.505 278.114 523.309 276.535 515.127C276.208 513.434 278.654 512.035 277.9 510.772C276.522 508.463 274.831 510.57 273.974 511.849C269.197 518.975 278.093 531.103 285.43 521.276C286.28 520.138 286.334 517.956 286.472 517.841L286.471 517.84Z" fill="white"/>
<path d="M370.385 511.762C370.008 512.287 358.608 514.722 357.793 514.706C353.154 514.613 357.338 511.918 357.879 510.757C360.228 505.713 353.155 489.218 353.349 482.816C352.571 482.066 347.483 484.152 348.383 481.282C348.549 480.753 356.383 475.397 357.796 475.8C360.742 476.639 363.879 501.695 365.624 506.036C366.532 508.294 371.69 509.944 370.384 511.762H370.385Z" fill="white"/>
<path d="M305.384 448.766C305.645 449.012 305.452 454.184 306.871 455.792C308.299 457.409 311.017 456.48 311.397 456.776C313.867 458.701 307.549 459.578 307.388 459.797C306.963 460.372 309.855 473.32 310.41 473.77C310.526 473.864 313.279 473.88 313.386 473.777C313.602 473.569 312.871 465.454 315.385 468.776C316.365 470.071 315.691 479.081 312.954 480.827C302.145 487.72 302.505 463.373 300.248 461.893C299.33 461.291 296.956 462.11 296.382 461.768C293.315 459.942 299.407 458.22 299.921 457.842C303.267 455.384 301.224 449.563 302.42 448.78C302.586 448.671 305.276 448.665 305.384 448.766Z" fill="white"/>
<path d="M248.255 461.904C252.52 468.655 235.424 474.124 238.588 464.476C239.716 461.037 246.822 459.636 248.255 461.904Z" fill="white"/>
<path d="M235.626 441.523C233.549 439.128 233.903 433.698 237.881 434.779C241.048 435.64 239.459 445.942 235.626 441.523Z" fill="black"/>
<path d="M265.378 484.768C263.741 486.065 263.644 484.296 263.139 483.493C261.979 481.648 258.555 469.689 261.891 469.791C263.856 469.851 267.397 483.169 265.378 484.768Z" fill="black"/>
<path d="M346.385 509.766C343.804 512.807 339.568 497.928 341.395 495.776C343.976 492.735 348.212 507.614 346.385 509.766Z" fill="black"/>
<path d="M325.385 514.766C322.638 518.014 318.521 502.021 320.395 499.776C322.933 496.736 327.074 512.768 325.385 514.766Z" fill="black"/>
</g>
<defs>
<clipPath id="clip0_59_1796">
<rect width="540" height="841" fill="white"/>
</clipPath>
</defs>
</svg>
