<svg width="687" height="1032" viewBox="0 0 687 1032" fill="none" xmlns="http://www.w3.org/2000/svg">
<g clip-path="url(#clip0_59_1443)">
<path d="M464.736 962.842L392.032 919.465L361.489 940.459L412.268 970.024L445.348 981.297L464.736 962.842Z" fill="white"/>
<path d="M155.256 917.359L82.9248 960.234L118.79 979.297L183.326 942.983L155.256 917.359Z" fill="white"/>
<path d="M104.5 1016C102.921 1015.77 97.892 1013.43 98.025 1011.49C107.643 1006.9 119.05 1009.66 129.301 1010.2C132.748 1011.18 133.002 1016 129.5 1016C122.242 1016 111.159 1016.98 104.5 1016Z" fill="black"/>
<path d="M330.885 1024.11C331.215 1024.51 331.215 1028.49 330.885 1028.89C329.425 1030.67 304.823 1030.46 301.699 1028.8C299.816 1027.8 299.024 1025 300.58 1023.9C302.807 1022.31 329.653 1022.61 330.885 1024.11Z" fill="black"/>
<path d="M384.987 1027.98C380.676 1031.29 351.605 1031.16 353.005 1024.51C353.778 1020.85 377.655 1023.79 381.472 1023.03C384.049 1023.46 385.393 1025.44 384.987 1027.98Z" fill="black"/>
<path d="M433.824 1026.16C436.236 1030.15 431.561 1030.83 428.549 1031.04C425.193 1031.27 408.15 1030.05 405.743 1029C403.93 1028.21 404.098 1024.86 405.659 1023.91C409.029 1021.87 432.078 1023.27 433.825 1026.16H433.824Z" fill="black"/>
<path d="M354.098 1010.09C355.16 1008.5 378.883 1008.44 381.749 1009.75C386.377 1011.86 383.525 1015.3 379.436 1015.94C376.672 1016.37 355.411 1015.47 354.434 1014.07C353.898 1013.3 353.646 1010.77 354.098 1010.09V1010.09Z" fill="black"/>
<path d="M455.744 1022.24C459.368 1021.59 481.434 1021.35 479.996 1027.49C479.041 1031.56 451.938 1029.96 451.005 1025.49C450.943 1023.22 454.032 1022.55 455.744 1022.24Z" fill="black"/>
<path d="M162 1029H131.5C130.361 1029 129.356 1025.2 130.094 1024.09C131.129 1022.52 152.989 1022.66 156.263 1023.24C159.399 1023.79 162.589 1025.33 162 1029Z" fill="black"/>
<path d="M74.8959 1010.09C76.5829 1012.53 74.3489 1014.71 71.5489 1015.05C67.3909 1015.55 46.9779 1015.98 46.0049 1011.49C46.1909 1008.71 50.3719 1008.22 52.5019 1008C55.5969 1007.68 73.3539 1007.86 74.8959 1010.09Z" fill="black"/>
<path d="M260.5 1016C253.207 1014.93 252.831 1009.72 260.44 1008.94C263.418 1008.64 278.651 1009.29 281.266 1010.24C284.974 1011.6 284.857 1016 281.5 1016C275.349 1016 266.152 1016.83 260.5 1016Z" fill="black"/>
<path d="M337 1015H313.5C313.174 1015 308.128 1012.01 308.003 1011.49C306.911 1006.94 323.877 1007.68 326.555 1007.94C330.328 1008.32 339.901 1010.29 337 1015Z" fill="black"/>
<path d="M262.237 1000.77C259.634 998.477 262.526 996.317 265.453 995.951C268.939 995.515 284.171 995.579 286.749 996.751C290.07 998.261 289.929 1000.58 286.584 1002.08C282.77 1003.8 265.354 1003.52 262.237 1000.77V1000.77Z" fill="black"/>
<path d="M232.997 1011.01C235.113 1013.84 223.928 1015.85 222.492 1015.99C219.364 1016.3 203.801 1016.9 203.003 1013.49C202.657 1012.01 204.796 1010.8 205.949 1010.45C209.722 1009.29 223.459 1008.49 227.44 1009.05C228.147 1009.15 232.82 1010.78 232.997 1011.01Z" fill="black"/>
<path d="M178.995 1012.02C183.294 1018.34 161.392 1017.23 158.617 1016.88C151.035 1015.95 148.374 1010.74 156.489 1010C159.976 1009.68 177.444 1009.73 178.995 1012.02Z" fill="black"/>
<path d="M205.5 1023C207.139 1023.33 210.19 1026.18 208.996 1027.99C208.263 1029.09 185.494 1029.81 182.586 1028.93C176.975 1027.24 179.921 1023 181.5 1023C187.729 1023 200.244 1021.93 205.5 1023Z" fill="black"/>
<path d="M102.901 1027.91C101.488 1030.03 81.203 1028.83 77.716 1027.79C73.841 1026.62 74.582 1022.78 78.526 1022.03C81.615 1021.43 95.2899 1022.09 99.1459 1022.54C101.93 1022.87 104.552 1025.43 102.9 1027.91L102.901 1027.91Z" fill="black"/>
<path d="M30.719 1021.22C34.016 1020.48 55.053 1020.4 53.987 1025.47C53.073 1029.82 33.687 1028.13 30.006 1026.49C25.677 1024.57 26.279 1022.21 30.719 1021.22Z" fill="black"/>
<path d="M536.995 984.983C535.913 986.577 525.877 987.105 523.506 986.985C516.833 986.646 503.003 982.91 516.88 979.619C520.469 978.768 540.853 979.302 536.995 984.984V984.983Z" fill="black"/>
<path d="M439 1011.01C440.538 1021.08 414.905 1016.39 413.979 1013.5C413.704 1012.65 413.599 1011.6 414.672 1010.99C419.735 1008.09 433.234 1010.04 438.999 1011.01L439 1011.01Z" fill="black"/>
<path d="M519.739 1008.25C523.071 1007.64 540.088 1008.79 538.997 1013.48C537.963 1017.93 521.889 1015.54 518.179 1014.32C512.404 1012.42 514.722 1009.17 519.739 1008.25Z" fill="black"/>
<path d="M257.996 1026.99C257.038 1028.43 237.109 1028.57 234.658 1027.09C233.07 1026.12 233.016 1022.49 234.715 1021.99C239.258 1020.66 253.544 1020.2 257.015 1023.48C257.924 1024.34 258.533 1026.17 257.995 1026.98L257.996 1026.99Z" fill="black"/>
<path d="M8.71914 1008.22C13.1781 1007.21 23.3681 1007.99 27.5771 1009.92C31.5891 1011.76 29.8041 1014.34 26.4741 1014.97C23.8451 1015.48 12.3251 1015.38 9.71015 1014.79C5.14515 1013.76 2.81414 1009.55 8.71914 1008.22Z" fill="black"/>
<path d="M464.141 1013.87C461.984 1010.38 465.678 1009.26 468.49 1009C471.719 1008.7 489.134 1007.7 489.996 1011.51C490.238 1012.58 488.838 1014.09 487.984 1014.49C485.622 1015.58 465.084 1015.39 464.141 1013.87V1013.87Z" fill="black"/>
<path d="M269.5 988C268.176 987.632 266.167 984.581 267.437 982.939C269.458 980.323 285.946 980.857 288.941 982.552C291.81 984.175 291.207 988 289.5 988C285.037 988 272.716 988.893 269.5 988Z" fill="black"/>
<path d="M39.9996 1002H20.4996C20.3006 1002 17.6966 1000.38 17.4726 1000.03C14.7016 995.643 24.3236 994.956 27.5046 994.943C32.1346 994.924 43.6246 995.58 39.9996 1002Z" fill="black"/>
<path d="M44.7509 971.766C42.5139 973.784 26.5859 973.361 23.6779 971.988C22.1179 971.251 22.7049 967.923 24.6929 967.193C27.8749 966.026 35.0069 965.632 38.4179 966.09C40.9519 966.43 48.3389 968.53 44.7509 971.766Z" fill="black"/>
<path d="M497.5 1022H514.5C516.14 1022 519.818 1025.59 517.005 1027.5C516.319 1027.96 504.076 1029.08 502.537 1029.05C498.19 1028.96 491.856 1025.79 497.5 1022Z" fill="black"/>
<path d="M520.953 996.06C524.399 1001.4 506.508 1000.41 503.556 999.943C499.603 999.311 496.239 994.879 499.685 993.972C502.625 993.199 510.264 992.73 513.268 993.241C514.262 993.41 520.731 995.716 520.953 996.06Z" fill="black"/>
<path d="M496.244 969.781C495.138 968.955 494.932 967.042 496.431 965.972C500.515 963.055 512.981 964.007 515.996 968.514C517.025 973.227 499.199 971.988 496.244 969.781Z" fill="black"/>
<path d="M260.708 967.206C265.219 965.856 275.471 966.584 278.981 970.5C276.624 976.098 258.897 974.522 258.049 970.393C257.791 969.138 259.569 967.547 260.708 967.206Z" fill="black"/>
<path d="M19.4997 988C18.9707 987.912 18.0317 986.735 17.0047 986.991C15.8217 978.882 37.0357 980.506 37.0367 985.483C37.0367 986.316 36.1307 988 35.4997 988C30.8967 988 23.6297 988.686 19.4997 988Z" fill="black"/>
<path d="M118.01 697C119.596 689.01 119.298 682.027 117.324 674.177C116.238 669.857 115.963 664.557 110.492 664.902C103.063 665.371 108.521 673.109 109.007 677.493C110.287 689.048 109.399 707.501 93.0054 703.995C92.5844 703.613 96.4504 695.217 96.7584 693.264C97.7074 687.228 96.9794 669.842 88.4254 670.026C83.3464 670.136 87.5044 680.699 87.6384 683.66C87.8754 688.904 86.7144 696.699 83.4444 700.943C80.1084 705.273 71.5664 709.24 67.0204 704.5C72.8934 699.333 73.8324 689.965 72.9214 682.584C72.0104 675.203 70.6474 675.549 64.0564 677.049C63.6894 688.004 66.9024 698.18 54.1874 702.696C42.9814 706.676 26.1884 695.929 32.7874 683.279C37.8234 673.625 35.9404 690.623 36.0094 691.407C36.5264 697.252 44.5354 699.544 46.5504 693.049C50.3484 680.812 37.8564 667.19 42.4804 652.977C47.8554 636.455 83.2924 621.688 99.4964 622.985C115.158 624.238 123.205 649.895 125.554 662.947C127.511 673.825 129.33 690.996 118.013 696.998L118.01 697Z" fill="white"/>
<path d="M486.857 987.139L488.005 992.996C445.015 993.2 401.613 992.812 358.452 992.952C355.86 992.96 353.579 993.984 351.491 993.991C338.578 994.032 325.927 992.533 313 992.99L314.135 987.137L318.617 986.13C374.649 986.639 431.043 984.455 486.857 987.139Z" fill="white"/>
<path d="M159.251 622.771C153.753 617.599 165.604 619.063 167.453 619.053C210.961 618.816 254.078 619.541 297.458 620.042C320.191 620.305 349.898 617.54 371.549 619.951C376.481 620.5 376.481 624.5 371.549 625.049C350.195 627.427 323.228 624.15 301.542 623.958C258.156 623.574 212.568 626 169.517 624.08C167.9 624.008 159.956 623.434 159.251 622.771Z" fill="white"/>
<path d="M236.567 986.95H53.9775V992H236.567V986.95Z" fill="white"/>
<path d="M231.755 911.25C232.771 912.254 233.05 914.564 232.996 915.995C209.259 915.436 185.112 917.715 161.45 915.05C159.988 914.885 158.878 914.931 158.009 913.491C157.607 910.498 159.042 910.24 161.45 909.954C167.351 909.253 173.653 910.916 179.456 911.044C193.75 911.359 208.238 911.212 222.54 911.048C225.398 911.015 229.314 908.839 231.755 911.25Z" fill="white"/>
<path d="M382.852 913.147C383.387 914.048 382.837 915.83 383.006 916.996C363.166 917.509 341.253 920.745 321.464 919.036C318.242 918.758 311.088 918.285 313.507 913.994C330.485 913.011 347.459 913.442 364.542 913.042C367.763 912.967 381.181 910.329 382.853 913.147H382.852Z" fill="white"/>
<path d="M158.005 894.005C177.211 893.477 196.354 894.184 215.449 894.75C217.729 894.818 234.793 892.139 232.992 898.491C232.334 900.81 219.324 900.133 216.459 900.042C214.091 899.967 211.909 899.022 209.543 898.958C195.287 898.573 177.284 899.614 163.48 898.021C161.148 897.752 157.781 897.008 158.006 894.005H158.005Z" fill="white"/>
<path d="M313.5 901C312.391 900.685 311.667 898.734 312.016 897.517C312.983 894.147 322.735 896.957 325.458 897.042C343.122 897.595 361.025 896.738 378.546 894.948C383.559 895.033 385.98 901.001 377.5 901.001L313.5 901Z" fill="white"/>
<path d="M622 276C639.184 271.093 676.023 266.381 685.181 286.33C689.599 295.953 681.025 299.659 680.958 303.474C680.953 303.764 683.321 304.863 684.274 306.206C689.354 313.371 684.917 323.272 679.016 328.5C685.032 333.934 688.268 338.578 684.027 346.527C683.121 348.226 679.163 352.106 679.161 352.491C679.158 353.102 683.173 357.044 683.054 361.46C682.611 377.956 656.828 382.567 644.044 382.048C637.014 418.765 619.192 458.722 594.514 487.015C544.56 544.287 453.18 563.624 386.009 526.001C385.784 538.559 385.616 551.003 385.995 563.569C389.29 672.964 388.598 781.851 391.04 891.547C391.205 898.947 390.829 910.037 392.032 917.464C392.279 918.99 394.201 920.461 393.986 921.431C393.736 922.559 378.584 934.518 376.195 936.169C375.588 938.413 375.556 940.055 377.976 940.658C383.077 941.928 393.651 928.957 398.64 926.127C403.528 923.354 408.636 929.119 412.981 931.5C413.009 933.499 395.952 943.671 395.145 946.668C394.808 947.922 394.835 948.762 395.967 949.539C400.448 952.615 412.751 938.044 417.461 935.881C419.184 935.09 418.868 935.111 420.681 935.726C421.311 935.939 429.924 940.57 430.394 940.926C431.365 941.661 431.3 942.497 430.912 943.411C430.054 945.432 414.896 953.868 414.129 956.644C413.798 957.841 413.858 958.82 414.981 959.538C419.536 962.448 430.908 949.253 434.641 947.129C439.443 944.398 446.296 950.441 449.982 953.501C449.976 954.919 433.77 964.699 436.003 966.995C444.13 969.683 449.448 959.839 455.935 956.429C456.473 956.302 461.9 958.879 463.046 959.454C468.399 962.142 483.617 971.522 487.706 975.298C490.706 978.068 495.018 989.524 494.866 993.554C494.67 998.781 488.784 1000.55 484.485 1000.99C469.848 1002.46 451.626 1000.7 436.456 1000.96C399.469 1001.6 357.147 1004.57 320.456 1002.04C318.054 1001.88 305.932 1000.1 305.136 998.862L303.998 700.001H240.998L244.482 996.985C242.33 1000.13 239.108 1000.74 235.537 1001.04C210.378 1003.18 183.653 1000.13 158.54 999.959C126.509 999.741 88.623 1002.66 57.459 1000.04C41.329 998.683 46.74 983.26 54.988 975.491C59.137 971.583 66.64 967.08 71.699 964.202C74.572 962.567 86.877 955.894 89.008 956.416C95.72 958.06 100.819 968.646 108.034 966.532C113.446 962.894 96.067 955.042 95.007 952.487C94.59 950.462 95.511 951.266 96.288 950.791C98.459 949.464 105.305 944.76 106.925 944.462C110.94 943.724 122.678 957.819 127.044 959.517C128.747 960.179 130.309 958.806 132.002 958.99C133.609 957.185 127.329 951.702 126.015 950.484C122.771 947.477 118.008 943.947 114.006 941.981C112.903 940.372 122.441 934.897 123.964 934.423C125.575 933.921 126.352 933.735 127.974 934.487C131.263 936.012 139.109 946.712 143.443 949.05L147.923 949.927C148.138 948.877 148.868 947.733 148.744 946.653C148.359 943.292 134.658 934.02 132.017 930.499C132.024 929.953 140.505 925.034 141.302 924.749C144.288 923.682 150.843 928.916 153.479 931.018C155.156 932.356 162.059 939.656 162.66 939.867C164.651 940.566 168.559 939.445 168.99 937.47C169.425 935.478 156.513 927.815 155.231 925.03C146.127 921.675 151.297 913.937 151.767 907.468C152.264 900.63 150.066 891.376 149.924 884.51C148.221 802.378 148.822 720.342 148.628 638.327C148.559 608.892 149.427 579.909 150.004 550.573C150.473 526.728 149.046 502.799 150.993 479.004C113.643 495.513 83.464 527.925 87.126 571.372C87.948 581.12 95.315 608.537 102.547 614.951C104.522 616.702 109.861 617.705 113.325 620.173C130.843 632.659 141.784 676.231 131.541 695.041C125.291 706.518 119.178 701.257 111.795 706.033C110.462 706.895 110.339 708.567 108.979 709.461C101.052 714.674 94.253 709.51 87.488 709.916C84.658 710.086 83.873 711.992 82.053 712.552C72.417 715.519 67.026 709.372 60.425 709.065C54.37 708.784 50.561 711.862 41.751 709.75C28.458 706.563 19.662 695.783 24.507 682.007C26.719 675.717 33.889 673.015 34.057 672.337C34.49 670.584 32.631 661.663 31.91 659.591C30.247 654.81 23.236 647.435 20.195 642.306C-34.267 550.455 32.923 446.726 122.461 412.961C149.466 402.777 178.117 395.293 206.995 392.995C207.446 391.26 206.275 390.997 205.506 389.994C202.748 386.396 198.092 383.096 195.026 379.474C161.6 339.989 155.029 292.201 152.563 241.937C144.438 240.477 138.318 241.436 130.011 238.489C121.014 235.297 117.339 231.127 111.284 224.28C110.687 223.605 111.36 222.373 108.999 223V242.5C108.999 242.679 106.921 244.785 106.357 244.911C101.539 245.993 103.215 232.571 102.989 230.005L100.54 240.041C98.984 244.586 94.606 245.272 93.974 240.444C93.414 236.163 97.362 219.507 97.992 213.493C98.525 208.405 98.838 203.12 98.99 198.005L91.507 239.006L87.005 240.004C86.427 231.535 89.339 223.386 89.991 215.005L84.215 235.714C82.759 238.598 80.141 240.92 78.97 236.472L94.008 162.997C96.533 164.988 105.645 162.947 106.498 163.928C109.248 167.089 110.134 179.637 110.011 184C117.166 176.67 125.053 172.589 134.84 169.833C135.915 158.491 139.258 147.268 144.829 137.328C151.031 126.26 160.825 118.388 168.573 109.072C170.406 106.869 180.232 105.548 183.628 105.127C211.28 101.702 247.177 104.887 273.999 112.501C278.951 113.907 302.719 123.907 304.331 123.772C307.542 123.504 321.41 116.37 326.23 114.728C340.962 109.71 356.99 106.42 372.508 105.009C377.444 104.56 393.447 103.429 397.014 105.486C398.669 106.44 398.765 110.546 399.968 112.532C404.112 119.373 414.731 126.907 420.823 136.677C426.61 145.959 424.323 141.222 433.002 145.498C460.93 159.257 466.905 206.264 436.694 221.192C433.835 222.605 427.673 222.898 426.993 226.503C427.839 239.24 430.946 251.808 431.993 264.508C434.36 293.245 435.37 324.972 424.485 351.983C413.278 379.793 391.282 399.504 366.02 414.5C394.991 433.229 417.797 458.737 454.46 461.042C513.699 464.766 557.599 422.664 571.153 367.651C574.082 355.764 572.174 352.555 571.954 341.548C571.461 316.792 574.204 291.735 574.036 266.44C573.947 253.153 568.995 233.344 582.071 224.569C589.016 219.909 606.317 220.716 612.406 227.097C615.423 230.259 622.003 246.559 622.003 250.5V276H622ZM411.995 140.995C412.241 139.817 411.856 139.075 411.449 138.051C409.823 133.958 394.422 117.717 390.501 114.999C386.213 112.027 379.787 112.737 374.627 113.126C350.171 114.97 325.945 125.152 303.561 133.972C286.133 126.482 267.834 120.089 249.122 116.615C235.375 114.063 190.116 109.616 179.081 115.581C175.084 117.742 163.152 129.632 160.021 133.521C151.591 143.989 147.732 156.715 146.998 169.995C148.138 171.138 174.661 169.191 179.285 170.214C184.327 171.329 182.938 175.447 184.227 176.771C186.327 178.929 212.041 177.394 213.751 175.744C214.764 174.767 215.931 170.461 217.163 168.661C236.678 140.137 296.352 132.27 315.568 165.067C319.385 164.054 321.415 161.251 325.445 159.944C336.68 156.3 351.465 158.641 361.377 164.928C372.739 147.075 391.117 139.593 411.994 140.993L411.995 140.995ZM407.721 154.185C404.896 155.032 404.052 158.142 407.012 159.492C409.555 160.652 414.982 160.07 418.974 161.527C427.559 164.66 431.438 174.28 432.899 182.602C433.371 185.293 432.518 197.854 439.596 192.091C445.56 187.236 435.174 165.064 430.022 160.478C426.412 157.264 412.125 152.864 407.721 154.185ZM291.689 171.304C297.295 177.771 295.466 184.404 297.928 190.572C300.555 197.154 305.7 195.045 304.919 186.581C303.726 173.643 293.538 160.364 280.24 158.259C278.361 157.962 268.948 156.999 267.707 157.182C264.438 157.663 260.654 162.646 264.659 163.888C266.981 164.608 269.174 162.971 271.39 163.096C278.099 163.475 287.163 166.084 291.689 171.304ZM211 188H189.5C184.897 188 188.62 206.101 188.993 209.507C189.31 212.399 188.703 215.435 189.106 218.394C194.553 258.384 242.886 257.151 273.378 253.88C293.638 251.706 317.835 242.264 337.372 244.128C351.264 245.453 364.478 252.186 379.507 252.993C392.116 253.67 415.252 253.352 418.555 238.059C419.057 235.734 420.29 228.434 416.958 228.417C411.067 228.387 404.604 229.49 398.459 229.041C386.509 228.167 375.39 222.974 368.17 213.33C359.523 201.78 358.907 189.572 358.057 175.711C350.516 169.59 339.052 167.072 329.762 170.265C326.836 171.271 320.934 175.252 320.945 178.455C320.97 185.306 323.092 189.149 321.724 197.235C316.417 228.601 281.508 238.696 253.619 235.882C229.075 233.406 209.858 213.032 210.999 188.002L211 188ZM137.76 178.26C108.824 182.496 105.773 222.624 133.727 231.774C146.545 235.969 167.817 230.52 169.913 215.413C172.722 195.167 160.129 174.986 137.761 178.261L137.76 178.26ZM627.993 380.012C617.787 377.328 607.177 368.018 611.211 356.708C611.72 355.28 613.827 352.738 613.826 352.49C613.822 351.879 609.006 347.655 609.482 341.465C609.866 336.484 614.982 332.082 614.983 331.499C614.983 330.816 609.093 325.365 608.911 319.509C608.72 313.37 612.477 310.821 612.879 308.317C613.117 306.832 610.509 305.38 609.782 303.718C605.733 294.464 612.131 285.933 612.986 276.485C614.244 262.57 614.909 224.615 592.725 229.232C588.516 230.108 583.494 235.07 582.956 239.455C581.771 249.118 583.842 258.966 583.781 268.258C583.674 284.545 582.133 301.226 581.959 317.458C581.84 328.595 580.125 352.316 586.476 361.025C593.466 370.611 613.219 379.229 624.779 380.73C625.868 380.871 628.218 381.848 627.994 380.012H627.993ZM172 275.5C172.702 273.05 172 263.943 172 260.5C172 256.808 167.336 251.426 164.333 256.442C166.237 261.459 163.837 268.603 165.208 273.291C166.013 276.044 171.065 278.763 172 275.499V275.5ZM186.904 269.893C188.792 268.306 187.165 258.579 186.562 255.939L181.001 254.995C181.607 258.164 179.461 268.81 182.642 269.856C183.494 270.136 186.422 270.297 186.904 269.893ZM406.997 261.024C409.29 264.655 407.999 280.016 414.4 277.914C418.288 276.637 415.67 255.193 406.997 261.024ZM298.607 262.081C292.731 268.894 304.663 275.468 310.015 277.485C320.548 281.453 333.388 281.28 344.203 278.704C347.404 277.942 358.031 275.409 358.042 271.505C358.059 265.606 350.368 271.443 348.542 272.043C335.75 276.245 314.752 278.444 304.997 267.502C302.903 265.153 303.17 260.892 298.606 262.081H298.607ZM197.147 275.842C198.173 277.499 203.053 277.312 203.861 274.276C204.061 273.525 203.224 266.787 202.969 265.53C202.114 261.31 197.026 262.66 196.157 265.722C195.901 266.623 196.879 275.409 197.147 275.841V275.842ZM228.602 267.068C225.591 267.973 225.608 279.851 226.918 281.58C233.495 290.257 236.148 264.8 228.602 267.068ZM401.944 284.93C401.711 281.287 400.13 265.513 394.532 267.01C391.018 267.95 393.642 290.55 401.944 284.93ZM274.934 280.932C278.888 265.073 263.851 263.327 269.164 279.335C269.92 281.614 272.97 281.125 274.934 280.932ZM247.147 270.153C246.279 271.519 246.011 285.656 250.382 284.941C254.17 284.321 253.961 269.796 251.374 269.065C250.597 268.845 247.43 269.709 247.148 270.153H247.147ZM377.005 271.005C379.246 274.588 374.472 289.162 381.367 287.853C385.765 287.018 384.821 275.613 383.828 272.664C382.962 270.093 379.226 271.131 377.005 271.005ZM645.793 279.293C635.473 280.344 620.072 285.023 618.399 296.982C618.248 298.064 617.706 298.851 618.433 300.007C621.125 304.291 645.15 303.41 650.492 302.992C658.253 302.385 678.66 300.15 677.032 288.556C675.695 279.039 652.9 278.569 645.793 279.293ZM212.09 298.906C217.196 299.976 218.544 295.727 218.997 291.504C219.597 285.904 220.048 281.74 213.589 280.977C212.185 281.107 209.974 297.471 212.09 298.906ZM178.906 297.918C180.353 296.894 179.98 280.966 173.602 283.084C171.535 283.771 172.022 294.02 172.639 295.732C173.301 297.571 177.775 298.719 178.906 297.918ZM287.628 288.117C285.693 288.765 284.558 297.663 286.407 299.064C293.711 304.595 296.832 285.036 287.628 288.117ZM259.601 289.085C257.067 289.916 258.34 294.271 257.895 296.396C257.305 299.218 254.069 305.669 258.516 306.07C265.241 306.677 266.944 286.679 259.601 289.085ZM412.004 291.002C412.816 294.497 411.345 308.37 417.31 306.894C422.456 305.621 420.284 287.554 412.004 291.002ZM198.908 306.905C200.713 303.229 200.065 289.985 193.621 292.079C191.329 292.824 192.647 302.363 193.197 304.304C193.867 306.666 196.67 307.493 198.907 306.906L198.908 306.905ZM235.606 295.079C232.417 296.075 235.167 308.03 235.923 308.574C243.002 313.665 243.287 292.517 235.606 295.079ZM370.915 298.089C364.648 293.917 363.232 310.376 369.543 311.034C375.465 311.651 371.556 298.516 370.915 298.089ZM396.769 299.205C395.781 298.112 391.269 298.447 390.935 299.606C391.154 302.189 391.534 312.561 394.488 312.788C400.296 313.235 399.071 301.75 396.769 299.205ZM326.141 300.151C324.903 302.103 327.327 318.144 332.309 316.892C337.726 315.531 332.674 300.752 329.98 299.441C329.028 298.978 326.461 299.646 326.141 300.151ZM227.786 307.231C227.298 306.559 224.565 305.842 223.665 306.096C219.062 307.397 221.059 326.574 227.586 321.089C229.835 319.199 229.17 309.135 227.786 307.231ZM273.568 308.037C270.387 308.747 270.882 320.842 272.479 323.015C273.741 324.733 277.155 324.51 277.851 322.35C278.856 319.23 278.972 306.83 273.569 308.037H273.568ZM307.758 321.767C310.076 319.355 306.28 304.759 300 307.995C298.546 311.693 302.663 327.07 307.758 321.767ZM673.779 308.17C670.594 308.451 666.053 310.429 662.382 310.881C655.523 311.726 646.521 311.814 639.542 312.043C633.518 312.24 624.638 309.64 620.554 314.053C616.662 318.259 617.88 322.244 622.634 324.865C630.212 329.045 662.57 327.372 670.354 322.852C675.602 319.805 682.147 307.43 673.779 308.169V308.17ZM180.714 312.301C179.774 311.501 177.777 310.743 176.622 311.063C170.515 312.756 186.049 334.076 186.077 322.517C186.082 320.642 182.049 313.436 180.714 312.301ZM351.476 312.324C347.669 312.757 350.105 326.025 352.63 326.883C361.704 329.964 358.228 311.556 351.476 312.324ZM247.122 316.128C245.946 316.922 244.605 328.856 245.909 330.573C251.503 337.942 255.7 317.594 251.356 316.143C250.462 315.844 247.781 315.683 247.122 316.128ZM414.24 322.228C412.538 324.059 413.18 328.728 412.786 331.279C412.446 333.48 409.237 335.591 412.418 338.08C414.964 340.073 417.578 339.136 418.553 336.054C418.876 335.034 420.166 325.318 420.052 324.533C419.66 321.819 415.972 320.364 414.24 322.228ZM213.906 336.906C214.705 333.137 214.857 320.052 208.649 322.116C204.796 323.397 207.384 336.294 208.104 336.89C208.476 337.198 213.435 337.221 213.906 336.907V336.906ZM373.001 322.995C373.346 327.005 368.884 342.691 377.386 339.928C379.631 339.198 379.556 326.75 378.862 324.64C378.102 322.33 374.943 323.035 373.001 322.996V322.995ZM393.639 326.155C392.678 326.329 391.474 327.741 391.198 328.703C390.663 330.572 389.859 340.407 390.983 341.509C398.052 348.443 401.563 324.717 393.639 326.155ZM317.676 328.111C312.893 329.375 316.695 345.824 322.394 343.921C326.26 342.642 322.071 326.949 317.676 328.111ZM289.615 330.075C287.016 330.893 288.982 340.879 290.413 342.085C297.173 347.784 297.602 327.56 289.615 330.075ZM343.869 342.86C345.435 340.362 343.386 329.9 338.688 331.102C335.145 332.009 336.555 340.152 337.921 342.333C338.972 344.011 343.157 343.995 343.869 342.86ZM230.07 333.085C228.734 334.929 233.876 345.315 235.653 345.903C237.415 346.487 240.622 345.19 240.749 343.51C240.896 341.568 234.849 328.27 230.07 333.085ZM265.005 333.996C257.926 332.12 256.862 337.509 258.031 343.475C258.594 346.349 261.124 348.16 263.585 346.09C266.249 343.849 264.56 337.361 265.005 333.995V333.996ZM663.791 334.295C652.797 334.781 636.401 333.555 626.563 335.062C619.637 336.123 616.203 342.377 622.077 347.422C628.758 353.16 653.588 352.582 662.227 350.725C668.18 349.445 678.537 344.973 675.25 337.267C673.171 332.395 668.005 334.108 663.792 334.294L663.791 334.295ZM199.038 368.961C209.981 371.78 202.371 354.459 199.645 349.856C198.939 348.663 193.073 340.279 192.58 339.922C190.844 338.666 188.968 338.93 187.006 339.006C188.828 350.377 199.856 356.404 199.039 368.962L199.038 368.961ZM373.374 346.736C373.374 344.726 371.744 343.096 369.734 343.096C367.724 343.096 366.094 344.726 366.094 346.736C366.094 348.746 367.724 350.376 369.734 350.376C371.744 350.376 373.374 348.746 373.374 346.736ZM305.532 344.009C302.512 344.816 304.397 360.158 309.328 358.891C315.031 357.426 310.562 342.666 305.532 344.009ZM348.996 346.995C348.74 350.595 347.901 361.158 354.374 358.926C357.164 357.964 356.656 349.563 355.558 347.937C354.498 346.368 350.82 347.118 348.996 346.995ZM224.74 349.274C222.632 347.188 219.255 348.394 219.073 351.439C218.912 354.134 221.738 362.688 225.316 362.79C230.644 362.942 226.861 351.372 224.74 349.274ZM405.849 362.835C407.152 362.036 413.076 347.635 403.636 349.945C402.76 350.159 399.753 358.843 399.945 360.472C400.265 363.201 404.115 363.898 405.849 362.835ZM277 354.5V369L282.909 368.909C283.599 368.444 283.181 354.868 282.549 353.953C281.365 352.238 277.52 352.768 277 354.5ZM248.622 355.08C244.99 356.259 249.707 371.262 254.469 369.991C257.664 369.138 254.816 353.069 248.622 355.08ZM334.909 371.92C336.704 370.641 334.813 354.019 328.608 356.081C324.573 357.422 329.759 367.616 329.164 370.825L334.908 371.92H334.909ZM621.65 358.081C620 358.596 619.989 359.935 620.044 361.361C620.75 379.857 658.379 377.128 669.021 368.52C671.776 366.292 677.548 358.384 671.511 357.974C666.091 357.606 654.819 361.577 648.502 361.093C643.218 361.192 623.62 357.467 621.65 358.081ZM375.61 359.092C372.853 360.03 370.739 372.631 376.5 372.636C381.788 372.641 382.297 356.816 375.61 359.092ZM299.64 365.126C296.551 366.148 299.892 379.305 301.48 381.019C303.954 383.691 306.963 380.703 307.053 377.547C307.08 376.59 305.213 367.782 304.812 366.689C304.063 364.646 301.495 364.512 299.641 365.125L299.64 365.126ZM209.997 370.01C207.397 372.689 217.975 382.461 220.683 382.867C223.361 383.269 224.307 380.169 222.865 377.66C222.475 376.982 216.45 369.72 215.993 369.44C214.643 368.614 211.771 370.476 209.997 370.009V370.01ZM395.906 369.094C391.415 365.99 385.266 380.091 388.129 381.873C393.864 385.443 398.787 371.085 395.906 369.094ZM241.697 371.11C236.121 372.616 243.667 383.995 247.468 382.993C252.178 380.243 244.87 370.253 241.697 371.11ZM355.905 371.097C350.629 367.489 346.05 383.215 348.596 385.096C355.098 389.897 358.411 372.811 355.905 371.097ZM263.535 373.008C260.006 373.923 263.053 389.984 269.379 387.921C273.05 386.724 268.592 371.697 263.535 373.008ZM321.129 380.138C319.693 382.447 322.64 396.357 327.371 394.935C332.147 393.5 327.33 379.74 324.358 379.188C323.771 379.079 321.289 379.882 321.129 380.139V380.138ZM285.635 383.122C282.409 384.201 284.228 397.948 290.383 395.924C292.875 395.105 293.06 380.637 285.635 383.122ZM377.753 385.223C372.792 379.929 368.097 397.613 369.004 401.001C375.368 402.884 381.092 388.787 377.753 385.223ZM240.717 387.296C239.254 386.099 236.917 385.783 235.075 386.065C232.245 389.778 238.509 400.048 242.474 398.996C245.654 397.269 242.528 388.779 240.717 387.296ZM358.873 393.134C358.706 392.876 356.038 392.016 355.449 392.029C351.882 392.111 349.07 405.328 350.946 406.546C357.867 411.04 359.746 394.484 358.873 393.133V393.134ZM257.641 394.152C251.501 395.334 259.155 409.473 262.379 408.943C268.357 407.959 262.375 393.241 257.641 394.152ZM309.847 398.169C308.176 397.154 304.16 397.794 303.969 400.491C303.763 403.413 306.403 413.43 310.486 413.069C315.789 412.6 310.998 398.868 309.846 398.168L309.847 398.169ZM330.146 412.846C339.574 418.729 339.451 394.321 329.96 401.669L330.146 412.846ZM286 416.004C286.689 410.69 284.687 402.803 278.535 402.007C274.153 403.168 279.18 419.455 286 416.004ZM342.995 422.006C341.406 420.354 319.639 424.722 315.492 424.991C300.72 425.952 286.222 424.593 271.796 421.704C268.154 420.975 263.769 418.493 260.214 418.197C257.07 417.935 252.747 418.406 253.994 421.994C257.335 421.665 259.979 423.603 262.987 424.512C283.718 430.778 308.965 431.801 330.23 427.73C331.455 427.495 345.577 424.691 342.994 422.005L342.995 422.006ZM159.251 622.771C159.956 623.434 167.9 624.009 169.517 624.081C212.568 626.001 258.156 623.575 301.542 623.959C323.228 624.151 350.195 627.428 371.549 625.05C376.481 624.501 376.481 620.501 371.549 619.952C349.898 617.541 320.191 620.305 297.458 620.043C254.079 619.542 210.961 618.817 167.453 619.054C165.604 619.064 153.753 617.599 159.251 622.771ZM118.01 697C129.327 690.998 127.508 673.827 125.551 662.949C123.202 649.897 115.155 624.24 99.493 622.987C83.289 621.69 47.853 636.457 42.477 652.979C37.853 667.192 50.345 680.814 46.547 693.051C44.531 699.545 36.523 697.253 36.006 691.409C35.937 690.626 37.82 673.627 32.784 683.281C26.185 695.931 42.979 706.678 54.184 702.698C66.899 698.182 63.686 688.006 64.053 677.051C70.645 675.55 72.007 675.209 72.918 682.586C73.829 689.963 72.891 699.335 67.017 704.502C71.564 709.242 80.105 705.276 83.441 700.945C86.711 696.701 87.872 688.906 87.635 683.662C87.501 680.701 83.343 670.138 88.422 670.028C96.976 669.843 97.704 687.229 96.755 693.266C96.448 695.219 92.581 703.615 93.002 703.997C109.396 707.503 110.284 689.05 109.004 677.495C108.518 673.111 103.06 665.373 110.489 664.904C115.96 664.558 116.235 669.859 117.321 674.179C119.295 682.03 119.593 689.013 118.007 697.002L118.01 697ZM158.005 894.005C157.779 897.008 161.146 897.752 163.479 898.021C177.283 899.614 195.286 898.572 209.542 898.958C211.908 899.022 214.091 899.967 216.458 900.042C219.323 900.132 232.334 900.809 232.991 898.491C234.792 892.139 217.729 894.818 215.448 894.75C196.353 894.184 177.209 893.477 158.004 894.005H158.005ZM313.5 901H377.5C385.98 901 383.56 895.032 378.546 894.947C361.025 896.737 343.122 897.594 325.458 897.041C322.735 896.956 312.983 894.146 312.016 897.516C311.667 898.733 312.391 900.685 313.5 901ZM231.755 911.25C229.314 908.838 225.397 911.015 222.54 911.048C208.238 911.212 193.75 911.358 179.456 911.044C173.653 910.916 167.351 909.253 161.45 909.954C159.042 910.24 157.607 910.498 158.009 913.491C158.878 914.931 159.988 914.885 161.45 915.05C185.112 917.715 209.259 915.436 232.996 915.995C233.05 914.565 232.771 912.254 231.755 911.25ZM382.852 913.147C381.181 910.329 367.762 912.966 364.541 913.042C347.458 913.442 330.484 913.011 313.506 913.994C311.087 918.285 318.241 918.758 321.463 919.036C341.252 920.745 363.165 917.509 383.005 916.996C382.837 915.83 383.387 914.048 382.852 913.147ZM486.857 987.139C431.043 984.455 374.648 986.64 318.617 986.13L314.135 987.137L313 992.99C325.927 992.533 338.578 994.032 351.491 993.991C353.579 993.984 355.861 992.961 358.452 992.952C401.613 992.811 445.015 993.199 488.005 992.996L486.857 987.139ZM53.978 986.95V992H236.567V986.95H53.978Z" fill="black"/>
<path d="M411.995 140.995C391.118 139.595 372.74 147.076 361.378 164.93C351.466 158.642 336.681 156.302 325.446 159.946C321.415 161.253 319.385 164.056 315.569 165.069C296.353 132.272 236.679 140.139 217.164 168.663C215.932 170.463 214.765 174.769 213.752 175.746C212.041 177.396 186.327 178.93 184.228 176.773C182.939 175.448 184.327 171.331 179.286 170.216C174.662 169.193 148.139 171.139 146.999 169.997C147.733 156.717 151.592 143.991 160.022 133.523C163.153 129.634 175.085 117.744 179.082 115.583C190.117 109.618 235.376 114.065 249.123 116.617C267.835 120.091 286.134 126.484 303.562 133.974C325.946 125.154 350.172 114.972 374.628 113.128C379.788 112.739 386.214 112.029 390.502 115.001C394.423 117.719 409.825 133.96 411.45 138.053C411.857 139.077 412.242 139.819 411.996 140.997L411.995 140.995ZM182.865 139.132C181.874 137.649 164.199 132.918 166.954 144.339C167.756 147.663 187.766 146.465 182.865 139.132ZM178.79 156.193C176.809 152.745 159.075 150.07 159.26 158.358C159.36 162.832 173.437 162.573 176.504 162.002C179.234 161.494 179.932 158.182 178.79 156.193Z" fill="white"/>
<path d="M211 188C209.859 213.03 229.076 233.403 253.62 235.88C281.509 238.694 316.418 228.599 321.725 197.233C323.093 189.147 320.971 185.304 320.946 178.453C320.934 175.251 326.836 171.269 329.763 170.263C339.053 167.071 350.517 169.589 358.058 175.709C358.909 189.571 359.524 201.778 368.171 213.328C375.391 222.972 386.51 228.165 398.46 229.039C404.605 229.488 411.068 228.385 416.959 228.415C420.291 228.432 419.058 235.732 418.556 238.057C415.253 253.35 392.116 253.668 379.508 252.991C364.479 252.184 351.264 245.452 337.373 244.126C317.836 242.262 293.639 251.704 273.379 253.878C242.887 257.15 194.554 258.382 189.107 218.392C188.704 215.433 189.311 212.397 188.994 209.505C188.62 206.099 184.898 187.998 189.501 187.998H211.001L211 188ZM340.726 174.23C338.519 174.198 334.111 175.48 334.987 178.434C341.454 194.945 349.866 211.021 353.767 228.387C353.229 229.944 352.034 230.683 350.471 230.975C346.204 231.772 317.571 228.357 319.04 235.401C320.115 237.184 321.986 238.105 323.933 238.568C328.806 239.726 347.711 239.541 352.768 238.35C368.289 234.696 362.786 222.544 358.766 211.735C355.117 201.922 349.708 187.627 344.877 178.624C343.949 176.894 343.056 174.265 340.726 174.23Z" fill="white"/>
<path d="M137.76 178.26C160.128 174.986 172.722 195.166 169.912 215.412C167.816 230.519 146.545 235.969 133.726 231.773C105.772 222.624 108.823 182.495 137.759 178.259L137.76 178.26ZM155.748 213.749C158.577 210.933 152.41 200.818 149.929 198.571C146.932 195.856 133.304 188.714 133.356 196.504C133.389 201.444 144.427 200.738 143.63 206.532C142.997 211.133 127.852 210.249 133.44 217.064C139.721 224.725 144.408 214.907 147.691 214.143C149.69 213.678 153.16 216.326 155.749 213.749H155.748Z" fill="white"/>
<path d="M627.993 380.012C628.217 381.847 625.868 380.871 624.779 380.73C613.22 379.229 593.466 370.61 586.475 361.025C580.124 352.316 581.84 328.595 581.959 317.458C582.133 301.226 583.674 284.545 583.781 268.258C583.842 258.966 581.771 249.119 582.956 239.455C583.494 235.07 588.516 230.108 592.725 229.232C614.909 224.615 614.243 262.57 612.985 276.485C612.131 285.933 605.734 294.464 609.782 303.718C610.509 305.379 613.117 306.832 612.879 308.317C612.477 310.821 608.72 313.371 608.91 319.509C609.092 325.365 614.983 330.816 614.983 331.499C614.983 332.082 609.866 336.484 609.482 341.465C609.005 347.656 613.822 351.879 613.826 352.49C613.827 352.738 611.721 355.279 611.211 356.708C607.177 368.018 617.787 377.328 627.993 380.012Z" fill="white"/>
<path d="M645.793 279.293C652.901 278.569 675.696 279.039 677.032 288.556C678.66 300.149 658.253 302.385 650.492 302.992C645.149 303.41 621.125 304.291 618.433 300.007C617.706 298.85 618.247 298.063 618.399 296.982C620.072 285.023 635.474 280.344 645.793 279.293Z" fill="white"/>
<path d="M663.791 334.295C668.004 334.109 673.17 332.396 675.249 337.268C678.536 344.973 668.18 349.446 662.226 350.726C653.587 352.583 628.757 353.161 622.076 347.423C616.202 342.378 619.636 336.124 626.562 335.063C636.401 333.555 652.796 334.781 663.79 334.296L663.791 334.295Z" fill="white"/>
<path d="M673.779 308.17C682.146 307.431 675.601 319.805 670.354 322.853C662.571 327.373 630.212 329.045 622.634 324.866C617.881 322.244 616.663 318.26 620.554 314.054C624.637 309.641 633.517 312.241 639.542 312.044C646.521 311.816 655.523 311.728 662.382 310.882C666.053 310.43 670.594 308.451 673.779 308.17Z" fill="white"/>
<path d="M621.65 358.081C623.62 357.467 643.217 361.191 648.501 361.093C654.818 361.577 666.09 357.606 671.51 357.974C677.547 358.384 671.775 366.292 669.02 368.52C658.378 377.128 620.749 379.857 620.043 361.361C619.989 359.935 620 358.595 621.649 358.081H621.65Z" fill="white"/>
<path d="M342.995 422.006C345.578 424.691 331.456 427.496 330.231 427.731C308.965 431.802 283.718 430.779 262.988 424.513C259.98 423.604 257.336 421.665 253.995 421.995C252.748 418.407 257.07 417.936 260.215 418.198C263.77 418.494 268.155 420.976 271.797 421.705C286.222 424.594 300.721 425.953 315.493 424.992C319.64 424.722 341.407 420.355 342.996 422.007L342.995 422.006Z" fill="white"/>
<path d="M291.689 171.304C287.164 166.084 278.099 163.475 271.39 163.096C269.173 162.971 266.981 164.608 264.659 163.888C260.654 162.647 264.438 157.664 267.707 157.182C268.948 156.999 278.361 157.962 280.24 158.259C293.538 160.364 303.726 173.643 304.919 186.581C305.699 195.045 300.555 197.154 297.928 190.572C295.466 184.403 297.295 177.77 291.689 171.304Z" fill="white"/>
<path d="M407.721 154.185C412.125 152.865 426.413 157.264 430.022 160.478C435.173 165.064 445.56 187.236 439.596 192.091C432.517 197.854 433.371 185.292 432.899 182.602C431.438 174.28 427.559 164.66 418.974 161.527C414.982 160.07 409.555 160.652 407.012 159.492C404.052 158.142 404.896 155.032 407.721 154.185Z" fill="white"/>
<path d="M298.607 262.081C303.172 260.892 302.905 265.153 304.998 267.502C314.753 278.444 335.751 276.245 348.543 272.043C350.369 271.443 358.059 265.606 358.043 271.505C358.032 275.409 347.405 277.942 344.204 278.704C333.389 281.279 320.549 281.452 310.016 277.485C304.663 275.469 292.732 268.894 298.608 262.081H298.607Z" fill="white"/>
<path d="M199.038 368.961C199.855 356.404 188.827 350.376 187.005 339.005C188.967 338.929 190.844 338.665 192.579 339.921C193.073 340.278 198.938 348.662 199.644 349.855C202.37 354.459 209.98 371.779 199.037 368.96L199.038 368.961Z" fill="white"/>
<path d="M172 275.5C171.065 278.763 166.013 276.044 165.208 273.292C163.837 268.603 166.237 261.46 164.333 256.443C167.335 251.427 172 256.809 172 260.501C172 263.944 172.702 273.051 172 275.501V275.5Z" fill="white"/>
<path d="M401.943 284.93C393.641 290.551 391.018 267.95 394.532 267.01C400.13 265.513 401.71 281.287 401.943 284.93Z" fill="white"/>
<path d="M212.09 298.906C209.974 297.471 212.185 281.106 213.589 280.977C220.048 281.741 219.597 285.904 218.997 291.504C218.544 295.727 217.196 299.976 212.09 298.906Z" fill="white"/>
<path d="M326.141 300.151C326.461 299.647 329.029 298.978 329.981 299.441C332.674 300.752 337.727 315.531 332.31 316.892C327.328 318.143 324.904 302.103 326.142 300.151H326.141Z" fill="white"/>
<path d="M414.24 322.228C415.972 320.365 419.661 321.819 420.052 324.533C420.165 325.317 418.875 335.034 418.553 336.054C417.578 339.136 414.964 340.073 412.418 338.08C409.237 335.59 412.447 333.48 412.786 331.279C413.18 328.728 412.538 324.059 414.24 322.228Z" fill="white"/>
<path d="M406.997 261.024C415.67 255.193 418.288 276.638 414.4 277.914C407.999 280.016 409.29 264.654 406.997 261.024Z" fill="white"/>
<path d="M299.64 365.126C301.494 364.513 304.062 364.647 304.811 366.69C305.212 367.783 307.079 376.591 307.052 377.548C306.962 380.704 303.954 383.692 301.479 381.02C299.892 379.306 296.55 366.149 299.639 365.127L299.64 365.126Z" fill="white"/>
<path d="M373.001 322.995C374.943 323.034 378.102 322.329 378.862 324.639C379.556 326.75 379.631 339.198 377.386 339.927C368.884 342.691 373.347 327.004 373.001 322.994V322.995Z" fill="white"/>
<path d="M377.005 271.005C379.226 271.131 382.962 270.093 383.828 272.664C384.821 275.612 385.765 287.018 381.367 287.853C374.472 289.162 379.246 274.589 377.005 271.005Z" fill="white"/>
<path d="M377.753 385.223C381.093 388.787 375.369 402.884 369.004 401.001C368.096 397.613 372.791 379.93 377.753 385.223Z" fill="white"/>
<path d="M393.639 326.155C401.563 324.718 398.052 348.443 390.983 341.509C389.859 340.407 390.663 330.572 391.198 328.703C391.473 327.741 392.678 326.329 393.639 326.155Z" fill="white"/>
<path d="M227.786 307.231C229.17 309.135 229.835 319.199 227.586 321.089C221.059 326.574 219.062 307.398 223.665 306.096C224.565 305.842 227.297 306.559 227.786 307.231Z" fill="white"/>
<path d="M259.601 289.085C266.945 286.678 265.241 306.676 258.516 306.07C254.068 305.669 257.304 299.218 257.895 296.396C258.339 294.272 257.067 289.916 259.601 289.085Z" fill="white"/>
<path d="M247.122 316.128C247.781 315.683 250.461 315.844 251.355 316.143C255.699 317.594 251.502 337.943 245.908 330.573C244.604 328.855 245.946 316.921 247.121 316.128H247.122Z" fill="white"/>
<path d="M412.004 291.002C420.284 287.554 422.456 305.621 417.31 306.894C411.345 308.37 412.816 294.497 412.004 291.002Z" fill="white"/>
<path d="M334.909 371.92L329.165 370.825C329.76 367.615 324.573 357.422 328.609 356.081C334.813 354.019 336.705 370.641 334.91 371.92H334.909Z" fill="white"/>
<path d="M209.997 370.01C211.771 370.477 214.643 368.615 215.993 369.441C216.45 369.72 222.475 376.983 222.865 377.661C224.307 380.17 223.362 383.269 220.683 382.868C217.974 382.462 207.397 372.689 209.997 370.01Z" fill="white"/>
<path d="M309.847 398.169C310.999 398.869 315.79 412.601 310.487 413.07C306.404 413.431 303.763 403.414 303.97 400.492C304.161 397.795 308.177 397.155 309.848 398.17L309.847 398.169Z" fill="white"/>
<path d="M351.476 312.324C358.228 311.556 361.704 329.964 352.63 326.883C350.105 326.026 347.669 312.757 351.476 312.324Z" fill="white"/>
<path d="M213.906 336.906C213.435 337.221 208.476 337.197 208.104 336.889C207.384 336.294 204.796 323.396 208.649 322.115C214.857 320.052 214.705 333.136 213.906 336.905V336.906Z" fill="white"/>
<path d="M317.676 328.111C322.071 326.95 326.261 342.642 322.394 343.921C316.695 345.824 312.892 329.375 317.676 328.111Z" fill="white"/>
<path d="M321.129 380.138C321.289 379.881 323.771 379.078 324.358 379.187C327.329 379.739 332.146 393.499 327.371 394.934C322.64 396.356 319.693 382.446 321.129 380.137V380.138Z" fill="white"/>
<path d="M358.873 393.134C359.746 394.485 357.866 411.041 350.946 406.547C349.07 405.329 351.881 392.112 355.449 392.03C356.038 392.016 358.707 392.877 358.873 393.135V393.134Z" fill="white"/>
<path d="M355.905 371.097C358.412 372.811 355.098 389.897 348.596 385.096C346.05 383.216 350.628 367.489 355.905 371.097Z" fill="white"/>
<path d="M228.602 267.068C236.148 264.8 233.495 290.256 226.918 281.58C225.608 279.851 225.591 267.974 228.602 267.068Z" fill="white"/>
<path d="M273.568 308.037C278.972 306.83 278.855 319.23 277.85 322.35C277.154 324.511 273.74 324.733 272.478 323.015C270.881 320.842 270.386 308.747 273.567 308.037H273.568Z" fill="white"/>
<path d="M277 354.5C277.521 352.768 281.365 352.238 282.549 353.953C283.181 354.868 283.599 368.444 282.909 368.909L277 369V354.5Z" fill="white"/>
<path d="M257.641 394.152C262.375 393.241 268.357 407.959 262.379 408.943C259.155 409.474 251.502 395.334 257.641 394.152Z" fill="white"/>
<path d="M178.906 297.918C177.775 298.719 173.301 297.571 172.639 295.732C172.023 294.021 171.536 283.771 173.602 283.084C179.98 280.965 180.354 296.893 178.906 297.918Z" fill="white"/>
<path d="M263.535 373.008C268.592 371.697 273.05 386.724 269.379 387.921C263.053 389.984 260.006 373.923 263.535 373.008Z" fill="white"/>
<path d="M186.904 269.893C186.422 270.298 183.493 270.136 182.642 269.856C179.46 268.81 181.607 258.164 181.001 254.995L186.562 255.939C187.165 258.579 188.792 268.306 186.904 269.893Z" fill="white"/>
<path d="M180.714 312.301C182.049 313.437 186.082 320.642 186.077 322.517C186.049 334.076 170.515 312.756 176.622 311.063C177.777 310.743 179.774 311.501 180.714 312.301Z" fill="white"/>
<path d="M198.908 306.905C196.67 307.492 193.868 306.665 193.198 304.303C192.648 302.363 191.33 292.823 193.622 292.078C200.066 289.984 200.714 303.228 198.909 306.904L198.908 306.905Z" fill="white"/>
<path d="M307.758 321.767C302.663 327.07 298.546 311.693 300 307.995C306.28 304.759 310.076 319.354 307.758 321.767Z" fill="white"/>
<path d="M286 416.004C279.179 419.456 274.152 403.169 278.535 402.007C284.688 402.803 286.69 410.69 286 416.004Z" fill="white"/>
<path d="M248.622 355.08C254.816 353.069 257.664 369.138 254.469 369.991C249.707 371.262 244.989 356.259 248.622 355.08Z" fill="white"/>
<path d="M224.74 349.274C226.861 351.372 230.644 362.942 225.316 362.79C221.738 362.688 218.912 354.134 219.073 351.439C219.255 348.394 222.631 347.189 224.74 349.274Z" fill="white"/>
<path d="M305.532 344.009C310.561 342.666 315.031 357.427 309.328 358.891C304.398 360.157 302.513 344.815 305.532 344.009Z" fill="white"/>
<path d="M230.07 333.085C234.849 328.27 240.896 341.569 240.749 343.511C240.622 345.191 237.415 346.487 235.653 345.904C233.876 345.315 228.734 334.929 230.07 333.086V333.085Z" fill="white"/>
<path d="M405.849 362.835C404.115 363.899 400.265 363.202 399.945 360.472C399.754 358.843 402.761 350.159 403.636 349.945C413.075 347.635 407.151 362.036 405.849 362.835Z" fill="white"/>
<path d="M197.147 275.842C196.879 275.41 195.902 266.624 196.157 265.723C197.026 262.66 202.114 261.311 202.969 265.531C203.224 266.788 204.061 273.526 203.861 274.277C203.052 277.313 198.173 277.499 197.147 275.842Z" fill="white"/>
<path d="M247.147 270.153C247.429 269.709 250.596 268.845 251.372 269.065C253.959 269.796 254.169 284.321 250.381 284.941C246.01 285.656 246.277 271.519 247.145 270.153H247.147Z" fill="white"/>
<path d="M396.769 299.205C399.071 301.75 400.296 313.235 394.488 312.788C391.535 312.561 391.154 302.189 390.935 299.606C391.269 298.447 395.781 298.112 396.769 299.205Z" fill="white"/>
<path d="M375.61 359.092C382.297 356.817 381.788 372.642 376.5 372.636C370.739 372.63 372.853 360.03 375.61 359.092Z" fill="white"/>
<path d="M330.146 412.846L329.96 401.669C339.451 394.321 339.574 418.729 330.146 412.846Z" fill="white"/>
<path d="M285.635 383.122C293.06 380.638 292.875 395.105 290.383 395.924C284.228 397.948 282.409 384.201 285.635 383.122Z" fill="white"/>
<path d="M240.717 387.296C242.528 388.779 245.655 397.268 242.474 398.996C238.509 400.048 232.245 389.778 235.075 386.065C236.917 385.783 239.254 386.099 240.717 387.296Z" fill="white"/>
<path d="M395.906 369.094C398.788 371.086 393.864 385.443 388.129 381.873C385.266 380.09 391.415 365.99 395.906 369.094Z" fill="white"/>
<path d="M235.606 295.079C243.288 292.517 243.003 313.665 235.923 308.574C235.166 308.03 232.417 296.075 235.606 295.079Z" fill="white"/>
<path d="M265.005 333.996C264.56 337.362 266.249 343.85 263.585 346.091C261.124 348.161 258.594 346.35 258.031 343.476C256.862 337.51 257.926 332.12 265.005 333.997V333.996Z" fill="white"/>
<path d="M348.996 346.995C350.82 347.118 354.498 346.369 355.558 347.937C356.656 349.563 357.164 357.964 354.374 358.926C347.901 361.158 348.74 350.595 348.996 346.995Z" fill="white"/>
<path d="M287.628 288.117C296.832 285.035 293.711 304.595 286.407 299.064C284.558 297.663 285.694 288.765 287.628 288.117Z" fill="white"/>
<path d="M343.869 342.86C343.157 343.995 338.972 344.011 337.921 342.333C336.555 340.152 335.145 332.009 338.688 331.102C343.386 329.899 345.435 340.362 343.869 342.86Z" fill="white"/>
<path d="M370.915 298.089C371.557 298.516 375.465 311.651 369.543 311.034C363.232 310.376 364.648 293.918 370.915 298.089Z" fill="white"/>
<path d="M274.934 280.932C272.97 281.125 269.921 281.614 269.164 279.335C263.85 263.327 278.888 265.073 274.934 280.932Z" fill="white"/>
<path d="M289.615 330.075C297.602 327.56 297.173 347.784 290.413 342.085C288.982 340.879 287.016 330.893 289.615 330.075Z" fill="white"/>
<path d="M241.697 371.11C244.87 370.253 252.178 380.243 247.468 382.993C243.667 383.995 236.121 372.616 241.697 371.11Z" fill="white"/>
<path d="M369.734 350.376C371.744 350.376 373.374 348.746 373.374 346.736C373.374 344.726 371.744 343.096 369.734 343.096C367.723 343.096 366.094 344.726 366.094 346.736C366.094 348.746 367.723 350.376 369.734 350.376Z" fill="white"/>
<path d="M178.79 156.193C179.933 158.182 179.233 161.494 176.503 162.002C173.436 162.573 159.359 162.831 159.259 158.358C159.074 150.07 176.808 152.745 178.789 156.193H178.79Z" fill="black"/>
<path d="M182.865 139.132C187.766 146.465 167.756 147.663 166.954 144.339C164.198 132.918 181.874 137.649 182.865 139.132Z" fill="black"/>
<path d="M340.726 174.23C343.056 174.264 343.948 176.893 344.877 178.624C349.708 187.627 355.117 201.922 358.766 211.735C362.786 222.545 368.289 234.696 352.768 238.35C347.711 239.541 328.805 239.725 323.933 238.568C321.986 238.105 320.115 237.184 319.04 235.401C317.571 228.357 346.204 231.773 350.471 230.975C352.034 230.683 353.229 229.944 353.767 228.387C349.866 211.021 341.454 194.945 334.987 178.434C334.111 175.481 338.519 174.198 340.726 174.23Z" fill="black"/>
<path d="M173.855 79.85L104.007 66.003L103.262 138.373C106.622 141.37 112.142 145.202 111.964 150.399C111.521 163.337 91.3899 165.319 89.9729 152.517C88.8149 142.059 96.0409 142.408 96.9799 137.478L97.0449 65.657C96.5959 63.745 79.6349 62.311 76.6029 60.103C75.2559 59.122 75.4289 56.682 77.2419 55.716C82.5589 52.882 93.9399 52.757 98.3049 50.055C101.597 48.017 100.56 42.06 108.587 46.992L298.501 0.926025C358.562 18.188 422.737 29.801 482.215 48.285C485.323 49.251 488.898 49.757 490.982 52.499C488.36 55.782 484.017 56.522 480.216 57.714C452.828 66.305 422.318 70.259 394.516 78.005C392.762 77.877 391.985 76.661 391.137 75.359C387.802 70.239 385.766 60.663 382.475 55.024C342.802 38.12 296.093 36.942 253.507 41.005C235.883 42.686 205.391 46.791 189.645 54.143C179.335 58.957 178.686 70.406 173.855 79.848V79.85Z" fill="black"/>
<path d="M396.002 101.996C364.285 100.21 333.268 107.254 304.479 120.074C300.445 120.244 291.765 114.843 287.266 113.234C253.249 101.065 217.297 99.55 181.622 103.123C179.351 103.35 170.509 106.305 170.123 103.531C169.929 102.135 177.04 82.86 178.251 79.753C181.005 72.689 184 65.552 187.68 58.932C203.173 53.503 219.362 49.526 235.639 47.141C274.419 41.46 320.053 40.937 358.207 50.293C362.363 51.312 374.959 54.605 377.951 56.549C380.856 58.436 386.132 72.694 387.75 76.75C389.008 79.904 396.933 101.042 396.001 101.997L396.002 101.996Z" fill="black"/>
<path d="M155.748 213.749C153.16 216.326 149.689 213.678 147.69 214.143C144.407 214.907 139.72 224.725 133.439 217.064C127.851 210.249 142.996 211.133 143.629 206.532C144.426 200.737 133.388 201.443 133.355 196.504C133.303 188.714 146.931 195.856 149.928 198.571C152.409 200.818 158.577 210.933 155.748 213.749Z" fill="black"/>
</g>
<defs>
<clipPath id="clip0_59_1443">
<rect width="687" height="1032" fill="white"/>
</clipPath>
</defs>
</svg>
