<svg width="553" height="688" viewBox="0 0 553 688" fill="none" xmlns="http://www.w3.org/2000/svg">
<g clip-path="url(#clip0_59_925)">
<path d="M69.0905 638.767L77.8105 635.981L82.8635 630.511L90.8055 627.489L95.6145 623.11L101.824 620.501H106.563V617.001L113.31 613.995L133.669 623.053L129.151 641.767L101.38 647.034L64.8945 650.536L69.0905 638.767Z" fill="white"/>
<path d="M272.393 613.55L278.305 617.013L283.799 621.48L287.839 624.462L295.856 629.459L303.227 631.27L307.934 636.3L314.341 637.967L318.515 643.843L297.986 650.536L250.374 632.043L252.506 621.171L272.393 613.55Z" fill="white"/>
<path d="M546.288 49.4229C541.541 49.6329 539.244 55.4319 536.782 58.4779C535.506 60.0569 528.925 64.6139 531.787 66.5179C539.411 68.9339 541.714 58.9109 545.734 55.4299C547.005 54.3299 550.541 53.4899 550.8 52.4859C551.281 50.6199 547.693 49.3599 546.288 49.4229Z" fill="black"/>
<path d="M551.552 102.244C547.382 98.379 532.689 106.618 532.83 110.506C533.009 115.457 543.714 107.953 544.787 107.482C546.689 106.646 555.973 106.343 551.552 102.244Z" fill="black"/>
<path d="M340.809 645.985C341.337 646.818 347.76 647.119 349.304 647.014C358.97 646.36 351.206 640.535 343.303 642.003C341.293 642.376 339.775 644.353 340.809 645.985Z" fill="black"/>
<path d="M83.3053 673C80.4863 673.828 81.3783 678 85.3053 678H101.305C105.697 678 102.728 673 101.305 673C97.3663 673 86.0353 672.198 83.3053 673Z" fill="black"/>
<path d="M232.305 687C233.514 686.658 234.367 683.865 233.801 683.012C233.131 682.001 214.057 680.244 212.809 684.515C212.434 685.364 213.999 687 214.304 687C218.338 687 229.426 687.814 232.304 687H232.305Z" fill="black"/>
<path d="M248.805 682C248.622 684.191 248.491 684.699 250.528 685.777C253.206 687.194 268.651 687.727 269.801 685.988C270.364 685.137 269.324 682 268.305 682H248.805Z" fill="black"/>
<path d="M267.305 677C268.334 676.709 269.152 675.28 268.336 673.971C266.462 670.963 249.88 671.731 248.804 673.01C248.203 673.725 249.291 677 250.305 677C254.151 677 264.557 677.778 267.305 677Z" fill="black"/>
<path d="M211.805 681L211.791 677.028C208.189 677.182 195.001 673.359 192.805 676.015C191.316 677.815 195.758 681 196.305 681H211.805Z" fill="black"/>
<path d="M282.808 683.015C282.511 683.482 282.737 685.358 283.25 686.055C284.233 687.392 299.914 688.278 302.803 686.993C306.547 682.776 284.285 680.694 282.808 683.015Z" fill="black"/>
<path d="M140.305 682C139.096 682.342 138.243 685.135 138.809 685.988C139.662 687.275 157.857 688.33 157.786 684.499C157.783 684.323 155.481 681.999 155.305 681.999C151.838 681.999 142.795 681.295 140.305 682Z" fill="black"/>
<path d="M237.805 677C238.313 676.498 237.853 674.447 236.77 673.535C234.375 671.519 219.339 670.981 218.811 673.515C218.351 674.899 221.843 677 222.306 677C224.618 677 237.255 677.545 237.806 677H237.805Z" fill="black"/>
<path d="M122.305 687C124.766 686.389 122.904 683.669 121.101 683.204C118.689 682.582 104.021 681.737 102.801 683.006C102.209 683.621 103.263 687 104.306 687C108.664 687 118.927 687.839 122.306 687H122.305Z" fill="black"/>
<path d="M331.747 685.928C333.979 682.304 324.912 681.069 322.248 680.973C320.725 680.918 312.821 681.851 312.824 683.5C312.83 686.479 330.512 687.932 331.746 685.928H331.747Z" fill="black"/>
<path d="M134.305 678C135.507 677.67 136.556 675.768 134.792 674.513C131.842 672.415 120.937 672.616 117.788 674.482C115.907 675.596 119.099 677.999 119.306 677.999C122.837 677.999 131.715 678.709 134.306 677.999L134.305 678Z" fill="black"/>
<path d="M64.8053 677C66.2483 670.841 49.8903 671.816 46.7883 673.483C44.8643 674.517 48.0983 677 48.3053 677H64.8053Z" fill="black"/>
<path d="M175.305 677C177.118 676.723 179.056 674.306 177.81 673.007C176.523 671.664 159.504 673.03 158.81 674.011C158.24 674.816 159.772 677.001 160.305 677.001C164.731 677.001 171.266 677.618 175.305 677Z" fill="black"/>
<path d="M334.086 672.22C330.297 671.366 323.604 671.332 320.825 674.5C320.825 677.36 333.017 677.399 335.298 676.993C339.71 676.208 337.605 673.014 334.086 672.22Z" fill="black"/>
<path d="M390.81 667.994C391.04 667.746 390.902 665.685 390.361 664.944C389.216 663.375 374.292 663.239 373.811 665.515C372.989 669.405 389.678 669.216 390.81 667.994Z" fill="black"/>
<path d="M65.8047 682V686H83.8047C84.4897 684.105 83.1607 682 81.3047 682H65.8047Z" fill="black"/>
<path d="M351.8 653.004C349.537 659.203 367.266 658.013 367.799 655.485C368.802 650.729 354.418 652.443 351.8 653.004Z" fill="black"/>
<path d="M305.8 674.011C305.085 672.999 288.817 671.328 289.809 675.486C290.746 679.414 309.144 678.744 305.8 674.011Z" fill="black"/>
<path d="M190.86 655.071C187.951 659.728 200.766 659.461 203.305 658.999C205.596 658.582 207.024 656.246 205.217 654.935C203.297 653.543 191.766 653.62 190.86 655.071Z" fill="black"/>
<path d="M187.06 682.247C180.288 681.07 169.426 685.241 178.331 686.972C185.738 688.412 198.136 684.171 187.06 682.247Z" fill="black"/>
<path d="M203.305 668C204.074 667.78 205.333 665.76 204.8 665.01C203.989 663.87 190.441 663.537 188.464 664.159C185.674 665.036 187.281 668 188.305 668C191.747 668 200.856 668.702 203.305 668Z" fill="black"/>
<path d="M341.809 682.011C338.616 686.53 355.498 687.046 356.8 684.985C360.382 679.318 342.787 680.626 341.809 682.011Z" fill="black"/>
<path d="M33.805 682C33.547 682.265 33.536 684.458 34.393 685.088C36.365 686.538 51.836 686.731 51.785 684.5C51.781 684.324 49.481 682 49.305 682C47.084 682 34.346 681.445 33.805 682Z" fill="black"/>
<path d="M342.81 662.005C340.939 668.633 357.254 667.986 357.799 665.485C355.626 659.843 347.439 662.615 342.81 662.005Z" fill="black"/>
<path d="M29.8596 645.071C26.4986 650.453 43.7816 649.43 44.7996 647.989C47.9516 643.528 31.2436 642.855 29.8596 645.071Z" fill="black"/>
<path d="M41.8008 665.015C41.1928 664.062 25.8158 662.317 26.8098 666.486C27.5848 669.737 45.4628 670.753 41.8008 665.015Z" fill="black"/>
<path d="M354.804 675.99C355.346 676.658 370.827 678.817 369.801 674.514C368.944 670.921 350.53 670.714 354.804 675.99Z" fill="black"/>
<path d="M34.8101 676.996C35.7051 673.616 33.3331 673.467 30.1991 673.119C9.3751 670.809 22.3771 679.992 34.8101 676.996Z" fill="black"/>
<path d="M0.804596 668H14.8046L14.8096 664.004C10.3406 664.903 -2.2164 661.163 0.804596 668Z" fill="black"/>
<path d="M184.809 647.985C185.662 649.334 197.84 649.933 197.785 646.5C197.732 643.215 181.262 642.379 184.809 647.985Z" fill="black"/>
<path d="M26.8092 658.995C28.8332 658.753 39.8252 659.949 39.7852 657.5C39.7352 654.478 24.8162 652.617 26.8092 658.995Z" fill="black"/>
<path d="M220.784 662H335.826V655.952H220.784V662Z" fill="white"/>
<path d="M354.8 227.995L343.218 205.087C341.33 202.956 333.259 195.201 333.872 192.604C334.124 191.538 337.075 189.925 338.175 190.14C340.937 190.68 342.909 200.723 352.262 198.989C362.669 197.059 349.697 178.583 339.236 178.076C319.611 177.124 323.188 200.064 332.293 211.013C334.426 213.578 339.885 217.01 340.881 218.425C342.251 220.37 341.295 223.009 342.772 224.534C343.826 225.622 353.96 228.745 354.8 227.995Z" fill="white"/>
<path d="M366.046 213.758C372.081 219.506 387.8 209.98 388.8 210.994L390.29 214.991C392.764 212.803 397.315 207.412 396.385 203.964C392.989 191.375 357.533 205.65 366.046 213.758Z" fill="white"/>
<path d="M359.805 200.99C362.124 204.119 370.744 197.674 373.816 196.512C380.212 194.093 385.974 193.556 392.809 193.998C395.234 177.473 367.343 186.06 362.752 192.448C362.271 193.117 359.536 200.627 359.805 200.99Z" fill="white"/>
<path d="M385.809 178.996C383.489 162.218 362.588 173.788 354.823 180.499L360.373 186.986C368.053 182.454 376.717 178.607 385.808 178.995L385.809 178.996Z" fill="white"/>
<path d="M373.805 165.99C373.023 159.515 359.623 161.43 355.331 163.026C351.918 164.296 342.543 172.705 348.084 175.27C352.606 177.364 354.728 172.785 358.272 170.967C362.928 168.579 368.465 165.784 373.805 165.99Z" fill="white"/>
<path d="M446.775 14.53C470.512 42.097 493.527 113.61 487.53 149.226C485.599 160.696 481.759 171.325 468.29 171.068C457.387 170.86 455.524 162.066 448.208 161.114C425.944 158.215 401.295 160.603 378.766 160.468C376.604 166.839 384.96 165.98 388.262 170.043C391.174 173.627 389.982 176.89 391.326 179.979C392.775 183.31 397.477 183.56 397.855 190.54C397.948 192.262 396.823 194.181 397.038 195.385C397.403 197.43 402.008 199.82 401.857 205.456C401.641 213.508 393.604 216.517 392.352 219.947C391.941 221.073 393.056 222.952 392.417 225.03C391.783 227.089 389.288 228.107 388.826 230.521C388.162 233.99 389.198 238.722 388.792 242.487C385.35 274.396 368.27 305.757 339.476 321.171C314.763 334.401 286.97 332.733 260.81 325.003C260.826 353.69 268.04 382.777 266.792 411.487C264.536 463.367 267.849 515.437 269.846 567.459C270.437 582.848 268.94 598.364 272.393 613.551C272.115 615.347 263.85 621.872 262.04 623.69C259.163 626.582 261.802 628.784 265.104 627.839C270.518 626.29 276.362 609.062 283.8 621.48L272.823 631.5C277.156 638.22 284.03 626.204 287.839 624.462C290.373 623.303 296.412 626.258 295.856 629.46C295.732 630.174 282.686 636.791 286.792 639.513C295.788 641.285 297.637 625.927 307.158 633.149C312.651 637.315 298.564 639.278 301.792 644.513C305.986 647.294 311.044 638.303 314.342 637.967C317.546 637.641 333.998 648.269 336.268 651.039C338.398 653.638 341.385 661.961 339.63 664.833C337.524 668.278 316.224 666.777 311.265 666.959C284.803 667.93 250.246 670.459 224.265 668.041C221.101 667.747 217.824 667.089 215.288 665.018L210.228 468.116L169.801 468.995L174.88 664.574C173.097 666.336 170.871 667.158 168.354 667.048C131.596 664.458 90.4917 670.324 54.2547 667.053C42.6927 666.009 44.6287 657.64 50.8047 650.786C53.3547 647.956 65.5027 640.14 69.0907 638.767C76.2607 636.022 81.2427 646.743 84.8087 644.506C89.5527 641.53 78.2737 636.65 77.8107 635.981C76.7887 634.503 81.6067 630.956 82.8637 630.511C89.4977 628.161 96.1737 641.061 100.288 639.999C107.234 638.206 91.0327 628.38 90.8057 627.489C97.5057 614.35 106.186 634.921 111.281 634.005C117.477 632.891 103.65 621.348 101.824 620.501C108.251 612.463 113.094 619.583 119.181 624.17C120.239 624.967 120.754 626.874 121.463 627.042C122.758 627.349 125.536 626.798 125.8 625.485C126.42 622.392 114.603 616.118 113.31 613.996C111.296 610.692 113.944 603.413 113.891 599.505C113.687 584.443 111.154 568.672 110.763 553.542C109.755 514.576 112.736 473.036 109.843 434.462C109.228 426.256 105.376 419.133 104.768 411.537C103.806 399.52 106.557 382.932 106.845 370.542L107.339 317.001C106.268 315.413 104.281 317.148 103.119 317.817C85.2607 328.114 73.5037 353.585 71.9327 373.629C71.2437 382.424 72.6827 402.227 76.0117 410.293C79.0767 417.72 91.7487 419.122 93.7387 431.558C94.9907 439.384 91.2087 441.176 90.7537 446.504C90.2157 452.791 92.8837 456.26 90.3027 463.996C87.3347 472.893 84.4417 470.647 77.8947 473.589C75.8347 474.515 74.1377 477.216 71.0557 477.795C67.3867 478.485 64.7857 476.761 61.3397 476.947C58.2047 477.117 55.8227 479.206 52.4217 478.965C49.6027 478.766 46.3007 476.494 43.2187 476.085C38.1757 475.415 33.1347 476.885 28.0707 475.233C19.5987 472.471 14.3567 462.882 20.3277 455.025C21.8277 453.052 25.7847 452.005 25.8387 451.431C26.0107 449.589 23.1017 443.545 22.8017 440.512C22.3087 435.524 24.3267 430.739 23.7707 426.584C23.2317 422.56 20.0347 415.823 19.0817 411.223C12.2587 378.291 19.2917 339.373 37.3887 311.084C60.0257 275.699 103.153 253.917 144.8 252.995C146.456 251.519 135.945 244.601 134.791 243.514C109.246 219.465 103.008 185.022 95.6637 152.14C75.4397 155.624 55.1097 139.706 63.7677 118.462C67.4177 109.506 77.5767 107.541 78.6427 105.841C79.3857 104.655 78.5227 99.679 78.8207 97.511C81.7357 76.269 94.8317 62.764 112.5 52.194C149.493 30.063 209.591 23.025 246.137 49.168C248.651 50.966 255.375 57.838 256.821 58.484C259.493 59.678 265.424 59.06 269.777 60.528C287.415 66.48 295.743 90.809 283.813 105.505L285.29 105.987C320.275 86.057 353.996 65.434 385.279 39.971C389.272 36.721 404.367 25.087 406.266 21.958C409.078 17.321 408.387 10.093 413.144 5.33598C424.206 -5.72502 438.998 5.49397 446.778 14.529L446.775 14.53ZM136.391 89.087C147.651 74.42 173.808 67.761 190.109 77.196C192.495 78.577 197.552 84.064 198.293 84.062C199.461 84.059 202.937 80.716 205.109 79.803C212.137 76.85 218.516 77.903 225.338 80.774C231.171 67.843 235.887 64.997 248.428 60.096C249.13 59.822 250.525 60.268 249.796 58.514C247.394 52.736 224.257 42.264 217.815 40.49C180.142 30.115 98.3357 45.798 87.2577 89.955C86.5127 92.924 84.7867 104.843 88.4207 105.934C89.3807 106.222 102.525 104.09 104.989 103.685C108.393 103.125 130.573 98.687 131.565 97.754C132.372 96.995 134.751 91.223 136.391 89.087ZM396.155 48.218C392.774 48.28 364.15 73.998 357.918 76.655C357.068 79.131 358.764 81.501 361.299 81.59C365.231 81.729 384.226 67.349 388.277 63.972C391.459 61.319 402.762 53.49 398.552 49.259C398.083 48.788 396.783 48.206 396.156 48.217L396.155 48.218ZM431.788 99.517C433.43 104.259 436.702 114.461 439.019 118.285C441.293 122.039 445.714 115.968 447.633 113.328C462.751 92.522 448.23 62.45 421.809 64.007C424.865 75.874 427.772 87.926 431.788 99.517ZM251.802 111.996L258.909 111.382L273.653 72.251C274.192 68.474 270.104 67.353 266.901 68.111L251.802 111.997V111.996ZM165.809 129.994C168.447 130.033 172.051 129.637 173.712 127.408C174.897 121.547 189.165 86.867 187.619 84.193C187.29 83.624 182.627 81.419 181.817 82.006L165.809 129.995V129.994ZM334.954 90.688C331.514 102.291 356.729 86.803 347.196 84.049C345.37 83.522 335.548 88.683 334.954 90.688ZM234.647 121.26C233.929 125.316 229.461 126.856 226.028 127.722C223.485 128.364 210.149 130.3 208.536 129.836C207.806 129.626 205.926 128.016 205.811 127.485C204.711 122.404 227.765 124.833 227.82 119.55C227.878 113.907 212.177 94.33 210.684 87.123C208.364 86.519 206.034 87.493 204.284 88.976C200.316 92.336 203.598 94.597 203.813 98.497C204.832 116.922 195.363 128.527 178.024 133.719C155.627 140.426 134.555 134.305 130.804 108.995L113.88 112.07C116.375 136.152 126.847 165.974 156.294 162.988C170.504 161.547 175.432 147.35 186.076 139.77C200.345 129.608 220.682 128.295 236.787 134.518C238.739 135.272 250.151 141.715 250.8 140.995C250.675 136.065 250.772 130.707 252.274 125.969C253.432 122.316 255.901 120.449 256.8 117.005C244.914 118.523 235.721 112.203 229.998 102.306C225.912 95.239 227.092 86.662 216.805 86.009C219.13 93.716 235.834 114.55 234.646 121.259L234.647 121.26ZM86.5787 147.922C97.0327 147.922 105.507 139.448 105.507 128.994C105.507 118.54 97.0327 110.066 86.5787 110.066C76.1247 110.066 67.6507 118.54 67.6507 128.994C67.6507 139.448 76.1247 147.922 86.5787 147.922ZM263.099 129.853C264.115 129.781 273.026 126.458 274.093 125.789C276.914 124.021 276.675 121.12 273.068 121.734C271.693 121.968 261.201 125.508 260.848 126.052C260.055 127.275 261.082 129.995 263.099 129.853ZM278.799 135.515C278.049 131.946 266.691 136.207 264.533 137.229C263.23 137.846 258.755 139.958 260.81 141.995C261.931 143.106 279.437 138.55 278.799 135.515ZM231.785 141.5C221.935 136.358 207.249 138.854 198.095 144.757C197.109 145.393 196.319 144.641 196.805 147C203.069 146.524 210.154 147.651 216.305 147C218.495 146.768 231.77 143.298 231.785 141.5ZM268.05 153.832C269.219 153.688 281.234 150.435 281.687 149.888C282.185 149.287 281.624 147.084 281.805 146.005C281.132 145.307 265.367 149.337 264.803 150.01C263.704 151.321 265.176 154.185 268.049 153.831L268.05 153.832ZM109.268 147.981C108.048 149.705 110.908 157.507 113.27 156.983C117.399 156.066 114.415 147.758 112.21 147.089C110.94 146.704 110.08 146.927 109.268 147.981ZM256.294 165.991C258.941 165.197 256.095 156.449 255.694 156.117C255.094 155.62 252.89 156.185 251.81 155.997C251.486 158.582 251.98 167.286 256.294 165.991ZM274.233 164.984C275.839 165.007 287.792 160.629 287.785 159.5C287.231 155.542 272.288 160.301 271.813 161.02C270.966 162.3 272.164 164.954 274.233 164.984ZM203.863 159.442C200.53 158.741 189.823 157.342 187.376 159.077C184.64 161.017 184.951 173.797 188.482 174.894C192.112 176.021 211.949 166.529 217.801 167.995C220.878 165.445 205.368 159.759 203.864 159.442H203.863ZM355.331 163.026C351.918 164.296 342.543 172.705 348.084 175.27C352.606 177.364 354.728 172.785 358.272 170.967C362.928 168.579 368.464 165.784 373.804 165.99C373.022 159.515 359.623 161.43 355.331 163.026ZM119.262 162.041C113.644 160.241 117.262 172.635 117.819 172.996C122.889 176.28 122.711 163.145 119.262 162.041ZM107.32 163.005C104.361 164.517 106.766 175.378 108.049 176.747C115.179 184.355 112.437 161.919 107.32 163.005ZM174.544 175.74C176.25 178.523 178.955 176.985 178.404 173.969C177.785 170.577 176.141 164.22 171.81 166.004C170.863 166.912 173.645 174.275 174.544 175.74ZM289.842 191.545C288.843 215.653 274.621 241.127 254.109 253.804C249.152 256.868 243.308 258.488 238.807 261.988C262.97 271.779 287.583 289.368 314.108 274.803C330.304 265.91 340.192 241.372 336.783 223.522C336.075 219.817 331.068 217.95 328.813 215.491C322.111 208.182 315.995 192.738 320.591 183.287C323.776 176.737 330.863 178.012 322.86 167.475L288.854 173.046C288.43 179.396 290.108 185.1 289.841 191.544L289.842 191.545ZM131.264 176.983C135.369 176.073 132.653 168.93 130.292 167.003C126.087 166.048 127.618 177.791 131.264 176.983ZM354.823 180.499L360.373 186.986C368.053 182.454 376.717 178.607 385.808 178.995C383.488 162.217 362.587 173.787 354.822 180.498L354.823 180.499ZM162.26 171.043C156.996 169.353 159.706 179.063 161.02 180.759C165.278 186.254 166.159 172.294 162.26 171.043ZM263.318 173.007C260.416 173.665 264.268 184.418 267.795 181.997C269.189 181.04 267.657 172.023 263.318 173.007ZM147.292 173.003C143.425 172.584 145.082 180.505 145.819 180.996C149.79 183.638 151.309 174.993 147.292 173.003ZM255.288 182.998C258.557 182.082 254.979 174.639 253.209 174.089C247.311 172.255 250.522 184.333 255.288 182.998ZM343.218 205.086C341.33 202.955 333.259 195.2 333.872 192.603C334.124 191.537 337.075 189.924 338.175 190.139C340.937 190.679 342.909 200.722 352.262 198.988C362.669 197.058 349.697 178.582 339.236 178.075C319.611 177.123 323.188 200.063 332.293 211.012C334.426 213.577 339.885 217.009 340.881 218.424C342.251 220.369 341.295 223.008 342.772 224.533C343.826 225.621 353.96 228.745 354.8 227.995L343.218 205.086ZM224.8 188.995C226.145 185.57 220.354 174.685 216.81 178.005C216.19 178.586 219.912 191.988 224.8 188.995ZM140.749 189.555C146.893 194.118 145.348 174.453 139.815 178.003C139.019 178.514 139.568 188.677 140.749 189.555ZM192.795 183.485L192.801 182.011L188.81 181.005C188.306 184.218 190.534 186.592 192.795 183.485ZM118.796 191.998C121.096 188.953 116.607 177.11 112.889 182.108C111.82 183.546 114.385 193.998 118.796 191.998ZM373.816 196.511C380.212 194.092 385.974 193.555 392.809 193.997C395.234 177.472 367.343 186.059 362.752 192.447C362.271 193.116 359.535 200.626 359.804 200.989C362.123 204.118 370.744 197.673 373.816 196.511ZM239.292 193.993C242.207 193.208 238.925 185.607 237.205 185.093C231.366 183.345 235.07 195.13 239.292 193.993ZM175.726 192.376C176.036 191.26 174.527 185.373 173.297 185.008C168.122 183.474 170.109 193.314 170.859 193.947C171.576 194.552 175.242 194.117 175.726 192.376ZM280.825 198.545C283.868 197.221 283.854 187.653 280.29 186.005C276.65 185.445 277.522 197.279 277.902 197.884C278.035 198.097 280.276 198.784 280.825 198.545ZM206.292 195.993C210.712 194.715 203.544 182.495 199.802 187.01C199.427 187.462 203.23 197.447 206.292 195.993ZM132.294 196.991C135.743 195.599 131.845 186.355 130.292 186.003C126.051 185.044 127.434 198.505 132.294 196.991ZM155.855 194.952C166.155 196.442 157.331 184.327 154.81 187.005L155.855 194.952ZM186.295 199.99C189.459 198.998 186.563 189.475 184.29 189.005C180.068 188.132 181.71 201.428 186.295 199.99ZM255.8 203.004C255.767 198.633 256.564 193.433 253.31 190.019C252.859 190.954 251.125 190.825 250.899 191.11C249.994 192.248 249.542 206.302 255.801 203.005L255.8 203.004ZM265.294 191.265C261.084 191.905 263.491 205.707 267.79 202.996C269.169 202.126 269.839 190.575 265.294 191.265ZM152.295 203.991C155.242 203.059 153.443 193.741 151.27 193.033C145.552 191.169 147.423 205.533 152.295 203.991ZM168.29 208.995C172.825 206.821 171.404 193.727 165.946 197.141C164.389 198.115 165.114 209.668 168.29 208.995ZM232.292 206.994C235.729 206.004 231.556 198.303 230.293 198.003C226.162 197.021 227.399 208.404 232.292 206.994ZM220.813 206.551C220.823 204.687 217.249 197.148 214.317 198.007C211.084 198.954 215.427 208.558 215.925 208.861C217.468 209.8 220.801 208.932 220.813 206.551ZM388.8 210.994L390.29 214.991C392.764 212.803 397.315 207.412 396.385 203.964C392.989 191.375 357.533 205.65 366.046 213.758C372.081 219.506 387.8 209.98 388.8 210.994ZM117.203 203.052C117.671 204.973 122.968 210.581 125.288 209.999C129.66 208.902 121.693 200.332 120.167 200.081C118.957 199.882 116.874 201.701 117.203 203.052ZM199.296 210.991C203.594 209.175 198.171 198.723 194.811 202.005C194.42 202.386 195.565 212.568 199.296 210.991ZM145.286 215.997C148.439 215.104 144.642 205.485 143.266 205.036C137.309 203.096 140.177 217.443 145.286 215.997ZM274.43 215.936C278.199 216.601 279.188 206.926 276.295 206.009C272.058 204.665 270.553 215.252 274.43 215.936ZM242.292 216.993C245.644 215.985 242.679 208.564 240.186 208.061C235.2 207.056 237.834 218.333 242.292 216.993ZM176.74 216.413C180.162 221.107 184.845 205.934 175.809 207.997L176.74 216.413ZM255.978 214.141C253.898 215.657 253.931 224.964 259.257 224.031C262.553 220.062 259.965 217.458 258.805 214C259.851 213.682 261.291 214.557 261.351 212.027C261.423 209.001 256.477 207.062 258.805 214C258.13 214.205 256.728 213.595 255.978 214.141ZM211.305 220.981C216.358 218.162 212.342 207.589 206.893 211.102C205.54 212.953 209.27 219.677 211.305 220.981ZM164.012 215.294C162.522 211.536 160.977 210.199 156.81 211.005C155.648 217.157 167.491 224.066 164.012 215.294ZM225.317 216.007C221.87 217.054 226.365 226.63 226.86 226.959C232.842 230.937 231.048 214.266 225.317 216.007ZM143.314 236.034C144.832 232.548 133.264 217.012 129.322 218.001C124.188 219.289 134.786 228.323 135.644 229.661C136.946 231.693 138.457 237.734 138.819 237.995C139.803 238.705 142.755 237.319 143.314 236.034ZM193.296 219.008C187.217 217.056 191.213 230.597 191.818 230.997C197.299 234.625 195.919 219.881 193.296 219.008ZM267.316 229.991C271.108 231.127 273.99 220.702 271.289 220.002C266.81 218.842 264.325 229.095 267.316 229.991ZM156.183 231.941C161.187 231.049 156.128 222.706 154.198 222.099C147.715 220.059 152.854 232.534 156.183 231.941ZM176.288 232.998C179.637 232.155 174.43 223.412 173.182 223.131C172.819 223.049 169.929 223.896 169.826 224.036C168.819 225.402 172.924 234.241 176.288 232.998ZM243.319 225.005C238.879 226.868 240.299 238.84 244.789 235.996C245.477 235.56 247.581 224.705 243.319 225.005ZM204.854 226.57C204.479 228.203 209.181 241.853 212.341 234.969C212.868 233.82 210.375 225.558 209.719 225.095C208.749 224.411 205.209 225.021 204.854 226.569V226.57ZM256.321 243.998C261.403 245.326 263.927 232.997 259.29 232.005C256.724 231.456 253.741 243.324 256.321 243.998ZM227.292 243.993C230.986 242.883 226.792 233.839 224.15 233.139C217.861 231.474 223.565 245.113 227.292 243.993ZM184.92 243.865C186.645 244.936 190.172 244.058 189.371 240.958C188.57 237.858 185.739 232.664 181.809 234.004C180.707 235.501 184.423 243.557 184.919 243.865H184.92ZM173.288 242.999C176.784 242.122 172.368 235.755 170.133 235.155C163.499 233.374 168.753 244.136 173.288 242.999ZM146.809 238.516C146.316 240.806 153.981 246.411 156.8 244.994C159.051 240.627 147.781 234.002 146.809 238.516ZM245.314 249.991C250.26 251.563 249.665 239.841 248.799 238.995C245.113 235.395 241.066 248.641 245.314 249.991ZM202.294 247.991C205.694 246.934 202.664 236.525 197.81 239C197.529 241.499 198.263 249.245 202.294 247.991ZM165.27 245.964C163.028 248.874 168.541 254.727 171.288 253.999C174.998 253.016 170.2 245.694 168.158 245.129C166.855 244.768 166.111 244.866 165.27 245.964ZM232.42 255.947C237.37 256.742 234.829 246.733 233.788 246.009C228.88 242.59 227.845 255.213 232.42 255.947ZM219.64 254.681C219.545 253.508 216.101 246.627 214.343 247.018C210.281 247.922 213.362 254.966 215.056 256.733C216.908 258.665 219.828 257.003 219.64 254.68V254.681ZM185.289 258.996C189.069 258.226 184.989 249.532 182.164 249.084C175.97 248.102 182.073 259.652 185.289 258.996ZM200.292 261.994C204.154 260.839 199.796 252.518 197.162 252.084C191.084 251.083 196.143 263.236 200.292 261.994ZM222.798 265.493C209.728 265.77 197.854 267.595 184.576 265.728C176.506 264.594 168.69 261.879 160.805 260.009C174.291 278.133 207.632 284.246 222.798 265.493ZM24.9137 467.391C25.8127 468.839 29.3017 470.833 30.9737 471.322C42.9987 474.836 45.8677 464.985 44.7997 454.996C51.0897 453.149 51.3147 459.253 50.7237 464.402C50.2297 468.702 43.5877 475.238 50.1847 474.974C61.6217 474.516 60.5857 458.892 58.8077 451.005C69.2277 449.1 66.1967 466.83 63.8077 472.994C73.0957 474.455 74.4847 466.614 74.2427 459.164C74.1297 455.691 70.2587 444.655 77.2057 447.078C79.0067 447.706 80.7567 458.46 80.8357 460.552C80.8837 461.832 78.3597 469.174 81.2887 467.99C87.5967 465.441 85.7217 448.512 84.1037 443.199C83.1247 439.985 79.1167 434.376 79.7237 431.641C79.9527 430.61 82.6447 429.987 83.7687 430.455C85.9277 431.354 86.4987 435.13 88.7927 435.999C89.0597 431.81 85.7737 426.317 82.8387 423.464C81.6827 422.34 71.2807 415.215 70.2827 415.023C62.8697 413.598 47.2567 417.828 40.1227 420.819C38.6257 421.447 31.3527 424.86 30.7917 425.488C28.6817 427.845 28.4427 439.097 28.8887 442.414C29.5057 447.006 37.8927 464.943 31.1007 466.851C25.2307 468.5 26.3577 461.596 26.7977 458.004C22.3357 457.906 23.3717 464.909 24.9127 467.39L24.9137 467.391ZM112.381 423.015C141.688 422.601 171.041 423.5 200.346 423.041C216.427 422.789 234.333 423.35 250.34 422.035C251.832 421.912 258.797 420.996 258.784 419.5C255.184 415.509 251.229 418.038 247.343 418.047C202.137 418.154 156.981 418.553 111.8 419.004L112.381 423.014V423.015ZM121.254 599.051C128.658 599.928 138.524 598.758 146.346 598.959C151.167 599.083 168.313 603.473 166.298 595.994C150.09 595.515 134.055 594.408 117.809 596.005C117.524 598.6 119.243 598.812 121.253 599.05L121.254 599.051ZM264.305 601C266.027 601 266.029 597 264.305 597H223.305C220.376 597 218.139 597.45 218.805 601H264.305ZM122.305 611H166.305C167.689 611 168.373 608.525 166.343 606.936C163.889 605.016 163.132 607 162.305 607H117.805C115.757 609.128 120.444 611 122.305 611ZM231.352 614.048C241.721 613.819 252.816 611.767 263.301 611.995C264.622 611.921 266.098 610.933 265.8 609.514C265.07 606.041 250.992 608.908 248.295 608.989C238.42 609.284 228.64 608.845 218.81 610.004C219.221 614.503 227.867 614.125 231.352 614.048ZM220.784 655.952V662H335.826V655.952H220.784ZM50.7617 657.991L50.8057 662.592L169.849 661.445L169.805 656.844L50.7617 657.991Z" fill="black"/>
<path d="M26.7989 458.005C22.3369 457.907 23.3729 464.91 24.9139 467.391C25.8129 468.839 29.3019 470.833 30.9739 471.322C42.9989 474.836 45.8679 464.985 44.7999 454.996C51.0899 453.149 51.3149 459.253 50.7239 464.402C50.2299 468.702 43.5879 475.238 50.1849 474.974C61.6219 474.516 60.5859 458.892 58.8079 451.005C69.2279 449.1 66.1969 466.83 63.8079 472.994C73.0959 474.455 74.4849 466.614 74.2429 459.164C74.1299 455.691 70.2589 444.655 77.2059 447.078C79.0069 447.706 80.7569 458.46 80.8359 460.552C80.8839 461.832 78.3599 469.174 81.2889 467.99C87.5969 465.441 85.7219 448.512 84.1039 443.199C83.1249 439.985 79.1169 434.376 79.7239 431.641C79.9529 430.61 82.6449 429.987 83.7689 430.455C85.9279 431.354 86.4989 435.13 88.7929 435.999C89.0599 431.81 85.7739 426.317 82.8389 423.464C81.6829 422.34 71.2809 415.215 70.2829 415.023C62.8699 413.598 47.2569 417.828 40.1229 420.819C38.6259 421.447 31.3529 424.86 30.7919 425.488C28.6819 427.845 28.4429 439.097 28.8889 442.414C29.5059 447.006 37.8929 464.943 31.1009 466.851C25.2309 468.5 26.3579 461.596 26.7979 458.004L26.7989 458.005Z" fill="white"/>
<path d="M111.8 419.005L112.381 423.015C141.688 422.601 171.041 423.5 200.346 423.041C216.427 422.789 234.333 423.35 250.34 422.035C251.832 421.912 258.797 420.996 258.784 419.5C255.184 415.509 251.229 418.038 247.343 418.047C202.137 418.154 156.981 418.554 111.8 419.005Z" fill="white"/>
<path d="M169.848 661.443L169.804 656.841L50.7602 657.988L50.8045 662.59L169.848 661.443Z" fill="white"/>
<path d="M117.805 607C115.757 609.128 120.444 611 122.305 611H166.305C167.689 611 168.373 608.525 166.343 606.936C163.889 605.016 163.132 607 162.305 607H117.805Z" fill="white"/>
<path d="M218.81 610.005C219.221 614.504 227.867 614.125 231.352 614.048C241.721 613.819 252.816 611.767 263.301 611.995C264.622 611.921 266.098 610.933 265.8 609.514C265.07 606.041 250.992 608.908 248.295 608.989C238.42 609.284 228.64 608.846 218.81 610.005Z" fill="white"/>
<path d="M218.805 601H264.305C266.027 601 266.029 597 264.305 597H223.305C220.376 597 218.139 597.45 218.805 601Z" fill="white"/>
<path d="M117.81 596.005C117.525 598.6 119.244 598.812 121.254 599.05C128.658 599.927 138.524 598.757 146.346 598.958C151.167 599.082 168.313 603.472 166.298 595.993C150.09 595.514 134.055 594.407 117.809 596.004L117.81 596.005Z" fill="white"/>
<path d="M131.565 97.754C132.372 96.995 134.751 91.223 136.391 89.087C147.651 74.42 173.808 67.761 190.109 77.196C192.495 78.577 197.552 84.064 198.293 84.062C199.461 84.059 202.937 80.716 205.109 79.803C212.137 76.85 218.516 77.9029 225.338 80.7739C231.171 67.8429 235.887 64.997 248.428 60.096C249.13 59.822 250.525 60.268 249.796 58.514C247.394 52.736 224.257 42.2639 217.815 40.4899C180.142 30.1149 98.3356 45.7979 87.2576 89.9549C86.5126 92.9239 84.7866 104.843 88.4206 105.934C89.3806 106.222 102.525 104.09 104.989 103.685C108.393 103.125 130.573 98.687 131.565 97.754Z" fill="white"/>
<path d="M216.805 86.01C219.13 93.717 235.834 114.551 234.646 121.26C233.928 125.316 229.46 126.856 226.027 127.722C223.484 128.364 210.148 130.3 208.535 129.836C207.805 129.626 205.925 128.016 205.81 127.485C204.71 122.404 227.764 124.833 227.819 119.55C227.877 113.907 212.176 94.33 210.683 87.123C208.363 86.519 206.033 87.493 204.283 88.976C200.315 92.336 203.597 94.597 203.812 98.497C204.831 116.922 195.362 128.527 178.023 133.719C155.626 140.426 134.554 134.305 130.803 108.995L113.879 112.07C116.374 136.152 126.846 165.974 156.293 162.988C170.503 161.547 175.431 147.35 186.075 139.77C200.344 129.608 220.681 128.295 236.786 134.518C238.738 135.272 250.15 141.715 250.799 140.995C250.674 136.065 250.771 130.707 252.273 125.969C253.431 122.316 255.9 120.449 256.799 117.005C244.913 118.523 235.72 112.203 229.997 102.306C225.911 95.239 227.091 86.662 216.804 86.009L216.805 86.01Z" fill="white"/>
<path d="M86.5794 110.065C97.0334 110.065 105.507 118.539 105.507 128.993C105.507 139.447 97.0334 147.921 86.5794 147.921C76.1254 147.921 67.6514 139.447 67.6514 128.993C67.6514 118.539 76.1254 110.065 86.5794 110.065ZM87.7564 128.609C88.3054 131.739 75.9814 134.351 82.8364 137.532C86.6964 139.324 88.5414 134.703 90.8714 133.534C91.8704 133.033 95.4104 133.571 95.7984 132.994C98.6564 128.756 83.7684 118.12 80.8104 121.005C77.9844 123.761 87.3934 126.538 87.7564 128.609Z" fill="white"/>
<path d="M160.805 260.01C174.291 278.134 207.632 284.247 222.798 265.494C209.728 265.771 197.854 267.596 184.576 265.729C176.506 264.595 168.69 261.88 160.805 260.01Z" fill="white"/>
<path d="M217.8 167.995C220.877 165.445 205.367 159.759 203.863 159.442C200.53 158.741 189.823 157.342 187.376 159.077C184.64 161.017 184.951 173.797 188.482 174.894C192.112 176.021 211.949 166.529 217.801 167.995H217.8Z" fill="white"/>
<path d="M181.817 82.0049L165.809 129.994C168.447 130.033 172.051 129.637 173.712 127.408C174.897 121.547 189.165 86.8669 187.619 84.1929C187.29 83.6239 182.627 81.419 181.817 82.006V82.0049Z" fill="white"/>
<path d="M266.901 68.11L251.802 111.996L258.909 111.382L273.653 72.251C274.192 68.474 270.104 67.353 266.901 68.111V68.11Z" fill="white"/>
<path d="M216.305 147C218.495 146.768 231.77 143.298 231.785 141.5C221.935 136.358 207.249 138.854 198.095 144.757C197.109 145.393 196.319 144.641 196.805 147C203.069 146.524 210.154 147.651 216.305 147Z" fill="white"/>
<path d="M138.819 237.995C139.803 238.705 142.755 237.319 143.314 236.034C144.832 232.548 133.264 217.012 129.322 218.001C124.188 219.289 134.786 228.323 135.644 229.661C136.946 231.693 138.457 237.734 138.819 237.995Z" fill="white"/>
<path d="M260.81 141.995C261.931 143.106 279.438 138.55 278.8 135.515C278.05 131.946 266.692 136.207 264.534 137.229C263.231 137.846 258.756 139.958 260.811 141.995H260.81Z" fill="white"/>
<path d="M264.803 150.01C263.704 151.321 265.176 154.185 268.049 153.831C269.218 153.687 281.233 150.434 281.686 149.887C282.184 149.286 281.623 147.083 281.804 146.004C281.131 145.306 265.366 149.336 264.802 150.009L264.803 150.01Z" fill="white"/>
<path d="M108.049 176.747C115.179 184.355 112.437 161.919 107.32 163.005C104.361 164.517 106.766 175.378 108.049 176.747Z" fill="white"/>
<path d="M260.849 126.052C260.056 127.275 261.083 129.995 263.1 129.853C264.116 129.781 273.027 126.458 274.094 125.789C276.915 124.021 276.676 121.12 273.069 121.734C271.694 121.968 261.202 125.508 260.849 126.052Z" fill="white"/>
<path d="M271.813 161.02C270.966 162.3 272.164 164.954 274.233 164.984C275.839 165.007 287.792 160.629 287.785 159.5C287.231 155.542 272.288 160.301 271.813 161.02Z" fill="white"/>
<path d="M209.718 225.095C208.748 224.411 205.208 225.021 204.853 226.569C204.478 228.202 209.18 241.852 212.34 234.968C212.867 233.819 210.374 225.558 209.718 225.095Z" fill="white"/>
<path d="M259.29 232.005C256.724 231.456 253.741 243.324 256.321 243.998C261.403 245.326 263.927 232.997 259.29 232.005Z" fill="white"/>
<path d="M215.926 208.861C217.469 209.8 220.801 208.932 220.813 206.551C220.823 204.687 217.249 197.148 214.317 198.007C211.084 198.954 215.427 208.558 215.925 208.861H215.926Z" fill="white"/>
<path d="M165.946 197.141C164.389 198.115 165.114 209.668 168.29 208.995C172.825 206.821 171.404 193.727 165.946 197.141Z" fill="white"/>
<path d="M250.899 191.109C249.994 192.247 249.542 206.301 255.801 203.004C255.768 198.633 256.565 193.433 253.311 190.019C252.86 190.954 251.126 190.825 250.9 191.11L250.899 191.109Z" fill="white"/>
<path d="M216.81 178.005C216.19 178.586 219.912 191.988 224.8 188.995C226.145 185.57 220.354 174.685 216.81 178.005Z" fill="white"/>
<path d="M277.902 197.884C278.035 198.097 280.276 198.784 280.825 198.545C283.868 197.221 283.854 187.653 280.29 186.005C276.65 185.445 277.522 197.279 277.902 197.884Z" fill="white"/>
<path d="M191.818 230.998C197.299 234.626 195.919 219.882 193.296 219.009C187.217 217.057 191.213 230.598 191.818 230.998Z" fill="white"/>
<path d="M224.151 233.14C217.862 231.475 223.566 245.114 227.293 243.994C230.987 242.884 226.793 233.84 224.151 233.14Z" fill="white"/>
<path d="M143.266 205.037C137.309 203.097 140.177 217.444 145.286 215.998C148.439 215.105 144.642 205.486 143.266 205.037Z" fill="white"/>
<path d="M226.86 226.959C232.842 230.937 231.048 214.266 225.317 216.007C221.87 217.054 226.365 226.63 226.86 226.959Z" fill="white"/>
<path d="M151.27 193.033C145.552 191.169 147.423 205.533 152.295 203.991C155.242 203.059 153.443 193.741 151.27 193.033Z" fill="white"/>
<path d="M267.79 202.996C269.169 202.126 269.839 190.575 265.294 191.265C261.084 191.905 263.491 205.707 267.79 202.996Z" fill="white"/>
<path d="M139.815 178.003C139.019 178.514 139.568 188.677 140.749 189.555C146.893 194.118 145.348 174.453 139.815 178.003Z" fill="white"/>
<path d="M120.167 200.081C118.957 199.882 116.874 201.701 117.203 203.052C117.671 204.973 122.968 210.581 125.288 209.999C129.66 208.902 121.693 200.332 120.167 200.081Z" fill="white"/>
<path d="M112.889 182.108C111.82 183.546 114.385 193.998 118.796 191.998C121.096 188.953 116.607 177.11 112.889 182.108Z" fill="white"/>
<path d="M181.81 234.005C180.708 235.502 184.424 243.558 184.92 243.866C186.645 244.937 190.172 244.059 189.371 240.959C188.57 237.859 185.739 232.665 181.809 234.005H181.81Z" fill="white"/>
<path d="M248.799 238.995C245.113 235.395 241.066 248.641 245.314 249.991C250.26 251.563 249.665 239.841 248.799 238.995Z" fill="white"/>
<path d="M197.162 252.083C191.084 251.082 196.143 263.235 200.292 261.993C204.154 260.838 199.796 252.517 197.162 252.083Z" fill="white"/>
<path d="M117.819 172.997C122.889 176.281 122.711 163.146 119.262 162.042C113.644 160.242 117.262 172.636 117.819 172.997Z" fill="white"/>
<path d="M206.893 211.102C205.54 212.953 209.27 219.677 211.305 220.981C216.358 218.162 212.342 207.589 206.893 211.102Z" fill="white"/>
<path d="M156.8 244.995C159.051 240.628 147.781 234.003 146.809 238.517C146.316 240.807 153.981 246.412 156.8 244.995Z" fill="white"/>
<path d="M184.29 189.005C180.068 188.132 181.71 201.428 186.295 199.99C189.459 198.998 186.563 189.475 184.29 189.005Z" fill="white"/>
<path d="M130.292 186.003C126.051 185.044 127.434 198.505 132.294 196.991C135.743 195.599 131.845 186.355 130.292 186.003Z" fill="white"/>
<path d="M154.198 222.1C147.715 220.06 152.854 232.535 156.183 231.942C161.187 231.05 156.128 222.707 154.198 222.1Z" fill="white"/>
<path d="M258.805 214C258.13 214.205 256.728 213.595 255.978 214.141C253.898 215.657 253.931 224.964 259.257 224.031C262.553 220.062 259.965 217.458 258.805 214C259.851 213.682 261.291 214.557 261.351 212.027C261.423 209.001 256.477 207.062 258.805 214Z" fill="white"/>
<path d="M215.056 256.733C216.908 258.665 219.828 257.003 219.64 254.68C219.545 253.507 216.101 246.626 214.343 247.017C210.281 247.921 213.362 254.966 215.056 256.733Z" fill="white"/>
<path d="M171.81 166.005C170.863 166.913 173.645 174.275 174.544 175.74C176.25 178.523 178.955 176.985 178.404 173.969C177.785 170.577 176.141 164.22 171.81 166.004V166.005Z" fill="white"/>
<path d="M168.157 245.129C166.854 244.768 166.11 244.866 165.269 245.964C163.027 248.874 168.54 254.727 171.287 253.999C174.997 253.016 170.199 245.694 168.157 245.129Z" fill="white"/>
<path d="M244.79 235.996C245.478 235.56 247.582 224.705 243.32 225.005C238.88 226.868 240.3 238.84 244.79 235.996Z" fill="white"/>
<path d="M169.826 224.036C168.819 225.402 172.924 234.241 176.288 232.998C179.637 232.155 174.43 223.412 173.182 223.131C172.819 223.049 169.929 223.896 169.826 224.036Z" fill="white"/>
<path d="M182.163 249.084C175.969 248.102 182.072 259.652 185.288 258.996C189.068 258.226 184.988 249.532 182.163 249.084Z" fill="white"/>
<path d="M233.788 246.008C228.88 242.589 227.845 255.212 232.42 255.946C237.37 256.741 234.829 246.732 233.788 246.008Z" fill="white"/>
<path d="M271.288 220.002C266.809 218.842 264.324 229.095 267.315 229.991C271.107 231.127 273.989 220.702 271.288 220.002Z" fill="white"/>
<path d="M199.802 187.01C199.427 187.462 203.23 197.447 206.292 195.993C210.712 194.715 203.544 182.495 199.802 187.01Z" fill="white"/>
<path d="M112.21 147.089C110.94 146.704 110.08 146.927 109.268 147.981C108.048 149.705 110.908 157.507 113.27 156.983C117.399 156.066 114.415 147.758 112.21 147.089Z" fill="white"/>
<path d="M276.296 206.009C272.059 204.665 270.554 215.252 274.431 215.936C278.2 216.601 279.189 206.926 276.296 206.009Z" fill="white"/>
<path d="M161.02 180.759C165.278 186.254 166.159 172.294 162.26 171.043C156.996 169.353 159.706 179.063 161.02 180.759Z" fill="white"/>
<path d="M251.81 155.996C251.486 158.581 251.98 167.285 256.294 165.99C258.941 165.196 256.095 156.448 255.694 156.116C255.094 155.619 252.89 156.184 251.81 155.996Z" fill="white"/>
<path d="M156.81 211.005C155.648 217.157 167.491 224.066 164.012 215.294C162.522 211.536 160.977 210.199 156.81 211.005Z" fill="white"/>
<path d="M253.21 174.089C247.312 172.255 250.523 184.333 255.289 182.998C258.558 182.082 254.98 174.639 253.21 174.089Z" fill="white"/>
<path d="M170.859 193.948C171.576 194.553 175.242 194.117 175.726 192.376C176.036 191.26 174.527 185.373 173.297 185.008C168.122 183.474 170.109 193.315 170.859 193.948Z" fill="white"/>
<path d="M197.81 239C197.529 241.499 198.263 249.245 202.294 247.991C205.694 246.934 202.664 236.525 197.81 239Z" fill="white"/>
<path d="M240.186 208.062C235.2 207.057 237.834 218.334 242.292 216.994C245.644 215.986 242.679 208.565 240.186 208.062Z" fill="white"/>
<path d="M130.292 167.003C126.087 166.048 127.618 177.791 131.264 176.983C135.369 176.073 132.653 168.93 130.292 167.003Z" fill="white"/>
<path d="M170.133 235.155C163.499 233.374 168.753 244.136 173.288 242.999C176.784 242.122 172.368 235.755 170.133 235.155Z" fill="white"/>
<path d="M175.81 207.997L176.741 216.413C180.163 221.107 184.846 205.934 175.81 207.997Z" fill="white"/>
<path d="M194.81 202.005C194.419 202.386 195.564 212.568 199.295 210.991C203.593 209.175 198.17 198.723 194.81 202.005Z" fill="white"/>
<path d="M237.205 185.093C231.366 183.345 235.07 195.13 239.292 193.993C242.207 193.208 238.925 185.607 237.205 185.093Z" fill="white"/>
<path d="M230.293 198.002C226.162 197.02 227.399 208.403 232.292 206.993C235.729 206.003 231.556 198.302 230.293 198.002Z" fill="white"/>
<path d="M267.794 181.997C269.188 181.04 267.656 172.023 263.317 173.007C260.415 173.665 264.267 184.418 267.794 181.997Z" fill="white"/>
<path d="M154.81 187.005L155.855 194.952C166.155 196.442 157.331 184.327 154.81 187.005Z" fill="white"/>
<path d="M145.82 180.995C149.791 183.637 151.31 174.992 147.293 173.002C143.426 172.583 145.083 180.504 145.82 180.995Z" fill="white"/>
<path d="M188.81 181.005C188.306 184.218 190.534 186.592 192.795 183.485L192.801 182.011L188.81 181.005Z" fill="white"/>
<path d="M80.8098 121.005C77.9838 123.761 87.3928 126.538 87.7558 128.609C88.3048 131.739 75.9808 134.351 82.8358 137.532C86.6958 139.324 88.5408 134.703 90.8708 133.534C91.8698 133.033 95.4098 133.571 95.7978 132.994C98.6558 128.756 83.7678 118.12 80.8098 121.005Z" fill="black"/>
<path d="M421.808 64.0071C424.864 75.8741 427.772 87.9261 431.788 99.5171C433.43 104.259 436.702 114.461 439.019 118.285C441.293 122.039 445.714 115.968 447.633 113.328C462.751 92.5221 448.23 62.4501 421.809 64.0071H421.808Z" fill="white"/>
<path d="M398.552 49.2599C398.083 48.7889 396.783 48.2069 396.156 48.2179C392.775 48.2799 364.151 73.9979 357.919 76.6549C357.069 79.1309 358.765 81.5009 361.3 81.5899C365.232 81.7289 384.227 67.3489 388.278 63.9719C391.46 61.3189 402.763 53.4899 398.553 49.2589L398.552 49.2599Z" fill="white"/>
<path d="M347.196 84.049C345.37 83.522 335.548 88.683 334.954 90.688C331.514 102.291 356.729 86.803 347.196 84.049Z" fill="white"/>
</g>
<defs>
<clipPath id="clip0_59_925">
<rect width="553" height="688" fill="white"/>
</clipPath>
</defs>
</svg>
